%TF.GenerationSoftware,KiCad,Pcbnew,7.0.6-0*%
%TF.CreationDate,2024-01-09T11:34:52-06:00*%
%TF.ProjectId,ESP32_DevKit,45535033-325f-4446-9576-4b69742e6b69,rev?*%
%TF.SameCoordinates,Original*%
%TF.FileFunction,Legend,Bot*%
%TF.FilePolarity,Positive*%
%FSLAX46Y46*%
G04 Gerber Fmt 4.6, Leading zero omitted, Abs format (unit mm)*
G04 Created by KiCad (PCBNEW 7.0.6-0) date 2024-01-09 11:34:52*
%MOMM*%
%LPD*%
G01*
G04 APERTURE LIST*
%ADD10C,0.150000*%
%ADD11C,0.000000*%
%ADD12C,0.120000*%
%ADD13C,0.127000*%
%ADD14C,0.300000*%
G04 APERTURE END LIST*
D10*
X192305237Y-49199819D02*
X192305237Y-48199819D01*
X192305237Y-48199819D02*
X192067142Y-48199819D01*
X192067142Y-48199819D02*
X191924285Y-48247438D01*
X191924285Y-48247438D02*
X191829047Y-48342676D01*
X191829047Y-48342676D02*
X191781428Y-48437914D01*
X191781428Y-48437914D02*
X191733809Y-48628390D01*
X191733809Y-48628390D02*
X191733809Y-48771247D01*
X191733809Y-48771247D02*
X191781428Y-48961723D01*
X191781428Y-48961723D02*
X191829047Y-49056961D01*
X191829047Y-49056961D02*
X191924285Y-49152200D01*
X191924285Y-49152200D02*
X192067142Y-49199819D01*
X192067142Y-49199819D02*
X192305237Y-49199819D01*
X189733808Y-49199819D02*
X189781428Y-49199819D01*
X189781428Y-49199819D02*
X189876666Y-49152200D01*
X189876666Y-49152200D02*
X190019523Y-49009342D01*
X190019523Y-49009342D02*
X190257618Y-48723628D01*
X190257618Y-48723628D02*
X190352856Y-48580771D01*
X190352856Y-48580771D02*
X190400475Y-48437914D01*
X190400475Y-48437914D02*
X190400475Y-48342676D01*
X190400475Y-48342676D02*
X190352856Y-48247438D01*
X190352856Y-48247438D02*
X190257618Y-48199819D01*
X190257618Y-48199819D02*
X190209999Y-48199819D01*
X190209999Y-48199819D02*
X190114761Y-48247438D01*
X190114761Y-48247438D02*
X190067142Y-48342676D01*
X190067142Y-48342676D02*
X190067142Y-48390295D01*
X190067142Y-48390295D02*
X190114761Y-48485533D01*
X190114761Y-48485533D02*
X190162380Y-48533152D01*
X190162380Y-48533152D02*
X190448094Y-48723628D01*
X190448094Y-48723628D02*
X190495713Y-48771247D01*
X190495713Y-48771247D02*
X190543332Y-48866485D01*
X190543332Y-48866485D02*
X190543332Y-49009342D01*
X190543332Y-49009342D02*
X190495713Y-49104580D01*
X190495713Y-49104580D02*
X190448094Y-49152200D01*
X190448094Y-49152200D02*
X190352856Y-49199819D01*
X190352856Y-49199819D02*
X190209999Y-49199819D01*
X190209999Y-49199819D02*
X190114761Y-49152200D01*
X190114761Y-49152200D02*
X190067142Y-49104580D01*
X190067142Y-49104580D02*
X189924285Y-48914104D01*
X189924285Y-48914104D02*
X189876666Y-48771247D01*
X189876666Y-48771247D02*
X189876666Y-48676009D01*
X188543332Y-48676009D02*
X188209999Y-48676009D01*
X188067142Y-49199819D02*
X188543332Y-49199819D01*
X188543332Y-49199819D02*
X188543332Y-48199819D01*
X188543332Y-48199819D02*
X188067142Y-48199819D01*
X193614761Y-50286009D02*
X193281428Y-50286009D01*
X193138571Y-50809819D02*
X193614761Y-50809819D01*
X193614761Y-50809819D02*
X193614761Y-49809819D01*
X193614761Y-49809819D02*
X193138571Y-49809819D01*
X192709999Y-50809819D02*
X192709999Y-49809819D01*
X192709999Y-49809819D02*
X192138571Y-50809819D01*
X192138571Y-50809819D02*
X192138571Y-49809819D01*
X190376666Y-49857438D02*
X190471904Y-49809819D01*
X190471904Y-49809819D02*
X190614761Y-49809819D01*
X190614761Y-49809819D02*
X190757618Y-49857438D01*
X190757618Y-49857438D02*
X190852856Y-49952676D01*
X190852856Y-49952676D02*
X190900475Y-50047914D01*
X190900475Y-50047914D02*
X190948094Y-50238390D01*
X190948094Y-50238390D02*
X190948094Y-50381247D01*
X190948094Y-50381247D02*
X190900475Y-50571723D01*
X190900475Y-50571723D02*
X190852856Y-50666961D01*
X190852856Y-50666961D02*
X190757618Y-50762200D01*
X190757618Y-50762200D02*
X190614761Y-50809819D01*
X190614761Y-50809819D02*
X190519523Y-50809819D01*
X190519523Y-50809819D02*
X190376666Y-50762200D01*
X190376666Y-50762200D02*
X190329047Y-50714580D01*
X190329047Y-50714580D02*
X190329047Y-50381247D01*
X190329047Y-50381247D02*
X190519523Y-50381247D01*
X189900475Y-49809819D02*
X189900475Y-50619342D01*
X189900475Y-50619342D02*
X189852856Y-50714580D01*
X189852856Y-50714580D02*
X189805237Y-50762200D01*
X189805237Y-50762200D02*
X189709999Y-50809819D01*
X189709999Y-50809819D02*
X189519523Y-50809819D01*
X189519523Y-50809819D02*
X189424285Y-50762200D01*
X189424285Y-50762200D02*
X189376666Y-50714580D01*
X189376666Y-50714580D02*
X189329047Y-50619342D01*
X189329047Y-50619342D02*
X189329047Y-49809819D01*
X188900475Y-50524104D02*
X188424285Y-50524104D01*
X188995713Y-50809819D02*
X188662380Y-49809819D01*
X188662380Y-49809819D02*
X188329047Y-50809819D01*
X188138570Y-49809819D02*
X187567142Y-49809819D01*
X187852856Y-50809819D02*
X187852856Y-49809819D01*
X187233808Y-50286009D02*
X186900475Y-50286009D01*
X186757618Y-50809819D02*
X187233808Y-50809819D01*
X187233808Y-50809819D02*
X187233808Y-49809819D01*
X187233808Y-49809819D02*
X186757618Y-49809819D01*
D11*
G36*
X186196772Y-78333938D02*
G01*
X186192997Y-78334925D01*
X186188648Y-78335881D01*
X186183773Y-78336775D01*
X186178416Y-78337576D01*
X186172626Y-78338253D01*
X186166448Y-78338775D01*
X186159929Y-78339111D01*
X186153116Y-78339230D01*
X186123019Y-78341214D01*
X186090938Y-78343199D01*
X186074299Y-78344170D01*
X186058031Y-78345018D01*
X186042012Y-78345617D01*
X186034056Y-78345785D01*
X186026116Y-78345845D01*
X185974522Y-78345845D01*
X185959313Y-78345659D01*
X185944444Y-78345103D01*
X185929911Y-78344179D01*
X185915714Y-78342889D01*
X185901850Y-78341234D01*
X185888318Y-78339217D01*
X185875115Y-78336840D01*
X185862239Y-78334104D01*
X185849689Y-78331011D01*
X185837463Y-78327564D01*
X185825559Y-78323764D01*
X185813974Y-78319614D01*
X185802707Y-78315114D01*
X185791755Y-78310268D01*
X185781118Y-78305077D01*
X185770793Y-78299543D01*
X185760747Y-78293481D01*
X185750949Y-78287200D01*
X185741399Y-78280698D01*
X185732098Y-78273973D01*
X185723044Y-78267024D01*
X185714238Y-78259848D01*
X185705681Y-78252443D01*
X185697371Y-78244807D01*
X185689310Y-78236939D01*
X185681496Y-78228836D01*
X185673931Y-78220497D01*
X185666613Y-78211920D01*
X185659544Y-78203102D01*
X185652723Y-78194043D01*
X185646150Y-78184739D01*
X185639825Y-78175188D01*
X185633747Y-78165421D01*
X185627913Y-78155466D01*
X185622320Y-78145321D01*
X185616963Y-78134984D01*
X185611838Y-78124454D01*
X185606942Y-78113727D01*
X185602272Y-78102803D01*
X185597822Y-78091680D01*
X185593589Y-78080354D01*
X185589569Y-78068826D01*
X185585758Y-78057091D01*
X185582153Y-78045150D01*
X185575544Y-78020637D01*
X185569709Y-77995272D01*
X185564622Y-77969351D01*
X185560263Y-77943182D01*
X185556617Y-77916765D01*
X185553669Y-77890100D01*
X185551403Y-77863187D01*
X185549804Y-77836026D01*
X185548855Y-77808617D01*
X185548543Y-77780959D01*
X185548597Y-77775667D01*
X185666281Y-77775667D01*
X185666527Y-77798800D01*
X185667253Y-77821577D01*
X185668444Y-77844012D01*
X185670085Y-77866122D01*
X185672160Y-77887922D01*
X185674653Y-77909427D01*
X185677550Y-77930653D01*
X185680833Y-77951615D01*
X185682647Y-77961941D01*
X185684616Y-77972084D01*
X185686740Y-77982049D01*
X185689019Y-77991840D01*
X185691453Y-78001460D01*
X185694042Y-78010914D01*
X185696786Y-78020205D01*
X185699685Y-78029337D01*
X185702739Y-78038313D01*
X185705948Y-78047139D01*
X185709312Y-78055817D01*
X185712831Y-78064352D01*
X185716505Y-78072748D01*
X185720335Y-78081008D01*
X185724319Y-78089136D01*
X185728458Y-78097136D01*
X185732768Y-78104965D01*
X185737264Y-78112579D01*
X185741946Y-78119981D01*
X185746814Y-78127170D01*
X185751868Y-78134151D01*
X185757108Y-78140924D01*
X185762534Y-78147492D01*
X185768146Y-78153856D01*
X185773944Y-78160019D01*
X185779929Y-78165982D01*
X185786099Y-78171747D01*
X185792455Y-78177317D01*
X185798997Y-78182693D01*
X185805725Y-78187877D01*
X185812640Y-78192871D01*
X185819740Y-78197677D01*
X185827042Y-78202236D01*
X185834561Y-78206486D01*
X185842297Y-78210429D01*
X185850250Y-78214069D01*
X185858420Y-78217406D01*
X185866807Y-78220443D01*
X185875411Y-78223182D01*
X185884232Y-78225624D01*
X185893270Y-78227771D01*
X185902526Y-78229626D01*
X185911998Y-78231191D01*
X185921687Y-78232466D01*
X185931594Y-78233455D01*
X185941717Y-78234158D01*
X185952057Y-78234579D01*
X185962615Y-78234719D01*
X185986428Y-78234719D01*
X185990456Y-78234283D01*
X185994593Y-78233954D01*
X185998823Y-78233719D01*
X186003130Y-78233562D01*
X186011915Y-78233417D01*
X186020824Y-78233396D01*
X186055220Y-78232074D01*
X186063199Y-78231102D01*
X186070433Y-78230254D01*
X186077709Y-78229428D01*
X186077709Y-77345719D01*
X186076453Y-77345689D01*
X186075166Y-77345606D01*
X186073849Y-77345475D01*
X186072500Y-77345306D01*
X186069709Y-77344882D01*
X186066795Y-77344396D01*
X186063756Y-77343910D01*
X186060594Y-77343487D01*
X186058966Y-77343317D01*
X186057307Y-77343187D01*
X186055617Y-77343103D01*
X186053897Y-77343073D01*
X186052145Y-77343044D01*
X186050362Y-77342960D01*
X186046703Y-77342660D01*
X186042921Y-77342236D01*
X186039014Y-77341750D01*
X186034983Y-77341265D01*
X186030828Y-77340841D01*
X186026550Y-77340541D01*
X186024364Y-77340457D01*
X186022147Y-77340428D01*
X186018118Y-77339991D01*
X186013982Y-77339663D01*
X186009752Y-77339428D01*
X186005444Y-77339270D01*
X185996659Y-77339126D01*
X185987751Y-77339105D01*
X185954678Y-77339105D01*
X185950708Y-77336459D01*
X185940151Y-77336613D01*
X185929813Y-77337076D01*
X185919696Y-77337845D01*
X185909801Y-77338918D01*
X185900132Y-77340294D01*
X185890689Y-77341970D01*
X185881475Y-77343944D01*
X185872491Y-77346215D01*
X185863740Y-77348781D01*
X185855223Y-77351639D01*
X185846943Y-77354787D01*
X185838901Y-77358225D01*
X185831100Y-77361949D01*
X185823540Y-77365958D01*
X185816225Y-77370250D01*
X185809156Y-77374823D01*
X185802304Y-77379629D01*
X185795637Y-77384621D01*
X185789157Y-77389799D01*
X185782863Y-77395163D01*
X185776755Y-77400713D01*
X185770832Y-77406449D01*
X185765096Y-77412371D01*
X185759546Y-77418479D01*
X185754182Y-77424774D01*
X185749004Y-77431254D01*
X185744013Y-77437920D01*
X185739207Y-77444772D01*
X185734587Y-77451811D01*
X185730153Y-77459035D01*
X185725905Y-77466445D01*
X185721843Y-77474042D01*
X185714216Y-77489671D01*
X185707209Y-77505813D01*
X185700821Y-77522481D01*
X185695054Y-77539692D01*
X185689907Y-77557461D01*
X185685380Y-77575803D01*
X185681474Y-77594735D01*
X185678187Y-77614271D01*
X185675397Y-77634174D01*
X185672978Y-77654186D01*
X185670932Y-77674291D01*
X185669258Y-77694473D01*
X185667956Y-77714717D01*
X185667025Y-77735008D01*
X185666467Y-77755330D01*
X185666281Y-77775667D01*
X185548597Y-77775667D01*
X185548855Y-77750514D01*
X185549804Y-77720705D01*
X185551403Y-77691546D01*
X185553669Y-77663054D01*
X185556617Y-77635245D01*
X185560263Y-77608133D01*
X185564622Y-77581734D01*
X185569709Y-77556064D01*
X185572547Y-77543522D01*
X185575601Y-77531199D01*
X185578872Y-77519098D01*
X185582360Y-77507219D01*
X185586065Y-77495565D01*
X185589988Y-77484138D01*
X185594127Y-77472939D01*
X185598483Y-77461971D01*
X185603057Y-77451235D01*
X185607847Y-77440735D01*
X185612855Y-77430470D01*
X185618079Y-77420444D01*
X185623521Y-77410658D01*
X185629179Y-77401114D01*
X185635055Y-77391815D01*
X185641147Y-77382761D01*
X185647457Y-77373956D01*
X185653986Y-77365398D01*
X185660736Y-77357088D01*
X185667709Y-77349027D01*
X185674907Y-77341213D01*
X185682331Y-77333648D01*
X185689984Y-77326331D01*
X185697868Y-77319261D01*
X185705984Y-77312440D01*
X185714334Y-77305867D01*
X185722921Y-77299542D01*
X185731747Y-77293464D01*
X185740812Y-77287635D01*
X185750120Y-77282054D01*
X185759673Y-77276721D01*
X185769471Y-77271636D01*
X185779299Y-77267063D01*
X185789433Y-77262771D01*
X185799870Y-77258762D01*
X185810605Y-77255038D01*
X185821634Y-77251600D01*
X185832955Y-77248452D01*
X185844562Y-77245594D01*
X185856452Y-77243028D01*
X185868621Y-77240757D01*
X185881065Y-77238783D01*
X185893781Y-77237107D01*
X185906764Y-77235731D01*
X185920011Y-77234658D01*
X185933517Y-77233889D01*
X185947279Y-77233426D01*
X185961293Y-77233271D01*
X186018179Y-77233271D01*
X186025623Y-77233708D01*
X186033082Y-77234036D01*
X186048110Y-77234429D01*
X186063385Y-77234574D01*
X186079033Y-77234594D01*
X186086531Y-77234654D01*
X186094122Y-77234822D01*
X186109460Y-77235421D01*
X186124797Y-77236269D01*
X186139887Y-77237240D01*
X186147646Y-77237796D01*
X186155079Y-77238460D01*
X186162234Y-77239217D01*
X186169156Y-77240051D01*
X186182488Y-77241891D01*
X186195449Y-77243855D01*
X186196772Y-77246501D01*
X186196772Y-78229428D01*
X186196772Y-78333938D01*
G37*
G36*
X187206157Y-78329969D02*
G01*
X187091063Y-78329969D01*
X187005073Y-78025699D01*
X186700802Y-78025699D01*
X186612167Y-78329969D01*
X186489135Y-78329969D01*
X186609026Y-77925157D01*
X186727261Y-77925157D01*
X186974646Y-77925157D01*
X186974646Y-77925156D01*
X186883365Y-77590459D01*
X186852937Y-77423771D01*
X186850292Y-77423771D01*
X186821188Y-77587813D01*
X186727261Y-77925157D01*
X186609026Y-77925157D01*
X186815896Y-77226657D01*
X186879396Y-77226657D01*
X187086267Y-77925157D01*
X187206157Y-78329969D01*
G37*
G36*
X188091188Y-78333938D02*
G01*
X188087413Y-78334925D01*
X188083065Y-78335881D01*
X188078189Y-78336775D01*
X188072833Y-78337576D01*
X188067043Y-78338253D01*
X188060865Y-78338775D01*
X188054345Y-78339111D01*
X188047532Y-78339230D01*
X188017435Y-78341214D01*
X187985355Y-78343199D01*
X187968715Y-78344170D01*
X187952448Y-78345018D01*
X187936428Y-78345617D01*
X187928472Y-78345785D01*
X187920532Y-78345845D01*
X187868938Y-78345845D01*
X187853729Y-78345659D01*
X187838860Y-78345103D01*
X187824328Y-78344179D01*
X187810131Y-78342889D01*
X187796267Y-78341234D01*
X187782734Y-78339217D01*
X187769532Y-78336840D01*
X187756656Y-78334104D01*
X187744106Y-78331011D01*
X187731880Y-78327564D01*
X187719975Y-78323764D01*
X187708390Y-78319614D01*
X187697123Y-78315114D01*
X187686172Y-78310268D01*
X187675535Y-78305077D01*
X187665209Y-78299543D01*
X187655164Y-78293481D01*
X187645366Y-78287200D01*
X187635816Y-78280698D01*
X187626514Y-78273973D01*
X187617461Y-78267024D01*
X187608655Y-78259848D01*
X187600097Y-78252443D01*
X187591788Y-78244807D01*
X187583726Y-78236939D01*
X187575913Y-78228836D01*
X187568347Y-78220497D01*
X187561030Y-78211920D01*
X187553960Y-78203102D01*
X187547139Y-78194043D01*
X187540566Y-78184739D01*
X187534240Y-78175188D01*
X187528163Y-78165421D01*
X187522329Y-78155466D01*
X187516736Y-78145321D01*
X187511379Y-78134984D01*
X187506255Y-78124454D01*
X187501359Y-78113727D01*
X187496688Y-78102803D01*
X187492238Y-78091680D01*
X187488005Y-78080354D01*
X187483986Y-78068826D01*
X187480175Y-78057091D01*
X187476570Y-78045150D01*
X187469961Y-78020637D01*
X187464126Y-77995272D01*
X187459039Y-77969351D01*
X187454680Y-77943182D01*
X187451034Y-77916765D01*
X187448086Y-77890100D01*
X187445820Y-77863187D01*
X187444220Y-77836026D01*
X187443272Y-77808617D01*
X187442959Y-77780959D01*
X187443013Y-77775667D01*
X187560697Y-77775667D01*
X187560943Y-77798800D01*
X187561669Y-77821577D01*
X187562860Y-77844012D01*
X187564501Y-77866122D01*
X187566576Y-77887922D01*
X187569069Y-77909427D01*
X187571965Y-77930653D01*
X187575249Y-77951615D01*
X187577063Y-77961941D01*
X187579032Y-77972084D01*
X187581156Y-77982049D01*
X187583435Y-77991840D01*
X187585869Y-78001460D01*
X187588458Y-78010914D01*
X187591202Y-78020205D01*
X187594101Y-78029337D01*
X187597156Y-78038313D01*
X187600365Y-78047139D01*
X187603729Y-78055817D01*
X187607248Y-78064352D01*
X187610922Y-78072748D01*
X187614751Y-78081008D01*
X187618736Y-78089136D01*
X187622875Y-78097136D01*
X187627185Y-78104965D01*
X187631681Y-78112579D01*
X187636363Y-78119981D01*
X187641231Y-78127170D01*
X187646285Y-78134151D01*
X187651525Y-78140924D01*
X187656951Y-78147492D01*
X187662563Y-78153856D01*
X187668361Y-78160019D01*
X187674345Y-78165982D01*
X187680515Y-78171747D01*
X187686871Y-78177317D01*
X187693414Y-78182693D01*
X187700142Y-78187877D01*
X187707056Y-78192871D01*
X187714157Y-78197677D01*
X187721459Y-78202236D01*
X187728978Y-78206486D01*
X187736713Y-78210429D01*
X187744666Y-78214069D01*
X187752836Y-78217406D01*
X187761223Y-78220443D01*
X187769828Y-78223182D01*
X187778649Y-78225624D01*
X187787687Y-78227771D01*
X187796942Y-78229626D01*
X187806414Y-78231191D01*
X187816104Y-78232466D01*
X187826010Y-78233455D01*
X187836133Y-78234158D01*
X187846474Y-78234579D01*
X187857032Y-78234719D01*
X187880844Y-78234719D01*
X187884872Y-78234283D01*
X187889009Y-78233954D01*
X187893239Y-78233719D01*
X187897546Y-78233562D01*
X187906331Y-78233417D01*
X187915240Y-78233396D01*
X187919703Y-78232960D01*
X187924150Y-78232632D01*
X187928566Y-78232397D01*
X187932935Y-78232239D01*
X187937242Y-78232143D01*
X187941472Y-78232094D01*
X187949636Y-78232074D01*
X187957615Y-78231102D01*
X187964850Y-78230254D01*
X187972126Y-78229428D01*
X187972126Y-77345719D01*
X187970870Y-77345689D01*
X187969583Y-77345606D01*
X187968265Y-77345475D01*
X187966917Y-77345306D01*
X187964126Y-77344882D01*
X187961212Y-77344396D01*
X187958173Y-77343910D01*
X187955011Y-77343487D01*
X187953383Y-77343317D01*
X187951724Y-77343187D01*
X187950034Y-77343103D01*
X187948313Y-77343073D01*
X187946562Y-77343044D01*
X187944779Y-77342960D01*
X187941120Y-77342660D01*
X187937337Y-77342236D01*
X187933431Y-77341750D01*
X187929400Y-77341265D01*
X187925245Y-77340841D01*
X187920966Y-77340541D01*
X187918780Y-77340457D01*
X187916564Y-77340428D01*
X187912535Y-77339991D01*
X187908398Y-77339663D01*
X187904169Y-77339428D01*
X187899861Y-77339270D01*
X187891076Y-77339126D01*
X187882167Y-77339105D01*
X187849094Y-77339105D01*
X187845125Y-77336459D01*
X187834568Y-77336613D01*
X187824229Y-77337076D01*
X187814112Y-77337845D01*
X187804218Y-77338918D01*
X187794548Y-77340294D01*
X187785105Y-77341970D01*
X187775891Y-77343944D01*
X187766907Y-77346215D01*
X187758156Y-77348781D01*
X187749640Y-77351639D01*
X187741360Y-77354787D01*
X187733318Y-77358225D01*
X187725516Y-77361949D01*
X187717957Y-77365958D01*
X187710642Y-77370250D01*
X187703573Y-77374823D01*
X187696720Y-77379629D01*
X187690054Y-77384621D01*
X187683574Y-77389799D01*
X187677280Y-77395163D01*
X187671171Y-77400713D01*
X187665249Y-77406449D01*
X187659513Y-77412371D01*
X187653963Y-77418479D01*
X187648599Y-77424774D01*
X187643421Y-77431254D01*
X187638429Y-77437920D01*
X187633623Y-77444772D01*
X187629004Y-77451811D01*
X187624570Y-77459035D01*
X187620322Y-77466445D01*
X187616260Y-77474042D01*
X187608632Y-77489671D01*
X187601625Y-77505813D01*
X187595237Y-77522481D01*
X187589470Y-77539692D01*
X187584323Y-77557461D01*
X187579797Y-77575803D01*
X187575890Y-77594735D01*
X187572604Y-77614271D01*
X187569813Y-77634174D01*
X187567395Y-77654186D01*
X187565348Y-77674291D01*
X187563674Y-77694473D01*
X187562372Y-77714717D01*
X187561441Y-77735008D01*
X187560883Y-77755330D01*
X187560697Y-77775667D01*
X187443013Y-77775667D01*
X187443272Y-77750514D01*
X187444220Y-77720705D01*
X187445820Y-77691546D01*
X187448086Y-77663054D01*
X187451034Y-77635245D01*
X187454680Y-77608133D01*
X187459039Y-77581734D01*
X187464126Y-77556064D01*
X187466963Y-77543522D01*
X187470017Y-77531199D01*
X187473289Y-77519098D01*
X187476777Y-77507219D01*
X187480482Y-77495565D01*
X187484404Y-77484138D01*
X187488543Y-77472939D01*
X187492900Y-77461971D01*
X187497473Y-77451235D01*
X187502263Y-77440735D01*
X187507271Y-77430470D01*
X187512495Y-77420444D01*
X187517937Y-77410658D01*
X187523596Y-77401114D01*
X187529471Y-77391815D01*
X187535564Y-77382761D01*
X187541874Y-77373956D01*
X187548403Y-77365398D01*
X187555153Y-77357088D01*
X187562126Y-77349027D01*
X187569323Y-77341213D01*
X187576747Y-77333648D01*
X187584400Y-77326331D01*
X187592284Y-77319261D01*
X187600400Y-77312440D01*
X187608751Y-77305867D01*
X187617338Y-77299542D01*
X187626163Y-77293464D01*
X187635229Y-77287635D01*
X187644537Y-77282054D01*
X187654089Y-77276721D01*
X187663887Y-77271636D01*
X187673715Y-77267063D01*
X187683849Y-77262771D01*
X187694286Y-77258762D01*
X187705021Y-77255038D01*
X187716051Y-77251600D01*
X187727371Y-77248452D01*
X187738978Y-77245594D01*
X187750869Y-77243028D01*
X187763038Y-77240757D01*
X187775482Y-77238783D01*
X187788198Y-77237107D01*
X187801181Y-77235731D01*
X187814427Y-77234658D01*
X187827934Y-77233889D01*
X187841696Y-77233426D01*
X187855710Y-77233271D01*
X187912594Y-77233271D01*
X187920039Y-77233708D01*
X187927498Y-77234036D01*
X187942526Y-77234429D01*
X187957801Y-77234574D01*
X187973449Y-77234594D01*
X187980947Y-77234654D01*
X187988539Y-77234822D01*
X188003876Y-77235421D01*
X188019214Y-77236269D01*
X188034303Y-77237240D01*
X188042062Y-77237796D01*
X188049496Y-77238460D01*
X188056650Y-77239217D01*
X188063572Y-77240051D01*
X188076905Y-77241891D01*
X188089865Y-77243855D01*
X188091188Y-77246501D01*
X188091188Y-78229428D01*
X188091188Y-78333938D01*
G37*
G36*
X188613741Y-78329969D02*
G01*
X188497324Y-78329969D01*
X188497324Y-77243855D01*
X188613741Y-77243855D01*
X188613741Y-78329969D01*
G37*
G36*
X189245676Y-77226890D02*
G01*
X189260787Y-77227592D01*
X189275549Y-77228767D01*
X189289958Y-77230419D01*
X189304011Y-77232551D01*
X189317704Y-77235168D01*
X189331032Y-77238273D01*
X189343991Y-77241870D01*
X189356579Y-77245964D01*
X189368791Y-77250557D01*
X189380623Y-77255655D01*
X189392071Y-77261259D01*
X189403132Y-77267376D01*
X189413801Y-77274008D01*
X189424075Y-77281159D01*
X189433950Y-77288834D01*
X189443329Y-77297020D01*
X189452117Y-77305706D01*
X189460312Y-77314896D01*
X189467912Y-77324594D01*
X189474915Y-77334803D01*
X189481319Y-77345528D01*
X189487123Y-77356772D01*
X189492324Y-77368540D01*
X189496920Y-77380834D01*
X189500909Y-77393659D01*
X189504291Y-77407020D01*
X189507061Y-77420919D01*
X189509220Y-77435360D01*
X189510764Y-77450349D01*
X189511692Y-77465887D01*
X189512002Y-77481980D01*
X189511893Y-77491824D01*
X189511562Y-77501511D01*
X189511008Y-77511039D01*
X189510224Y-77520406D01*
X189509208Y-77529611D01*
X189507955Y-77538651D01*
X189506463Y-77547524D01*
X189504726Y-77556228D01*
X189502741Y-77564762D01*
X189500504Y-77573124D01*
X189498011Y-77581311D01*
X189495258Y-77589322D01*
X189492242Y-77597155D01*
X189488959Y-77604807D01*
X189485404Y-77612277D01*
X189481574Y-77619563D01*
X189477543Y-77626710D01*
X189473391Y-77633761D01*
X189469119Y-77640716D01*
X189464728Y-77647572D01*
X189460221Y-77654327D01*
X189455599Y-77660979D01*
X189450866Y-77667527D01*
X189446021Y-77673968D01*
X189441068Y-77680301D01*
X189436009Y-77686523D01*
X189430845Y-77692633D01*
X189425578Y-77698628D01*
X189420210Y-77704507D01*
X189414744Y-77710268D01*
X189409181Y-77715909D01*
X189403522Y-77721428D01*
X189391551Y-77732275D01*
X189379441Y-77742967D01*
X189367175Y-77753472D01*
X189354739Y-77763761D01*
X189342117Y-77773802D01*
X189329294Y-77783564D01*
X189316253Y-77793015D01*
X189302980Y-77802126D01*
X189289653Y-77811115D01*
X189276480Y-77820213D01*
X189263494Y-77829403D01*
X189250725Y-77838671D01*
X189238204Y-77848002D01*
X189225962Y-77857378D01*
X189214030Y-77866786D01*
X189202439Y-77876209D01*
X189196563Y-77880953D01*
X189190838Y-77885759D01*
X189185260Y-77890627D01*
X189179826Y-77895557D01*
X189174531Y-77900549D01*
X189169372Y-77905603D01*
X189164344Y-77910719D01*
X189159445Y-77915897D01*
X189154669Y-77921137D01*
X189150014Y-77926439D01*
X189145475Y-77931803D01*
X189141048Y-77937229D01*
X189136730Y-77942717D01*
X189132516Y-77948267D01*
X189124387Y-77959553D01*
X189120776Y-77965320D01*
X189117383Y-77971209D01*
X189114211Y-77977218D01*
X189111261Y-77983345D01*
X189108537Y-77989588D01*
X189106039Y-77995946D01*
X189103770Y-78002416D01*
X189101732Y-78008997D01*
X189099926Y-78015686D01*
X189098355Y-78022482D01*
X189097020Y-78029382D01*
X189095923Y-78036386D01*
X189095067Y-78043489D01*
X189094453Y-78050692D01*
X189094083Y-78057992D01*
X189093959Y-78065386D01*
X189094176Y-78076610D01*
X189094825Y-78087460D01*
X189095904Y-78097934D01*
X189097412Y-78108030D01*
X189099345Y-78117746D01*
X189101703Y-78127080D01*
X189104484Y-78136031D01*
X189107685Y-78144596D01*
X189111305Y-78152773D01*
X189115341Y-78160561D01*
X189119792Y-78167958D01*
X189124656Y-78174961D01*
X189129930Y-78181569D01*
X189135614Y-78187779D01*
X189141704Y-78193591D01*
X189148200Y-78199001D01*
X189155254Y-78204054D01*
X189162530Y-78208796D01*
X189170030Y-78213224D01*
X189177759Y-78217335D01*
X189185720Y-78221129D01*
X189193918Y-78224604D01*
X189202356Y-78227756D01*
X189211038Y-78230585D01*
X189219968Y-78233089D01*
X189229151Y-78235264D01*
X189238589Y-78237111D01*
X189248286Y-78238626D01*
X189258248Y-78239808D01*
X189268476Y-78240654D01*
X189278976Y-78241164D01*
X189289752Y-78241334D01*
X189306430Y-78241083D01*
X189322721Y-78240321D01*
X189338609Y-78239032D01*
X189354078Y-78237200D01*
X189361651Y-78236075D01*
X189369114Y-78234810D01*
X189376464Y-78233401D01*
X189383699Y-78231846D01*
X189390819Y-78230144D01*
X189397820Y-78228293D01*
X189404701Y-78226291D01*
X189411460Y-78224136D01*
X189424482Y-78219612D01*
X189436760Y-78214979D01*
X189448294Y-78210253D01*
X189459084Y-78205450D01*
X189469130Y-78200584D01*
X189473874Y-78198133D01*
X189478432Y-78195672D01*
X189482804Y-78193204D01*
X189486990Y-78190730D01*
X189490989Y-78188251D01*
X189494803Y-78185771D01*
X189493483Y-78189739D01*
X189534493Y-78296896D01*
X189529935Y-78299594D01*
X189525191Y-78302234D01*
X189515146Y-78307355D01*
X189504356Y-78312290D01*
X189492821Y-78317070D01*
X189480543Y-78321726D01*
X189467521Y-78326289D01*
X189453754Y-78330790D01*
X189439243Y-78335260D01*
X189423425Y-78339418D01*
X189406707Y-78342971D01*
X189389060Y-78345934D01*
X189370451Y-78348324D01*
X189350850Y-78350156D01*
X189330226Y-78351446D01*
X189308548Y-78352208D01*
X189285784Y-78352458D01*
X189267692Y-78352149D01*
X189250125Y-78351221D01*
X189233081Y-78349677D01*
X189216559Y-78347518D01*
X189200556Y-78344747D01*
X189185070Y-78341366D01*
X189170099Y-78337376D01*
X189155643Y-78332780D01*
X189141697Y-78327579D01*
X189128262Y-78321776D01*
X189115334Y-78315371D01*
X189102912Y-78308368D01*
X189090994Y-78300768D01*
X189079577Y-78292573D01*
X189068661Y-78283785D01*
X189058242Y-78274406D01*
X189048398Y-78264500D01*
X189039202Y-78254128D01*
X189030654Y-78243292D01*
X189022751Y-78231990D01*
X189015491Y-78220224D01*
X189008873Y-78207992D01*
X189002894Y-78195295D01*
X188997553Y-78182133D01*
X188992848Y-78168506D01*
X188988776Y-78154414D01*
X188985336Y-78139857D01*
X188982526Y-78124834D01*
X188980344Y-78109347D01*
X188978787Y-78093394D01*
X188977855Y-78076977D01*
X188977544Y-78060094D01*
X188977654Y-78050017D01*
X188977984Y-78040124D01*
X188978539Y-78030413D01*
X188979322Y-78020882D01*
X188980338Y-78011530D01*
X188981591Y-78002353D01*
X188983083Y-77993352D01*
X188984820Y-77984522D01*
X188986805Y-77975864D01*
X188989042Y-77967373D01*
X188991535Y-77959050D01*
X188994287Y-77950891D01*
X188997303Y-77942895D01*
X189000587Y-77935060D01*
X189004142Y-77927384D01*
X189007971Y-77919865D01*
X189012002Y-77912470D01*
X189016154Y-77905170D01*
X189020427Y-77897968D01*
X189024818Y-77890864D01*
X189029325Y-77883861D01*
X189033947Y-77876960D01*
X189038680Y-77870165D01*
X189043525Y-77863475D01*
X189048477Y-77856895D01*
X189053537Y-77850425D01*
X189058701Y-77844067D01*
X189063968Y-77837823D01*
X189069335Y-77831696D01*
X189074802Y-77825687D01*
X189080365Y-77819798D01*
X189086023Y-77814031D01*
X189097994Y-77802309D01*
X189110105Y-77790943D01*
X189122370Y-77779917D01*
X189134806Y-77769218D01*
X189147428Y-77758828D01*
X189160252Y-77748733D01*
X189173292Y-77738917D01*
X189186565Y-77729365D01*
X189213065Y-77710513D01*
X189238821Y-77691662D01*
X189251342Y-77682236D01*
X189263584Y-77672810D01*
X189275516Y-77663384D01*
X189287107Y-77653959D01*
X189298763Y-77644471D01*
X189309907Y-77634859D01*
X189315282Y-77630007D01*
X189320523Y-77625123D01*
X189325629Y-77620209D01*
X189330598Y-77615264D01*
X189335426Y-77610287D01*
X189340114Y-77605280D01*
X189344658Y-77600241D01*
X189349056Y-77595172D01*
X189353308Y-77590071D01*
X189357410Y-77584940D01*
X189361361Y-77579777D01*
X189365159Y-77574584D01*
X189368771Y-77569314D01*
X189372164Y-77563923D01*
X189375336Y-77558416D01*
X189378285Y-77552797D01*
X189381009Y-77547070D01*
X189383507Y-77541237D01*
X189385776Y-77535304D01*
X189387814Y-77529274D01*
X189389620Y-77523151D01*
X189391191Y-77516939D01*
X189392526Y-77510642D01*
X189393623Y-77504263D01*
X189394479Y-77497806D01*
X189395093Y-77491276D01*
X189395463Y-77484677D01*
X189395587Y-77478011D01*
X189395432Y-77470399D01*
X189394966Y-77462942D01*
X189394191Y-77455640D01*
X189393106Y-77448494D01*
X189391711Y-77441502D01*
X189390005Y-77434665D01*
X189387990Y-77427983D01*
X189385664Y-77421457D01*
X189383029Y-77415085D01*
X189380083Y-77408868D01*
X189376827Y-77402807D01*
X189373262Y-77396900D01*
X189369386Y-77391148D01*
X189365200Y-77385552D01*
X189360704Y-77380110D01*
X189355899Y-77374824D01*
X189350534Y-77369785D01*
X189344858Y-77365085D01*
X189338867Y-77360723D01*
X189332561Y-77356695D01*
X189325937Y-77353002D01*
X189318994Y-77349639D01*
X189311728Y-77346606D01*
X189304139Y-77343900D01*
X189296224Y-77341520D01*
X189287982Y-77339464D01*
X189279411Y-77337729D01*
X189270508Y-77336314D01*
X189261272Y-77335217D01*
X189251700Y-77334436D01*
X189241792Y-77333968D01*
X189231544Y-77333813D01*
X189214488Y-77334059D01*
X189198037Y-77334785D01*
X189182175Y-77335976D01*
X189166886Y-77337617D01*
X189152156Y-77339691D01*
X189137968Y-77342185D01*
X189124307Y-77345081D01*
X189111158Y-77348365D01*
X189098632Y-77351843D01*
X189086849Y-77355352D01*
X189075811Y-77358923D01*
X189065517Y-77362587D01*
X189060650Y-77364463D01*
X189055968Y-77366374D01*
X189051472Y-77368325D01*
X189047162Y-77370317D01*
X189043039Y-77372357D01*
X189039101Y-77374446D01*
X189035349Y-77376590D01*
X189031784Y-77378792D01*
X188994742Y-77276928D01*
X189004537Y-77271595D01*
X189015061Y-77266510D01*
X189026297Y-77261673D01*
X189038232Y-77257084D01*
X189050849Y-77252743D01*
X189064133Y-77248650D01*
X189078067Y-77244806D01*
X189092638Y-77241209D01*
X189107828Y-77237925D01*
X189123623Y-77235028D01*
X189140007Y-77232535D01*
X189156964Y-77230460D01*
X189174480Y-77228819D01*
X189192538Y-77227628D01*
X189211123Y-77226902D01*
X189230220Y-77226657D01*
X189245676Y-77226890D01*
G37*
G36*
X190418198Y-77254438D02*
G01*
X190415552Y-77253847D01*
X190415552Y-77253115D01*
X190418198Y-77254438D01*
G37*
G36*
X190415552Y-78328646D02*
G01*
X190299136Y-78328646D01*
X190299136Y-77832552D01*
X190182719Y-77856365D01*
X189949886Y-78329969D01*
X189814949Y-78329969D01*
X190029261Y-77897375D01*
X190088792Y-77840490D01*
X190078003Y-77836831D01*
X190067463Y-77832798D01*
X190057175Y-77828389D01*
X190047141Y-77823602D01*
X190037363Y-77818435D01*
X190027842Y-77812887D01*
X190018582Y-77806955D01*
X190009583Y-77800637D01*
X190000847Y-77793932D01*
X189992377Y-77786837D01*
X189984174Y-77779350D01*
X189976241Y-77771471D01*
X189968579Y-77763196D01*
X189961190Y-77754524D01*
X189954077Y-77745452D01*
X189947241Y-77735979D01*
X189940760Y-77726104D01*
X189934711Y-77715825D01*
X189929093Y-77705144D01*
X189923903Y-77694059D01*
X189919139Y-77682572D01*
X189914800Y-77670681D01*
X189910883Y-77658387D01*
X189907387Y-77645690D01*
X189904309Y-77632590D01*
X189901648Y-77619087D01*
X189899402Y-77605181D01*
X189897568Y-77590872D01*
X189896146Y-77576160D01*
X189895132Y-77561044D01*
X189894525Y-77545526D01*
X189894407Y-77536219D01*
X190017356Y-77536219D01*
X190017557Y-77549892D01*
X190018162Y-77563130D01*
X190019169Y-77575929D01*
X190020580Y-77588288D01*
X190022394Y-77600206D01*
X190024611Y-77611680D01*
X190027231Y-77622708D01*
X190030254Y-77633288D01*
X190033680Y-77643419D01*
X190037509Y-77653098D01*
X190041742Y-77662324D01*
X190046377Y-77671095D01*
X190051415Y-77679408D01*
X190056857Y-77687262D01*
X190062702Y-77694654D01*
X190068949Y-77701584D01*
X190075538Y-77708079D01*
X190082408Y-77714170D01*
X190089561Y-77719853D01*
X190096999Y-77725128D01*
X190104724Y-77729991D01*
X190112737Y-77734442D01*
X190121041Y-77738479D01*
X190129638Y-77742098D01*
X190138529Y-77745299D01*
X190147717Y-77748080D01*
X190157203Y-77750438D01*
X190166990Y-77752371D01*
X190177079Y-77753879D01*
X190187472Y-77754958D01*
X190198171Y-77755607D01*
X190209179Y-77755823D01*
X190301782Y-77755823D01*
X190301782Y-77348365D01*
X190297506Y-77347376D01*
X190292625Y-77346401D01*
X190287155Y-77345458D01*
X190281112Y-77344562D01*
X190274510Y-77343727D01*
X190267366Y-77342970D01*
X190259694Y-77342306D01*
X190251511Y-77341751D01*
X190243137Y-77340878D01*
X190234872Y-77340221D01*
X190226700Y-77339751D01*
X190218604Y-77339436D01*
X190210571Y-77339245D01*
X190202585Y-77339146D01*
X190186689Y-77339105D01*
X190176208Y-77339322D01*
X190166093Y-77339973D01*
X190156339Y-77341058D01*
X190146939Y-77342578D01*
X190137889Y-77344531D01*
X190129181Y-77346918D01*
X190120810Y-77349740D01*
X190112771Y-77352996D01*
X190105057Y-77356685D01*
X190097664Y-77360809D01*
X190090584Y-77365367D01*
X190083812Y-77370359D01*
X190077342Y-77375785D01*
X190071169Y-77381645D01*
X190065287Y-77387939D01*
X190059689Y-77394667D01*
X190054636Y-77401736D01*
X190049894Y-77409051D01*
X190045466Y-77416610D01*
X190041354Y-77424412D01*
X190037560Y-77432454D01*
X190034086Y-77440734D01*
X190030933Y-77449251D01*
X190028104Y-77458002D01*
X190025601Y-77466985D01*
X190023425Y-77476200D01*
X190021579Y-77485642D01*
X190020063Y-77495312D01*
X190018882Y-77505206D01*
X190018035Y-77515324D01*
X190017526Y-77525662D01*
X190017356Y-77536219D01*
X189894407Y-77536219D01*
X189894323Y-77529604D01*
X189894416Y-77519062D01*
X189894695Y-77508763D01*
X189895160Y-77498705D01*
X189895811Y-77488883D01*
X189896648Y-77479294D01*
X189897672Y-77469933D01*
X189898881Y-77460798D01*
X189900276Y-77451883D01*
X189901858Y-77443185D01*
X189903625Y-77434700D01*
X189905578Y-77426425D01*
X189907718Y-77418355D01*
X189910043Y-77410487D01*
X189912555Y-77402816D01*
X189915253Y-77395339D01*
X189918136Y-77388052D01*
X189921190Y-77381185D01*
X189924394Y-77374472D01*
X189927746Y-77367914D01*
X189931241Y-77361511D01*
X189934876Y-77355264D01*
X189938646Y-77349171D01*
X189942548Y-77343233D01*
X189946578Y-77337451D01*
X189950733Y-77331823D01*
X189955007Y-77326351D01*
X189959397Y-77321033D01*
X189963900Y-77315871D01*
X189968512Y-77310863D01*
X189973228Y-77306011D01*
X189978045Y-77301313D01*
X189982958Y-77296771D01*
X189988214Y-77292384D01*
X189993563Y-77288154D01*
X189999004Y-77284083D01*
X190004539Y-77280173D01*
X190010166Y-77276425D01*
X190015887Y-77272842D01*
X190021701Y-77269426D01*
X190027607Y-77266179D01*
X190033607Y-77263102D01*
X190039700Y-77260197D01*
X190045885Y-77257467D01*
X190052164Y-77254913D01*
X190058536Y-77252537D01*
X190065000Y-77250342D01*
X190071558Y-77248329D01*
X190078209Y-77246500D01*
X190092162Y-77243216D01*
X190106238Y-77240319D01*
X190120439Y-77237826D01*
X190134764Y-77235751D01*
X190149212Y-77234111D01*
X190163785Y-77232919D01*
X190178482Y-77232193D01*
X190193303Y-77231948D01*
X190219617Y-77232217D01*
X190233184Y-77232576D01*
X190247047Y-77233105D01*
X190261219Y-77233821D01*
X190275716Y-77234739D01*
X190290555Y-77235873D01*
X190305751Y-77237240D01*
X190320946Y-77238413D01*
X190335785Y-77239927D01*
X190350282Y-77241751D01*
X190364455Y-77243854D01*
X190378317Y-77246206D01*
X190391884Y-77248774D01*
X190405173Y-77251528D01*
X190415552Y-77253847D01*
X190415552Y-77755823D01*
X190415552Y-78328646D01*
G37*
G36*
X191270156Y-78329970D02*
G01*
X190779354Y-78329970D01*
X190779354Y-78222813D01*
X191153740Y-78222813D01*
X191153740Y-77825938D01*
X190817718Y-77825938D01*
X190817718Y-77718782D01*
X191153740Y-77718782D01*
X191153740Y-77351011D01*
X190787292Y-77351011D01*
X190787292Y-77243855D01*
X191270156Y-77243855D01*
X191270156Y-78329970D01*
G37*
G36*
X191874730Y-77983365D02*
G01*
X191905158Y-78152698D01*
X191907802Y-78152698D01*
X191935584Y-77987334D01*
X191938230Y-77987334D01*
X192151219Y-77243855D01*
X192279543Y-77243855D01*
X191946168Y-78347167D01*
X191883990Y-78347167D01*
X191554584Y-77243855D01*
X191673647Y-77243855D01*
X191874730Y-77983365D01*
G37*
G36*
X192698907Y-78329969D02*
G01*
X192582490Y-78329969D01*
X192582490Y-77243855D01*
X192698907Y-77243855D01*
X192698907Y-78329969D01*
G37*
G36*
X193741365Y-78329969D02*
G01*
X193630240Y-78329969D01*
X193630240Y-77640730D01*
X193647438Y-77470074D01*
X193642146Y-77470074D01*
X193576000Y-77640730D01*
X193574678Y-77639407D01*
X193176480Y-78345844D01*
X193105043Y-78345844D01*
X193105043Y-77242532D01*
X193216168Y-77242532D01*
X193216168Y-77930448D01*
X193198970Y-78093167D01*
X193205584Y-78093167D01*
X193269084Y-77930448D01*
X193671251Y-77226657D01*
X193741365Y-77226657D01*
X193741365Y-78329969D01*
G37*
G36*
X194737522Y-77995272D02*
G01*
X194737227Y-78016991D01*
X194736344Y-78037998D01*
X194734871Y-78058291D01*
X194732809Y-78077871D01*
X194730158Y-78096738D01*
X194726918Y-78114892D01*
X194723089Y-78132333D01*
X194718670Y-78149060D01*
X194713663Y-78165075D01*
X194708066Y-78180376D01*
X194701880Y-78194965D01*
X194695106Y-78208840D01*
X194687742Y-78222002D01*
X194679789Y-78234450D01*
X194671247Y-78246186D01*
X194662115Y-78257209D01*
X194652348Y-78267767D01*
X194641897Y-78277616D01*
X194630760Y-78286759D01*
X194618935Y-78295202D01*
X194606420Y-78302946D01*
X194593213Y-78309997D01*
X194579312Y-78316357D01*
X194564716Y-78322032D01*
X194549422Y-78327025D01*
X194533428Y-78331339D01*
X194516733Y-78334979D01*
X194499335Y-78337948D01*
X194481231Y-78340251D01*
X194462419Y-78341891D01*
X194442899Y-78342872D01*
X194422667Y-78343199D01*
X194405304Y-78342858D01*
X194388437Y-78341834D01*
X194372066Y-78340129D01*
X194356190Y-78337742D01*
X194340812Y-78334672D01*
X194325929Y-78330920D01*
X194311542Y-78326486D01*
X194297651Y-78321370D01*
X194284257Y-78315572D01*
X194271359Y-78309092D01*
X194258956Y-78301930D01*
X194247050Y-78294085D01*
X194235640Y-78285559D01*
X194224726Y-78276350D01*
X194214308Y-78266459D01*
X194204386Y-78255886D01*
X194195022Y-78244538D01*
X194186276Y-78232324D01*
X194178146Y-78219246D01*
X194170631Y-78205305D01*
X194163728Y-78190504D01*
X194157435Y-78174844D01*
X194151751Y-78158328D01*
X194146673Y-78140958D01*
X194142201Y-78122734D01*
X194138330Y-78103660D01*
X194135061Y-78083737D01*
X194132390Y-78062968D01*
X194130316Y-78041353D01*
X194128837Y-78018895D01*
X194127951Y-77995597D01*
X194127657Y-77971459D01*
X194127657Y-77243855D01*
X194238782Y-77243855D01*
X194240105Y-77242532D01*
X194240105Y-77934417D01*
X194240260Y-77953919D01*
X194240725Y-77972740D01*
X194241500Y-77990879D01*
X194242585Y-78008335D01*
X194243981Y-78025109D01*
X194245686Y-78041201D01*
X194247701Y-78056611D01*
X194250027Y-78071339D01*
X194252662Y-78085385D01*
X194255608Y-78098748D01*
X194258863Y-78111430D01*
X194262429Y-78123429D01*
X194266305Y-78134746D01*
X194270490Y-78145381D01*
X194274986Y-78155334D01*
X194279792Y-78164605D01*
X194284986Y-78173255D01*
X194290649Y-78181348D01*
X194296785Y-78188882D01*
X194303398Y-78195859D01*
X194310491Y-78202277D01*
X194318069Y-78208137D01*
X194326135Y-78213439D01*
X194334693Y-78218183D01*
X194343748Y-78222369D01*
X194353302Y-78225996D01*
X194363360Y-78229066D01*
X194373926Y-78231577D01*
X194385003Y-78233531D01*
X194396596Y-78234926D01*
X194408708Y-78235763D01*
X194421344Y-78236042D01*
X194427979Y-78235980D01*
X194434490Y-78235794D01*
X194440878Y-78235484D01*
X194447141Y-78235050D01*
X194453280Y-78234492D01*
X194459295Y-78233810D01*
X194465186Y-78233004D01*
X194470953Y-78232074D01*
X194476597Y-78231020D01*
X194482116Y-78229841D01*
X194487511Y-78228539D01*
X194492782Y-78227113D01*
X194497929Y-78225563D01*
X194502952Y-78223888D01*
X194507850Y-78222090D01*
X194512625Y-78220168D01*
X194517291Y-78218106D01*
X194521863Y-78215889D01*
X194526337Y-78213517D01*
X194530712Y-78210990D01*
X194534987Y-78208308D01*
X194539159Y-78205471D01*
X194543226Y-78202479D01*
X194547187Y-78199331D01*
X194551039Y-78196029D01*
X194554781Y-78192572D01*
X194558410Y-78188960D01*
X194561925Y-78185193D01*
X194565324Y-78181271D01*
X194568604Y-78177193D01*
X194571764Y-78172961D01*
X194574803Y-78168574D01*
X194577965Y-78164031D01*
X194581004Y-78159331D01*
X194583918Y-78154473D01*
X194586709Y-78149453D01*
X194589375Y-78144271D01*
X194591918Y-78138924D01*
X194594336Y-78133411D01*
X194596631Y-78127729D01*
X194598801Y-78121876D01*
X194600848Y-78115851D01*
X194602770Y-78109651D01*
X194604568Y-78103275D01*
X194606243Y-78096721D01*
X194607793Y-78089987D01*
X194609219Y-78083070D01*
X194610521Y-78075970D01*
X194612875Y-78061151D01*
X194614966Y-78045480D01*
X194616777Y-78028972D01*
X194618294Y-78011642D01*
X194619500Y-77993507D01*
X194620381Y-77974580D01*
X194620921Y-77954878D01*
X194621105Y-77934417D01*
X194621105Y-77242532D01*
X194737522Y-77242532D01*
X194737522Y-77995272D01*
G37*
G36*
X196573730Y-78922636D02*
G01*
X182525678Y-78922636D01*
X182525678Y-78822094D01*
X196573730Y-78822094D01*
X196573730Y-78922636D01*
G37*
G36*
X200563646Y-78922636D02*
G01*
X197739219Y-78922636D01*
X197739219Y-78822094D01*
X200563646Y-78822094D01*
X200563646Y-78922636D01*
G37*
G36*
X184325176Y-76406283D02*
G01*
X184312975Y-76426492D01*
X184299942Y-76446072D01*
X184286079Y-76465027D01*
X184271391Y-76483364D01*
X184255881Y-76501089D01*
X184239553Y-76518207D01*
X184222411Y-76534724D01*
X184204460Y-76550647D01*
X184185506Y-76565778D01*
X184165377Y-76579919D01*
X184144109Y-76593071D01*
X184121737Y-76605237D01*
X184098294Y-76616419D01*
X184073817Y-76626619D01*
X184048340Y-76635837D01*
X184021898Y-76644077D01*
X183994526Y-76651341D01*
X183966258Y-76657630D01*
X183937130Y-76662945D01*
X183907176Y-76667290D01*
X183876432Y-76670667D01*
X183844932Y-76673076D01*
X183812711Y-76674520D01*
X183779804Y-76675001D01*
X183746487Y-76674520D01*
X183713012Y-76673076D01*
X183679374Y-76670667D01*
X183645569Y-76667290D01*
X183611594Y-76662946D01*
X183577444Y-76657630D01*
X183543116Y-76651341D01*
X183508606Y-76644078D01*
X183473910Y-76635837D01*
X183439024Y-76626619D01*
X183403944Y-76616419D01*
X183368666Y-76605238D01*
X183333187Y-76593071D01*
X183297502Y-76579919D01*
X183261609Y-76565778D01*
X183225502Y-76550647D01*
X183153315Y-76518152D01*
X183081593Y-76483178D01*
X183010305Y-76445723D01*
X182939421Y-76405787D01*
X182868908Y-76363371D01*
X182798737Y-76318475D01*
X182728876Y-76271098D01*
X182659294Y-76221240D01*
X182590709Y-76169215D01*
X182522868Y-76115345D01*
X182455771Y-76059646D01*
X182389418Y-76002132D01*
X182323809Y-75942821D01*
X182258945Y-75881726D01*
X182194825Y-75818864D01*
X182131448Y-75754251D01*
X182069936Y-75688203D01*
X182010422Y-75622000D01*
X181952925Y-75555612D01*
X181897458Y-75489006D01*
X181844038Y-75422152D01*
X181792679Y-75355019D01*
X181743398Y-75287576D01*
X181696211Y-75219792D01*
X181651311Y-75151954D01*
X181608877Y-75084380D01*
X181568892Y-75017084D01*
X181531342Y-74950083D01*
X181496209Y-74883392D01*
X181463480Y-74817026D01*
X181433138Y-74751002D01*
X181405168Y-74685334D01*
X181392254Y-74652576D01*
X181380299Y-74620284D01*
X181369302Y-74588456D01*
X181359260Y-74557094D01*
X181350171Y-74526196D01*
X181342033Y-74495764D01*
X181334846Y-74465797D01*
X181328605Y-74436295D01*
X181323311Y-74407258D01*
X181318960Y-74378686D01*
X181315551Y-74350579D01*
X181313082Y-74322937D01*
X181311550Y-74295761D01*
X181310955Y-74269049D01*
X181311294Y-74242803D01*
X181312565Y-74217021D01*
X181314828Y-74191783D01*
X181318143Y-74167164D01*
X181322509Y-74143165D01*
X181327923Y-74119787D01*
X181334384Y-74097029D01*
X181341889Y-74074891D01*
X181350436Y-74053372D01*
X181358372Y-74036077D01*
X181657122Y-74036077D01*
X181657168Y-74051624D01*
X181657928Y-74067739D01*
X181659400Y-74084429D01*
X181661586Y-74101696D01*
X181664485Y-74119544D01*
X181668097Y-74137978D01*
X181672423Y-74157001D01*
X181677461Y-74176617D01*
X181683213Y-74196829D01*
X181689677Y-74217642D01*
X181696855Y-74239060D01*
X181704746Y-74261087D01*
X181722667Y-74306981D01*
X181743630Y-74354854D01*
X181766841Y-74404215D01*
X181792315Y-74455065D01*
X181820068Y-74507402D01*
X181850115Y-74561229D01*
X181882472Y-74616543D01*
X181917154Y-74673346D01*
X181954178Y-74731637D01*
X181993053Y-74791300D01*
X182033263Y-74851257D01*
X182074774Y-74911556D01*
X182117557Y-74972242D01*
X182161581Y-75033362D01*
X182206813Y-75094963D01*
X182300783Y-75219793D01*
X182349713Y-75282549D01*
X182399278Y-75344808D01*
X182449495Y-75406572D01*
X182500379Y-75467840D01*
X182551944Y-75528611D01*
X182604207Y-75588887D01*
X182657183Y-75648666D01*
X182710888Y-75707949D01*
X182764902Y-75766620D01*
X182818808Y-75823601D01*
X182872621Y-75878939D01*
X182926357Y-75932679D01*
X182980030Y-75984870D01*
X183033657Y-76035557D01*
X183087254Y-76084786D01*
X183140834Y-76132605D01*
X183193604Y-76178499D01*
X183245738Y-76221943D01*
X183297221Y-76262969D01*
X183348037Y-76301608D01*
X183398171Y-76337890D01*
X183447607Y-76371846D01*
X183496330Y-76403508D01*
X183544325Y-76432907D01*
X183567905Y-76446596D01*
X183591022Y-76459389D01*
X183613678Y-76471286D01*
X183635875Y-76482289D01*
X183657614Y-76492401D01*
X183678898Y-76501624D01*
X183699729Y-76509959D01*
X183720108Y-76517408D01*
X183740037Y-76523974D01*
X183759519Y-76529658D01*
X183778555Y-76534462D01*
X183797147Y-76538389D01*
X183815297Y-76541439D01*
X183833008Y-76543616D01*
X183850280Y-76544920D01*
X183867117Y-76545355D01*
X183883751Y-76544920D01*
X183891707Y-76544377D01*
X183899422Y-76543616D01*
X183906896Y-76542637D01*
X183914128Y-76541439D01*
X183921118Y-76540023D01*
X183927867Y-76538389D01*
X183934373Y-76536535D01*
X183940637Y-76534462D01*
X183946658Y-76532170D01*
X183952436Y-76529658D01*
X183957971Y-76526926D01*
X183963263Y-76523974D01*
X183968311Y-76520802D01*
X183973115Y-76517408D01*
X183977674Y-76513794D01*
X183981990Y-76509959D01*
X183986060Y-76505902D01*
X183989886Y-76501624D01*
X183993467Y-76497124D01*
X183996802Y-76492401D01*
X183999892Y-76487456D01*
X184002736Y-76482289D01*
X184005333Y-76476899D01*
X184007684Y-76471286D01*
X184009789Y-76465449D01*
X184011647Y-76459389D01*
X184013258Y-76453105D01*
X184014621Y-76446596D01*
X184015737Y-76439864D01*
X184016605Y-76432907D01*
X184017737Y-76418489D01*
X184018153Y-76403508D01*
X184017852Y-76387962D01*
X184016833Y-76371846D01*
X184015093Y-76355157D01*
X184012629Y-76337890D01*
X184009441Y-76320041D01*
X184005526Y-76301608D01*
X184000883Y-76282585D01*
X183995509Y-76262969D01*
X183989403Y-76242757D01*
X183982562Y-76221943D01*
X183974984Y-76200525D01*
X183966669Y-76178499D01*
X183957613Y-76155860D01*
X183947815Y-76132605D01*
X183926359Y-76084732D01*
X183902670Y-76035371D01*
X183876749Y-75984521D01*
X183848596Y-75932183D01*
X183818210Y-75878357D01*
X183785592Y-75823043D01*
X183750742Y-75766240D01*
X183713659Y-75707949D01*
X183674783Y-75648666D01*
X183634574Y-75588887D01*
X183593062Y-75528611D01*
X183550279Y-75467840D01*
X183506256Y-75406572D01*
X183461023Y-75344809D01*
X183367054Y-75219793D01*
X183318439Y-75157037D01*
X183268848Y-75094777D01*
X183218295Y-75033014D01*
X183166797Y-74971746D01*
X183114369Y-74910975D01*
X183061026Y-74850699D01*
X183006784Y-74790920D01*
X182951658Y-74731637D01*
X182896281Y-74672966D01*
X182841277Y-74615985D01*
X182786645Y-74560647D01*
X182732385Y-74506907D01*
X182678496Y-74454716D01*
X182624980Y-74404029D01*
X182571836Y-74354800D01*
X182519064Y-74306981D01*
X182466847Y-74261087D01*
X182415360Y-74217642D01*
X182364585Y-74176617D01*
X182314508Y-74137978D01*
X182265113Y-74101696D01*
X182216385Y-74067739D01*
X182168308Y-74036077D01*
X182120866Y-74006679D01*
X182097593Y-73992989D01*
X182074890Y-73980197D01*
X182052737Y-73968300D01*
X182031115Y-73957297D01*
X182010004Y-73947185D01*
X181989386Y-73937962D01*
X181969241Y-73929627D01*
X181949549Y-73922177D01*
X181930291Y-73915612D01*
X181911448Y-73909927D01*
X181893000Y-73905123D01*
X181874928Y-73901197D01*
X181857213Y-73898146D01*
X181839835Y-73895970D01*
X181822775Y-73894665D01*
X181806013Y-73894231D01*
X181789859Y-73894665D01*
X181782130Y-73895208D01*
X181774635Y-73895970D01*
X181767371Y-73896949D01*
X181760341Y-73898146D01*
X181753543Y-73899562D01*
X181746977Y-73901197D01*
X181740644Y-73903050D01*
X181734544Y-73905123D01*
X181728676Y-73907415D01*
X181723041Y-73909927D01*
X181717638Y-73912659D01*
X181712468Y-73915612D01*
X181707530Y-73918784D01*
X181702825Y-73922177D01*
X181698352Y-73925792D01*
X181694112Y-73929627D01*
X181690105Y-73933684D01*
X181686330Y-73937962D01*
X181682787Y-73942462D01*
X181679478Y-73947185D01*
X181676400Y-73952129D01*
X181673555Y-73957297D01*
X181670943Y-73962687D01*
X181668563Y-73968300D01*
X181666416Y-73974137D01*
X181664501Y-73980197D01*
X181662819Y-73986481D01*
X181661370Y-73992989D01*
X181660153Y-73999722D01*
X181659168Y-74006679D01*
X181657788Y-74021097D01*
X181657122Y-74036077D01*
X181358372Y-74036077D01*
X181360025Y-74032475D01*
X181370651Y-74012197D01*
X181382315Y-73992539D01*
X181395013Y-73973501D01*
X181408745Y-73955084D01*
X181423507Y-73937287D01*
X181439298Y-73920109D01*
X181456117Y-73903552D01*
X181473961Y-73887615D01*
X181492982Y-73872484D01*
X181513338Y-73858343D01*
X181535026Y-73845190D01*
X181558048Y-73833024D01*
X181582403Y-73821842D01*
X181608091Y-73811643D01*
X181635113Y-73802424D01*
X181663468Y-73794184D01*
X181693156Y-73786921D01*
X181724177Y-73780632D01*
X181756532Y-73775316D01*
X181790220Y-73770971D01*
X181825241Y-73767595D01*
X181861596Y-73765186D01*
X181899283Y-73763742D01*
X181938305Y-73763261D01*
X181939626Y-73763261D01*
X181985872Y-73763742D01*
X182031841Y-73765186D01*
X182077534Y-73767595D01*
X182122955Y-73770971D01*
X182168103Y-73775316D01*
X182212983Y-73780632D01*
X182257595Y-73786921D01*
X182301942Y-73794184D01*
X182346025Y-73802424D01*
X182389846Y-73811643D01*
X182433407Y-73821842D01*
X182476711Y-73833024D01*
X182519759Y-73845191D01*
X182562554Y-73858343D01*
X182605096Y-73872484D01*
X182647388Y-73887615D01*
X182730918Y-73920109D01*
X182812836Y-73955084D01*
X182893141Y-73992539D01*
X182971834Y-74032474D01*
X183048915Y-74074890D01*
X183124383Y-74119787D01*
X183198239Y-74167164D01*
X183270483Y-74217021D01*
X183340987Y-74269483D01*
X183409615Y-74323682D01*
X183476353Y-74379616D01*
X183541183Y-74437287D01*
X183604091Y-74496694D01*
X183665062Y-74557838D01*
X183724079Y-74620718D01*
X183781128Y-74685334D01*
X183836447Y-74751382D01*
X183889317Y-74817585D01*
X183939769Y-74883973D01*
X183987833Y-74950579D01*
X184033540Y-75017433D01*
X184076923Y-75084566D01*
X184118011Y-75152008D01*
X184156835Y-75219792D01*
X184192737Y-75287630D01*
X184226019Y-75355205D01*
X184256666Y-75422501D01*
X184284662Y-75489502D01*
X184309991Y-75556193D01*
X184332638Y-75622559D01*
X184352588Y-75688583D01*
X184369825Y-75754251D01*
X184377345Y-75786776D01*
X184384031Y-75818864D01*
X184389888Y-75850515D01*
X184394919Y-75881726D01*
X184399129Y-75912495D01*
X184402520Y-75942821D01*
X184405098Y-75972700D01*
X184406866Y-76002132D01*
X184407828Y-76031115D01*
X184407987Y-76059646D01*
X184407349Y-76087723D01*
X184405915Y-76115345D01*
X184403691Y-76142510D01*
X184400681Y-76169215D01*
X184396887Y-76195459D01*
X184392315Y-76221240D01*
X184386920Y-76246697D01*
X184380661Y-76271478D01*
X184373542Y-76295588D01*
X184365566Y-76319033D01*
X184356738Y-76341819D01*
X184347061Y-76363953D01*
X184336539Y-76385439D01*
X184326688Y-76403508D01*
X184325176Y-76406283D01*
G37*
G36*
X186672980Y-75574169D02*
G01*
X186685657Y-75642506D01*
X186695512Y-75710595D01*
X186699356Y-75744111D01*
X186702454Y-75777190D01*
X186704804Y-75809827D01*
X186706404Y-75842018D01*
X186707253Y-75873759D01*
X186707347Y-75905048D01*
X186706686Y-75935878D01*
X186705267Y-75966248D01*
X186703089Y-75996152D01*
X186700149Y-76025588D01*
X186696445Y-76054551D01*
X186691976Y-76083037D01*
X186686739Y-76111042D01*
X186680734Y-76138563D01*
X186673957Y-76165596D01*
X186666406Y-76192136D01*
X186658035Y-76218119D01*
X186648798Y-76243479D01*
X186638696Y-76268216D01*
X186627732Y-76292326D01*
X186615908Y-76315809D01*
X186603225Y-76338662D01*
X186589685Y-76360883D01*
X186575291Y-76382471D01*
X186560044Y-76403423D01*
X186543946Y-76423737D01*
X186527000Y-76443412D01*
X186509207Y-76462445D01*
X186490569Y-76480835D01*
X186471088Y-76498580D01*
X186450765Y-76515677D01*
X186429604Y-76532125D01*
X186407615Y-76547752D01*
X186384783Y-76562384D01*
X186361071Y-76576021D01*
X186336442Y-76588659D01*
X186310860Y-76600298D01*
X186284287Y-76610934D01*
X186256688Y-76620567D01*
X186228025Y-76629194D01*
X186198261Y-76636814D01*
X186167359Y-76643423D01*
X186135284Y-76649022D01*
X186101997Y-76653606D01*
X186067461Y-76657176D01*
X186031642Y-76659727D01*
X185994500Y-76661260D01*
X185956000Y-76661771D01*
X185916947Y-76661166D01*
X185878168Y-76659350D01*
X185839655Y-76656321D01*
X185801405Y-76652077D01*
X185763410Y-76646615D01*
X185725665Y-76639935D01*
X185688165Y-76632034D01*
X185650902Y-76622910D01*
X185613873Y-76612562D01*
X185577070Y-76600987D01*
X185540488Y-76588183D01*
X185504121Y-76574149D01*
X185467963Y-76558882D01*
X185432009Y-76542381D01*
X185396252Y-76524643D01*
X185360688Y-76505667D01*
X185290795Y-76465977D01*
X185222980Y-76425279D01*
X185157212Y-76383558D01*
X185093458Y-76340799D01*
X185031689Y-76296985D01*
X184971874Y-76252101D01*
X184913981Y-76206133D01*
X184857979Y-76159063D01*
X184794916Y-76103061D01*
X184732736Y-76045168D01*
X184671455Y-75985353D01*
X184611089Y-75923584D01*
X184551653Y-75859831D01*
X184493164Y-75794062D01*
X184435635Y-75726247D01*
X184379083Y-75656355D01*
X184444136Y-75717496D01*
X184509328Y-75776885D01*
X184574676Y-75834507D01*
X184640194Y-75890346D01*
X184705898Y-75944387D01*
X184771804Y-75996613D01*
X184837926Y-76047011D01*
X184904281Y-76095563D01*
X184961399Y-76136796D01*
X185019664Y-76177129D01*
X185079108Y-76216533D01*
X185139760Y-76254975D01*
X185201653Y-76292425D01*
X185264817Y-76328851D01*
X185329283Y-76364224D01*
X185395083Y-76398511D01*
X185428213Y-76415084D01*
X185461123Y-76430574D01*
X185493813Y-76444982D01*
X185526279Y-76458311D01*
X185558521Y-76470563D01*
X185590536Y-76481739D01*
X185622323Y-76491841D01*
X185653878Y-76500872D01*
X185685202Y-76508833D01*
X185716291Y-76515726D01*
X185747143Y-76521553D01*
X185777757Y-76526317D01*
X185808131Y-76530019D01*
X185838263Y-76532660D01*
X185868150Y-76534244D01*
X185897792Y-76534771D01*
X185921247Y-76534523D01*
X185943988Y-76533774D01*
X185966011Y-76532521D01*
X185987316Y-76530761D01*
X186007899Y-76528489D01*
X186027760Y-76525702D01*
X186046896Y-76522395D01*
X186065306Y-76518566D01*
X186082987Y-76514209D01*
X186099937Y-76509321D01*
X186116154Y-76503898D01*
X186131638Y-76497936D01*
X186146385Y-76491432D01*
X186160393Y-76484382D01*
X186173661Y-76476781D01*
X186186187Y-76468625D01*
X186198047Y-76460005D01*
X186209315Y-76451009D01*
X186219990Y-76441633D01*
X186230071Y-76431873D01*
X186239554Y-76421726D01*
X186248439Y-76411187D01*
X186256723Y-76400253D01*
X186264405Y-76388920D01*
X186271481Y-76377183D01*
X186277952Y-76365040D01*
X186283813Y-76352486D01*
X186289065Y-76339517D01*
X186293704Y-76326130D01*
X186297728Y-76312320D01*
X186301137Y-76298083D01*
X186303927Y-76283417D01*
X186306144Y-76268627D01*
X186307837Y-76253527D01*
X186309005Y-76238118D01*
X186309653Y-76222398D01*
X186309781Y-76206368D01*
X186309392Y-76190027D01*
X186308487Y-76173377D01*
X186307069Y-76156417D01*
X186305140Y-76139147D01*
X186302700Y-76121566D01*
X186299753Y-76103676D01*
X186296300Y-76085476D01*
X186292343Y-76066965D01*
X186287885Y-76048145D01*
X186282926Y-76029014D01*
X186277469Y-76009573D01*
X186265196Y-75970449D01*
X186251218Y-75930488D01*
X186235565Y-75889720D01*
X186218269Y-75848178D01*
X186199360Y-75805891D01*
X186178871Y-75762891D01*
X186156831Y-75719209D01*
X186133272Y-75674876D01*
X186093129Y-75688477D01*
X186072763Y-75695014D01*
X186052243Y-75701334D01*
X186031598Y-75707406D01*
X186010861Y-75713199D01*
X185990061Y-75718682D01*
X185969230Y-75723823D01*
X185948705Y-75728474D01*
X185928799Y-75732505D01*
X185909513Y-75735916D01*
X185890848Y-75738706D01*
X185872802Y-75740877D01*
X185855377Y-75742427D01*
X185838572Y-75743357D01*
X185822386Y-75743667D01*
X185821063Y-75746313D01*
X185767314Y-75745708D01*
X185714217Y-75743892D01*
X185661771Y-75740863D01*
X185609975Y-75736619D01*
X185558831Y-75731157D01*
X185508338Y-75724477D01*
X185458496Y-75716576D01*
X185409306Y-75707452D01*
X185360766Y-75697104D01*
X185312878Y-75685529D01*
X185265640Y-75672725D01*
X185219054Y-75658691D01*
X185173119Y-75643424D01*
X185127834Y-75626923D01*
X185083201Y-75609185D01*
X185039220Y-75590209D01*
X184995982Y-75570552D01*
X184953581Y-75550278D01*
X184912018Y-75529393D01*
X184871292Y-75507899D01*
X184831403Y-75485800D01*
X184792351Y-75463100D01*
X184754136Y-75439804D01*
X184716759Y-75415915D01*
X184680218Y-75391436D01*
X184644515Y-75366372D01*
X184609649Y-75340727D01*
X184575620Y-75314505D01*
X184542428Y-75287708D01*
X184510073Y-75260342D01*
X184478556Y-75232411D01*
X184447876Y-75203917D01*
X184418048Y-75174755D01*
X184389091Y-75145311D01*
X184361006Y-75115579D01*
X184333795Y-75085557D01*
X184307460Y-75055241D01*
X184282002Y-75024626D01*
X184257425Y-74993708D01*
X184233729Y-74962485D01*
X184210917Y-74930951D01*
X184188990Y-74899104D01*
X184167951Y-74866938D01*
X184147802Y-74834451D01*
X184128544Y-74801639D01*
X184110179Y-74768497D01*
X184092709Y-74735021D01*
X184076137Y-74701209D01*
X184060526Y-74667382D01*
X184045937Y-74633867D01*
X184032372Y-74600666D01*
X184019830Y-74567780D01*
X184008311Y-74535213D01*
X183997816Y-74502965D01*
X183988344Y-74471039D01*
X183979895Y-74439437D01*
X183972469Y-74408160D01*
X183966066Y-74377211D01*
X183960687Y-74346591D01*
X183956330Y-74316302D01*
X183952997Y-74286347D01*
X183950687Y-74256727D01*
X183949400Y-74227444D01*
X183949136Y-74198501D01*
X183949942Y-74170022D01*
X183951859Y-74142130D01*
X183954886Y-74114823D01*
X183959016Y-74088099D01*
X183964248Y-74061957D01*
X183970576Y-74036394D01*
X183977998Y-74011409D01*
X183986508Y-73986999D01*
X183996104Y-73963163D01*
X184006781Y-73939899D01*
X184018535Y-73917204D01*
X184029194Y-73898818D01*
X184250261Y-73898818D01*
X184250967Y-73910456D01*
X184252557Y-73923094D01*
X184255034Y-73936731D01*
X184258403Y-73951363D01*
X184262666Y-73966990D01*
X184273330Y-74000727D01*
X184286458Y-74036464D01*
X184302036Y-74074216D01*
X184320048Y-74113999D01*
X184340478Y-74155829D01*
X184363312Y-74199720D01*
X184388533Y-74245689D01*
X184416126Y-74293750D01*
X184445827Y-74343419D01*
X184477372Y-74394189D01*
X184510748Y-74446043D01*
X184545936Y-74498968D01*
X184582924Y-74552946D01*
X184621694Y-74607964D01*
X184662231Y-74664004D01*
X184704521Y-74721053D01*
X184748053Y-74778101D01*
X184792330Y-74834141D01*
X184837350Y-74889158D01*
X184883115Y-74943137D01*
X184929624Y-74996061D01*
X184976877Y-75047916D01*
X185024874Y-75098686D01*
X185073615Y-75148354D01*
X185122852Y-75196470D01*
X185172338Y-75242571D01*
X185222071Y-75286625D01*
X185272052Y-75328602D01*
X185322282Y-75368470D01*
X185372759Y-75406199D01*
X185423485Y-75441758D01*
X185474458Y-75475115D01*
X185499867Y-75490741D01*
X185524995Y-75505374D01*
X185549840Y-75519010D01*
X185574401Y-75531649D01*
X185598674Y-75543287D01*
X185622659Y-75553924D01*
X185646353Y-75563557D01*
X185669754Y-75572184D01*
X185692861Y-75579803D01*
X185715671Y-75586413D01*
X185738183Y-75592011D01*
X185760395Y-75596596D01*
X185782304Y-75600165D01*
X185803909Y-75602717D01*
X185825207Y-75604249D01*
X185846198Y-75604761D01*
X185860520Y-75604580D01*
X185874702Y-75604058D01*
X185888730Y-75603226D01*
X185902587Y-75602115D01*
X185916258Y-75600756D01*
X185929728Y-75599180D01*
X185942980Y-75597418D01*
X185956000Y-75595500D01*
X185969085Y-75593203D01*
X185982541Y-75590271D01*
X185996370Y-75586687D01*
X186010571Y-75582437D01*
X186025143Y-75577504D01*
X186040088Y-75571874D01*
X186055405Y-75565531D01*
X186071094Y-75558459D01*
X186026694Y-75486277D01*
X185979813Y-75413599D01*
X185930451Y-75340425D01*
X185878610Y-75266755D01*
X185824287Y-75192589D01*
X185767485Y-75117927D01*
X185708202Y-75042769D01*
X185646438Y-74967115D01*
X185583427Y-74892076D01*
X185520369Y-74818742D01*
X185457218Y-74747082D01*
X185393927Y-74677066D01*
X185330450Y-74608661D01*
X185266741Y-74541839D01*
X185202753Y-74476566D01*
X185138439Y-74412813D01*
X185074440Y-74351235D01*
X185011418Y-74292510D01*
X184949358Y-74236638D01*
X184888242Y-74183618D01*
X184828057Y-74133450D01*
X184768787Y-74086135D01*
X184710416Y-74041673D01*
X184652929Y-74000063D01*
X184624806Y-73980592D01*
X184597488Y-73962363D01*
X184570971Y-73945378D01*
X184545256Y-73929639D01*
X184520338Y-73915148D01*
X184496217Y-73901906D01*
X184472891Y-73889917D01*
X184450357Y-73879182D01*
X184428613Y-73869702D01*
X184407659Y-73861480D01*
X184387491Y-73854518D01*
X184368108Y-73848817D01*
X184349509Y-73844379D01*
X184331690Y-73841207D01*
X184314650Y-73839303D01*
X184298387Y-73838668D01*
X184299707Y-73837344D01*
X184295223Y-73837472D01*
X184290949Y-73837856D01*
X184286885Y-73838494D01*
X184283032Y-73839388D01*
X184279390Y-73840537D01*
X184275959Y-73841940D01*
X184272741Y-73843597D01*
X184269736Y-73845509D01*
X184266943Y-73847675D01*
X184264365Y-73850094D01*
X184262000Y-73852766D01*
X184259850Y-73855692D01*
X184257915Y-73858871D01*
X184256196Y-73862302D01*
X184254693Y-73865985D01*
X184253406Y-73869921D01*
X184252337Y-73874109D01*
X184251485Y-73878548D01*
X184250435Y-73888181D01*
X184250261Y-73898818D01*
X184029194Y-73898818D01*
X184031363Y-73895077D01*
X184045261Y-73873516D01*
X184060225Y-73852519D01*
X184076250Y-73832084D01*
X184093334Y-73812209D01*
X184111580Y-73793233D01*
X184131094Y-73775495D01*
X184151871Y-73758994D01*
X184173908Y-73743727D01*
X184197200Y-73729693D01*
X184221745Y-73716889D01*
X184247537Y-73705314D01*
X184274574Y-73694966D01*
X184302850Y-73685842D01*
X184332364Y-73677941D01*
X184363109Y-73671261D01*
X184395083Y-73665799D01*
X184428282Y-73661555D01*
X184462702Y-73658526D01*
X184498339Y-73656710D01*
X184535188Y-73656105D01*
X184578457Y-73656616D01*
X184621447Y-73658149D01*
X184664157Y-73660701D01*
X184706589Y-73664270D01*
X184748741Y-73668854D01*
X184790615Y-73674453D01*
X184832209Y-73681062D01*
X184873524Y-73688682D01*
X184914561Y-73697309D01*
X184955318Y-73706941D01*
X184995796Y-73717578D01*
X185035995Y-73729217D01*
X185075915Y-73741855D01*
X185115556Y-73755491D01*
X185154918Y-73770124D01*
X185194001Y-73785751D01*
X185232742Y-73802199D01*
X185271076Y-73819296D01*
X185309000Y-73837041D01*
X185346508Y-73855431D01*
X185383599Y-73874464D01*
X185420266Y-73894139D01*
X185456508Y-73914454D01*
X185492319Y-73935405D01*
X185527696Y-73956993D01*
X185562635Y-73979214D01*
X185597132Y-74002067D01*
X185631184Y-74025550D01*
X185664786Y-74049660D01*
X185697934Y-74074397D01*
X185730625Y-74099758D01*
X185762855Y-74125740D01*
X185826417Y-74179259D01*
X185888119Y-74234653D01*
X185947960Y-74291939D01*
X186005941Y-74351132D01*
X186062062Y-74412247D01*
X186116322Y-74475300D01*
X186168722Y-74540306D01*
X186219261Y-74607282D01*
X186267689Y-74675370D01*
X186313746Y-74743707D01*
X186357415Y-74812292D01*
X186398681Y-74881125D01*
X186437529Y-74950206D01*
X186473943Y-75019536D01*
X186507907Y-75089113D01*
X186539406Y-75158938D01*
X186568361Y-75228763D01*
X186594680Y-75298341D01*
X186618332Y-75367670D01*
X186639287Y-75436751D01*
X186657514Y-75505584D01*
X186669438Y-75558459D01*
X186672980Y-75574169D01*
G37*
G36*
X184265687Y-70464026D02*
G01*
X184263332Y-70478271D01*
X184262222Y-70493411D01*
X184262358Y-70509445D01*
X184263742Y-70526370D01*
X184266376Y-70544184D01*
X184270262Y-70562886D01*
X184275402Y-70582474D01*
X184281797Y-70602945D01*
X184289450Y-70624298D01*
X184298363Y-70646531D01*
X184308537Y-70669642D01*
X184319974Y-70693628D01*
X184332677Y-70718489D01*
X184346647Y-70744221D01*
X184361887Y-70770824D01*
X184395371Y-70826076D01*
X184432312Y-70883685D01*
X184472694Y-70943651D01*
X184516503Y-71005972D01*
X184563722Y-71070651D01*
X184614337Y-71137685D01*
X184668331Y-71207076D01*
X184725690Y-71278824D01*
X184849279Y-71428872D01*
X184982170Y-71587229D01*
X185124735Y-71753772D01*
X185277345Y-71928376D01*
X185600137Y-72294162D01*
X185938803Y-72675824D01*
X186112230Y-72871554D01*
X186285408Y-73069888D01*
X186458586Y-73270950D01*
X186632012Y-73474866D01*
X186802668Y-73679256D01*
X186967371Y-73881662D01*
X187126121Y-74082084D01*
X187278918Y-74280522D01*
X187352707Y-74378875D01*
X187424232Y-74476499D01*
X187493463Y-74573411D01*
X187560369Y-74669625D01*
X187624918Y-74765156D01*
X187687079Y-74860021D01*
X187746822Y-74954235D01*
X187804116Y-75047813D01*
X187858247Y-75140089D01*
X187908503Y-75230396D01*
X187954851Y-75318750D01*
X187997262Y-75405166D01*
X188035704Y-75489659D01*
X188070147Y-75572246D01*
X188100558Y-75652941D01*
X188126908Y-75731761D01*
X188138706Y-75770425D01*
X188149299Y-75808531D01*
X188158691Y-75846079D01*
X188166885Y-75883069D01*
X188173885Y-75919501D01*
X188179696Y-75955375D01*
X188184320Y-75990691D01*
X188187762Y-76025448D01*
X188190026Y-76059648D01*
X188191116Y-76093289D01*
X188191035Y-76126372D01*
X188189788Y-76158898D01*
X188187378Y-76190865D01*
X188183809Y-76222274D01*
X188179085Y-76253124D01*
X188173210Y-76283417D01*
X188165721Y-76313028D01*
X188156647Y-76341835D01*
X188145984Y-76369839D01*
X188133729Y-76397043D01*
X188119876Y-76423449D01*
X188104423Y-76449058D01*
X188087365Y-76473873D01*
X188068699Y-76497895D01*
X188048421Y-76521126D01*
X188026526Y-76543569D01*
X188003011Y-76565225D01*
X187977873Y-76586096D01*
X187951106Y-76606184D01*
X187922708Y-76625492D01*
X187892675Y-76644020D01*
X187880006Y-76651120D01*
X187883066Y-76649048D01*
X187902133Y-76634194D01*
X187919521Y-76618530D01*
X187935229Y-76602054D01*
X187949255Y-76584764D01*
X187961597Y-76566658D01*
X187972253Y-76547735D01*
X187981221Y-76527991D01*
X187988499Y-76507426D01*
X187994086Y-76486038D01*
X187997979Y-76463824D01*
X188000176Y-76440782D01*
X188000676Y-76416911D01*
X187999476Y-76392209D01*
X187996574Y-76366673D01*
X187991970Y-76340302D01*
X187985939Y-76313234D01*
X187978762Y-76285603D01*
X187970437Y-76257406D01*
X187960964Y-76228640D01*
X187950345Y-76199300D01*
X187938578Y-76169383D01*
X187925664Y-76138884D01*
X187911603Y-76107800D01*
X187896395Y-76076127D01*
X187880039Y-76043861D01*
X187862536Y-76010998D01*
X187843886Y-75977534D01*
X187803145Y-75908789D01*
X187757814Y-75837594D01*
X187708269Y-75764731D01*
X187654895Y-75690006D01*
X187597707Y-75613422D01*
X187536721Y-75534977D01*
X187471953Y-75454672D01*
X187403417Y-75372506D01*
X187331129Y-75288480D01*
X187255106Y-75202594D01*
X187095860Y-75027184D01*
X186929668Y-74848053D01*
X186756531Y-74664953D01*
X186576449Y-74477636D01*
X185822387Y-73701084D01*
X185631597Y-73502130D01*
X185446017Y-73304044D01*
X185265398Y-73106702D01*
X185089492Y-72909980D01*
X185003910Y-72812126D01*
X184920779Y-72715015D01*
X184840065Y-72618649D01*
X184761739Y-72523027D01*
X184685770Y-72428149D01*
X184612126Y-72334015D01*
X184540776Y-72240626D01*
X184471689Y-72147980D01*
X184405835Y-72056453D01*
X184344213Y-71966431D01*
X184286840Y-71877927D01*
X184233730Y-71790958D01*
X184184898Y-71705539D01*
X184140361Y-71621687D01*
X184100134Y-71539415D01*
X184064232Y-71458741D01*
X184048031Y-71418805D01*
X184033166Y-71379363D01*
X184019638Y-71340414D01*
X184007449Y-71301954D01*
X183996602Y-71263983D01*
X183987097Y-71226499D01*
X183978937Y-71189499D01*
X183972123Y-71152982D01*
X183966659Y-71116945D01*
X183962545Y-71081386D01*
X183959784Y-71046305D01*
X183958377Y-71011698D01*
X183958327Y-70977564D01*
X183959635Y-70943901D01*
X183962304Y-70910707D01*
X183966335Y-70877980D01*
X183971932Y-70845843D01*
X183979299Y-70814421D01*
X183988436Y-70783716D01*
X183999347Y-70753729D01*
X184012033Y-70724464D01*
X184026495Y-70695922D01*
X184042737Y-70668104D01*
X184060759Y-70641013D01*
X184080565Y-70614650D01*
X184102155Y-70589019D01*
X184125532Y-70564119D01*
X184150697Y-70539954D01*
X184177653Y-70516526D01*
X184206401Y-70493836D01*
X184236944Y-70471886D01*
X184269283Y-70450678D01*
X184265687Y-70464026D01*
G37*
G36*
X187862323Y-76663094D02*
G01*
X187861002Y-76661771D01*
X187880006Y-76651120D01*
X187862323Y-76663094D01*
G37*
G36*
X186867490Y-71557959D02*
G01*
X186866857Y-71558156D01*
X186867491Y-71556637D01*
X186867490Y-71557959D01*
G37*
G36*
X186864391Y-71564062D02*
G01*
X186862037Y-71571951D01*
X186860431Y-71580301D01*
X186859575Y-71589110D01*
X186859470Y-71598377D01*
X186860120Y-71608099D01*
X186861525Y-71618274D01*
X186863688Y-71628901D01*
X186866611Y-71639977D01*
X186870295Y-71651502D01*
X186874742Y-71663472D01*
X186879955Y-71675885D01*
X186885936Y-71688741D01*
X186892686Y-71702036D01*
X186900207Y-71715769D01*
X186908501Y-71729939D01*
X186926485Y-71759645D01*
X186945708Y-71790235D01*
X186966172Y-71821724D01*
X186987876Y-71854127D01*
X187010820Y-71887461D01*
X187035005Y-71921741D01*
X187060430Y-71956982D01*
X187087095Y-71993199D01*
X187200370Y-72145334D01*
X187318606Y-72305407D01*
X187348126Y-72346397D01*
X187376174Y-72387015D01*
X187402764Y-72427260D01*
X187427912Y-72467134D01*
X187451634Y-72506635D01*
X187473945Y-72545765D01*
X187494861Y-72584522D01*
X187514397Y-72622907D01*
X187523544Y-72641929D01*
X187532135Y-72660796D01*
X187540172Y-72679508D01*
X187547656Y-72698065D01*
X187554590Y-72716467D01*
X187560976Y-72734714D01*
X187566815Y-72752806D01*
X187572110Y-72770743D01*
X187576862Y-72788525D01*
X187581073Y-72806152D01*
X187584746Y-72823624D01*
X187587882Y-72840940D01*
X187590482Y-72858102D01*
X187592550Y-72875109D01*
X187594087Y-72891961D01*
X187595095Y-72908657D01*
X187595336Y-72916909D01*
X187595313Y-72925044D01*
X187595027Y-72933064D01*
X187594478Y-72940968D01*
X187593667Y-72948757D01*
X187592593Y-72956430D01*
X187591257Y-72963989D01*
X187589659Y-72971434D01*
X187587800Y-72978764D01*
X187585679Y-72985980D01*
X187583297Y-72993082D01*
X187580655Y-73000070D01*
X187577751Y-73006945D01*
X187574588Y-73013707D01*
X187571164Y-73020356D01*
X187567480Y-73026893D01*
X187563537Y-73033317D01*
X187559334Y-73039629D01*
X187554871Y-73045829D01*
X187550150Y-73051917D01*
X187545171Y-73057894D01*
X187539932Y-73063760D01*
X187534436Y-73069515D01*
X187528681Y-73075159D01*
X187522669Y-73080692D01*
X187516400Y-73086116D01*
X187503089Y-73096633D01*
X187488751Y-73106712D01*
X187473387Y-73116355D01*
X187473015Y-73108851D01*
X187471899Y-73101222D01*
X187470039Y-73093464D01*
X187467434Y-73085577D01*
X187464086Y-73077557D01*
X187459993Y-73069404D01*
X187455156Y-73061116D01*
X187449575Y-73052690D01*
X187443250Y-73044124D01*
X187436180Y-73035417D01*
X187428367Y-73026566D01*
X187419809Y-73017570D01*
X187410508Y-73008427D01*
X187400462Y-72999135D01*
X187389672Y-72989691D01*
X187378137Y-72980095D01*
X187353583Y-72960119D01*
X187327556Y-72939849D01*
X187300072Y-72919238D01*
X187271146Y-72898239D01*
X187240794Y-72876806D01*
X187209031Y-72854893D01*
X187141335Y-72809438D01*
X186994822Y-72715346D01*
X186838387Y-72616293D01*
X186798142Y-72590868D01*
X186758764Y-72565195D01*
X186720255Y-72539274D01*
X186682614Y-72513105D01*
X186645841Y-72486688D01*
X186609936Y-72460023D01*
X186574900Y-72433110D01*
X186540731Y-72405949D01*
X186507366Y-72378602D01*
X186491330Y-72364882D01*
X186475722Y-72351130D01*
X186460540Y-72337348D01*
X186445783Y-72323535D01*
X186431448Y-72309691D01*
X186417534Y-72295816D01*
X186404038Y-72281910D01*
X186390959Y-72267973D01*
X186378295Y-72254005D01*
X186366044Y-72240005D01*
X186354203Y-72225975D01*
X186342771Y-72211914D01*
X186331746Y-72197822D01*
X186321127Y-72183699D01*
X186311097Y-72169576D01*
X186301844Y-72155484D01*
X186293370Y-72141422D01*
X186285677Y-72127392D01*
X186278767Y-72113393D01*
X186272642Y-72099425D01*
X186267303Y-72085488D01*
X186262753Y-72071582D01*
X186258994Y-72057707D01*
X186256028Y-72043862D01*
X186253856Y-72030049D01*
X186252480Y-72016267D01*
X186251903Y-72002516D01*
X186252126Y-71988796D01*
X186253151Y-71975107D01*
X186254981Y-71961449D01*
X186257694Y-71947837D01*
X186261368Y-71934288D01*
X186266003Y-71920800D01*
X186271600Y-71907375D01*
X186278157Y-71894011D01*
X186285676Y-71880710D01*
X186294156Y-71867470D01*
X186303597Y-71854293D01*
X186314000Y-71841177D01*
X186325363Y-71828124D01*
X186337688Y-71815132D01*
X186350974Y-71802203D01*
X186365222Y-71789335D01*
X186380430Y-71776530D01*
X186396600Y-71763786D01*
X186413730Y-71751105D01*
X186432241Y-71738501D01*
X186452056Y-71725985D01*
X186473177Y-71713555D01*
X186495606Y-71701206D01*
X186544397Y-71676738D01*
X186598442Y-71652548D01*
X186657759Y-71628606D01*
X186722362Y-71604881D01*
X186792268Y-71581343D01*
X186866857Y-71558156D01*
X186864391Y-71564062D01*
G37*
G36*
X188547594Y-73771198D02*
G01*
X188532974Y-73771508D01*
X188526047Y-73771896D01*
X188519376Y-73772440D01*
X188512959Y-73773141D01*
X188506797Y-73773997D01*
X188500889Y-73775010D01*
X188495235Y-73776179D01*
X188489835Y-73777506D01*
X188484689Y-73778990D01*
X188479796Y-73780631D01*
X188475156Y-73782430D01*
X188470769Y-73784386D01*
X188466635Y-73786501D01*
X188462753Y-73788775D01*
X188459124Y-73791207D01*
X188455746Y-73793798D01*
X188452620Y-73796548D01*
X188449745Y-73799457D01*
X188447122Y-73802527D01*
X188444749Y-73805756D01*
X188442628Y-73809145D01*
X188440756Y-73812694D01*
X188439135Y-73816404D01*
X188437764Y-73820275D01*
X188436643Y-73824307D01*
X188435771Y-73828501D01*
X188435149Y-73832856D01*
X188434775Y-73837372D01*
X188434650Y-73842051D01*
X188434774Y-73846892D01*
X188435146Y-73851896D01*
X188436463Y-73862283D01*
X188438430Y-73873106D01*
X188441044Y-73884367D01*
X188444303Y-73896069D01*
X188448205Y-73908212D01*
X188452749Y-73920798D01*
X188457933Y-73933831D01*
X188463754Y-73947311D01*
X188470210Y-73961241D01*
X188477301Y-73975622D01*
X188485023Y-73990457D01*
X188493374Y-74005747D01*
X188511960Y-74037701D01*
X188533041Y-74071500D01*
X188556357Y-74106531D01*
X188581658Y-74143144D01*
X188608944Y-74181307D01*
X188638213Y-74220989D01*
X188669467Y-74262160D01*
X188702705Y-74304788D01*
X188737928Y-74348842D01*
X188775135Y-74394292D01*
X188853249Y-74488053D01*
X188934712Y-74584791D01*
X189107188Y-74787197D01*
X189197249Y-74892142D01*
X189286939Y-74998699D01*
X189376380Y-75106992D01*
X189465698Y-75217145D01*
X189509791Y-75272462D01*
X189552783Y-75327299D01*
X189594690Y-75381670D01*
X189635527Y-75435592D01*
X189675310Y-75489080D01*
X189714055Y-75542149D01*
X189751776Y-75594815D01*
X189788490Y-75647094D01*
X189823777Y-75698811D01*
X189857220Y-75749785D01*
X189888833Y-75800015D01*
X189918632Y-75849500D01*
X189946633Y-75898241D01*
X189972851Y-75946238D01*
X189997301Y-75993491D01*
X190020000Y-76040000D01*
X190030527Y-76062882D01*
X190040283Y-76085395D01*
X190049271Y-76107539D01*
X190057496Y-76129317D01*
X190064961Y-76150731D01*
X190071671Y-76171782D01*
X190077629Y-76192473D01*
X190082838Y-76212806D01*
X190087304Y-76232782D01*
X190091029Y-76252403D01*
X190094018Y-76271671D01*
X190096274Y-76290589D01*
X190097802Y-76309158D01*
X190098605Y-76327380D01*
X190098687Y-76345257D01*
X190098052Y-76362791D01*
X190096346Y-76379922D01*
X190093711Y-76396590D01*
X190090145Y-76412797D01*
X190085649Y-76428544D01*
X190080223Y-76443835D01*
X190073867Y-76458669D01*
X190066581Y-76473050D01*
X190058364Y-76486980D01*
X190049217Y-76500460D01*
X190039141Y-76513493D01*
X190028133Y-76526079D01*
X190016196Y-76538222D01*
X190003329Y-76549924D01*
X189989531Y-76561185D01*
X189974803Y-76572008D01*
X189959145Y-76582395D01*
X189942402Y-76592240D01*
X189924416Y-76601436D01*
X189905186Y-76609984D01*
X189884710Y-76617887D01*
X189862986Y-76625146D01*
X189840013Y-76631765D01*
X189815787Y-76637743D01*
X189790308Y-76643084D01*
X189763572Y-76647790D01*
X189735580Y-76651862D01*
X189706327Y-76655302D01*
X189675813Y-76658112D01*
X189644036Y-76660294D01*
X189610993Y-76661851D01*
X189541103Y-76663093D01*
X189501909Y-76662411D01*
X189462700Y-76660365D01*
X189423459Y-76656954D01*
X189384172Y-76652179D01*
X189344823Y-76646040D01*
X189305397Y-76638537D01*
X189265877Y-76629669D01*
X189226249Y-76619437D01*
X189186621Y-76608148D01*
X189147102Y-76596100D01*
X189107675Y-76583276D01*
X189068327Y-76569662D01*
X189029040Y-76555242D01*
X188989799Y-76540000D01*
X188950590Y-76523921D01*
X188911396Y-76506989D01*
X188872447Y-76489316D01*
X188833964Y-76471022D01*
X188795915Y-76452109D01*
X188758268Y-76432575D01*
X188720994Y-76412421D01*
X188684061Y-76391647D01*
X188647438Y-76370253D01*
X188611094Y-76348239D01*
X188575502Y-76325788D01*
X188540174Y-76303074D01*
X188505124Y-76280081D01*
X188470369Y-76256793D01*
X188435924Y-76233195D01*
X188401805Y-76209271D01*
X188368026Y-76185006D01*
X188334605Y-76160385D01*
X188259943Y-76104383D01*
X188185777Y-76046490D01*
X188112107Y-75986675D01*
X188038934Y-75924906D01*
X187966256Y-75861153D01*
X187894074Y-75795384D01*
X187822389Y-75727569D01*
X187751199Y-75657677D01*
X187829021Y-75718818D01*
X187906704Y-75778207D01*
X187984231Y-75835829D01*
X188061588Y-75891668D01*
X188138759Y-75945708D01*
X188215729Y-75997935D01*
X188292481Y-76048333D01*
X188369001Y-76096885D01*
X188435973Y-76137358D01*
X188503938Y-76177583D01*
X188642845Y-76258281D01*
X188678124Y-76278254D01*
X188713497Y-76297514D01*
X188748931Y-76316092D01*
X188784396Y-76334018D01*
X188819862Y-76351325D01*
X188855297Y-76368042D01*
X188890669Y-76384201D01*
X188925949Y-76399833D01*
X188961107Y-76414403D01*
X188996125Y-76428338D01*
X189030988Y-76441622D01*
X189065681Y-76454239D01*
X189100188Y-76466173D01*
X189134493Y-76477410D01*
X189168582Y-76487934D01*
X189202438Y-76497729D01*
X189236299Y-76506537D01*
X189269431Y-76514121D01*
X189301850Y-76520495D01*
X189333572Y-76525676D01*
X189364611Y-76529678D01*
X189394984Y-76532518D01*
X189424706Y-76534210D01*
X189453792Y-76534771D01*
X189477683Y-76534461D01*
X189500244Y-76533533D01*
X189521480Y-76531989D01*
X189531602Y-76530986D01*
X189541394Y-76529831D01*
X189550856Y-76528522D01*
X189559990Y-76527060D01*
X189568795Y-76525445D01*
X189577273Y-76523679D01*
X189585422Y-76521760D01*
X189593245Y-76519689D01*
X189600741Y-76517466D01*
X189607912Y-76515092D01*
X189614756Y-76512567D01*
X189621276Y-76509892D01*
X189627471Y-76507065D01*
X189633341Y-76504088D01*
X189638889Y-76500961D01*
X189644113Y-76497684D01*
X189649014Y-76494257D01*
X189653593Y-76490681D01*
X189657851Y-76486955D01*
X189661787Y-76483081D01*
X189665403Y-76479057D01*
X189668699Y-76474886D01*
X189671674Y-76470566D01*
X189674331Y-76466098D01*
X189676668Y-76461482D01*
X189678688Y-76456719D01*
X189681726Y-76446828D01*
X189683891Y-76436503D01*
X189685181Y-76425744D01*
X189685591Y-76414551D01*
X189685118Y-76402924D01*
X189683757Y-76390862D01*
X189681504Y-76378367D01*
X189678357Y-76365437D01*
X189674310Y-76352074D01*
X189669360Y-76338276D01*
X189663503Y-76324044D01*
X189656735Y-76309379D01*
X189649053Y-76294279D01*
X189640452Y-76278745D01*
X189630928Y-76262777D01*
X189620478Y-76246375D01*
X189597725Y-76212455D01*
X189572151Y-76177170D01*
X189543786Y-76140521D01*
X189512661Y-76102508D01*
X189478808Y-76063130D01*
X189442257Y-76022389D01*
X189403040Y-75980283D01*
X189361188Y-75936812D01*
X189272407Y-75847040D01*
X189178790Y-75754415D01*
X189080460Y-75659062D01*
X188977542Y-75561104D01*
X188547594Y-75151000D01*
X188493271Y-75098544D01*
X188440437Y-75046366D01*
X188389092Y-74994498D01*
X188339234Y-74942972D01*
X188290865Y-74891817D01*
X188243984Y-74841066D01*
X188198591Y-74790748D01*
X188154687Y-74740896D01*
X188112583Y-74691220D01*
X188072604Y-74642380D01*
X188034764Y-74594347D01*
X187999079Y-74547089D01*
X187965564Y-74500575D01*
X187934235Y-74454774D01*
X187905108Y-74409656D01*
X187878197Y-74365188D01*
X187865780Y-74343515D01*
X187854328Y-74322155D01*
X187843845Y-74301108D01*
X187834335Y-74280377D01*
X187825801Y-74259964D01*
X187818248Y-74239870D01*
X187811679Y-74220099D01*
X187806099Y-74200650D01*
X187801510Y-74181528D01*
X187797918Y-74162733D01*
X187795326Y-74144267D01*
X187793738Y-74126133D01*
X187793157Y-74108332D01*
X187793588Y-74090866D01*
X187795035Y-74073738D01*
X187797500Y-74056949D01*
X187800833Y-74040546D01*
X187805371Y-74024578D01*
X187811110Y-74009044D01*
X187818047Y-73993945D01*
X187826177Y-73979279D01*
X187835498Y-73965047D01*
X187846004Y-73951250D01*
X187857693Y-73937886D01*
X187870559Y-73924957D01*
X187884600Y-73912461D01*
X187899812Y-73900400D01*
X187916190Y-73888773D01*
X187933731Y-73877580D01*
X187952431Y-73866821D01*
X187972286Y-73856496D01*
X187993292Y-73846605D01*
X188015693Y-73837226D01*
X188039736Y-73828438D01*
X188065418Y-73820243D01*
X188092738Y-73812643D01*
X188121693Y-73805640D01*
X188152282Y-73799236D01*
X188218354Y-73788231D01*
X188290936Y-73779645D01*
X188370014Y-73773493D01*
X188455572Y-73769790D01*
X188547595Y-73768553D01*
X188547594Y-73771198D01*
G37*
G36*
X187486989Y-70464026D02*
G01*
X187484634Y-70478271D01*
X187483524Y-70493411D01*
X187483660Y-70509445D01*
X187485044Y-70526370D01*
X187487678Y-70544184D01*
X187491564Y-70562886D01*
X187496703Y-70582474D01*
X187503098Y-70602945D01*
X187510751Y-70624298D01*
X187519664Y-70646531D01*
X187529838Y-70669642D01*
X187541276Y-70693628D01*
X187553979Y-70718489D01*
X187567949Y-70744221D01*
X187583189Y-70770824D01*
X187616673Y-70826076D01*
X187653614Y-70883685D01*
X187693996Y-70943651D01*
X187737805Y-71005972D01*
X187785024Y-71070651D01*
X187835638Y-71137685D01*
X187889632Y-71207076D01*
X187946991Y-71278824D01*
X188070580Y-71428872D01*
X188203471Y-71587229D01*
X188346037Y-71753772D01*
X188498647Y-71928376D01*
X188821439Y-72294162D01*
X189160105Y-72675824D01*
X189333531Y-72871554D01*
X189506709Y-73069888D01*
X189679887Y-73270950D01*
X189853313Y-73474866D01*
X190023969Y-73679256D01*
X190188672Y-73881662D01*
X190347422Y-74082084D01*
X190500219Y-74280522D01*
X190574008Y-74378875D01*
X190645534Y-74476499D01*
X190714765Y-74573411D01*
X190781670Y-74669625D01*
X190846220Y-74765156D01*
X190908381Y-74860021D01*
X190968124Y-74954235D01*
X191025418Y-75047813D01*
X191079549Y-75140089D01*
X191129804Y-75230396D01*
X191176153Y-75318750D01*
X191218564Y-75405166D01*
X191257006Y-75489659D01*
X191291448Y-75572246D01*
X191321859Y-75652941D01*
X191348209Y-75731761D01*
X191360007Y-75770425D01*
X191370600Y-75808531D01*
X191379992Y-75846079D01*
X191388186Y-75883069D01*
X191395186Y-75919501D01*
X191400997Y-75955375D01*
X191405621Y-75990691D01*
X191409063Y-76025448D01*
X191411327Y-76059648D01*
X191412417Y-76093289D01*
X191412337Y-76126372D01*
X191411089Y-76158898D01*
X191408679Y-76190865D01*
X191405110Y-76222274D01*
X191400387Y-76253124D01*
X191394512Y-76283417D01*
X191387023Y-76313028D01*
X191377949Y-76341835D01*
X191367286Y-76369839D01*
X191355030Y-76397043D01*
X191341178Y-76423449D01*
X191325725Y-76449058D01*
X191308667Y-76473873D01*
X191290000Y-76497895D01*
X191269722Y-76521126D01*
X191247827Y-76543569D01*
X191224313Y-76565225D01*
X191199174Y-76586096D01*
X191172408Y-76606184D01*
X191144009Y-76625492D01*
X191113976Y-76644020D01*
X191093637Y-76655419D01*
X191103045Y-76649048D01*
X191122112Y-76634194D01*
X191139500Y-76618530D01*
X191155208Y-76602054D01*
X191169234Y-76584764D01*
X191181576Y-76566658D01*
X191192232Y-76547735D01*
X191201200Y-76527991D01*
X191208479Y-76507426D01*
X191214065Y-76486038D01*
X191217958Y-76463824D01*
X191220155Y-76440782D01*
X191220655Y-76416911D01*
X191219455Y-76392209D01*
X191216554Y-76366673D01*
X191211949Y-76340302D01*
X191205919Y-76313234D01*
X191198741Y-76285603D01*
X191190416Y-76257406D01*
X191180944Y-76228640D01*
X191170324Y-76199300D01*
X191158557Y-76169383D01*
X191145644Y-76138884D01*
X191131582Y-76107800D01*
X191116374Y-76076127D01*
X191100018Y-76043861D01*
X191082516Y-76010998D01*
X191063866Y-75977534D01*
X191023124Y-75908789D01*
X190977793Y-75837594D01*
X190928248Y-75764731D01*
X190874874Y-75690006D01*
X190817686Y-75613422D01*
X190756701Y-75534977D01*
X190691932Y-75454672D01*
X190623396Y-75372506D01*
X190551109Y-75288480D01*
X190475085Y-75202594D01*
X190315839Y-75027184D01*
X190149647Y-74848053D01*
X189976511Y-74664953D01*
X189796429Y-74477636D01*
X189043689Y-73701084D01*
X188852900Y-73502130D01*
X188667319Y-73304044D01*
X188486700Y-73106702D01*
X188310794Y-72909980D01*
X188225212Y-72812126D01*
X188142080Y-72715015D01*
X188061367Y-72618649D01*
X187983041Y-72523027D01*
X187907071Y-72428149D01*
X187833427Y-72334015D01*
X187762077Y-72240626D01*
X187692991Y-72147980D01*
X187627137Y-72056453D01*
X187565516Y-71966431D01*
X187508142Y-71877927D01*
X187455031Y-71790958D01*
X187406200Y-71705539D01*
X187361662Y-71621687D01*
X187321435Y-71539415D01*
X187285533Y-71458741D01*
X187269332Y-71418805D01*
X187254467Y-71379363D01*
X187240939Y-71340414D01*
X187228751Y-71301954D01*
X187217903Y-71263983D01*
X187208398Y-71226499D01*
X187200238Y-71189499D01*
X187193425Y-71152982D01*
X187187960Y-71116945D01*
X187183846Y-71081386D01*
X187181085Y-71046305D01*
X187179679Y-71011698D01*
X187179629Y-70977564D01*
X187180937Y-70943901D01*
X187183606Y-70910707D01*
X187187637Y-70877980D01*
X187193234Y-70845843D01*
X187200600Y-70814421D01*
X187209738Y-70783716D01*
X187220648Y-70753729D01*
X187233334Y-70724464D01*
X187247797Y-70695922D01*
X187264038Y-70668104D01*
X187282061Y-70641013D01*
X187301866Y-70614650D01*
X187323456Y-70589019D01*
X187346833Y-70564119D01*
X187371998Y-70539954D01*
X187398954Y-70516526D01*
X187427703Y-70493836D01*
X187458246Y-70471886D01*
X187490585Y-70450678D01*
X187486989Y-70464026D01*
G37*
G36*
X191082303Y-76663094D02*
G01*
X191082303Y-76661771D01*
X191093637Y-76655419D01*
X191082303Y-76663094D01*
G37*
G36*
X191521530Y-73604242D02*
G01*
X191586066Y-73608397D01*
X191652928Y-73615652D01*
X191722100Y-73626008D01*
X191793566Y-73639465D01*
X191867310Y-73656022D01*
X191943319Y-73675680D01*
X192021575Y-73698438D01*
X192064100Y-73712034D01*
X192106350Y-73726532D01*
X192148328Y-73741932D01*
X192190039Y-73758238D01*
X192231487Y-73775450D01*
X192272675Y-73793572D01*
X192313607Y-73812604D01*
X192354288Y-73832549D01*
X192394720Y-73853408D01*
X192434908Y-73875184D01*
X192474856Y-73897879D01*
X192514567Y-73921494D01*
X192554046Y-73946032D01*
X192593296Y-73971494D01*
X192632322Y-73997882D01*
X192671126Y-74025198D01*
X192747708Y-74081694D01*
X192822662Y-74140065D01*
X192895973Y-74200327D01*
X192967624Y-74262497D01*
X193037602Y-74326588D01*
X193105890Y-74392618D01*
X193172473Y-74460601D01*
X193237334Y-74530553D01*
X193300276Y-74601928D01*
X193361110Y-74674172D01*
X193419835Y-74747284D01*
X193476452Y-74821263D01*
X193530960Y-74896112D01*
X193583360Y-74971828D01*
X193633651Y-75048412D01*
X193681834Y-75125865D01*
X193727418Y-75203261D01*
X193769932Y-75279695D01*
X193809408Y-75355200D01*
X193845876Y-75429805D01*
X193879367Y-75503542D01*
X193909913Y-75576442D01*
X193937544Y-75648536D01*
X193962292Y-75719855D01*
X193973517Y-75755093D01*
X193983878Y-75789866D01*
X193993378Y-75824174D01*
X194002021Y-75858017D01*
X194009812Y-75891395D01*
X194016754Y-75924307D01*
X194022851Y-75956755D01*
X194028108Y-75988738D01*
X194032527Y-76020255D01*
X194036112Y-76051307D01*
X194038869Y-76081895D01*
X194040799Y-76112017D01*
X194041908Y-76141674D01*
X194042200Y-76170866D01*
X194041677Y-76199593D01*
X194040344Y-76227855D01*
X194038081Y-76255449D01*
X194034761Y-76282172D01*
X194030383Y-76308018D01*
X194024945Y-76332985D01*
X194018445Y-76357068D01*
X194010881Y-76380264D01*
X194002251Y-76402568D01*
X193992554Y-76423977D01*
X193981787Y-76444487D01*
X193969948Y-76464093D01*
X193957036Y-76482793D01*
X193943048Y-76500582D01*
X193927983Y-76517456D01*
X193911838Y-76533412D01*
X193894612Y-76548445D01*
X193876303Y-76562552D01*
X193877626Y-76559905D01*
X193858914Y-76572943D01*
X193839990Y-76584772D01*
X193820856Y-76595392D01*
X193801517Y-76604802D01*
X193781976Y-76613003D01*
X193762237Y-76619995D01*
X193742305Y-76625777D01*
X193722183Y-76630351D01*
X193701875Y-76633715D01*
X193681384Y-76635870D01*
X193660716Y-76636815D01*
X193639873Y-76636552D01*
X193618859Y-76635079D01*
X193597679Y-76632397D01*
X193576336Y-76628506D01*
X193554834Y-76623405D01*
X193532975Y-76617313D01*
X193511051Y-76610450D01*
X193489062Y-76602819D01*
X193467005Y-76594425D01*
X193444878Y-76585271D01*
X193422679Y-76575362D01*
X193400407Y-76564700D01*
X193378059Y-76553291D01*
X193355634Y-76541137D01*
X193333129Y-76528243D01*
X193310543Y-76514613D01*
X193287874Y-76500250D01*
X193265119Y-76485159D01*
X193242277Y-76469343D01*
X193219346Y-76452806D01*
X193196324Y-76435552D01*
X193150001Y-76399215D01*
X193103306Y-76360662D01*
X193056239Y-76319908D01*
X193008800Y-76276967D01*
X192960989Y-76231856D01*
X192912806Y-76184590D01*
X192864251Y-76135185D01*
X192815324Y-76083656D01*
X192716828Y-75977512D01*
X192617713Y-75869509D01*
X192417125Y-75648416D01*
X192451726Y-75701436D01*
X192484078Y-75753340D01*
X192514167Y-75804128D01*
X192541976Y-75853799D01*
X192567492Y-75902354D01*
X192590697Y-75949793D01*
X192611577Y-75996116D01*
X192630116Y-76041323D01*
X192638425Y-76063756D01*
X192645986Y-76085912D01*
X192652795Y-76107792D01*
X192658848Y-76129400D01*
X192664142Y-76150736D01*
X192668672Y-76171803D01*
X192672434Y-76192602D01*
X192675426Y-76213136D01*
X192677642Y-76233407D01*
X192679079Y-76253416D01*
X192679734Y-76273165D01*
X192679601Y-76292656D01*
X192678678Y-76311892D01*
X192676960Y-76330873D01*
X192674444Y-76349603D01*
X192671126Y-76368083D01*
X192667220Y-76386330D01*
X192662449Y-76404360D01*
X192656819Y-76422173D01*
X192650331Y-76439768D01*
X192642991Y-76457147D01*
X192634802Y-76474309D01*
X192625769Y-76491254D01*
X192615894Y-76507981D01*
X192605182Y-76524492D01*
X192593637Y-76540786D01*
X192581263Y-76556862D01*
X192568063Y-76572722D01*
X192554041Y-76588364D01*
X192539201Y-76603790D01*
X192523548Y-76618998D01*
X192507085Y-76633989D01*
X192489706Y-76648531D01*
X192471304Y-76662887D01*
X192451878Y-76677056D01*
X192431430Y-76691040D01*
X192409958Y-76704837D01*
X192387464Y-76718449D01*
X192363946Y-76731875D01*
X192339405Y-76745114D01*
X192313840Y-76758167D01*
X192287253Y-76771035D01*
X192231008Y-76796212D01*
X192170671Y-76820644D01*
X192106241Y-76844333D01*
X192117279Y-76827636D01*
X192127570Y-76810779D01*
X192137114Y-76793760D01*
X192145908Y-76776575D01*
X192153949Y-76759218D01*
X192161237Y-76741688D01*
X192167770Y-76723979D01*
X192173544Y-76706088D01*
X192178559Y-76688011D01*
X192182812Y-76669744D01*
X192186302Y-76651283D01*
X192189027Y-76632625D01*
X192190984Y-76613765D01*
X192192171Y-76594700D01*
X192192588Y-76575425D01*
X192192231Y-76555937D01*
X192191239Y-76536528D01*
X192189755Y-76516999D01*
X192187783Y-76497354D01*
X192185327Y-76477596D01*
X192182390Y-76457729D01*
X192178976Y-76437758D01*
X192175089Y-76417687D01*
X192170733Y-76397518D01*
X192160631Y-76356905D01*
X192148698Y-76315952D01*
X192134968Y-76274688D01*
X192119470Y-76233146D01*
X192102360Y-76190910D01*
X192083793Y-76148520D01*
X192063799Y-76105944D01*
X192042410Y-76063151D01*
X192019657Y-76020110D01*
X191995571Y-75976789D01*
X191970182Y-75933159D01*
X191943522Y-75889187D01*
X191723918Y-75537291D01*
X191670112Y-75449462D01*
X191617919Y-75362501D01*
X191567462Y-75276284D01*
X191518865Y-75190688D01*
X191495980Y-75148150D01*
X191474940Y-75105876D01*
X191455729Y-75063882D01*
X191438332Y-75022181D01*
X191422734Y-74980791D01*
X191408918Y-74939726D01*
X191396870Y-74899003D01*
X191386573Y-74858636D01*
X191382155Y-74838591D01*
X191378321Y-74818641D01*
X191375069Y-74798788D01*
X191372394Y-74779033D01*
X191370292Y-74759380D01*
X191368761Y-74739829D01*
X191367795Y-74720383D01*
X191367392Y-74701043D01*
X191367546Y-74681812D01*
X191368255Y-74662692D01*
X191369514Y-74643683D01*
X191371319Y-74624790D01*
X191373667Y-74606012D01*
X191376554Y-74587353D01*
X191379975Y-74568813D01*
X191383928Y-74550396D01*
X191388828Y-74532134D01*
X191394599Y-74514060D01*
X191401247Y-74496176D01*
X191408774Y-74478483D01*
X191417185Y-74460985D01*
X191426483Y-74443682D01*
X191436673Y-74426577D01*
X191447758Y-74409671D01*
X191459743Y-74392967D01*
X191472630Y-74376466D01*
X191486425Y-74360171D01*
X191501130Y-74344083D01*
X191516750Y-74328205D01*
X191533288Y-74312537D01*
X191550749Y-74297083D01*
X191569136Y-74281844D01*
X191561695Y-74290743D01*
X191555246Y-74300078D01*
X191549789Y-74309851D01*
X191545324Y-74320064D01*
X191541851Y-74330719D01*
X191539370Y-74341817D01*
X191537882Y-74353361D01*
X191537386Y-74365353D01*
X191537882Y-74377795D01*
X191539370Y-74390688D01*
X191541851Y-74404034D01*
X191545324Y-74417836D01*
X191549789Y-74432095D01*
X191555246Y-74446813D01*
X191561695Y-74461993D01*
X191569136Y-74477636D01*
X191586068Y-74509941D01*
X191605124Y-74543347D01*
X191626319Y-74577839D01*
X191649669Y-74613400D01*
X191675190Y-74650015D01*
X191702896Y-74687669D01*
X191732804Y-74726347D01*
X191764929Y-74766032D01*
X191798727Y-74806463D01*
X191833658Y-74847391D01*
X191869736Y-74888815D01*
X191906977Y-74930735D01*
X191945396Y-74973151D01*
X191985008Y-75016063D01*
X192025830Y-75059471D01*
X192067876Y-75103375D01*
X192109608Y-75147401D01*
X192150455Y-75191163D01*
X192190404Y-75234646D01*
X192229438Y-75277835D01*
X192267541Y-75320713D01*
X192304699Y-75363266D01*
X192340896Y-75405478D01*
X192376116Y-75447333D01*
X192481764Y-75566168D01*
X192586295Y-75680663D01*
X192689585Y-75790940D01*
X192791512Y-75897125D01*
X192841496Y-75948161D01*
X192890255Y-75997088D01*
X192937805Y-76043907D01*
X192984162Y-76088617D01*
X193029340Y-76131219D01*
X193073355Y-76171713D01*
X193116224Y-76210098D01*
X193157960Y-76246375D01*
X193198394Y-76280417D01*
X193237356Y-76312087D01*
X193274860Y-76341369D01*
X193310922Y-76368249D01*
X193345558Y-76392710D01*
X193378784Y-76414737D01*
X193410614Y-76434314D01*
X193426010Y-76443180D01*
X193441064Y-76451427D01*
X193455435Y-76458915D01*
X193469274Y-76465504D01*
X193482579Y-76471193D01*
X193495345Y-76475984D01*
X193501525Y-76478042D01*
X193507568Y-76479875D01*
X193513475Y-76481483D01*
X193519245Y-76482867D01*
X193524878Y-76484026D01*
X193530372Y-76484960D01*
X193535728Y-76485669D01*
X193540944Y-76486153D01*
X193546022Y-76486413D01*
X193550959Y-76486448D01*
X193555755Y-76486258D01*
X193560411Y-76485843D01*
X193564925Y-76485204D01*
X193569297Y-76484339D01*
X193573527Y-76483250D01*
X193577614Y-76481937D01*
X193581558Y-76480398D01*
X193585357Y-76478634D01*
X193589012Y-76476646D01*
X193592523Y-76474433D01*
X193595888Y-76471995D01*
X193599107Y-76469333D01*
X193602180Y-76466445D01*
X193605106Y-76463333D01*
X193615323Y-76450668D01*
X193624146Y-76436983D01*
X193631578Y-76422283D01*
X193637621Y-76406572D01*
X193642276Y-76389853D01*
X193645545Y-76372130D01*
X193647431Y-76353407D01*
X193647935Y-76333688D01*
X193647060Y-76312976D01*
X193644806Y-76291277D01*
X193641177Y-76268593D01*
X193636174Y-76244928D01*
X193629798Y-76220287D01*
X193622053Y-76194673D01*
X193612940Y-76168090D01*
X193602460Y-76140542D01*
X193578462Y-76083553D01*
X193551114Y-76024704D01*
X193520419Y-75963994D01*
X193486374Y-75901425D01*
X193448981Y-75836994D01*
X193408240Y-75770704D01*
X193364149Y-75702553D01*
X193316710Y-75632542D01*
X193266354Y-75561347D01*
X193213502Y-75489625D01*
X193158138Y-75417345D01*
X193100248Y-75344476D01*
X193039815Y-75270987D01*
X192976824Y-75196847D01*
X192911259Y-75122025D01*
X192843105Y-75046490D01*
X192773464Y-74971450D01*
X192703435Y-74898116D01*
X192633002Y-74826457D01*
X192562151Y-74756440D01*
X192490866Y-74688036D01*
X192419132Y-74621213D01*
X192346932Y-74555941D01*
X192274252Y-74492188D01*
X192201571Y-74430610D01*
X192129372Y-74371885D01*
X192057637Y-74316013D01*
X191986352Y-74262993D01*
X191915501Y-74212825D01*
X191845069Y-74165510D01*
X191775039Y-74121048D01*
X191705397Y-74079438D01*
X191671198Y-74059967D01*
X191637559Y-74041737D01*
X191604482Y-74024752D01*
X191571969Y-74009013D01*
X191540022Y-73994522D01*
X191508642Y-73981281D01*
X191477832Y-73969292D01*
X191447594Y-73958557D01*
X191417929Y-73949077D01*
X191388840Y-73940855D01*
X191360329Y-73933892D01*
X191332397Y-73928192D01*
X191305046Y-73923754D01*
X191278278Y-73920582D01*
X191252096Y-73918678D01*
X191226501Y-73918042D01*
X191206023Y-73918275D01*
X191186261Y-73918975D01*
X191167220Y-73920144D01*
X191148904Y-73921784D01*
X191131317Y-73923896D01*
X191114462Y-73926484D01*
X191098344Y-73929548D01*
X191082965Y-73933090D01*
X191068331Y-73937114D01*
X191054445Y-73941620D01*
X191041311Y-73946610D01*
X191028932Y-73952087D01*
X191017314Y-73958052D01*
X191006458Y-73964507D01*
X190996370Y-73971455D01*
X190987054Y-73978896D01*
X190978310Y-73986633D01*
X190969938Y-73994464D01*
X190961939Y-74002392D01*
X190954312Y-74010419D01*
X190947056Y-74018547D01*
X190940173Y-74026777D01*
X190933662Y-74035112D01*
X190927523Y-74043554D01*
X190921756Y-74052104D01*
X190916361Y-74060765D01*
X190911338Y-74069538D01*
X190906687Y-74078425D01*
X190902408Y-74087429D01*
X190898501Y-74096551D01*
X190894966Y-74105793D01*
X190891803Y-74115157D01*
X190889043Y-74125931D01*
X190886713Y-74136918D01*
X190884810Y-74148114D01*
X190883329Y-74159516D01*
X190882266Y-74171119D01*
X190881618Y-74182920D01*
X190881381Y-74194915D01*
X190881551Y-74207100D01*
X190882124Y-74219470D01*
X190883096Y-74232023D01*
X190884464Y-74244754D01*
X190886223Y-74257660D01*
X190888369Y-74270736D01*
X190890899Y-74283978D01*
X190893809Y-74297384D01*
X190897095Y-74310948D01*
X190894054Y-74304065D01*
X190890873Y-74297306D01*
X190887538Y-74290671D01*
X190884031Y-74284159D01*
X190880339Y-74277772D01*
X190876445Y-74271509D01*
X190872334Y-74265370D01*
X190870193Y-74262347D01*
X190867991Y-74259355D01*
X190862410Y-74248373D01*
X190856581Y-74236245D01*
X190850504Y-74222938D01*
X190844179Y-74208422D01*
X190837605Y-74192666D01*
X190830784Y-74175639D01*
X190823715Y-74157309D01*
X190816397Y-74137646D01*
X190811111Y-74119631D01*
X190806664Y-74101798D01*
X190803058Y-74084144D01*
X190800295Y-74066663D01*
X190798377Y-74049354D01*
X190797305Y-74032211D01*
X190797083Y-74015231D01*
X190797711Y-73998409D01*
X190799192Y-73981743D01*
X190801527Y-73965228D01*
X190804719Y-73948860D01*
X190808770Y-73932635D01*
X190813680Y-73916551D01*
X190819454Y-73900601D01*
X190826091Y-73884784D01*
X190833595Y-73869094D01*
X190841905Y-73853917D01*
X190850958Y-73839145D01*
X190860756Y-73824780D01*
X190871298Y-73810824D01*
X190882584Y-73797279D01*
X190894614Y-73784146D01*
X190907389Y-73771428D01*
X190920907Y-73759127D01*
X190935170Y-73747244D01*
X190950177Y-73735782D01*
X190965928Y-73724742D01*
X190982423Y-73714127D01*
X190999662Y-73703938D01*
X191017646Y-73694177D01*
X191036373Y-73684847D01*
X191055845Y-73675948D01*
X191076015Y-73667530D01*
X191096840Y-73659637D01*
X191118324Y-73652267D01*
X191140471Y-73645418D01*
X191163284Y-73639089D01*
X191186768Y-73633277D01*
X191210926Y-73627980D01*
X191235762Y-73623197D01*
X191261281Y-73618926D01*
X191287485Y-73615164D01*
X191341968Y-73609162D01*
X191399241Y-73605175D01*
X191459335Y-73603188D01*
X191521530Y-73604242D01*
G37*
G36*
X193143983Y-70711687D02*
G01*
X193316357Y-70720821D01*
X193487212Y-70736063D01*
X193656533Y-70757429D01*
X193824303Y-70784933D01*
X193990507Y-70818593D01*
X194155130Y-70858422D01*
X194318156Y-70904438D01*
X194479759Y-70955781D01*
X194639129Y-71011573D01*
X194796267Y-71071800D01*
X194951172Y-71136444D01*
X195103845Y-71205492D01*
X195254285Y-71278926D01*
X195402493Y-71356733D01*
X195548469Y-71438896D01*
X195692088Y-71525402D01*
X195833227Y-71615257D01*
X195971885Y-71708461D01*
X196108063Y-71805013D01*
X196241760Y-71904914D01*
X196372977Y-72008164D01*
X196501713Y-72114762D01*
X196627969Y-72224708D01*
X196751434Y-72337260D01*
X196871799Y-72451671D01*
X196989063Y-72567943D01*
X197103227Y-72686076D01*
X197214290Y-72806068D01*
X197322252Y-72927921D01*
X197427114Y-73051635D01*
X197528875Y-73177208D01*
X197627468Y-73303650D01*
X197722806Y-73430960D01*
X197814858Y-73559139D01*
X197903591Y-73688185D01*
X197988976Y-73818099D01*
X198070981Y-73948882D01*
X198149576Y-74080533D01*
X198224729Y-74213052D01*
X198296224Y-74345137D01*
X198363842Y-74476478D01*
X198427554Y-74607075D01*
X198487328Y-74736927D01*
X198543133Y-74866035D01*
X198594939Y-74994400D01*
X198642714Y-75122020D01*
X198686427Y-75248896D01*
X198726427Y-75374469D01*
X198762102Y-75498183D01*
X198793467Y-75620036D01*
X198820538Y-75740028D01*
X198843330Y-75858161D01*
X198861858Y-75974433D01*
X198876139Y-76088844D01*
X198886187Y-76201396D01*
X198889551Y-76257020D01*
X198891704Y-76311777D01*
X198892643Y-76365665D01*
X198892368Y-76418685D01*
X198890876Y-76470837D01*
X198888164Y-76522120D01*
X198884232Y-76572536D01*
X198879077Y-76622083D01*
X198872697Y-76670762D01*
X198865091Y-76718573D01*
X198856256Y-76765516D01*
X198846190Y-76811591D01*
X198834892Y-76856798D01*
X198822359Y-76901136D01*
X198808590Y-76944606D01*
X198793583Y-76987208D01*
X198777335Y-77029051D01*
X198759841Y-77069751D01*
X198741095Y-77109311D01*
X198721092Y-77147736D01*
X198699825Y-77185029D01*
X198677288Y-77221194D01*
X198653477Y-77256235D01*
X198628384Y-77290156D01*
X198602005Y-77322961D01*
X198574333Y-77354653D01*
X198545363Y-77385237D01*
X198515089Y-77414717D01*
X198483504Y-77443096D01*
X198450604Y-77470377D01*
X198416382Y-77496566D01*
X198380833Y-77521666D01*
X198343936Y-77545230D01*
X198305670Y-77567302D01*
X198266032Y-77587877D01*
X198225019Y-77606953D01*
X198182625Y-77624525D01*
X198138848Y-77640589D01*
X198093684Y-77655142D01*
X198047128Y-77668179D01*
X197999177Y-77679697D01*
X197949826Y-77689692D01*
X197899073Y-77698160D01*
X197846913Y-77705097D01*
X197793342Y-77710499D01*
X197738356Y-77714363D01*
X197681952Y-77716684D01*
X197624125Y-77717458D01*
X197594499Y-77716900D01*
X197564659Y-77715228D01*
X197534604Y-77712444D01*
X197504339Y-77708549D01*
X197473865Y-77703546D01*
X197443183Y-77697436D01*
X197412295Y-77690222D01*
X197381205Y-77681905D01*
X197349912Y-77672487D01*
X197318420Y-77661971D01*
X197286731Y-77650357D01*
X197254845Y-77637649D01*
X197222766Y-77623848D01*
X197190495Y-77608956D01*
X197158034Y-77592975D01*
X197125385Y-77575906D01*
X197059904Y-77539324D01*
X196994437Y-77500045D01*
X196929002Y-77458099D01*
X196863613Y-77413518D01*
X196798287Y-77366332D01*
X196733037Y-77316573D01*
X196667881Y-77264271D01*
X196602833Y-77209458D01*
X196712718Y-77379639D01*
X196818138Y-77548952D01*
X196919093Y-77717520D01*
X196967896Y-77801564D01*
X197015583Y-77885468D01*
X197061227Y-77968691D01*
X197103909Y-78050688D01*
X197143645Y-78131476D01*
X197180452Y-78211071D01*
X197214344Y-78289487D01*
X197245337Y-78366741D01*
X197273446Y-78442847D01*
X197298688Y-78517822D01*
X197310144Y-78554610D01*
X197320702Y-78591053D01*
X197330360Y-78627147D01*
X197339119Y-78662888D01*
X197346979Y-78698273D01*
X197353940Y-78733298D01*
X197360002Y-78767958D01*
X197365164Y-78802250D01*
X197369427Y-78836169D01*
X197372792Y-78869713D01*
X197375257Y-78902877D01*
X197376822Y-78935658D01*
X197377489Y-78968050D01*
X197377256Y-79000052D01*
X197376125Y-79031657D01*
X197374094Y-79062864D01*
X197370947Y-79093590D01*
X197366466Y-79123754D01*
X197360653Y-79153353D01*
X197353506Y-79182381D01*
X197345026Y-79210836D01*
X197335212Y-79238714D01*
X197324066Y-79266010D01*
X197311586Y-79292721D01*
X197297773Y-79318842D01*
X197282626Y-79344371D01*
X197266147Y-79369303D01*
X197248334Y-79393634D01*
X197229188Y-79417361D01*
X197208709Y-79440479D01*
X197186896Y-79462985D01*
X197163750Y-79484875D01*
X197175935Y-79465728D01*
X197186692Y-79445991D01*
X197196018Y-79425660D01*
X197203913Y-79404735D01*
X197210374Y-79383212D01*
X197215398Y-79361091D01*
X197218985Y-79338370D01*
X197221132Y-79315045D01*
X197221837Y-79291116D01*
X197221098Y-79266581D01*
X197218914Y-79241436D01*
X197215282Y-79215682D01*
X197210200Y-79189315D01*
X197203667Y-79162334D01*
X197195681Y-79134736D01*
X197186240Y-79106521D01*
X197175605Y-79077793D01*
X197164042Y-79048659D01*
X197138139Y-78989153D01*
X197108547Y-78927974D01*
X197075280Y-78865089D01*
X197038354Y-78800467D01*
X196997786Y-78734079D01*
X196953590Y-78665892D01*
X196905781Y-78595876D01*
X196854371Y-78524376D01*
X196800341Y-78451760D01*
X196743675Y-78378028D01*
X196684358Y-78303180D01*
X196622375Y-78227215D01*
X196557709Y-78150135D01*
X196490347Y-78071938D01*
X196420271Y-77992625D01*
X196275680Y-77831932D01*
X196127741Y-77669503D01*
X195976577Y-77505585D01*
X195822313Y-77340427D01*
X195512750Y-77008706D01*
X195207156Y-76678969D01*
X195132372Y-76597114D01*
X195059837Y-76516250D01*
X194989564Y-76436379D01*
X194921571Y-76357500D01*
X194855872Y-76279614D01*
X194792484Y-76202719D01*
X194731420Y-76126817D01*
X194672698Y-76051906D01*
X194616326Y-75978175D01*
X194563288Y-75905807D01*
X194513568Y-75834804D01*
X194467149Y-75765164D01*
X194424018Y-75696890D01*
X194384157Y-75629979D01*
X194347552Y-75564433D01*
X194314187Y-75500251D01*
X194298978Y-75468810D01*
X194285098Y-75437988D01*
X194272544Y-75407782D01*
X194261312Y-75378191D01*
X194251397Y-75349212D01*
X194242796Y-75320843D01*
X194235505Y-75293083D01*
X194229520Y-75265929D01*
X194224838Y-75239380D01*
X194221453Y-75213433D01*
X194219364Y-75188088D01*
X194218565Y-75163341D01*
X194219052Y-75139191D01*
X194220823Y-75115636D01*
X194223873Y-75092674D01*
X194228197Y-75070303D01*
X194234182Y-75048568D01*
X194241718Y-75027515D01*
X194250809Y-75007144D01*
X194261456Y-74987455D01*
X194273661Y-74968449D01*
X194287426Y-74950124D01*
X194302753Y-74932482D01*
X194319644Y-74915522D01*
X194338101Y-74899244D01*
X194358125Y-74883648D01*
X194379719Y-74868734D01*
X194402884Y-74854502D01*
X194427624Y-74840953D01*
X194453938Y-74828085D01*
X194481830Y-74815900D01*
X194511302Y-74804397D01*
X194542586Y-74793669D01*
X194575915Y-74783811D01*
X194611287Y-74774826D01*
X194648699Y-74766714D01*
X194688150Y-74759479D01*
X194729637Y-74753121D01*
X194818715Y-74743047D01*
X194915915Y-74736507D01*
X195021224Y-74733518D01*
X195134625Y-74734094D01*
X195256104Y-74738251D01*
X195252879Y-74752049D01*
X195250153Y-74766159D01*
X195247927Y-74780583D01*
X195246202Y-74795322D01*
X195244982Y-74810380D01*
X195244267Y-74825757D01*
X195244060Y-74841456D01*
X195244363Y-74857479D01*
X195245177Y-74873827D01*
X195246505Y-74890503D01*
X195248348Y-74907508D01*
X195250709Y-74924844D01*
X195253589Y-74942514D01*
X195256990Y-74960519D01*
X195260915Y-74978861D01*
X195265364Y-74997542D01*
X195275532Y-75035620D01*
X195287172Y-75074458D01*
X195300269Y-75114070D01*
X195314808Y-75154474D01*
X195330773Y-75195683D01*
X195348150Y-75237714D01*
X195366921Y-75280582D01*
X195387072Y-75324303D01*
X195408590Y-75368830D01*
X195431473Y-75414117D01*
X195455719Y-75460178D01*
X195481330Y-75507031D01*
X195508305Y-75554689D01*
X195536645Y-75603170D01*
X195566348Y-75652487D01*
X195597416Y-75702657D01*
X195661929Y-75804873D01*
X195728550Y-75909198D01*
X195797404Y-76015754D01*
X195868614Y-76124668D01*
X195912392Y-76188103D01*
X195957394Y-76251399D01*
X196003606Y-76314539D01*
X196051011Y-76377510D01*
X196099595Y-76440294D01*
X196149341Y-76502877D01*
X196200235Y-76565242D01*
X196252260Y-76627375D01*
X196305032Y-76688581D01*
X196358176Y-76748174D01*
X196411692Y-76806155D01*
X196465580Y-76862524D01*
X196519840Y-76917280D01*
X196574473Y-76970424D01*
X196629477Y-77021956D01*
X196684853Y-77071875D01*
X196740475Y-77119811D01*
X196796206Y-77165389D01*
X196852029Y-77208612D01*
X196907930Y-77249477D01*
X196963893Y-77287987D01*
X197019903Y-77324140D01*
X197075943Y-77357936D01*
X197131999Y-77389376D01*
X197160215Y-77404041D01*
X197188311Y-77417775D01*
X197216290Y-77430574D01*
X197244158Y-77442437D01*
X197271916Y-77453363D01*
X197299570Y-77463348D01*
X197327124Y-77472392D01*
X197354580Y-77480492D01*
X197381943Y-77487646D01*
X197409217Y-77493852D01*
X197436406Y-77499110D01*
X197463514Y-77503415D01*
X197490544Y-77506767D01*
X197517500Y-77509164D01*
X197544387Y-77510604D01*
X197571207Y-77511084D01*
X197607252Y-77510356D01*
X197641965Y-77508172D01*
X197675349Y-77504535D01*
X197707406Y-77499446D01*
X197738137Y-77492908D01*
X197767544Y-77484923D01*
X197781752Y-77480388D01*
X197795630Y-77475491D01*
X197809178Y-77470234D01*
X197822396Y-77464616D01*
X197835285Y-77458638D01*
X197847845Y-77452300D01*
X197860075Y-77445601D01*
X197871977Y-77438543D01*
X197883551Y-77431125D01*
X197894796Y-77423349D01*
X197905713Y-77415213D01*
X197916303Y-77406718D01*
X197926565Y-77397865D01*
X197936500Y-77388654D01*
X197946107Y-77379084D01*
X197955388Y-77369157D01*
X197964343Y-77358873D01*
X197972971Y-77348231D01*
X197981273Y-77337231D01*
X197989249Y-77325876D01*
X198004318Y-77302280D01*
X198018271Y-77277633D01*
X198031107Y-77251935D01*
X198042827Y-77225189D01*
X198053431Y-77197397D01*
X198062919Y-77168559D01*
X198071291Y-77138680D01*
X198078546Y-77107760D01*
X198084685Y-77075801D01*
X198089708Y-77042805D01*
X198093615Y-77008774D01*
X198096405Y-76973711D01*
X198098080Y-76937617D01*
X198098638Y-76900493D01*
X198098080Y-76862343D01*
X198096405Y-76823167D01*
X198090333Y-76742123D01*
X198080076Y-76657761D01*
X198065663Y-76570113D01*
X198047127Y-76479209D01*
X198024498Y-76385080D01*
X197997807Y-76287758D01*
X197967085Y-76187273D01*
X197932364Y-76083657D01*
X197893728Y-75977180D01*
X197852224Y-75869076D01*
X197807836Y-75759328D01*
X197760550Y-75647921D01*
X197710349Y-75534840D01*
X197657218Y-75420070D01*
X197601141Y-75303593D01*
X197542103Y-75185397D01*
X197479900Y-75065903D01*
X197415310Y-74945556D01*
X197348301Y-74824372D01*
X197278843Y-74702367D01*
X197206904Y-74579555D01*
X197132454Y-74455953D01*
X197055461Y-74331575D01*
X196975895Y-74206438D01*
X196894220Y-74081301D01*
X196810902Y-73956924D01*
X196725910Y-73833321D01*
X196639213Y-73710510D01*
X196550779Y-73588504D01*
X196460578Y-73467320D01*
X196368578Y-73346974D01*
X196274749Y-73227480D01*
X196179496Y-73109229D01*
X196083236Y-72992621D01*
X195985953Y-72877687D01*
X195887631Y-72764459D01*
X195788255Y-72652967D01*
X195687808Y-72543242D01*
X195586277Y-72435316D01*
X195483645Y-72329219D01*
X195380393Y-72225223D01*
X195277001Y-72124560D01*
X195173455Y-72027215D01*
X195069738Y-71933171D01*
X194965834Y-71842414D01*
X194861730Y-71754929D01*
X194757408Y-71670699D01*
X194652854Y-71589709D01*
X194548359Y-71512383D01*
X194444205Y-71439165D01*
X194340361Y-71370071D01*
X194236797Y-71305117D01*
X194133480Y-71244317D01*
X194030380Y-71187687D01*
X193927467Y-71135243D01*
X193824708Y-71087001D01*
X193773502Y-71064646D01*
X193722575Y-71043719D01*
X193671927Y-71024223D01*
X193621558Y-71006158D01*
X193571468Y-70989528D01*
X193521657Y-70974333D01*
X193472125Y-70960577D01*
X193422872Y-70948260D01*
X193373898Y-70937385D01*
X193325204Y-70927954D01*
X193276788Y-70919968D01*
X193228652Y-70913430D01*
X193180794Y-70908341D01*
X193133216Y-70904704D01*
X193085916Y-70902521D01*
X193038896Y-70901792D01*
X193004045Y-70902180D01*
X192970432Y-70903345D01*
X192938056Y-70905289D01*
X192906914Y-70908014D01*
X192877005Y-70911522D01*
X192848326Y-70915815D01*
X192820876Y-70920894D01*
X192794652Y-70926762D01*
X192769654Y-70933421D01*
X192745878Y-70940873D01*
X192723322Y-70949119D01*
X192701986Y-70958161D01*
X192681867Y-70968002D01*
X192662963Y-70978643D01*
X192645272Y-70990086D01*
X192628792Y-71002334D01*
X192613413Y-71015248D01*
X192599026Y-71028686D01*
X192585632Y-71042648D01*
X192573229Y-71057132D01*
X192561819Y-71072134D01*
X192551401Y-71087654D01*
X192541975Y-71103690D01*
X192533542Y-71120239D01*
X192526100Y-71137300D01*
X192519651Y-71154870D01*
X192514194Y-71172948D01*
X192509729Y-71191532D01*
X192506257Y-71210619D01*
X192503776Y-71230209D01*
X192502288Y-71250298D01*
X192501792Y-71270886D01*
X192502210Y-71291908D01*
X192503461Y-71313302D01*
X192505541Y-71335068D01*
X192508448Y-71357206D01*
X192512175Y-71379717D01*
X192516721Y-71402599D01*
X192522081Y-71425853D01*
X192528250Y-71449480D01*
X192535226Y-71473478D01*
X192543004Y-71497849D01*
X192551580Y-71522592D01*
X192560951Y-71547706D01*
X192571113Y-71573193D01*
X192582061Y-71599052D01*
X192593792Y-71625283D01*
X192606302Y-71651886D01*
X192633154Y-71705152D01*
X192662113Y-71758774D01*
X192693181Y-71812737D01*
X192726357Y-71867025D01*
X192761642Y-71921624D01*
X192799035Y-71976517D01*
X192838536Y-72031690D01*
X192880146Y-72087126D01*
X192923557Y-72142502D01*
X192968472Y-72197507D01*
X193014906Y-72252139D01*
X193062874Y-72306399D01*
X193112393Y-72360287D01*
X193163478Y-72413803D01*
X193216144Y-72466948D01*
X193270407Y-72519719D01*
X193325220Y-72571559D01*
X193380498Y-72621894D01*
X193436211Y-72670710D01*
X193492326Y-72717992D01*
X193548814Y-72763723D01*
X193605642Y-72807888D01*
X193662781Y-72850472D01*
X193720198Y-72891459D01*
X193778058Y-72930707D01*
X193835561Y-72968064D01*
X193892723Y-73003499D01*
X193949559Y-73036980D01*
X194006086Y-73068477D01*
X194062317Y-73097958D01*
X194118270Y-73125393D01*
X194173959Y-73150751D01*
X194201570Y-73162735D01*
X194228839Y-73173884D01*
X194255768Y-73184199D01*
X194282355Y-73193684D01*
X194308602Y-73202338D01*
X194334507Y-73210166D01*
X194360071Y-73217168D01*
X194385295Y-73223346D01*
X194410177Y-73228702D01*
X194434718Y-73233239D01*
X194458918Y-73236958D01*
X194482777Y-73239862D01*
X194506295Y-73241951D01*
X194529472Y-73243228D01*
X194552308Y-73243696D01*
X194574803Y-73243355D01*
X194576127Y-73249969D01*
X194526998Y-73275192D01*
X194477836Y-73298775D01*
X194428639Y-73320717D01*
X194379405Y-73341023D01*
X194330132Y-73359692D01*
X194280819Y-73376729D01*
X194231463Y-73392133D01*
X194182063Y-73405908D01*
X194132616Y-73418055D01*
X194083121Y-73428576D01*
X194033575Y-73437473D01*
X193983977Y-73444748D01*
X193934325Y-73450403D01*
X193884616Y-73454440D01*
X193834849Y-73456860D01*
X193785022Y-73457667D01*
X193735305Y-73457109D01*
X193685866Y-73455437D01*
X193636706Y-73452653D01*
X193587825Y-73448758D01*
X193539223Y-73443754D01*
X193490901Y-73437645D01*
X193442857Y-73430430D01*
X193395093Y-73422113D01*
X193347607Y-73412696D01*
X193300401Y-73402179D01*
X193253474Y-73390566D01*
X193206825Y-73377858D01*
X193160456Y-73364057D01*
X193114366Y-73349164D01*
X193068554Y-73333183D01*
X193023022Y-73316115D01*
X192977863Y-73297852D01*
X192933172Y-73278781D01*
X192888955Y-73258900D01*
X192845214Y-73238207D01*
X192801954Y-73216701D01*
X192759178Y-73194378D01*
X192716890Y-73171238D01*
X192675095Y-73147277D01*
X192633796Y-73122496D01*
X192592997Y-73096890D01*
X192552701Y-73070459D01*
X192512914Y-73043201D01*
X192473638Y-73015113D01*
X192434877Y-72986194D01*
X192396636Y-72956442D01*
X192358918Y-72925854D01*
X192321881Y-72894693D01*
X192285680Y-72863220D01*
X192250312Y-72831433D01*
X192215775Y-72799330D01*
X192182067Y-72766909D01*
X192149187Y-72734168D01*
X192117133Y-72701106D01*
X192085902Y-72667720D01*
X192055492Y-72634009D01*
X192025903Y-72599970D01*
X191997131Y-72565601D01*
X191969175Y-72530902D01*
X191942033Y-72495869D01*
X191915703Y-72460500D01*
X191890183Y-72424795D01*
X191865471Y-72388750D01*
X191841906Y-72352519D01*
X191819336Y-72316253D01*
X191797762Y-72279949D01*
X191777186Y-72243601D01*
X191757610Y-72207208D01*
X191739036Y-72170764D01*
X191721466Y-72134265D01*
X191704901Y-72097709D01*
X191689344Y-72061090D01*
X191674797Y-72024406D01*
X191661261Y-71987651D01*
X191648739Y-71950823D01*
X191637232Y-71913918D01*
X191626743Y-71876931D01*
X191617273Y-71839859D01*
X191608824Y-71802698D01*
X191601584Y-71765708D01*
X191595740Y-71729147D01*
X191591290Y-71693013D01*
X191588236Y-71657301D01*
X191586577Y-71622008D01*
X191586314Y-71587130D01*
X191587446Y-71552662D01*
X191589973Y-71518602D01*
X191593895Y-71484944D01*
X191599212Y-71451686D01*
X191605925Y-71418823D01*
X191614033Y-71386351D01*
X191623536Y-71354267D01*
X191634435Y-71322567D01*
X191646729Y-71291247D01*
X191660418Y-71260302D01*
X191675595Y-71229916D01*
X191692354Y-71200272D01*
X191710694Y-71171369D01*
X191730615Y-71143203D01*
X191752117Y-71115775D01*
X191775201Y-71089080D01*
X191799866Y-71063118D01*
X191826113Y-71037887D01*
X191853940Y-71013384D01*
X191883350Y-70989608D01*
X191914340Y-70966557D01*
X191946912Y-70944229D01*
X191981065Y-70922621D01*
X192016799Y-70901732D01*
X192054115Y-70881561D01*
X192093012Y-70862104D01*
X192133645Y-70843594D01*
X192176169Y-70826264D01*
X192220585Y-70810116D01*
X192266892Y-70795152D01*
X192315091Y-70781374D01*
X192365181Y-70768784D01*
X192417162Y-70757384D01*
X192471034Y-70747176D01*
X192526798Y-70738161D01*
X192584454Y-70730342D01*
X192644001Y-70723721D01*
X192705439Y-70718299D01*
X192833989Y-70711062D01*
X192970104Y-70708646D01*
X193143983Y-70711687D01*
G37*
G36*
X184720187Y-59716561D02*
G01*
X184742825Y-59719290D01*
X184753690Y-59721355D01*
X184764242Y-59723895D01*
X184774477Y-59726917D01*
X184784387Y-59730426D01*
X184793967Y-59734428D01*
X184803210Y-59738930D01*
X184812110Y-59743936D01*
X184820661Y-59749454D01*
X184828856Y-59755489D01*
X184836689Y-59762048D01*
X184844154Y-59769135D01*
X184851244Y-59776758D01*
X184857953Y-59784922D01*
X184864275Y-59793632D01*
X184870203Y-59802896D01*
X184875732Y-59812720D01*
X184880854Y-59823108D01*
X184885564Y-59834067D01*
X184889856Y-59845603D01*
X184893722Y-59857722D01*
X184897157Y-59870430D01*
X184900155Y-59883734D01*
X184902709Y-59897638D01*
X184904812Y-59912149D01*
X184907643Y-59943016D01*
X184908598Y-59976383D01*
X184908598Y-60039327D01*
X184908359Y-60056325D01*
X184907643Y-60072693D01*
X184906459Y-60088436D01*
X184904812Y-60103560D01*
X184902709Y-60118071D01*
X184900155Y-60131975D01*
X184897158Y-60145278D01*
X184893722Y-60157986D01*
X184889856Y-60170106D01*
X184885565Y-60181642D01*
X184880855Y-60192601D01*
X184875732Y-60202989D01*
X184870204Y-60212812D01*
X184864275Y-60222076D01*
X184857953Y-60230787D01*
X184851244Y-60238951D01*
X184844154Y-60246574D01*
X184836690Y-60253661D01*
X184828857Y-60260219D01*
X184820662Y-60266255D01*
X184812111Y-60271773D01*
X184803211Y-60276779D01*
X184793968Y-60281281D01*
X184784388Y-60285283D01*
X184774478Y-60288792D01*
X184764243Y-60291814D01*
X184753690Y-60294354D01*
X184742826Y-60296420D01*
X184731656Y-60298015D01*
X184720188Y-60299148D01*
X184708426Y-60299823D01*
X184696378Y-60300047D01*
X184672530Y-60299148D01*
X184649782Y-60296420D01*
X184638840Y-60294354D01*
X184628195Y-60291814D01*
X184617856Y-60288792D01*
X184607830Y-60285283D01*
X184598124Y-60281281D01*
X184588746Y-60276779D01*
X184579703Y-60271773D01*
X184571004Y-60266255D01*
X184562656Y-60260219D01*
X184554665Y-60253661D01*
X184547041Y-60246574D01*
X184539790Y-60238951D01*
X184532920Y-60230787D01*
X184526438Y-60222076D01*
X184520352Y-60212812D01*
X184514670Y-60202989D01*
X184509399Y-60192601D01*
X184504547Y-60181642D01*
X184500121Y-60170106D01*
X184496128Y-60157986D01*
X184492578Y-60145278D01*
X184489476Y-60131975D01*
X184486830Y-60118071D01*
X184484649Y-60103560D01*
X184482939Y-60088436D01*
X184481708Y-60072693D01*
X184480715Y-60039327D01*
X184480715Y-60006307D01*
X184480887Y-60006135D01*
X184480973Y-60006049D01*
X184481060Y-60005964D01*
X184693970Y-60005964D01*
X184693970Y-60070627D01*
X184554667Y-60070627D01*
X184555506Y-60081510D01*
X184556602Y-60091977D01*
X184557953Y-60102031D01*
X184559556Y-60111678D01*
X184561409Y-60120923D01*
X184563509Y-60129770D01*
X184565854Y-60138223D01*
X184568441Y-60146288D01*
X184571266Y-60153969D01*
X184574329Y-60161270D01*
X184577626Y-60168197D01*
X184581154Y-60174754D01*
X184584911Y-60180946D01*
X184588895Y-60186777D01*
X184593103Y-60192253D01*
X184597532Y-60197376D01*
X184602179Y-60202154D01*
X184607043Y-60206589D01*
X184612120Y-60210687D01*
X184617408Y-60214452D01*
X184622905Y-60217889D01*
X184628607Y-60221003D01*
X184634512Y-60223799D01*
X184640618Y-60226280D01*
X184646922Y-60228452D01*
X184653422Y-60230319D01*
X184660114Y-60231886D01*
X184666997Y-60233158D01*
X184674067Y-60234139D01*
X184681323Y-60234833D01*
X184688760Y-60235247D01*
X184696378Y-60235384D01*
X184712794Y-60234739D01*
X184728237Y-60232772D01*
X184735591Y-60231277D01*
X184742698Y-60229434D01*
X184749555Y-60227237D01*
X184756162Y-60224678D01*
X184762517Y-60221753D01*
X184768619Y-60218455D01*
X184774466Y-60214777D01*
X184780056Y-60210715D01*
X184785389Y-60206262D01*
X184790462Y-60201412D01*
X184795273Y-60196159D01*
X184799823Y-60190497D01*
X184804108Y-60184420D01*
X184808128Y-60177921D01*
X184811881Y-60170995D01*
X184815365Y-60163636D01*
X184818579Y-60155838D01*
X184821522Y-60147594D01*
X184826587Y-60129745D01*
X184830547Y-60110043D01*
X184833390Y-60088438D01*
X184835105Y-60064882D01*
X184835680Y-60039328D01*
X184835680Y-59976384D01*
X184835536Y-59963383D01*
X184835105Y-59950885D01*
X184834390Y-59938883D01*
X184833390Y-59927371D01*
X184832109Y-59916344D01*
X184830547Y-59905795D01*
X184828705Y-59895719D01*
X184826587Y-59886110D01*
X184824192Y-59876962D01*
X184821522Y-59868269D01*
X184818579Y-59860026D01*
X184815365Y-59852226D01*
X184811881Y-59844863D01*
X184808128Y-59837932D01*
X184804108Y-59831427D01*
X184799823Y-59825342D01*
X184795273Y-59819671D01*
X184790462Y-59814409D01*
X184785389Y-59809549D01*
X184780056Y-59805085D01*
X184774466Y-59801013D01*
X184768619Y-59797325D01*
X184762517Y-59794016D01*
X184756162Y-59791080D01*
X184749555Y-59788512D01*
X184742698Y-59786305D01*
X184735591Y-59784454D01*
X184728237Y-59782952D01*
X184720638Y-59781795D01*
X184712794Y-59780975D01*
X184704707Y-59780487D01*
X184696378Y-59780326D01*
X184682718Y-59780737D01*
X184669725Y-59781986D01*
X184663478Y-59782931D01*
X184657398Y-59784095D01*
X184651484Y-59785479D01*
X184645736Y-59787087D01*
X184640153Y-59788922D01*
X184634737Y-59790987D01*
X184629485Y-59793284D01*
X184624399Y-59795816D01*
X184619478Y-59798587D01*
X184614721Y-59801599D01*
X184610129Y-59804856D01*
X184605702Y-59808359D01*
X184601439Y-59812112D01*
X184597340Y-59816118D01*
X184593405Y-59820379D01*
X184589633Y-59824900D01*
X184586025Y-59829681D01*
X184582581Y-59834727D01*
X184579299Y-59840041D01*
X184576181Y-59845624D01*
X184573225Y-59851481D01*
X184570431Y-59857614D01*
X184567801Y-59864025D01*
X184565332Y-59870719D01*
X184563025Y-59877696D01*
X184560880Y-59884962D01*
X184557075Y-59900367D01*
X184485876Y-59900367D01*
X184487791Y-59888762D01*
X184490050Y-59877547D01*
X184492649Y-59866723D01*
X184495584Y-59856287D01*
X184498850Y-59846238D01*
X184502443Y-59836575D01*
X184506358Y-59827295D01*
X184510592Y-59818398D01*
X184515140Y-59809882D01*
X184519997Y-59801745D01*
X184525160Y-59793986D01*
X184530623Y-59786603D01*
X184536383Y-59779596D01*
X184542435Y-59772961D01*
X184548775Y-59766699D01*
X184555398Y-59760807D01*
X184562300Y-59755283D01*
X184569478Y-59750127D01*
X184576925Y-59745337D01*
X184584639Y-59740911D01*
X184592615Y-59736848D01*
X184600848Y-59733146D01*
X184609334Y-59729804D01*
X184618068Y-59726820D01*
X184627047Y-59724192D01*
X184636266Y-59721920D01*
X184645721Y-59720002D01*
X184655407Y-59718436D01*
X184675456Y-59716354D01*
X184696378Y-59715663D01*
X184720187Y-59716561D01*
G37*
G36*
X181914784Y-60294201D02*
G01*
X181561884Y-60294201D01*
X181561884Y-60229536D01*
X181841865Y-60229536D01*
X181841865Y-60030728D01*
X181587336Y-60030728D01*
X181587336Y-59966064D01*
X181841865Y-59966064D01*
X181841865Y-59787206D01*
X181561884Y-59787206D01*
X181561884Y-59723229D01*
X181914784Y-59723229D01*
X181914784Y-60294201D01*
G37*
G36*
X188667719Y-59205916D02*
G01*
X187614863Y-59205916D01*
X187534378Y-58973744D01*
X188355060Y-58973744D01*
X188034148Y-58047465D01*
X188266319Y-58047465D01*
X188667719Y-59205916D01*
G37*
G36*
X192307485Y-58279635D02*
G01*
X191843485Y-58279635D01*
X192164398Y-59205915D01*
X191932226Y-59205915D01*
X191611314Y-58279635D01*
X191145251Y-58279635D01*
X191064765Y-58047464D01*
X192226999Y-58047464D01*
X192307485Y-58279635D01*
G37*
G36*
X187309772Y-60293857D02*
G01*
X187123002Y-60293857D01*
X187099193Y-60293012D01*
X187076554Y-60290437D01*
X187055137Y-60286068D01*
X187044902Y-60283193D01*
X187034992Y-60279846D01*
X187025412Y-60276019D01*
X187016169Y-60271706D01*
X187007268Y-60266898D01*
X186998718Y-60261588D01*
X186990523Y-60255768D01*
X186982690Y-60249430D01*
X186975225Y-60242566D01*
X186968135Y-60235168D01*
X186961426Y-60227230D01*
X186955104Y-60218743D01*
X186949176Y-60209699D01*
X186943647Y-60200091D01*
X186938524Y-60189910D01*
X186933814Y-60179150D01*
X186929523Y-60167802D01*
X186925656Y-60155859D01*
X186922221Y-60143313D01*
X186919223Y-60130155D01*
X186916670Y-60116380D01*
X186914566Y-60101978D01*
X186912919Y-60086941D01*
X186911735Y-60071263D01*
X186910780Y-60037951D01*
X186910780Y-60037607D01*
X186984042Y-60037607D01*
X186984186Y-60050623D01*
X186984616Y-60063108D01*
X186985332Y-60075067D01*
X186986331Y-60086510D01*
X186987613Y-60097445D01*
X186989175Y-60107878D01*
X186991016Y-60117818D01*
X186993135Y-60127272D01*
X186995530Y-60136249D01*
X186998200Y-60144756D01*
X187001143Y-60152801D01*
X187004357Y-60160392D01*
X187007841Y-60167536D01*
X187011594Y-60174242D01*
X187015614Y-60180517D01*
X187019900Y-60186369D01*
X187024449Y-60191805D01*
X187029261Y-60196835D01*
X187034334Y-60201465D01*
X187039667Y-60205703D01*
X187045257Y-60209557D01*
X187051104Y-60213035D01*
X187057206Y-60216145D01*
X187063561Y-60218894D01*
X187070168Y-60221291D01*
X187077026Y-60223343D01*
X187084132Y-60225057D01*
X187091486Y-60226443D01*
X187099086Y-60227507D01*
X187106930Y-60228257D01*
X187115017Y-60228701D01*
X187123345Y-60228848D01*
X187237194Y-60228848D01*
X187237194Y-59786861D01*
X187123345Y-59786861D01*
X187106930Y-59787452D01*
X187091486Y-59789266D01*
X187077026Y-59792366D01*
X187070168Y-59794418D01*
X187063561Y-59796815D01*
X187057206Y-59799564D01*
X187051104Y-59802674D01*
X187045257Y-59806152D01*
X187039667Y-59810006D01*
X187034334Y-59814244D01*
X187029261Y-59818874D01*
X187024449Y-59823903D01*
X187019900Y-59829340D01*
X187015614Y-59835192D01*
X187011594Y-59841467D01*
X187007841Y-59848172D01*
X187004357Y-59855317D01*
X187001143Y-59862907D01*
X186998200Y-59870952D01*
X186995530Y-59879459D01*
X186993135Y-59888436D01*
X186989175Y-59907830D01*
X186986331Y-59929198D01*
X186984616Y-59952601D01*
X186984042Y-59978101D01*
X186984042Y-60037607D01*
X186910780Y-60037607D01*
X186910780Y-59978446D01*
X186911020Y-59961461D01*
X186911735Y-59945133D01*
X186912919Y-59929455D01*
X186914566Y-59914419D01*
X186916670Y-59900017D01*
X186919223Y-59886241D01*
X186922221Y-59873084D01*
X186925656Y-59860538D01*
X186929523Y-59848595D01*
X186933814Y-59837247D01*
X186938524Y-59826487D01*
X186943647Y-59816307D01*
X186949176Y-59806698D01*
X186955104Y-59797654D01*
X186961426Y-59789167D01*
X186968135Y-59781229D01*
X186975225Y-59773832D01*
X186982690Y-59766968D01*
X186990523Y-59760630D01*
X186998718Y-59754809D01*
X187007268Y-59749499D01*
X187016169Y-59744691D01*
X187025412Y-59740378D01*
X187034992Y-59736552D01*
X187044902Y-59733205D01*
X187055137Y-59730329D01*
X187065690Y-59727917D01*
X187076554Y-59725961D01*
X187087724Y-59724453D01*
X187099193Y-59723385D01*
X187110954Y-59722751D01*
X187123002Y-59722541D01*
X187309772Y-59722541D01*
X187309772Y-59786861D01*
X187309772Y-60293857D01*
G37*
G36*
X189475330Y-58047465D02*
G01*
X189726420Y-58221163D01*
X189844741Y-58562370D01*
X189726764Y-58745699D01*
X189024057Y-58743636D01*
X188988974Y-58788350D01*
X189040912Y-58938660D01*
X189095945Y-58973743D01*
X189987142Y-58973743D01*
X190067627Y-59205915D01*
X189090786Y-59205915D01*
X188846232Y-59045975D01*
X188722064Y-58687226D01*
X188853800Y-58509744D01*
X189551347Y-58513527D01*
X189579895Y-58466748D01*
X189530709Y-58324349D01*
X189466389Y-58279635D01*
X188581041Y-58279635D01*
X188500555Y-58047464D01*
X189475677Y-58047464D01*
X189475330Y-58047465D01*
G37*
G36*
X189699594Y-60294201D02*
G01*
X189346692Y-60294201D01*
X189346692Y-60229536D01*
X189626674Y-60229536D01*
X189626674Y-60030728D01*
X189372146Y-60030728D01*
X189372146Y-59966064D01*
X189626674Y-59966064D01*
X189626674Y-59787206D01*
X189346692Y-59787206D01*
X189346692Y-59723229D01*
X189699594Y-59723229D01*
X189699594Y-60294201D01*
G37*
G36*
X181310555Y-60056326D02*
G01*
X181309839Y-60072694D01*
X181308655Y-60088437D01*
X181307008Y-60103561D01*
X181304905Y-60118072D01*
X181302351Y-60131976D01*
X181299354Y-60145279D01*
X181295918Y-60157987D01*
X181292052Y-60170107D01*
X181287761Y-60181643D01*
X181283051Y-60192602D01*
X181277928Y-60202990D01*
X181272399Y-60212813D01*
X181266471Y-60222077D01*
X181260149Y-60230788D01*
X181253440Y-60238952D01*
X181246350Y-60246575D01*
X181238885Y-60253662D01*
X181231052Y-60260220D01*
X181222858Y-60266256D01*
X181214307Y-60271774D01*
X181205407Y-60276780D01*
X181196163Y-60281282D01*
X181186583Y-60285284D01*
X181176673Y-60288793D01*
X181166438Y-60291815D01*
X181155885Y-60294355D01*
X181145021Y-60296421D01*
X181133851Y-60298016D01*
X181122382Y-60299149D01*
X181110620Y-60299824D01*
X181098572Y-60300048D01*
X181074763Y-60299149D01*
X181052125Y-60296421D01*
X181041260Y-60294355D01*
X181030708Y-60291815D01*
X181020473Y-60288793D01*
X181010562Y-60285284D01*
X181000982Y-60281282D01*
X180991739Y-60276780D01*
X180982839Y-60271774D01*
X180974288Y-60266256D01*
X180966093Y-60260220D01*
X180958260Y-60253662D01*
X180950796Y-60246575D01*
X180943705Y-60238952D01*
X180936996Y-60230788D01*
X180930674Y-60222077D01*
X180924746Y-60212813D01*
X180919217Y-60202990D01*
X180914095Y-60192602D01*
X180909385Y-60181643D01*
X180905093Y-60170107D01*
X180901227Y-60157987D01*
X180897791Y-60145279D01*
X180894794Y-60131976D01*
X180892240Y-60118072D01*
X180890137Y-60103561D01*
X180887305Y-60072694D01*
X180886350Y-60039328D01*
X180959269Y-60039328D01*
X180959413Y-60052328D01*
X180959844Y-60064826D01*
X180960559Y-60076828D01*
X180961559Y-60088340D01*
X180962840Y-60099367D01*
X180964402Y-60109916D01*
X180966244Y-60119992D01*
X180968363Y-60129601D01*
X180970758Y-60138749D01*
X180973427Y-60147442D01*
X180976370Y-60155685D01*
X180979584Y-60163485D01*
X180983069Y-60170848D01*
X180986822Y-60177779D01*
X180990841Y-60184283D01*
X180995127Y-60190368D01*
X180999676Y-60196039D01*
X181004488Y-60201302D01*
X181009561Y-60206162D01*
X181014894Y-60210625D01*
X181020484Y-60214698D01*
X181026331Y-60218385D01*
X181032433Y-60221694D01*
X181038788Y-60224630D01*
X181045395Y-60227198D01*
X181052253Y-60229405D01*
X181059359Y-60231256D01*
X181066713Y-60232758D01*
X181074313Y-60233915D01*
X181082157Y-60234735D01*
X181090244Y-60235223D01*
X181098572Y-60235384D01*
X181114988Y-60234739D01*
X181130431Y-60232772D01*
X181137785Y-60231277D01*
X181144892Y-60229434D01*
X181151749Y-60227237D01*
X181158357Y-60224678D01*
X181164712Y-60221753D01*
X181170814Y-60218455D01*
X181176661Y-60214777D01*
X181182251Y-60210715D01*
X181187583Y-60206262D01*
X181192656Y-60201412D01*
X181197468Y-60196159D01*
X181202018Y-60190497D01*
X181206303Y-60184420D01*
X181210323Y-60177921D01*
X181214076Y-60170995D01*
X181217561Y-60163636D01*
X181220775Y-60155838D01*
X181223718Y-60147594D01*
X181228782Y-60129745D01*
X181232742Y-60110043D01*
X181235586Y-60088438D01*
X181237301Y-60064882D01*
X181237876Y-60039328D01*
X181237876Y-59976384D01*
X181237732Y-59963383D01*
X181237301Y-59950885D01*
X181236586Y-59938883D01*
X181235586Y-59927371D01*
X181234305Y-59916344D01*
X181232742Y-59905795D01*
X181230901Y-59895719D01*
X181228782Y-59886110D01*
X181226387Y-59876962D01*
X181223718Y-59868269D01*
X181220775Y-59860026D01*
X181217561Y-59852226D01*
X181214076Y-59844863D01*
X181210323Y-59837932D01*
X181206303Y-59831427D01*
X181202018Y-59825342D01*
X181197468Y-59819671D01*
X181192656Y-59814409D01*
X181187583Y-59809549D01*
X181182251Y-59805085D01*
X181176661Y-59801013D01*
X181170814Y-59797325D01*
X181164712Y-59794016D01*
X181158357Y-59791080D01*
X181151749Y-59788512D01*
X181144892Y-59786305D01*
X181137785Y-59784454D01*
X181130431Y-59782952D01*
X181122832Y-59781795D01*
X181114988Y-59780975D01*
X181106901Y-59780487D01*
X181098572Y-59780326D01*
X181082157Y-59780971D01*
X181066713Y-59782938D01*
X181059359Y-59784433D01*
X181052253Y-59786276D01*
X181045395Y-59788474D01*
X181038788Y-59791032D01*
X181032433Y-59793958D01*
X181026331Y-59797256D01*
X181020484Y-59800933D01*
X181014894Y-59804995D01*
X181009561Y-59809448D01*
X181004488Y-59814298D01*
X180999676Y-59819551D01*
X180995127Y-59825214D01*
X180990841Y-59831291D01*
X180986822Y-59837790D01*
X180983069Y-59844716D01*
X180979584Y-59852075D01*
X180976370Y-59859873D01*
X180973427Y-59868117D01*
X180968363Y-59885966D01*
X180964402Y-59905668D01*
X180961559Y-59927273D01*
X180959844Y-59950829D01*
X180959269Y-59976384D01*
X180959269Y-60039328D01*
X180886350Y-60039328D01*
X180886350Y-59976384D01*
X180886590Y-59959385D01*
X180887305Y-59943017D01*
X180888490Y-59927274D01*
X180890137Y-59912150D01*
X180892240Y-59897639D01*
X180894794Y-59883735D01*
X180897791Y-59870431D01*
X180901227Y-59857723D01*
X180905093Y-59845604D01*
X180909385Y-59834068D01*
X180914095Y-59823109D01*
X180919217Y-59812721D01*
X180924746Y-59802897D01*
X180930674Y-59793633D01*
X180936996Y-59784923D01*
X180943705Y-59776759D01*
X180950796Y-59769136D01*
X180958260Y-59762049D01*
X180966093Y-59755490D01*
X180974288Y-59749455D01*
X180982839Y-59743937D01*
X180991739Y-59738931D01*
X181000982Y-59734429D01*
X181010562Y-59730427D01*
X181020473Y-59726918D01*
X181030708Y-59723896D01*
X181041260Y-59721356D01*
X181052125Y-59719290D01*
X181063294Y-59717695D01*
X181074763Y-59716562D01*
X181086525Y-59715887D01*
X181098572Y-59715664D01*
X181122382Y-59716562D01*
X181145020Y-59719290D01*
X181155884Y-59721356D01*
X181166437Y-59723896D01*
X181176672Y-59726918D01*
X181186583Y-59730427D01*
X181196163Y-59734429D01*
X181205406Y-59738931D01*
X181214306Y-59743937D01*
X181222857Y-59749455D01*
X181231052Y-59755490D01*
X181238885Y-59762049D01*
X181246349Y-59769136D01*
X181253439Y-59776759D01*
X181260149Y-59784923D01*
X181266470Y-59793633D01*
X181272399Y-59802897D01*
X181277928Y-59812721D01*
X181283050Y-59823109D01*
X181287760Y-59834068D01*
X181292052Y-59845604D01*
X181295918Y-59857723D01*
X181299353Y-59870431D01*
X181302351Y-59883735D01*
X181304905Y-59897639D01*
X181307008Y-59912150D01*
X181309839Y-59943017D01*
X181310794Y-59976384D01*
X181310794Y-60039328D01*
X181310555Y-60056326D01*
G37*
G36*
X196770000Y-59500000D02*
G01*
X196772552Y-59506249D01*
X196775547Y-59512215D01*
X196778963Y-59517882D01*
X196782775Y-59523233D01*
X196786960Y-59528251D01*
X196791494Y-59532921D01*
X196796354Y-59537224D01*
X196801516Y-59541146D01*
X196806955Y-59544668D01*
X196812649Y-59547774D01*
X196818574Y-59550448D01*
X196824706Y-59552674D01*
X196831021Y-59554433D01*
X196837496Y-59555711D01*
X196844107Y-59556490D01*
X196850831Y-59556753D01*
X197736180Y-59556753D01*
X197741128Y-59556893D01*
X197746032Y-59557311D01*
X197750882Y-59558002D01*
X197755667Y-59558962D01*
X197760375Y-59560185D01*
X197764996Y-59561668D01*
X197769517Y-59563406D01*
X197773929Y-59565395D01*
X197778220Y-59567629D01*
X197782379Y-59570105D01*
X197786395Y-59572817D01*
X197790256Y-59575762D01*
X197793953Y-59578934D01*
X197797473Y-59582330D01*
X197800805Y-59585944D01*
X197803939Y-59589773D01*
X198738474Y-60787436D01*
X194683550Y-60787436D01*
X194683205Y-60787093D01*
X194676714Y-60786909D01*
X194670278Y-60786360D01*
X194663911Y-60785452D01*
X194657629Y-60784191D01*
X194651445Y-60782584D01*
X194645374Y-60780636D01*
X194639432Y-60778354D01*
X194633632Y-60775743D01*
X194627989Y-60772809D01*
X194622519Y-60769559D01*
X194617234Y-60765999D01*
X194612151Y-60762135D01*
X194607283Y-60757972D01*
X194602646Y-60753517D01*
X194598253Y-60748776D01*
X194594120Y-60743755D01*
X193773780Y-59695369D01*
X193769897Y-59690008D01*
X193766499Y-59684516D01*
X193763575Y-59678913D01*
X193761116Y-59673217D01*
X193759112Y-59667450D01*
X193757553Y-59661630D01*
X193756430Y-59655778D01*
X193755733Y-59649913D01*
X193755451Y-59644055D01*
X193755577Y-59638224D01*
X193756099Y-59632439D01*
X193757008Y-59626721D01*
X193758294Y-59621089D01*
X193759948Y-59615563D01*
X193761961Y-59610163D01*
X193764321Y-59604908D01*
X193767020Y-59599818D01*
X193770048Y-59594914D01*
X193773395Y-59590214D01*
X193777051Y-59585739D01*
X193781008Y-59581508D01*
X193785254Y-59577542D01*
X193789781Y-59573859D01*
X193794578Y-59570480D01*
X193799637Y-59567424D01*
X193804947Y-59564712D01*
X193810498Y-59562363D01*
X193816281Y-59560396D01*
X193822287Y-59558832D01*
X193828505Y-59557691D01*
X193834925Y-59556991D01*
X193841539Y-59556754D01*
X195405174Y-59556754D01*
X195410699Y-59556583D01*
X195416111Y-59556080D01*
X195421402Y-59555254D01*
X195426564Y-59554117D01*
X195431589Y-59552681D01*
X195436469Y-59550956D01*
X195441195Y-59548955D01*
X195445761Y-59546688D01*
X195450157Y-59544166D01*
X195454376Y-59541401D01*
X195458409Y-59538405D01*
X195462249Y-59535187D01*
X195465888Y-59531761D01*
X195469316Y-59528136D01*
X195472528Y-59524324D01*
X195475513Y-59520337D01*
X195478265Y-59516186D01*
X195480774Y-59511882D01*
X195483034Y-59507436D01*
X195485036Y-59502859D01*
X195486772Y-59498164D01*
X195488234Y-59493360D01*
X195489414Y-59488460D01*
X195490303Y-59483475D01*
X195490894Y-59478415D01*
X195491179Y-59473293D01*
X195491149Y-59468119D01*
X195490797Y-59462905D01*
X195490115Y-59457662D01*
X195489094Y-59452402D01*
X195487726Y-59447134D01*
X195486003Y-59441872D01*
X194850024Y-57675302D01*
X194848332Y-57670038D01*
X194846990Y-57664768D01*
X194845992Y-57659503D01*
X194845329Y-57654254D01*
X194844993Y-57649032D01*
X194844977Y-57643849D01*
X194845271Y-57638716D01*
X194845870Y-57633645D01*
X194846764Y-57628647D01*
X194847947Y-57623733D01*
X194849409Y-57618915D01*
X194851143Y-57614205D01*
X194853142Y-57609613D01*
X194855397Y-57605151D01*
X194857900Y-57600831D01*
X194860644Y-57596664D01*
X194863621Y-57592660D01*
X194866823Y-57588833D01*
X194870242Y-57585192D01*
X194873870Y-57581750D01*
X194877699Y-57578518D01*
X194881722Y-57575507D01*
X194885930Y-57572729D01*
X194890316Y-57570195D01*
X194894872Y-57567916D01*
X194899589Y-57565904D01*
X194904461Y-57564170D01*
X194909479Y-57562726D01*
X194914635Y-57561583D01*
X194919921Y-57560753D01*
X194925330Y-57560246D01*
X194930854Y-57560075D01*
X196074860Y-57560075D01*
X196770000Y-59500000D01*
G37*
G36*
X189065677Y-60293511D02*
G01*
X188992759Y-60293511D01*
X188992759Y-60052741D01*
X188854488Y-60052741D01*
X188732383Y-60293511D01*
X188732382Y-60293510D01*
X188650864Y-60293510D01*
X188781568Y-60040358D01*
X188767914Y-60035956D01*
X188755074Y-60030876D01*
X188743059Y-60025117D01*
X188731877Y-60018678D01*
X188721538Y-60011557D01*
X188716687Y-60007741D01*
X188712050Y-60003755D01*
X188707628Y-59999597D01*
X188703422Y-59995269D01*
X188699434Y-59990769D01*
X188695665Y-59986099D01*
X188692115Y-59981257D01*
X188688786Y-59976243D01*
X188685679Y-59971058D01*
X188682794Y-59965702D01*
X188680135Y-59960173D01*
X188677700Y-59954473D01*
X188675492Y-59948600D01*
X188673512Y-59942556D01*
X188671760Y-59936339D01*
X188670238Y-59929949D01*
X188667889Y-59916653D01*
X188666472Y-59902665D01*
X188665998Y-59887985D01*
X188739262Y-59887985D01*
X188739742Y-59900672D01*
X188741200Y-59912431D01*
X188742304Y-59917968D01*
X188743663Y-59923278D01*
X188745279Y-59928363D01*
X188747157Y-59933226D01*
X188749299Y-59937869D01*
X188751709Y-59942292D01*
X188754390Y-59946499D01*
X188757346Y-59950490D01*
X188760579Y-59954269D01*
X188764094Y-59957836D01*
X188767894Y-59961194D01*
X188771981Y-59964344D01*
X188776359Y-59967289D01*
X188781032Y-59970030D01*
X188786003Y-59972569D01*
X188791275Y-59974909D01*
X188796852Y-59977050D01*
X188802737Y-59978995D01*
X188815443Y-59982305D01*
X188829421Y-59984853D01*
X188844698Y-59986654D01*
X188861299Y-59987724D01*
X188879253Y-59988077D01*
X188993103Y-59988077D01*
X188993103Y-59786861D01*
X188879253Y-59786861D01*
X188861299Y-59787226D01*
X188852831Y-59787684D01*
X188844698Y-59788329D01*
X188836895Y-59789160D01*
X188829421Y-59790181D01*
X188822271Y-59791392D01*
X188815443Y-59792795D01*
X188808933Y-59794391D01*
X188802737Y-59796182D01*
X188796852Y-59798170D01*
X188791275Y-59800356D01*
X188786003Y-59802742D01*
X188781032Y-59805328D01*
X188776359Y-59808117D01*
X188771981Y-59811110D01*
X188767894Y-59814309D01*
X188764094Y-59817715D01*
X188760579Y-59821329D01*
X188757346Y-59825153D01*
X188754390Y-59829189D01*
X188751709Y-59833438D01*
X188749299Y-59837902D01*
X188747157Y-59842582D01*
X188745279Y-59847480D01*
X188743663Y-59852597D01*
X188742304Y-59857934D01*
X188741200Y-59863494D01*
X188740347Y-59869277D01*
X188739742Y-59875286D01*
X188739382Y-59881521D01*
X188739262Y-59887985D01*
X188665998Y-59887985D01*
X188666226Y-59877765D01*
X188666908Y-59867875D01*
X188668039Y-59858312D01*
X188669617Y-59849077D01*
X188671636Y-59840169D01*
X188674092Y-59831589D01*
X188676984Y-59823336D01*
X188680305Y-59815409D01*
X188684052Y-59807809D01*
X188688222Y-59800535D01*
X188692810Y-59793588D01*
X188697813Y-59786966D01*
X188703226Y-59780669D01*
X188709046Y-59774698D01*
X188715269Y-59769051D01*
X188721891Y-59763730D01*
X188728908Y-59758732D01*
X188736316Y-59754060D01*
X188744111Y-59749711D01*
X188752290Y-59745685D01*
X188760848Y-59741984D01*
X188769781Y-59738605D01*
X188788759Y-59732816D01*
X188809192Y-59728318D01*
X188831048Y-59725107D01*
X188854298Y-59723182D01*
X188878909Y-59722541D01*
X189065677Y-59722541D01*
X189065677Y-59786861D01*
X189065677Y-60293511D01*
G37*
G36*
X184255079Y-60293511D02*
G01*
X184178378Y-60293511D01*
X184133319Y-60162808D01*
X183902523Y-60162808D01*
X183857464Y-60293511D01*
X183780074Y-60293511D01*
X183849747Y-60098144D01*
X183924880Y-60098144D01*
X184109928Y-60098144D01*
X184017403Y-59829857D01*
X183924880Y-60098144D01*
X183849747Y-60098144D01*
X183983697Y-59722541D01*
X184051456Y-59722541D01*
X184185406Y-60098144D01*
X184255079Y-60293511D01*
G37*
G36*
X186685145Y-60293511D02*
G01*
X186608443Y-60293511D01*
X186563385Y-60162808D01*
X186332588Y-60162808D01*
X186287529Y-60293511D01*
X186210138Y-60293511D01*
X186279811Y-60098144D01*
X186354944Y-60098144D01*
X186539994Y-60098144D01*
X186447469Y-59829857D01*
X186354944Y-60098144D01*
X186279811Y-60098144D01*
X186413761Y-59722541D01*
X186481520Y-59722541D01*
X186615471Y-60098144D01*
X186685145Y-60293511D01*
G37*
G36*
X182242392Y-58973743D02*
G01*
X182322720Y-59205571D01*
X181345879Y-59205571D01*
X181101324Y-59045630D01*
X181000671Y-58755330D01*
X181232716Y-58755330D01*
X181232718Y-58755331D01*
X181296350Y-58938660D01*
X181349319Y-58973743D01*
X182010405Y-58973743D01*
X181918571Y-58708551D01*
X181265393Y-58708551D01*
X181232716Y-58755330D01*
X181000671Y-58755330D01*
X180964774Y-58651797D01*
X181005016Y-58599172D01*
X180929001Y-58548610D01*
X180851264Y-58324350D01*
X181083439Y-58324350D01*
X181124027Y-58441296D01*
X181176996Y-58476380D01*
X181837963Y-58476380D01*
X181769980Y-58279636D01*
X181116804Y-58279636D01*
X181083439Y-58324350D01*
X180851264Y-58324350D01*
X180815495Y-58221162D01*
X180946544Y-58047464D01*
X180946372Y-58047291D01*
X180946201Y-58047120D01*
X181921322Y-58047120D01*
X182070059Y-58476380D01*
X182242392Y-58973743D01*
G37*
G36*
X187558796Y-59205915D02*
G01*
X187297388Y-59205915D01*
X187066936Y-58940723D01*
X186294748Y-58940723D01*
X186248315Y-59205915D01*
X185986908Y-59205915D01*
X186072410Y-58708551D01*
X186333274Y-58708551D01*
X186865722Y-58708551D01*
X186494590Y-58279635D01*
X186408944Y-58279635D01*
X186333274Y-58708551D01*
X186072410Y-58708551D01*
X186186058Y-58047464D01*
X186556847Y-58047464D01*
X187128624Y-58708551D01*
X187558796Y-59205915D01*
G37*
G36*
X191298312Y-59205916D02*
G01*
X190245456Y-59205916D01*
X190164969Y-58973744D01*
X190985998Y-58973744D01*
X190986341Y-58974089D01*
X190905855Y-58741916D01*
X190390949Y-58741916D01*
X190310463Y-58509745D01*
X190825369Y-58509745D01*
X190745570Y-58279636D01*
X189930389Y-58279636D01*
X189849903Y-58047465D01*
X190896912Y-58047465D01*
X191298312Y-59205916D01*
G37*
G36*
X182514992Y-60293511D02*
G01*
X182162090Y-60293511D01*
X182162090Y-60228848D01*
X182442074Y-60228848D01*
X182442074Y-59722541D01*
X182514992Y-59722541D01*
X182514992Y-60293511D01*
G37*
G36*
X199507543Y-57560595D02*
G01*
X199513658Y-57561120D01*
X199519706Y-57561988D01*
X199525672Y-57563192D01*
X199531544Y-57564727D01*
X199537307Y-57566586D01*
X199542948Y-57568764D01*
X199548454Y-57571254D01*
X199553811Y-57574050D01*
X199559005Y-57577147D01*
X199564022Y-57580538D01*
X199568850Y-57584217D01*
X199573474Y-57588178D01*
X199577881Y-57592416D01*
X199582057Y-57596923D01*
X199585988Y-57601695D01*
X200380188Y-58617060D01*
X200385041Y-58623762D01*
X200389290Y-58630630D01*
X200392945Y-58637641D01*
X200396020Y-58644768D01*
X200398527Y-58651987D01*
X200400477Y-58659273D01*
X200401882Y-58666601D01*
X200402755Y-58673947D01*
X200403107Y-58681285D01*
X200402951Y-58688591D01*
X200402299Y-58695839D01*
X200401162Y-58703005D01*
X200399553Y-58710064D01*
X200397484Y-58716992D01*
X200394966Y-58723762D01*
X200392012Y-58730351D01*
X200388633Y-58736733D01*
X200384843Y-58742883D01*
X200380652Y-58748778D01*
X200376073Y-58754391D01*
X200371118Y-58759698D01*
X200365799Y-58764674D01*
X200360128Y-58769294D01*
X200354117Y-58773534D01*
X200347778Y-58777367D01*
X200341123Y-58780771D01*
X200334164Y-58783719D01*
X200326913Y-58786187D01*
X200319382Y-58788150D01*
X200311583Y-58789582D01*
X200303529Y-58790460D01*
X200295230Y-58790758D01*
X199386837Y-58790758D01*
X199379939Y-58790973D01*
X199373182Y-58791606D01*
X199366576Y-58792644D01*
X199360131Y-58794073D01*
X199353857Y-58795878D01*
X199347764Y-58798045D01*
X199341862Y-58800561D01*
X199336162Y-58803410D01*
X199330672Y-58806578D01*
X199325404Y-58810051D01*
X199320367Y-58813816D01*
X199315570Y-58817857D01*
X199311026Y-58822161D01*
X199306742Y-58826713D01*
X199302729Y-58831499D01*
X199298998Y-58836505D01*
X199295558Y-58841716D01*
X199292419Y-58847119D01*
X199289591Y-58852699D01*
X199287085Y-58858441D01*
X199284910Y-58864333D01*
X199283076Y-58870358D01*
X199281594Y-58876504D01*
X199280472Y-58882756D01*
X199279723Y-58889100D01*
X199279354Y-58895521D01*
X199279377Y-58902005D01*
X199279801Y-58908538D01*
X199280637Y-58915106D01*
X199281894Y-58921695D01*
X199283583Y-58928290D01*
X199285712Y-58934877D01*
X199900710Y-60642974D01*
X199902840Y-60649561D01*
X199904528Y-60656156D01*
X199905785Y-60662744D01*
X199906621Y-60669312D01*
X199907044Y-60675845D01*
X199907066Y-60682330D01*
X199906696Y-60688751D01*
X199905945Y-60695094D01*
X199904821Y-60701346D01*
X199903336Y-60707492D01*
X199901499Y-60713518D01*
X199899319Y-60719409D01*
X199896808Y-60725152D01*
X199893975Y-60730732D01*
X199890829Y-60736134D01*
X199887382Y-60741346D01*
X199883642Y-60746352D01*
X199879620Y-60751138D01*
X199875325Y-60755690D01*
X199870768Y-60759993D01*
X199865959Y-60764035D01*
X199860907Y-60767799D01*
X199855623Y-60771273D01*
X199850116Y-60774441D01*
X199844396Y-60777290D01*
X199838474Y-60779805D01*
X199832359Y-60781973D01*
X199826062Y-60783778D01*
X199819591Y-60785207D01*
X199812958Y-60786245D01*
X199806172Y-60786878D01*
X199799242Y-60787092D01*
X198702359Y-60786061D01*
X198701427Y-60786042D01*
X198700502Y-60785985D01*
X198699585Y-60785892D01*
X198698676Y-60785762D01*
X198697777Y-60785597D01*
X198696887Y-60785396D01*
X198696009Y-60785162D01*
X198695142Y-60784894D01*
X198694288Y-60784594D01*
X198693447Y-60784262D01*
X198692621Y-60783898D01*
X198691809Y-60783503D01*
X198691014Y-60783079D01*
X198690235Y-60782625D01*
X198689474Y-60782142D01*
X198688731Y-60781632D01*
X198688007Y-60781094D01*
X198687303Y-60780530D01*
X198686620Y-60779941D01*
X198685958Y-60779326D01*
X198685319Y-60778686D01*
X198684703Y-60778023D01*
X198684111Y-60777337D01*
X198683544Y-60776628D01*
X198683003Y-60775898D01*
X198682488Y-60775147D01*
X198682001Y-60774375D01*
X198681541Y-60773584D01*
X198681111Y-60772774D01*
X198680711Y-60771946D01*
X198680341Y-60771101D01*
X198680002Y-60770238D01*
X197996213Y-58861957D01*
X197993022Y-58854129D01*
X197989272Y-58846652D01*
X197984992Y-58839549D01*
X197980214Y-58832839D01*
X197974966Y-58826544D01*
X197969278Y-58820686D01*
X197963180Y-58815286D01*
X197956701Y-58810364D01*
X197949872Y-58805941D01*
X197942722Y-58802040D01*
X197935280Y-58798681D01*
X197927577Y-58795885D01*
X197919643Y-58793674D01*
X197911506Y-58792068D01*
X197903197Y-58791089D01*
X197894746Y-58790758D01*
X197035194Y-58790758D01*
X197029025Y-58790582D01*
X197022910Y-58790057D01*
X197016862Y-58789189D01*
X197010896Y-58787985D01*
X197005024Y-58786450D01*
X196999261Y-58784591D01*
X196993620Y-58782413D01*
X196988114Y-58779923D01*
X196982757Y-58777127D01*
X196977563Y-58774030D01*
X196972546Y-58770639D01*
X196967718Y-58766960D01*
X196963094Y-58762999D01*
X196958687Y-58758762D01*
X196954511Y-58754254D01*
X196950579Y-58749483D01*
X196052161Y-57598598D01*
X196051069Y-57597127D01*
X196050113Y-57595619D01*
X196049291Y-57594079D01*
X196048599Y-57592514D01*
X196048036Y-57590928D01*
X196047597Y-57589327D01*
X196047280Y-57587717D01*
X196047082Y-57586103D01*
X196047000Y-57584491D01*
X196047033Y-57582885D01*
X196047176Y-57581292D01*
X196047426Y-57579716D01*
X196047782Y-57578165D01*
X196048240Y-57576642D01*
X196048798Y-57575153D01*
X196049452Y-57573705D01*
X196050199Y-57572301D01*
X196051038Y-57570949D01*
X196051965Y-57569653D01*
X196052977Y-57568418D01*
X196054071Y-57567251D01*
X196055245Y-57566157D01*
X196056495Y-57565140D01*
X196057820Y-57564208D01*
X196059215Y-57563365D01*
X196060679Y-57562616D01*
X196062208Y-57561968D01*
X196063799Y-57561425D01*
X196065450Y-57560993D01*
X196067159Y-57560678D01*
X196068921Y-57560485D01*
X196070734Y-57560419D01*
X199501375Y-57560419D01*
X199507543Y-57560595D01*
G37*
G36*
X187710139Y-60293511D02*
G01*
X187637220Y-60293511D01*
X187637220Y-59722541D01*
X187710139Y-59722541D01*
X187710139Y-60293511D01*
G37*
G36*
X191186182Y-60158679D02*
G01*
X191440712Y-59722541D01*
X191510191Y-59722541D01*
X191510191Y-60293511D01*
X191437272Y-60293511D01*
X191437272Y-59861500D01*
X191184463Y-60293511D01*
X191113263Y-60293511D01*
X191113263Y-59722541D01*
X191186182Y-59722541D01*
X191186182Y-60158679D01*
G37*
G36*
X182915704Y-60293511D02*
G01*
X182842785Y-60293511D01*
X182842785Y-59722541D01*
X182915704Y-59722541D01*
X182915704Y-60293511D01*
G37*
G36*
X191902305Y-60061684D02*
G01*
X191902449Y-60073168D01*
X191902880Y-60084211D01*
X191903595Y-60094818D01*
X191904595Y-60104995D01*
X191905876Y-60114747D01*
X191907438Y-60124078D01*
X191909280Y-60132993D01*
X191911399Y-60141498D01*
X191913794Y-60149598D01*
X191916463Y-60157297D01*
X191919406Y-60164600D01*
X191922620Y-60171512D01*
X191926105Y-60178039D01*
X191929858Y-60184185D01*
X191933878Y-60189955D01*
X191938163Y-60195355D01*
X191942712Y-60200388D01*
X191947524Y-60205061D01*
X191952597Y-60209378D01*
X191957930Y-60213345D01*
X191963520Y-60216965D01*
X191969367Y-60220244D01*
X191975469Y-60223188D01*
X191981824Y-60225800D01*
X191988431Y-60228087D01*
X191995289Y-60230052D01*
X192002395Y-60231702D01*
X192009749Y-60233040D01*
X192017349Y-60234073D01*
X192025193Y-60234804D01*
X192033280Y-60235239D01*
X192041608Y-60235383D01*
X192058024Y-60234804D01*
X192073467Y-60233040D01*
X192080821Y-60231702D01*
X192087928Y-60230052D01*
X192094785Y-60228087D01*
X192101392Y-60225800D01*
X192107748Y-60223188D01*
X192113849Y-60220245D01*
X192119696Y-60216965D01*
X192125287Y-60213345D01*
X192130619Y-60209379D01*
X192135692Y-60205062D01*
X192140504Y-60200389D01*
X192145053Y-60195355D01*
X192149339Y-60189956D01*
X192153359Y-60184185D01*
X192157112Y-60178039D01*
X192160596Y-60171512D01*
X192163810Y-60164600D01*
X192166753Y-60157297D01*
X192169422Y-60149598D01*
X192171817Y-60141499D01*
X192173936Y-60132994D01*
X192175778Y-60124078D01*
X192178621Y-60104996D01*
X192180336Y-60084211D01*
X192180911Y-60061684D01*
X192180911Y-59722198D01*
X192253829Y-59722198D01*
X192253829Y-60061684D01*
X192253590Y-60077166D01*
X192252874Y-60092079D01*
X192251690Y-60106427D01*
X192250043Y-60120217D01*
X192247940Y-60133452D01*
X192245386Y-60146139D01*
X192242388Y-60158282D01*
X192238953Y-60169886D01*
X192235087Y-60180956D01*
X192230795Y-60191498D01*
X192226085Y-60201517D01*
X192220963Y-60211018D01*
X192215434Y-60220005D01*
X192209505Y-60228484D01*
X192203183Y-60236461D01*
X192196474Y-60243939D01*
X192189384Y-60250925D01*
X192181919Y-60257423D01*
X192174086Y-60263438D01*
X192165891Y-60268976D01*
X192157341Y-60274042D01*
X192148441Y-60278640D01*
X192139197Y-60282777D01*
X192129617Y-60286456D01*
X192119707Y-60289683D01*
X192109472Y-60292463D01*
X192098919Y-60294802D01*
X192088054Y-60296704D01*
X192076885Y-60298174D01*
X192065416Y-60299219D01*
X192053654Y-60299841D01*
X192041606Y-60300048D01*
X192017797Y-60299218D01*
X191995159Y-60296703D01*
X191984294Y-60294799D01*
X191973742Y-60292459D01*
X191963507Y-60289676D01*
X191953596Y-60286445D01*
X191944016Y-60282761D01*
X191934773Y-60278619D01*
X191925873Y-60274014D01*
X191917322Y-60268940D01*
X191909127Y-60263392D01*
X191901294Y-60257365D01*
X191893830Y-60250854D01*
X191886740Y-60243853D01*
X191880030Y-60236357D01*
X191873708Y-60228362D01*
X191867780Y-60219861D01*
X191862251Y-60210850D01*
X191857129Y-60201323D01*
X191852419Y-60191275D01*
X191848127Y-60180701D01*
X191844261Y-60169595D01*
X191840826Y-60157953D01*
X191837828Y-60145770D01*
X191835274Y-60133039D01*
X191833171Y-60119756D01*
X191831524Y-60105915D01*
X191830339Y-60091512D01*
X191829624Y-60076540D01*
X191829384Y-60060996D01*
X191829384Y-59722541D01*
X191829386Y-59722198D01*
X191902305Y-59722198D01*
X191902305Y-60061684D01*
G37*
G36*
X190203149Y-60177598D02*
G01*
X190367905Y-59722541D01*
X190448737Y-59722541D01*
X190236514Y-60293511D01*
X190167722Y-60293511D01*
X189955499Y-59722541D01*
X190035985Y-59722541D01*
X190203149Y-60177598D01*
G37*
G36*
X184044918Y-59205915D02*
G01*
X183783510Y-59205915D01*
X183553058Y-58940723D01*
X182780872Y-58940723D01*
X182734439Y-59205915D01*
X182473030Y-59205915D01*
X182558533Y-58708551D01*
X182819396Y-58708551D01*
X183351844Y-58708551D01*
X182980714Y-58279635D01*
X182895068Y-58279635D01*
X182819396Y-58708551D01*
X182558533Y-58708551D01*
X182672182Y-58047464D01*
X183042967Y-58047464D01*
X183614745Y-58708551D01*
X184044918Y-59205915D01*
G37*
G36*
X185153842Y-59205916D02*
G01*
X184100986Y-59205916D01*
X184020498Y-58973744D01*
X184841184Y-58973744D01*
X184520271Y-58047465D01*
X184752442Y-58047465D01*
X185153842Y-59205916D01*
G37*
G36*
X193156719Y-60769206D02*
G01*
X192847157Y-60769206D01*
X192847157Y-57577960D01*
X193156719Y-57577960D01*
X193156719Y-60769206D01*
G37*
G36*
X185954232Y-60293857D02*
G01*
X185767462Y-60293857D01*
X185743653Y-60293012D01*
X185721014Y-60290437D01*
X185699597Y-60286068D01*
X185689362Y-60283193D01*
X185679452Y-60279846D01*
X185669872Y-60276019D01*
X185660629Y-60271706D01*
X185651728Y-60266898D01*
X185643178Y-60261588D01*
X185634983Y-60255768D01*
X185627150Y-60249430D01*
X185619685Y-60242566D01*
X185612595Y-60235168D01*
X185605886Y-60227230D01*
X185599564Y-60218743D01*
X185593636Y-60209699D01*
X185588107Y-60200091D01*
X185582984Y-60189910D01*
X185578274Y-60179150D01*
X185573983Y-60167802D01*
X185570116Y-60155859D01*
X185566681Y-60143313D01*
X185563683Y-60130155D01*
X185561130Y-60116380D01*
X185559026Y-60101978D01*
X185557379Y-60086941D01*
X185556195Y-60071263D01*
X185555240Y-60037951D01*
X185555240Y-60037607D01*
X185628504Y-60037607D01*
X185628648Y-60050623D01*
X185629078Y-60063108D01*
X185629794Y-60075067D01*
X185630793Y-60086510D01*
X185632075Y-60097445D01*
X185633637Y-60107878D01*
X185635478Y-60117818D01*
X185637597Y-60127272D01*
X185639992Y-60136249D01*
X185642662Y-60144756D01*
X185645605Y-60152801D01*
X185648819Y-60160392D01*
X185652303Y-60167536D01*
X185656056Y-60174242D01*
X185660076Y-60180517D01*
X185664362Y-60186369D01*
X185668911Y-60191805D01*
X185673723Y-60196835D01*
X185678796Y-60201465D01*
X185684129Y-60205703D01*
X185689719Y-60209557D01*
X185695566Y-60213035D01*
X185701668Y-60216145D01*
X185708023Y-60218894D01*
X185714630Y-60221291D01*
X185721488Y-60223343D01*
X185728594Y-60225057D01*
X185735948Y-60226443D01*
X185743548Y-60227507D01*
X185751392Y-60228257D01*
X185759479Y-60228701D01*
X185767807Y-60228848D01*
X185881656Y-60228848D01*
X185881656Y-59786861D01*
X185767807Y-59786861D01*
X185751392Y-59787452D01*
X185735948Y-59789266D01*
X185721488Y-59792366D01*
X185714630Y-59794418D01*
X185708023Y-59796815D01*
X185701668Y-59799564D01*
X185695566Y-59802674D01*
X185689719Y-59806152D01*
X185684129Y-59810006D01*
X185678796Y-59814244D01*
X185673723Y-59818874D01*
X185668911Y-59823903D01*
X185664362Y-59829340D01*
X185660076Y-59835192D01*
X185656056Y-59841467D01*
X185652303Y-59848172D01*
X185648819Y-59855317D01*
X185645605Y-59862907D01*
X185642662Y-59870952D01*
X185639992Y-59879459D01*
X185637597Y-59888436D01*
X185633637Y-59907830D01*
X185630793Y-59929198D01*
X185629078Y-59952601D01*
X185628504Y-59978101D01*
X185628504Y-60037607D01*
X185555240Y-60037607D01*
X185555240Y-59978446D01*
X185555480Y-59961461D01*
X185556195Y-59945133D01*
X185557379Y-59929455D01*
X185559026Y-59914419D01*
X185561130Y-59900017D01*
X185563683Y-59886241D01*
X185566681Y-59873084D01*
X185570116Y-59860538D01*
X185573982Y-59848595D01*
X185578274Y-59837247D01*
X185582984Y-59826487D01*
X185588106Y-59816307D01*
X185593635Y-59806698D01*
X185599563Y-59797654D01*
X185605885Y-59789167D01*
X185612594Y-59781229D01*
X185619684Y-59773832D01*
X185627149Y-59766968D01*
X185634982Y-59760630D01*
X185643177Y-59754809D01*
X185651728Y-59749499D01*
X185660628Y-59744691D01*
X185669871Y-59740378D01*
X185679451Y-59736552D01*
X185689362Y-59733205D01*
X185699597Y-59730329D01*
X185710149Y-59727917D01*
X185721014Y-59725961D01*
X185732184Y-59724453D01*
X185743652Y-59723385D01*
X185755414Y-59722751D01*
X185767462Y-59722541D01*
X185954232Y-59722541D01*
X185954232Y-59786861D01*
X185954232Y-60293857D01*
G37*
G36*
X183524167Y-60293511D02*
G01*
X183171265Y-60293511D01*
X183171265Y-60228848D01*
X183451248Y-60228848D01*
X183451248Y-59722541D01*
X183524167Y-59722541D01*
X183524167Y-60293511D01*
G37*
G36*
X190785471Y-60293511D02*
G01*
X190712551Y-60293511D01*
X190712551Y-59722541D01*
X190785471Y-59722541D01*
X190785471Y-60293511D01*
G37*
G36*
X188222943Y-59715871D02*
G01*
X188234828Y-59716493D01*
X188246259Y-59717514D01*
X188257240Y-59718925D01*
X188267775Y-59720713D01*
X188277869Y-59722867D01*
X188287525Y-59725375D01*
X188296749Y-59728227D01*
X188305544Y-59731410D01*
X188313915Y-59734913D01*
X188321868Y-59738724D01*
X188329405Y-59742833D01*
X188336531Y-59747227D01*
X188343251Y-59751896D01*
X188349570Y-59756827D01*
X188355490Y-59762010D01*
X188361018Y-59767432D01*
X188366158Y-59773083D01*
X188370913Y-59778951D01*
X188375288Y-59785024D01*
X188379288Y-59791291D01*
X188382918Y-59797741D01*
X188386180Y-59804362D01*
X188389080Y-59811142D01*
X188391623Y-59818071D01*
X188393812Y-59825136D01*
X188395653Y-59832326D01*
X188397149Y-59839630D01*
X188398305Y-59847037D01*
X188399125Y-59854534D01*
X188399614Y-59862110D01*
X188399776Y-59869755D01*
X188399568Y-59878933D01*
X188398949Y-59887832D01*
X188397925Y-59896453D01*
X188396501Y-59904800D01*
X188394683Y-59912874D01*
X188392477Y-59920679D01*
X188389889Y-59928216D01*
X188386925Y-59935488D01*
X188383591Y-59942498D01*
X188379892Y-59949247D01*
X188375835Y-59955739D01*
X188371425Y-59961976D01*
X188366668Y-59967960D01*
X188361570Y-59973694D01*
X188356137Y-59979180D01*
X188350374Y-59984421D01*
X188344288Y-59989419D01*
X188337885Y-59994177D01*
X188331169Y-59998697D01*
X188324148Y-60002981D01*
X188309211Y-60010853D01*
X188293121Y-60017812D01*
X188275925Y-60023879D01*
X188257669Y-60029072D01*
X188238400Y-60033412D01*
X188218165Y-60036918D01*
X188208054Y-60038525D01*
X188198417Y-60040247D01*
X188189244Y-60042086D01*
X188180524Y-60044039D01*
X188172248Y-60046108D01*
X188164405Y-60048291D01*
X188156986Y-60050588D01*
X188149981Y-60052998D01*
X188143379Y-60055522D01*
X188137171Y-60058157D01*
X188131346Y-60060905D01*
X188125895Y-60063763D01*
X188120808Y-60066733D01*
X188116073Y-60069813D01*
X188111683Y-60073003D01*
X188107626Y-60076302D01*
X188103892Y-60079710D01*
X188100472Y-60083226D01*
X188097355Y-60086850D01*
X188094532Y-60090581D01*
X188091992Y-60094420D01*
X188089726Y-60098364D01*
X188087722Y-60102414D01*
X188085973Y-60106570D01*
X188084466Y-60110830D01*
X188083193Y-60115195D01*
X188082144Y-60119664D01*
X188081307Y-60124235D01*
X188080674Y-60128910D01*
X188080234Y-60133687D01*
X188079894Y-60143545D01*
X188080231Y-60152626D01*
X188081279Y-60161515D01*
X188083098Y-60170158D01*
X188085747Y-60178501D01*
X188087401Y-60182542D01*
X188089285Y-60186489D01*
X188091405Y-60190333D01*
X188093770Y-60194067D01*
X188096387Y-60197686D01*
X188099262Y-60201183D01*
X188102404Y-60204550D01*
X188105820Y-60207780D01*
X188109517Y-60210868D01*
X188113502Y-60213805D01*
X188117784Y-60216586D01*
X188122368Y-60219203D01*
X188127264Y-60221650D01*
X188132477Y-60223920D01*
X188138015Y-60226006D01*
X188143887Y-60227902D01*
X188150098Y-60229600D01*
X188156657Y-60231093D01*
X188163570Y-60232376D01*
X188170846Y-60233440D01*
X188178492Y-60234280D01*
X188186514Y-60234888D01*
X188194921Y-60235258D01*
X188203719Y-60235383D01*
X188210755Y-60235308D01*
X188217552Y-60235086D01*
X188224118Y-60234717D01*
X188230462Y-60234203D01*
X188236591Y-60233545D01*
X188242515Y-60232744D01*
X188248243Y-60231801D01*
X188253782Y-60230718D01*
X188259141Y-60229496D01*
X188264329Y-60228136D01*
X188269353Y-60226640D01*
X188274224Y-60225008D01*
X188278948Y-60223242D01*
X188283536Y-60221344D01*
X188287994Y-60219314D01*
X188292332Y-60217153D01*
X188296558Y-60214864D01*
X188300681Y-60212447D01*
X188304709Y-60209904D01*
X188308651Y-60207235D01*
X188316309Y-60201527D01*
X188323724Y-60195334D01*
X188330963Y-60188665D01*
X188338096Y-60181530D01*
X188345188Y-60173939D01*
X188352310Y-60165904D01*
X188412503Y-60206490D01*
X188403945Y-60217800D01*
X188394785Y-60228385D01*
X188385021Y-60238242D01*
X188374656Y-60247373D01*
X188363691Y-60255776D01*
X188352126Y-60263451D01*
X188339962Y-60270398D01*
X188327201Y-60276615D01*
X188313843Y-60282103D01*
X188299890Y-60286861D01*
X188285342Y-60290888D01*
X188270200Y-60294184D01*
X188254466Y-60296749D01*
X188238141Y-60298581D01*
X188221225Y-60299681D01*
X188203719Y-60300048D01*
X188190324Y-60299802D01*
X188177476Y-60299075D01*
X188165169Y-60297886D01*
X188153394Y-60296251D01*
X188142143Y-60294189D01*
X188131408Y-60291715D01*
X188121180Y-60288849D01*
X188111453Y-60285607D01*
X188102217Y-60282006D01*
X188093465Y-60278065D01*
X188085189Y-60273801D01*
X188077380Y-60269230D01*
X188070030Y-60264371D01*
X188063132Y-60259241D01*
X188056678Y-60253858D01*
X188050658Y-60248238D01*
X188045066Y-60242400D01*
X188039894Y-60236361D01*
X188035132Y-60230138D01*
X188030773Y-60223748D01*
X188026810Y-60217210D01*
X188023233Y-60210540D01*
X188020035Y-60203756D01*
X188017208Y-60196875D01*
X188014744Y-60189916D01*
X188012635Y-60182895D01*
X188010872Y-60175829D01*
X188009448Y-60168737D01*
X188007583Y-60154542D01*
X188006976Y-60140450D01*
X188007176Y-60130710D01*
X188007776Y-60121349D01*
X188008769Y-60112358D01*
X188010152Y-60103730D01*
X188011920Y-60095456D01*
X188014068Y-60087527D01*
X188016592Y-60079936D01*
X188019487Y-60072674D01*
X188022749Y-60065733D01*
X188026374Y-60059104D01*
X188030356Y-60052780D01*
X188034691Y-60046752D01*
X188039375Y-60041013D01*
X188044403Y-60035553D01*
X188049771Y-60030364D01*
X188055474Y-60025438D01*
X188061507Y-60020768D01*
X188067866Y-60016344D01*
X188081545Y-60008204D01*
X188096473Y-60000951D01*
X188112614Y-59994520D01*
X188129932Y-59988844D01*
X188148391Y-59983859D01*
X188167954Y-59979497D01*
X188188585Y-59975693D01*
X188204252Y-59972811D01*
X188219116Y-59969674D01*
X188233149Y-59966232D01*
X188246322Y-59962430D01*
X188258606Y-59958217D01*
X188264405Y-59955940D01*
X188269972Y-59953541D01*
X188275302Y-59951013D01*
X188280392Y-59948349D01*
X188285239Y-59945543D01*
X188289838Y-59942588D01*
X188294186Y-59939478D01*
X188298279Y-59936207D01*
X188302115Y-59932767D01*
X188305688Y-59929152D01*
X188308997Y-59925356D01*
X188312037Y-59921372D01*
X188314804Y-59917194D01*
X188317295Y-59912814D01*
X188319507Y-59908227D01*
X188321435Y-59903426D01*
X188323076Y-59898404D01*
X188324427Y-59893155D01*
X188325484Y-59887672D01*
X188326244Y-59881949D01*
X188326702Y-59875978D01*
X188326856Y-59869755D01*
X188326722Y-59864263D01*
X188326322Y-59858944D01*
X188325661Y-59853799D01*
X188324743Y-59848828D01*
X188323573Y-59844030D01*
X188322156Y-59839405D01*
X188320495Y-59834955D01*
X188318596Y-59830678D01*
X188316462Y-59826575D01*
X188314098Y-59822645D01*
X188311509Y-59818890D01*
X188308699Y-59815309D01*
X188305673Y-59811902D01*
X188302435Y-59808669D01*
X188298989Y-59805610D01*
X188295341Y-59802726D01*
X188291494Y-59800015D01*
X188287453Y-59797480D01*
X188283222Y-59795118D01*
X188278806Y-59792931D01*
X188274210Y-59790919D01*
X188269437Y-59789082D01*
X188259381Y-59785931D01*
X188248674Y-59783479D01*
X188237352Y-59781727D01*
X188225451Y-59780676D01*
X188213006Y-59780325D01*
X188206189Y-59780409D01*
X188199599Y-59780660D01*
X188193229Y-59781072D01*
X188187072Y-59781645D01*
X188181122Y-59782373D01*
X188175372Y-59783255D01*
X188169815Y-59784286D01*
X188164444Y-59785463D01*
X188159252Y-59786784D01*
X188154233Y-59788244D01*
X188149379Y-59789841D01*
X188144685Y-59791571D01*
X188140143Y-59793431D01*
X188135746Y-59795418D01*
X188131487Y-59797529D01*
X188127361Y-59799759D01*
X188123359Y-59802106D01*
X188119476Y-59804567D01*
X188115703Y-59807139D01*
X188112036Y-59809817D01*
X188104987Y-59815482D01*
X188098275Y-59821536D01*
X188091845Y-59827953D01*
X188085642Y-59834706D01*
X188079613Y-59841769D01*
X188073703Y-59849117D01*
X188073702Y-59849117D01*
X188016949Y-59809218D01*
X188024959Y-59797795D01*
X188033396Y-59787126D01*
X188042287Y-59777211D01*
X188051657Y-59768045D01*
X188061530Y-59759628D01*
X188071933Y-59751955D01*
X188082890Y-59745025D01*
X188094426Y-59738836D01*
X188106567Y-59733384D01*
X188119337Y-59728667D01*
X188132763Y-59724683D01*
X188146869Y-59721428D01*
X188161680Y-59718902D01*
X188177222Y-59717100D01*
X188193519Y-59716021D01*
X188210598Y-59715662D01*
X188222943Y-59715871D01*
G37*
D12*
%TO.C,J3*%
X204530000Y-97570000D02*
X201870000Y-97570000D01*
X204530000Y-51790000D02*
X204530000Y-97570000D01*
X204530000Y-51790000D02*
X201870000Y-51790000D01*
X204530000Y-50520000D02*
X204530000Y-49190000D01*
X204530000Y-49190000D02*
X203200000Y-49190000D01*
X201870000Y-51790000D02*
X201870000Y-97570000D01*
D13*
%TO.C,J1*%
X193620000Y-99945000D02*
X193620000Y-102220000D01*
X192820000Y-99945000D02*
X193620000Y-99945000D01*
X192420000Y-104195000D02*
X188820000Y-104195000D01*
X188420000Y-99945000D02*
X187620000Y-99945000D01*
X187620000Y-99945000D02*
X187620000Y-102220000D01*
D14*
X193170000Y-99235000D02*
G75*
G03*
X193170000Y-99235000I-100000J0D01*
G01*
D12*
%TO.C,J2*%
X176470000Y-51790000D02*
X176470000Y-97570000D01*
X179130000Y-49190000D02*
X177800000Y-49190000D01*
X179130000Y-50520000D02*
X179130000Y-49190000D01*
X179130000Y-51790000D02*
X176470000Y-51790000D01*
X179130000Y-51790000D02*
X179130000Y-97570000D01*
X179130000Y-97570000D02*
X176470000Y-97570000D01*
%TD*%
M02*
