%TF.GenerationSoftware,KiCad,Pcbnew,7.0.6-0*%
%TF.CreationDate,2024-01-09T11:34:52-06:00*%
%TF.ProjectId,ESP32_DevKit,45535033-325f-4446-9576-4b69742e6b69,rev?*%
%TF.SameCoordinates,Original*%
%TF.FileFunction,Legend,Top*%
%TF.FilePolarity,Positive*%
%FSLAX46Y46*%
G04 Gerber Fmt 4.6, Leading zero omitted, Abs format (unit mm)*
G04 Created by KiCad (PCBNEW 7.0.6-0) date 2024-01-09 11:34:52*
%MOMM*%
%LPD*%
G01*
G04 APERTURE LIST*
%ADD10C,0.177800*%
%ADD11C,0.150000*%
%ADD12C,0.120000*%
%ADD13C,0.200000*%
G04 APERTURE END LIST*
D10*
X200719127Y-95428877D02*
X201862127Y-95428877D01*
X201862127Y-95428877D02*
X200719127Y-96009449D01*
X200719127Y-96009449D02*
X201862127Y-96009449D01*
X200827984Y-97073830D02*
X200773556Y-97025449D01*
X200773556Y-97025449D02*
X200719127Y-96880306D01*
X200719127Y-96880306D02*
X200719127Y-96783544D01*
X200719127Y-96783544D02*
X200773556Y-96638401D01*
X200773556Y-96638401D02*
X200882413Y-96541639D01*
X200882413Y-96541639D02*
X200991270Y-96493258D01*
X200991270Y-96493258D02*
X201208984Y-96444877D01*
X201208984Y-96444877D02*
X201372270Y-96444877D01*
X201372270Y-96444877D02*
X201589984Y-96493258D01*
X201589984Y-96493258D02*
X201698841Y-96541639D01*
X201698841Y-96541639D02*
X201807698Y-96638401D01*
X201807698Y-96638401D02*
X201862127Y-96783544D01*
X201862127Y-96783544D02*
X201862127Y-96880306D01*
X201862127Y-96880306D02*
X201807698Y-97025449D01*
X201807698Y-97025449D02*
X201753270Y-97073830D01*
X200719127Y-92978877D02*
X201862127Y-92978877D01*
X201862127Y-92978877D02*
X200719127Y-93559449D01*
X200719127Y-93559449D02*
X201862127Y-93559449D01*
X200827984Y-94623830D02*
X200773556Y-94575449D01*
X200773556Y-94575449D02*
X200719127Y-94430306D01*
X200719127Y-94430306D02*
X200719127Y-94333544D01*
X200719127Y-94333544D02*
X200773556Y-94188401D01*
X200773556Y-94188401D02*
X200882413Y-94091639D01*
X200882413Y-94091639D02*
X200991270Y-94043258D01*
X200991270Y-94043258D02*
X201208984Y-93994877D01*
X201208984Y-93994877D02*
X201372270Y-93994877D01*
X201372270Y-93994877D02*
X201589984Y-94043258D01*
X201589984Y-94043258D02*
X201698841Y-94091639D01*
X201698841Y-94091639D02*
X201807698Y-94188401D01*
X201807698Y-94188401D02*
X201862127Y-94333544D01*
X201862127Y-94333544D02*
X201862127Y-94430306D01*
X201862127Y-94430306D02*
X201807698Y-94575449D01*
X201807698Y-94575449D02*
X201753270Y-94623830D01*
X200719127Y-90368877D02*
X201862127Y-90368877D01*
X201862127Y-90368877D02*
X200719127Y-90949449D01*
X200719127Y-90949449D02*
X201862127Y-90949449D01*
X200827984Y-92013830D02*
X200773556Y-91965449D01*
X200773556Y-91965449D02*
X200719127Y-91820306D01*
X200719127Y-91820306D02*
X200719127Y-91723544D01*
X200719127Y-91723544D02*
X200773556Y-91578401D01*
X200773556Y-91578401D02*
X200882413Y-91481639D01*
X200882413Y-91481639D02*
X200991270Y-91433258D01*
X200991270Y-91433258D02*
X201208984Y-91384877D01*
X201208984Y-91384877D02*
X201372270Y-91384877D01*
X201372270Y-91384877D02*
X201589984Y-91433258D01*
X201589984Y-91433258D02*
X201698841Y-91481639D01*
X201698841Y-91481639D02*
X201807698Y-91578401D01*
X201807698Y-91578401D02*
X201862127Y-91723544D01*
X201862127Y-91723544D02*
X201862127Y-91820306D01*
X201862127Y-91820306D02*
X201807698Y-91965449D01*
X201807698Y-91965449D02*
X201753270Y-92013830D01*
X200719127Y-88451068D02*
X200719127Y-87870496D01*
X200719127Y-88160782D02*
X201862127Y-88160782D01*
X201862127Y-88160782D02*
X201698841Y-88064020D01*
X201698841Y-88064020D02*
X201589984Y-87967258D01*
X201589984Y-87967258D02*
X201535556Y-87870496D01*
X201862127Y-89370306D02*
X201862127Y-88886496D01*
X201862127Y-88886496D02*
X201317841Y-88838115D01*
X201317841Y-88838115D02*
X201372270Y-88886496D01*
X201372270Y-88886496D02*
X201426698Y-88983258D01*
X201426698Y-88983258D02*
X201426698Y-89225163D01*
X201426698Y-89225163D02*
X201372270Y-89321925D01*
X201372270Y-89321925D02*
X201317841Y-89370306D01*
X201317841Y-89370306D02*
X201208984Y-89418687D01*
X201208984Y-89418687D02*
X200936841Y-89418687D01*
X200936841Y-89418687D02*
X200827984Y-89370306D01*
X200827984Y-89370306D02*
X200773556Y-89321925D01*
X200773556Y-89321925D02*
X200719127Y-89225163D01*
X200719127Y-89225163D02*
X200719127Y-88983258D01*
X200719127Y-88983258D02*
X200773556Y-88886496D01*
X200773556Y-88886496D02*
X200827984Y-88838115D01*
X201753270Y-85830496D02*
X201807698Y-85878877D01*
X201807698Y-85878877D02*
X201862127Y-85975639D01*
X201862127Y-85975639D02*
X201862127Y-86217544D01*
X201862127Y-86217544D02*
X201807698Y-86314306D01*
X201807698Y-86314306D02*
X201753270Y-86362687D01*
X201753270Y-86362687D02*
X201644413Y-86411068D01*
X201644413Y-86411068D02*
X201535556Y-86411068D01*
X201535556Y-86411068D02*
X201372270Y-86362687D01*
X201372270Y-86362687D02*
X200719127Y-85782115D01*
X200719127Y-85782115D02*
X200719127Y-86411068D01*
X201862127Y-83452401D02*
X201862127Y-83549163D01*
X201862127Y-83549163D02*
X201807698Y-83645925D01*
X201807698Y-83645925D02*
X201753270Y-83694306D01*
X201753270Y-83694306D02*
X201644413Y-83742687D01*
X201644413Y-83742687D02*
X201426698Y-83791068D01*
X201426698Y-83791068D02*
X201154556Y-83791068D01*
X201154556Y-83791068D02*
X200936841Y-83742687D01*
X200936841Y-83742687D02*
X200827984Y-83694306D01*
X200827984Y-83694306D02*
X200773556Y-83645925D01*
X200773556Y-83645925D02*
X200719127Y-83549163D01*
X200719127Y-83549163D02*
X200719127Y-83452401D01*
X200719127Y-83452401D02*
X200773556Y-83355639D01*
X200773556Y-83355639D02*
X200827984Y-83307258D01*
X200827984Y-83307258D02*
X200936841Y-83258877D01*
X200936841Y-83258877D02*
X201154556Y-83210496D01*
X201154556Y-83210496D02*
X201426698Y-83210496D01*
X201426698Y-83210496D02*
X201644413Y-83258877D01*
X201644413Y-83258877D02*
X201753270Y-83307258D01*
X201753270Y-83307258D02*
X201807698Y-83355639D01*
X201807698Y-83355639D02*
X201862127Y-83452401D01*
X201481127Y-81164306D02*
X200719127Y-81164306D01*
X201916556Y-80922401D02*
X201100127Y-80680496D01*
X201100127Y-80680496D02*
X201100127Y-81309449D01*
X200719127Y-77638877D02*
X201862127Y-77638877D01*
X201862127Y-77638877D02*
X200719127Y-78219449D01*
X200719127Y-78219449D02*
X201862127Y-78219449D01*
X200827984Y-79283830D02*
X200773556Y-79235449D01*
X200773556Y-79235449D02*
X200719127Y-79090306D01*
X200719127Y-79090306D02*
X200719127Y-78993544D01*
X200719127Y-78993544D02*
X200773556Y-78848401D01*
X200773556Y-78848401D02*
X200882413Y-78751639D01*
X200882413Y-78751639D02*
X200991270Y-78703258D01*
X200991270Y-78703258D02*
X201208984Y-78654877D01*
X201208984Y-78654877D02*
X201372270Y-78654877D01*
X201372270Y-78654877D02*
X201589984Y-78703258D01*
X201589984Y-78703258D02*
X201698841Y-78751639D01*
X201698841Y-78751639D02*
X201807698Y-78848401D01*
X201807698Y-78848401D02*
X201862127Y-78993544D01*
X201862127Y-78993544D02*
X201862127Y-79090306D01*
X201862127Y-79090306D02*
X201807698Y-79235449D01*
X201807698Y-79235449D02*
X201753270Y-79283830D01*
X200719127Y-75148877D02*
X201862127Y-75148877D01*
X201862127Y-75148877D02*
X200719127Y-75729449D01*
X200719127Y-75729449D02*
X201862127Y-75729449D01*
X200827984Y-76793830D02*
X200773556Y-76745449D01*
X200773556Y-76745449D02*
X200719127Y-76600306D01*
X200719127Y-76600306D02*
X200719127Y-76503544D01*
X200719127Y-76503544D02*
X200773556Y-76358401D01*
X200773556Y-76358401D02*
X200882413Y-76261639D01*
X200882413Y-76261639D02*
X200991270Y-76213258D01*
X200991270Y-76213258D02*
X201208984Y-76164877D01*
X201208984Y-76164877D02*
X201372270Y-76164877D01*
X201372270Y-76164877D02*
X201589984Y-76213258D01*
X201589984Y-76213258D02*
X201698841Y-76261639D01*
X201698841Y-76261639D02*
X201807698Y-76358401D01*
X201807698Y-76358401D02*
X201862127Y-76503544D01*
X201862127Y-76503544D02*
X201862127Y-76600306D01*
X201862127Y-76600306D02*
X201807698Y-76745449D01*
X201807698Y-76745449D02*
X201753270Y-76793830D01*
X201862127Y-73552687D02*
X201862127Y-73068877D01*
X201862127Y-73068877D02*
X201317841Y-73020496D01*
X201317841Y-73020496D02*
X201372270Y-73068877D01*
X201372270Y-73068877D02*
X201426698Y-73165639D01*
X201426698Y-73165639D02*
X201426698Y-73407544D01*
X201426698Y-73407544D02*
X201372270Y-73504306D01*
X201372270Y-73504306D02*
X201317841Y-73552687D01*
X201317841Y-73552687D02*
X201208984Y-73601068D01*
X201208984Y-73601068D02*
X200936841Y-73601068D01*
X200936841Y-73601068D02*
X200827984Y-73552687D01*
X200827984Y-73552687D02*
X200773556Y-73504306D01*
X200773556Y-73504306D02*
X200719127Y-73407544D01*
X200719127Y-73407544D02*
X200719127Y-73165639D01*
X200719127Y-73165639D02*
X200773556Y-73068877D01*
X200773556Y-73068877D02*
X200827984Y-73020496D01*
X200719127Y-70451068D02*
X200719127Y-69870496D01*
X200719127Y-70160782D02*
X201862127Y-70160782D01*
X201862127Y-70160782D02*
X201698841Y-70064020D01*
X201698841Y-70064020D02*
X201589984Y-69967258D01*
X201589984Y-69967258D02*
X201535556Y-69870496D01*
X201372270Y-71031639D02*
X201426698Y-70934877D01*
X201426698Y-70934877D02*
X201481127Y-70886496D01*
X201481127Y-70886496D02*
X201589984Y-70838115D01*
X201589984Y-70838115D02*
X201644413Y-70838115D01*
X201644413Y-70838115D02*
X201753270Y-70886496D01*
X201753270Y-70886496D02*
X201807698Y-70934877D01*
X201807698Y-70934877D02*
X201862127Y-71031639D01*
X201862127Y-71031639D02*
X201862127Y-71225163D01*
X201862127Y-71225163D02*
X201807698Y-71321925D01*
X201807698Y-71321925D02*
X201753270Y-71370306D01*
X201753270Y-71370306D02*
X201644413Y-71418687D01*
X201644413Y-71418687D02*
X201589984Y-71418687D01*
X201589984Y-71418687D02*
X201481127Y-71370306D01*
X201481127Y-71370306D02*
X201426698Y-71321925D01*
X201426698Y-71321925D02*
X201372270Y-71225163D01*
X201372270Y-71225163D02*
X201372270Y-71031639D01*
X201372270Y-71031639D02*
X201317841Y-70934877D01*
X201317841Y-70934877D02*
X201263413Y-70886496D01*
X201263413Y-70886496D02*
X201154556Y-70838115D01*
X201154556Y-70838115D02*
X200936841Y-70838115D01*
X200936841Y-70838115D02*
X200827984Y-70886496D01*
X200827984Y-70886496D02*
X200773556Y-70934877D01*
X200773556Y-70934877D02*
X200719127Y-71031639D01*
X200719127Y-71031639D02*
X200719127Y-71225163D01*
X200719127Y-71225163D02*
X200773556Y-71321925D01*
X200773556Y-71321925D02*
X200827984Y-71370306D01*
X200827984Y-71370306D02*
X200936841Y-71418687D01*
X200936841Y-71418687D02*
X201154556Y-71418687D01*
X201154556Y-71418687D02*
X201263413Y-71370306D01*
X201263413Y-71370306D02*
X201317841Y-71321925D01*
X201317841Y-71321925D02*
X201372270Y-71225163D01*
X200719127Y-68091068D02*
X200719127Y-67510496D01*
X200719127Y-67800782D02*
X201862127Y-67800782D01*
X201862127Y-67800782D02*
X201698841Y-67704020D01*
X201698841Y-67704020D02*
X201589984Y-67607258D01*
X201589984Y-67607258D02*
X201535556Y-67510496D01*
X200719127Y-68574877D02*
X200719127Y-68768401D01*
X200719127Y-68768401D02*
X200773556Y-68865163D01*
X200773556Y-68865163D02*
X200827984Y-68913544D01*
X200827984Y-68913544D02*
X200991270Y-69010306D01*
X200991270Y-69010306D02*
X201208984Y-69058687D01*
X201208984Y-69058687D02*
X201644413Y-69058687D01*
X201644413Y-69058687D02*
X201753270Y-69010306D01*
X201753270Y-69010306D02*
X201807698Y-68961925D01*
X201807698Y-68961925D02*
X201862127Y-68865163D01*
X201862127Y-68865163D02*
X201862127Y-68671639D01*
X201862127Y-68671639D02*
X201807698Y-68574877D01*
X201807698Y-68574877D02*
X201753270Y-68526496D01*
X201753270Y-68526496D02*
X201644413Y-68478115D01*
X201644413Y-68478115D02*
X201372270Y-68478115D01*
X201372270Y-68478115D02*
X201263413Y-68526496D01*
X201263413Y-68526496D02*
X201208984Y-68574877D01*
X201208984Y-68574877D02*
X201154556Y-68671639D01*
X201154556Y-68671639D02*
X201154556Y-68865163D01*
X201154556Y-68865163D02*
X201208984Y-68961925D01*
X201208984Y-68961925D02*
X201263413Y-69010306D01*
X201263413Y-69010306D02*
X201372270Y-69058687D01*
X201807698Y-64921068D02*
X201862127Y-64824306D01*
X201862127Y-64824306D02*
X201862127Y-64679163D01*
X201862127Y-64679163D02*
X201807698Y-64534020D01*
X201807698Y-64534020D02*
X201698841Y-64437258D01*
X201698841Y-64437258D02*
X201589984Y-64388877D01*
X201589984Y-64388877D02*
X201372270Y-64340496D01*
X201372270Y-64340496D02*
X201208984Y-64340496D01*
X201208984Y-64340496D02*
X200991270Y-64388877D01*
X200991270Y-64388877D02*
X200882413Y-64437258D01*
X200882413Y-64437258D02*
X200773556Y-64534020D01*
X200773556Y-64534020D02*
X200719127Y-64679163D01*
X200719127Y-64679163D02*
X200719127Y-64775925D01*
X200719127Y-64775925D02*
X200773556Y-64921068D01*
X200773556Y-64921068D02*
X200827984Y-64969449D01*
X200827984Y-64969449D02*
X201208984Y-64969449D01*
X201208984Y-64969449D02*
X201208984Y-64775925D01*
X200719127Y-65404877D02*
X201862127Y-65404877D01*
X201862127Y-65404877D02*
X200719127Y-65985449D01*
X200719127Y-65985449D02*
X201862127Y-65985449D01*
X200719127Y-66469258D02*
X201862127Y-66469258D01*
X201862127Y-66469258D02*
X201862127Y-66711163D01*
X201862127Y-66711163D02*
X201807698Y-66856306D01*
X201807698Y-66856306D02*
X201698841Y-66953068D01*
X201698841Y-66953068D02*
X201589984Y-67001449D01*
X201589984Y-67001449D02*
X201372270Y-67049830D01*
X201372270Y-67049830D02*
X201208984Y-67049830D01*
X201208984Y-67049830D02*
X200991270Y-67001449D01*
X200991270Y-67001449D02*
X200882413Y-66953068D01*
X200882413Y-66953068D02*
X200773556Y-66856306D01*
X200773556Y-66856306D02*
X200719127Y-66711163D01*
X200719127Y-66711163D02*
X200719127Y-66469258D01*
X201753270Y-62520496D02*
X201807698Y-62568877D01*
X201807698Y-62568877D02*
X201862127Y-62665639D01*
X201862127Y-62665639D02*
X201862127Y-62907544D01*
X201862127Y-62907544D02*
X201807698Y-63004306D01*
X201807698Y-63004306D02*
X201753270Y-63052687D01*
X201753270Y-63052687D02*
X201644413Y-63101068D01*
X201644413Y-63101068D02*
X201535556Y-63101068D01*
X201535556Y-63101068D02*
X201372270Y-63052687D01*
X201372270Y-63052687D02*
X200719127Y-62472115D01*
X200719127Y-62472115D02*
X200719127Y-63101068D01*
X200719127Y-64068687D02*
X200719127Y-63488115D01*
X200719127Y-63778401D02*
X201862127Y-63778401D01*
X201862127Y-63778401D02*
X201698841Y-63681639D01*
X201698841Y-63681639D02*
X201589984Y-63584877D01*
X201589984Y-63584877D02*
X201535556Y-63488115D01*
X200709127Y-60439449D02*
X201253413Y-60100782D01*
X200709127Y-59858877D02*
X201852127Y-59858877D01*
X201852127Y-59858877D02*
X201852127Y-60245925D01*
X201852127Y-60245925D02*
X201797698Y-60342687D01*
X201797698Y-60342687D02*
X201743270Y-60391068D01*
X201743270Y-60391068D02*
X201634413Y-60439449D01*
X201634413Y-60439449D02*
X201471127Y-60439449D01*
X201471127Y-60439449D02*
X201362270Y-60391068D01*
X201362270Y-60391068D02*
X201307841Y-60342687D01*
X201307841Y-60342687D02*
X201253413Y-60245925D01*
X201253413Y-60245925D02*
X201253413Y-59858877D01*
X201852127Y-60778115D02*
X200709127Y-61455449D01*
X201852127Y-61455449D02*
X200709127Y-60778115D01*
X201862127Y-57253734D02*
X201862127Y-57834306D01*
X200719127Y-57544020D02*
X201862127Y-57544020D01*
X201862127Y-58076210D02*
X200719127Y-58753544D01*
X201862127Y-58753544D02*
X200719127Y-58076210D01*
X201753270Y-54700496D02*
X201807698Y-54748877D01*
X201807698Y-54748877D02*
X201862127Y-54845639D01*
X201862127Y-54845639D02*
X201862127Y-55087544D01*
X201862127Y-55087544D02*
X201807698Y-55184306D01*
X201807698Y-55184306D02*
X201753270Y-55232687D01*
X201753270Y-55232687D02*
X201644413Y-55281068D01*
X201644413Y-55281068D02*
X201535556Y-55281068D01*
X201535556Y-55281068D02*
X201372270Y-55232687D01*
X201372270Y-55232687D02*
X200719127Y-54652115D01*
X200719127Y-54652115D02*
X200719127Y-55281068D01*
X201753270Y-55668115D02*
X201807698Y-55716496D01*
X201807698Y-55716496D02*
X201862127Y-55813258D01*
X201862127Y-55813258D02*
X201862127Y-56055163D01*
X201862127Y-56055163D02*
X201807698Y-56151925D01*
X201807698Y-56151925D02*
X201753270Y-56200306D01*
X201753270Y-56200306D02*
X201644413Y-56248687D01*
X201644413Y-56248687D02*
X201535556Y-56248687D01*
X201535556Y-56248687D02*
X201372270Y-56200306D01*
X201372270Y-56200306D02*
X200719127Y-55619734D01*
X200719127Y-55619734D02*
X200719127Y-56248687D01*
X201753270Y-52330496D02*
X201807698Y-52378877D01*
X201807698Y-52378877D02*
X201862127Y-52475639D01*
X201862127Y-52475639D02*
X201862127Y-52717544D01*
X201862127Y-52717544D02*
X201807698Y-52814306D01*
X201807698Y-52814306D02*
X201753270Y-52862687D01*
X201753270Y-52862687D02*
X201644413Y-52911068D01*
X201644413Y-52911068D02*
X201535556Y-52911068D01*
X201535556Y-52911068D02*
X201372270Y-52862687D01*
X201372270Y-52862687D02*
X200719127Y-52282115D01*
X200719127Y-52282115D02*
X200719127Y-52911068D01*
X201862127Y-53249734D02*
X201862127Y-53878687D01*
X201862127Y-53878687D02*
X201426698Y-53540020D01*
X201426698Y-53540020D02*
X201426698Y-53685163D01*
X201426698Y-53685163D02*
X201372270Y-53781925D01*
X201372270Y-53781925D02*
X201317841Y-53830306D01*
X201317841Y-53830306D02*
X201208984Y-53878687D01*
X201208984Y-53878687D02*
X200936841Y-53878687D01*
X200936841Y-53878687D02*
X200827984Y-53830306D01*
X200827984Y-53830306D02*
X200773556Y-53781925D01*
X200773556Y-53781925D02*
X200719127Y-53685163D01*
X200719127Y-53685163D02*
X200719127Y-53394877D01*
X200719127Y-53394877D02*
X200773556Y-53298115D01*
X200773556Y-53298115D02*
X200827984Y-53249734D01*
X201807698Y-49721068D02*
X201862127Y-49624306D01*
X201862127Y-49624306D02*
X201862127Y-49479163D01*
X201862127Y-49479163D02*
X201807698Y-49334020D01*
X201807698Y-49334020D02*
X201698841Y-49237258D01*
X201698841Y-49237258D02*
X201589984Y-49188877D01*
X201589984Y-49188877D02*
X201372270Y-49140496D01*
X201372270Y-49140496D02*
X201208984Y-49140496D01*
X201208984Y-49140496D02*
X200991270Y-49188877D01*
X200991270Y-49188877D02*
X200882413Y-49237258D01*
X200882413Y-49237258D02*
X200773556Y-49334020D01*
X200773556Y-49334020D02*
X200719127Y-49479163D01*
X200719127Y-49479163D02*
X200719127Y-49575925D01*
X200719127Y-49575925D02*
X200773556Y-49721068D01*
X200773556Y-49721068D02*
X200827984Y-49769449D01*
X200827984Y-49769449D02*
X201208984Y-49769449D01*
X201208984Y-49769449D02*
X201208984Y-49575925D01*
X200719127Y-50204877D02*
X201862127Y-50204877D01*
X201862127Y-50204877D02*
X200719127Y-50785449D01*
X200719127Y-50785449D02*
X201862127Y-50785449D01*
X200719127Y-51269258D02*
X201862127Y-51269258D01*
X201862127Y-51269258D02*
X201862127Y-51511163D01*
X201862127Y-51511163D02*
X201807698Y-51656306D01*
X201807698Y-51656306D02*
X201698841Y-51753068D01*
X201698841Y-51753068D02*
X201589984Y-51801449D01*
X201589984Y-51801449D02*
X201372270Y-51849830D01*
X201372270Y-51849830D02*
X201208984Y-51849830D01*
X201208984Y-51849830D02*
X200991270Y-51801449D01*
X200991270Y-51801449D02*
X200882413Y-51753068D01*
X200882413Y-51753068D02*
X200773556Y-51656306D01*
X200773556Y-51656306D02*
X200719127Y-51511163D01*
X200719127Y-51511163D02*
X200719127Y-51269258D01*
X179007872Y-96497312D02*
X179007872Y-96981122D01*
X179007872Y-96981122D02*
X179552158Y-97029503D01*
X179552158Y-97029503D02*
X179497729Y-96981122D01*
X179497729Y-96981122D02*
X179443301Y-96884360D01*
X179443301Y-96884360D02*
X179443301Y-96642455D01*
X179443301Y-96642455D02*
X179497729Y-96545693D01*
X179497729Y-96545693D02*
X179552158Y-96497312D01*
X179552158Y-96497312D02*
X179661015Y-96448931D01*
X179661015Y-96448931D02*
X179933158Y-96448931D01*
X179933158Y-96448931D02*
X180042015Y-96497312D01*
X180042015Y-96497312D02*
X180096444Y-96545693D01*
X180096444Y-96545693D02*
X180150872Y-96642455D01*
X180150872Y-96642455D02*
X180150872Y-96884360D01*
X180150872Y-96884360D02*
X180096444Y-96981122D01*
X180096444Y-96981122D02*
X180042015Y-97029503D01*
X179007872Y-96158646D02*
X180150872Y-95819979D01*
X180150872Y-95819979D02*
X179007872Y-95481312D01*
X180150872Y-94311122D02*
X179007872Y-94311122D01*
X179007872Y-94311122D02*
X180150872Y-93730550D01*
X180150872Y-93730550D02*
X179007872Y-93730550D01*
X180042015Y-92666169D02*
X180096444Y-92714550D01*
X180096444Y-92714550D02*
X180150872Y-92859693D01*
X180150872Y-92859693D02*
X180150872Y-92956455D01*
X180150872Y-92956455D02*
X180096444Y-93101598D01*
X180096444Y-93101598D02*
X179987586Y-93198360D01*
X179987586Y-93198360D02*
X179878729Y-93246741D01*
X179878729Y-93246741D02*
X179661015Y-93295122D01*
X179661015Y-93295122D02*
X179497729Y-93295122D01*
X179497729Y-93295122D02*
X179280015Y-93246741D01*
X179280015Y-93246741D02*
X179171158Y-93198360D01*
X179171158Y-93198360D02*
X179062301Y-93101598D01*
X179062301Y-93101598D02*
X179007872Y-92956455D01*
X179007872Y-92956455D02*
X179007872Y-92859693D01*
X179007872Y-92859693D02*
X179062301Y-92714550D01*
X179062301Y-92714550D02*
X179116729Y-92666169D01*
X180150872Y-91861122D02*
X179007872Y-91861122D01*
X179007872Y-91861122D02*
X180150872Y-91280550D01*
X180150872Y-91280550D02*
X179007872Y-91280550D01*
X180042015Y-90216169D02*
X180096444Y-90264550D01*
X180096444Y-90264550D02*
X180150872Y-90409693D01*
X180150872Y-90409693D02*
X180150872Y-90506455D01*
X180150872Y-90506455D02*
X180096444Y-90651598D01*
X180096444Y-90651598D02*
X179987586Y-90748360D01*
X179987586Y-90748360D02*
X179878729Y-90796741D01*
X179878729Y-90796741D02*
X179661015Y-90845122D01*
X179661015Y-90845122D02*
X179497729Y-90845122D01*
X179497729Y-90845122D02*
X179280015Y-90796741D01*
X179280015Y-90796741D02*
X179171158Y-90748360D01*
X179171158Y-90748360D02*
X179062301Y-90651598D01*
X179062301Y-90651598D02*
X179007872Y-90506455D01*
X179007872Y-90506455D02*
X179007872Y-90409693D01*
X179007872Y-90409693D02*
X179062301Y-90264550D01*
X179062301Y-90264550D02*
X179116729Y-90216169D01*
X180150872Y-89351122D02*
X179007872Y-89351122D01*
X179007872Y-89351122D02*
X180150872Y-88770550D01*
X180150872Y-88770550D02*
X179007872Y-88770550D01*
X180042015Y-87706169D02*
X180096444Y-87754550D01*
X180096444Y-87754550D02*
X180150872Y-87899693D01*
X180150872Y-87899693D02*
X180150872Y-87996455D01*
X180150872Y-87996455D02*
X180096444Y-88141598D01*
X180096444Y-88141598D02*
X179987586Y-88238360D01*
X179987586Y-88238360D02*
X179878729Y-88286741D01*
X179878729Y-88286741D02*
X179661015Y-88335122D01*
X179661015Y-88335122D02*
X179497729Y-88335122D01*
X179497729Y-88335122D02*
X179280015Y-88286741D01*
X179280015Y-88286741D02*
X179171158Y-88238360D01*
X179171158Y-88238360D02*
X179062301Y-88141598D01*
X179062301Y-88141598D02*
X179007872Y-87996455D01*
X179007872Y-87996455D02*
X179007872Y-87899693D01*
X179007872Y-87899693D02*
X179062301Y-87754550D01*
X179062301Y-87754550D02*
X179116729Y-87706169D01*
X180150872Y-86198931D02*
X180150872Y-86779503D01*
X180150872Y-86489217D02*
X179007872Y-86489217D01*
X179007872Y-86489217D02*
X179171158Y-86585979D01*
X179171158Y-86585979D02*
X179280015Y-86682741D01*
X179280015Y-86682741D02*
X179334444Y-86779503D01*
X179007872Y-85860265D02*
X179007872Y-85231312D01*
X179007872Y-85231312D02*
X179443301Y-85569979D01*
X179443301Y-85569979D02*
X179443301Y-85424836D01*
X179443301Y-85424836D02*
X179497729Y-85328074D01*
X179497729Y-85328074D02*
X179552158Y-85279693D01*
X179552158Y-85279693D02*
X179661015Y-85231312D01*
X179661015Y-85231312D02*
X179933158Y-85231312D01*
X179933158Y-85231312D02*
X180042015Y-85279693D01*
X180042015Y-85279693D02*
X180096444Y-85328074D01*
X180096444Y-85328074D02*
X180150872Y-85424836D01*
X180150872Y-85424836D02*
X180150872Y-85715122D01*
X180150872Y-85715122D02*
X180096444Y-85811884D01*
X180096444Y-85811884D02*
X180042015Y-85860265D01*
X179062301Y-84198931D02*
X179007872Y-84295693D01*
X179007872Y-84295693D02*
X179007872Y-84440836D01*
X179007872Y-84440836D02*
X179062301Y-84585979D01*
X179062301Y-84585979D02*
X179171158Y-84682741D01*
X179171158Y-84682741D02*
X179280015Y-84731122D01*
X179280015Y-84731122D02*
X179497729Y-84779503D01*
X179497729Y-84779503D02*
X179661015Y-84779503D01*
X179661015Y-84779503D02*
X179878729Y-84731122D01*
X179878729Y-84731122D02*
X179987586Y-84682741D01*
X179987586Y-84682741D02*
X180096444Y-84585979D01*
X180096444Y-84585979D02*
X180150872Y-84440836D01*
X180150872Y-84440836D02*
X180150872Y-84344074D01*
X180150872Y-84344074D02*
X180096444Y-84198931D01*
X180096444Y-84198931D02*
X180042015Y-84150550D01*
X180042015Y-84150550D02*
X179661015Y-84150550D01*
X179661015Y-84150550D02*
X179661015Y-84344074D01*
X180150872Y-83715122D02*
X179007872Y-83715122D01*
X179007872Y-83715122D02*
X180150872Y-83134550D01*
X180150872Y-83134550D02*
X179007872Y-83134550D01*
X180150872Y-82650741D02*
X179007872Y-82650741D01*
X179007872Y-82650741D02*
X179007872Y-82408836D01*
X179007872Y-82408836D02*
X179062301Y-82263693D01*
X179062301Y-82263693D02*
X179171158Y-82166931D01*
X179171158Y-82166931D02*
X179280015Y-82118550D01*
X179280015Y-82118550D02*
X179497729Y-82070169D01*
X179497729Y-82070169D02*
X179661015Y-82070169D01*
X179661015Y-82070169D02*
X179878729Y-82118550D01*
X179878729Y-82118550D02*
X179987586Y-82166931D01*
X179987586Y-82166931D02*
X180096444Y-82263693D01*
X180096444Y-82263693D02*
X180150872Y-82408836D01*
X180150872Y-82408836D02*
X180150872Y-82650741D01*
X180150872Y-81028931D02*
X180150872Y-81609503D01*
X180150872Y-81319217D02*
X179007872Y-81319217D01*
X179007872Y-81319217D02*
X179171158Y-81415979D01*
X179171158Y-81415979D02*
X179280015Y-81512741D01*
X179280015Y-81512741D02*
X179334444Y-81609503D01*
X179116729Y-80641884D02*
X179062301Y-80593503D01*
X179062301Y-80593503D02*
X179007872Y-80496741D01*
X179007872Y-80496741D02*
X179007872Y-80254836D01*
X179007872Y-80254836D02*
X179062301Y-80158074D01*
X179062301Y-80158074D02*
X179116729Y-80109693D01*
X179116729Y-80109693D02*
X179225586Y-80061312D01*
X179225586Y-80061312D02*
X179334444Y-80061312D01*
X179334444Y-80061312D02*
X179497729Y-80109693D01*
X179497729Y-80109693D02*
X180150872Y-80690265D01*
X180150872Y-80690265D02*
X180150872Y-80061312D01*
X180150872Y-78398931D02*
X180150872Y-78979503D01*
X180150872Y-78689217D02*
X179007872Y-78689217D01*
X179007872Y-78689217D02*
X179171158Y-78785979D01*
X179171158Y-78785979D02*
X179280015Y-78882741D01*
X179280015Y-78882741D02*
X179334444Y-78979503D01*
X179388872Y-77528074D02*
X180150872Y-77528074D01*
X178953444Y-77769979D02*
X179769872Y-78011884D01*
X179769872Y-78011884D02*
X179769872Y-77382931D01*
X179116729Y-76569503D02*
X179062301Y-76521122D01*
X179062301Y-76521122D02*
X179007872Y-76424360D01*
X179007872Y-76424360D02*
X179007872Y-76182455D01*
X179007872Y-76182455D02*
X179062301Y-76085693D01*
X179062301Y-76085693D02*
X179116729Y-76037312D01*
X179116729Y-76037312D02*
X179225586Y-75988931D01*
X179225586Y-75988931D02*
X179334444Y-75988931D01*
X179334444Y-75988931D02*
X179497729Y-76037312D01*
X179497729Y-76037312D02*
X180150872Y-76617884D01*
X180150872Y-76617884D02*
X180150872Y-75988931D01*
X179007872Y-75650265D02*
X179007872Y-74972931D01*
X179007872Y-74972931D02*
X180150872Y-75408360D01*
X179116729Y-74089503D02*
X179062301Y-74041122D01*
X179062301Y-74041122D02*
X179007872Y-73944360D01*
X179007872Y-73944360D02*
X179007872Y-73702455D01*
X179007872Y-73702455D02*
X179062301Y-73605693D01*
X179062301Y-73605693D02*
X179116729Y-73557312D01*
X179116729Y-73557312D02*
X179225586Y-73508931D01*
X179225586Y-73508931D02*
X179334444Y-73508931D01*
X179334444Y-73508931D02*
X179497729Y-73557312D01*
X179497729Y-73557312D02*
X180150872Y-74137884D01*
X180150872Y-74137884D02*
X180150872Y-73508931D01*
X179007872Y-72638074D02*
X179007872Y-72831598D01*
X179007872Y-72831598D02*
X179062301Y-72928360D01*
X179062301Y-72928360D02*
X179116729Y-72976741D01*
X179116729Y-72976741D02*
X179280015Y-73073503D01*
X179280015Y-73073503D02*
X179497729Y-73121884D01*
X179497729Y-73121884D02*
X179933158Y-73121884D01*
X179933158Y-73121884D02*
X180042015Y-73073503D01*
X180042015Y-73073503D02*
X180096444Y-73025122D01*
X180096444Y-73025122D02*
X180150872Y-72928360D01*
X180150872Y-72928360D02*
X180150872Y-72734836D01*
X180150872Y-72734836D02*
X180096444Y-72638074D01*
X180096444Y-72638074D02*
X180042015Y-72589693D01*
X180042015Y-72589693D02*
X179933158Y-72541312D01*
X179933158Y-72541312D02*
X179661015Y-72541312D01*
X179661015Y-72541312D02*
X179552158Y-72589693D01*
X179552158Y-72589693D02*
X179497729Y-72638074D01*
X179497729Y-72638074D02*
X179443301Y-72734836D01*
X179443301Y-72734836D02*
X179443301Y-72928360D01*
X179443301Y-72928360D02*
X179497729Y-73025122D01*
X179497729Y-73025122D02*
X179552158Y-73073503D01*
X179552158Y-73073503D02*
X179661015Y-73121884D01*
X179116729Y-71479503D02*
X179062301Y-71431122D01*
X179062301Y-71431122D02*
X179007872Y-71334360D01*
X179007872Y-71334360D02*
X179007872Y-71092455D01*
X179007872Y-71092455D02*
X179062301Y-70995693D01*
X179062301Y-70995693D02*
X179116729Y-70947312D01*
X179116729Y-70947312D02*
X179225586Y-70898931D01*
X179225586Y-70898931D02*
X179334444Y-70898931D01*
X179334444Y-70898931D02*
X179497729Y-70947312D01*
X179497729Y-70947312D02*
X180150872Y-71527884D01*
X180150872Y-71527884D02*
X180150872Y-70898931D01*
X179007872Y-69979693D02*
X179007872Y-70463503D01*
X179007872Y-70463503D02*
X179552158Y-70511884D01*
X179552158Y-70511884D02*
X179497729Y-70463503D01*
X179497729Y-70463503D02*
X179443301Y-70366741D01*
X179443301Y-70366741D02*
X179443301Y-70124836D01*
X179443301Y-70124836D02*
X179497729Y-70028074D01*
X179497729Y-70028074D02*
X179552158Y-69979693D01*
X179552158Y-69979693D02*
X179661015Y-69931312D01*
X179661015Y-69931312D02*
X179933158Y-69931312D01*
X179933158Y-69931312D02*
X180042015Y-69979693D01*
X180042015Y-69979693D02*
X180096444Y-70028074D01*
X180096444Y-70028074D02*
X180150872Y-70124836D01*
X180150872Y-70124836D02*
X180150872Y-70366741D01*
X180150872Y-70366741D02*
X180096444Y-70463503D01*
X180096444Y-70463503D02*
X180042015Y-70511884D01*
X179007872Y-68987884D02*
X179007872Y-68358931D01*
X179007872Y-68358931D02*
X179443301Y-68697598D01*
X179443301Y-68697598D02*
X179443301Y-68552455D01*
X179443301Y-68552455D02*
X179497729Y-68455693D01*
X179497729Y-68455693D02*
X179552158Y-68407312D01*
X179552158Y-68407312D02*
X179661015Y-68358931D01*
X179661015Y-68358931D02*
X179933158Y-68358931D01*
X179933158Y-68358931D02*
X180042015Y-68407312D01*
X180042015Y-68407312D02*
X180096444Y-68455693D01*
X180096444Y-68455693D02*
X180150872Y-68552455D01*
X180150872Y-68552455D02*
X180150872Y-68842741D01*
X180150872Y-68842741D02*
X180096444Y-68939503D01*
X180096444Y-68939503D02*
X180042015Y-68987884D01*
X179007872Y-68020265D02*
X179007872Y-67391312D01*
X179007872Y-67391312D02*
X179443301Y-67729979D01*
X179443301Y-67729979D02*
X179443301Y-67584836D01*
X179443301Y-67584836D02*
X179497729Y-67488074D01*
X179497729Y-67488074D02*
X179552158Y-67439693D01*
X179552158Y-67439693D02*
X179661015Y-67391312D01*
X179661015Y-67391312D02*
X179933158Y-67391312D01*
X179933158Y-67391312D02*
X180042015Y-67439693D01*
X180042015Y-67439693D02*
X180096444Y-67488074D01*
X180096444Y-67488074D02*
X180150872Y-67584836D01*
X180150872Y-67584836D02*
X180150872Y-67875122D01*
X180150872Y-67875122D02*
X180096444Y-67971884D01*
X180096444Y-67971884D02*
X180042015Y-68020265D01*
X179007872Y-66427884D02*
X179007872Y-65798931D01*
X179007872Y-65798931D02*
X179443301Y-66137598D01*
X179443301Y-66137598D02*
X179443301Y-65992455D01*
X179443301Y-65992455D02*
X179497729Y-65895693D01*
X179497729Y-65895693D02*
X179552158Y-65847312D01*
X179552158Y-65847312D02*
X179661015Y-65798931D01*
X179661015Y-65798931D02*
X179933158Y-65798931D01*
X179933158Y-65798931D02*
X180042015Y-65847312D01*
X180042015Y-65847312D02*
X180096444Y-65895693D01*
X180096444Y-65895693D02*
X180150872Y-65992455D01*
X180150872Y-65992455D02*
X180150872Y-66282741D01*
X180150872Y-66282741D02*
X180096444Y-66379503D01*
X180096444Y-66379503D02*
X180042015Y-66427884D01*
X179116729Y-65411884D02*
X179062301Y-65363503D01*
X179062301Y-65363503D02*
X179007872Y-65266741D01*
X179007872Y-65266741D02*
X179007872Y-65024836D01*
X179007872Y-65024836D02*
X179062301Y-64928074D01*
X179062301Y-64928074D02*
X179116729Y-64879693D01*
X179116729Y-64879693D02*
X179225586Y-64831312D01*
X179225586Y-64831312D02*
X179334444Y-64831312D01*
X179334444Y-64831312D02*
X179497729Y-64879693D01*
X179497729Y-64879693D02*
X180150872Y-65460265D01*
X180150872Y-65460265D02*
X180150872Y-64831312D01*
X179007872Y-64027884D02*
X179007872Y-63398931D01*
X179007872Y-63398931D02*
X179443301Y-63737598D01*
X179443301Y-63737598D02*
X179443301Y-63592455D01*
X179443301Y-63592455D02*
X179497729Y-63495693D01*
X179497729Y-63495693D02*
X179552158Y-63447312D01*
X179552158Y-63447312D02*
X179661015Y-63398931D01*
X179661015Y-63398931D02*
X179933158Y-63398931D01*
X179933158Y-63398931D02*
X180042015Y-63447312D01*
X180042015Y-63447312D02*
X180096444Y-63495693D01*
X180096444Y-63495693D02*
X180150872Y-63592455D01*
X180150872Y-63592455D02*
X180150872Y-63882741D01*
X180150872Y-63882741D02*
X180096444Y-63979503D01*
X180096444Y-63979503D02*
X180042015Y-64027884D01*
X179007872Y-62479693D02*
X179007872Y-62963503D01*
X179007872Y-62963503D02*
X179552158Y-63011884D01*
X179552158Y-63011884D02*
X179497729Y-62963503D01*
X179497729Y-62963503D02*
X179443301Y-62866741D01*
X179443301Y-62866741D02*
X179443301Y-62624836D01*
X179443301Y-62624836D02*
X179497729Y-62528074D01*
X179497729Y-62528074D02*
X179552158Y-62479693D01*
X179552158Y-62479693D02*
X179661015Y-62431312D01*
X179661015Y-62431312D02*
X179933158Y-62431312D01*
X179933158Y-62431312D02*
X180042015Y-62479693D01*
X180042015Y-62479693D02*
X180096444Y-62528074D01*
X180096444Y-62528074D02*
X180150872Y-62624836D01*
X180150872Y-62624836D02*
X180150872Y-62866741D01*
X180150872Y-62866741D02*
X180096444Y-62963503D01*
X180096444Y-62963503D02*
X180042015Y-63011884D01*
X179007872Y-61357884D02*
X179007872Y-60728931D01*
X179007872Y-60728931D02*
X179443301Y-61067598D01*
X179443301Y-61067598D02*
X179443301Y-60922455D01*
X179443301Y-60922455D02*
X179497729Y-60825693D01*
X179497729Y-60825693D02*
X179552158Y-60777312D01*
X179552158Y-60777312D02*
X179661015Y-60728931D01*
X179661015Y-60728931D02*
X179933158Y-60728931D01*
X179933158Y-60728931D02*
X180042015Y-60777312D01*
X180042015Y-60777312D02*
X180096444Y-60825693D01*
X180096444Y-60825693D02*
X180150872Y-60922455D01*
X180150872Y-60922455D02*
X180150872Y-61212741D01*
X180150872Y-61212741D02*
X180096444Y-61309503D01*
X180096444Y-61309503D02*
X180042015Y-61357884D01*
X179388872Y-59858074D02*
X180150872Y-59858074D01*
X178953444Y-60099979D02*
X179769872Y-60341884D01*
X179769872Y-60341884D02*
X179769872Y-59712931D01*
X179007872Y-58947884D02*
X179007872Y-58318931D01*
X179007872Y-58318931D02*
X179443301Y-58657598D01*
X179443301Y-58657598D02*
X179443301Y-58512455D01*
X179443301Y-58512455D02*
X179497729Y-58415693D01*
X179497729Y-58415693D02*
X179552158Y-58367312D01*
X179552158Y-58367312D02*
X179661015Y-58318931D01*
X179661015Y-58318931D02*
X179933158Y-58318931D01*
X179933158Y-58318931D02*
X180042015Y-58367312D01*
X180042015Y-58367312D02*
X180096444Y-58415693D01*
X180096444Y-58415693D02*
X180150872Y-58512455D01*
X180150872Y-58512455D02*
X180150872Y-58802741D01*
X180150872Y-58802741D02*
X180096444Y-58899503D01*
X180096444Y-58899503D02*
X180042015Y-58947884D01*
X180150872Y-57835122D02*
X180150872Y-57641598D01*
X180150872Y-57641598D02*
X180096444Y-57544836D01*
X180096444Y-57544836D02*
X180042015Y-57496455D01*
X180042015Y-57496455D02*
X179878729Y-57399693D01*
X179878729Y-57399693D02*
X179661015Y-57351312D01*
X179661015Y-57351312D02*
X179225586Y-57351312D01*
X179225586Y-57351312D02*
X179116729Y-57399693D01*
X179116729Y-57399693D02*
X179062301Y-57448074D01*
X179062301Y-57448074D02*
X179007872Y-57544836D01*
X179007872Y-57544836D02*
X179007872Y-57738360D01*
X179007872Y-57738360D02*
X179062301Y-57835122D01*
X179062301Y-57835122D02*
X179116729Y-57883503D01*
X179116729Y-57883503D02*
X179225586Y-57931884D01*
X179225586Y-57931884D02*
X179497729Y-57931884D01*
X179497729Y-57931884D02*
X179606586Y-57883503D01*
X179606586Y-57883503D02*
X179661015Y-57835122D01*
X179661015Y-57835122D02*
X179715444Y-57738360D01*
X179715444Y-57738360D02*
X179715444Y-57544836D01*
X179715444Y-57544836D02*
X179661015Y-57448074D01*
X179661015Y-57448074D02*
X179606586Y-57399693D01*
X179606586Y-57399693D02*
X179497729Y-57351312D01*
X179007872Y-56377884D02*
X179007872Y-55748931D01*
X179007872Y-55748931D02*
X179443301Y-56087598D01*
X179443301Y-56087598D02*
X179443301Y-55942455D01*
X179443301Y-55942455D02*
X179497729Y-55845693D01*
X179497729Y-55845693D02*
X179552158Y-55797312D01*
X179552158Y-55797312D02*
X179661015Y-55748931D01*
X179661015Y-55748931D02*
X179933158Y-55748931D01*
X179933158Y-55748931D02*
X180042015Y-55797312D01*
X180042015Y-55797312D02*
X180096444Y-55845693D01*
X180096444Y-55845693D02*
X180150872Y-55942455D01*
X180150872Y-55942455D02*
X180150872Y-56232741D01*
X180150872Y-56232741D02*
X180096444Y-56329503D01*
X180096444Y-56329503D02*
X180042015Y-56377884D01*
X179007872Y-54878074D02*
X179007872Y-55071598D01*
X179007872Y-55071598D02*
X179062301Y-55168360D01*
X179062301Y-55168360D02*
X179116729Y-55216741D01*
X179116729Y-55216741D02*
X179280015Y-55313503D01*
X179280015Y-55313503D02*
X179497729Y-55361884D01*
X179497729Y-55361884D02*
X179933158Y-55361884D01*
X179933158Y-55361884D02*
X180042015Y-55313503D01*
X180042015Y-55313503D02*
X180096444Y-55265122D01*
X180096444Y-55265122D02*
X180150872Y-55168360D01*
X180150872Y-55168360D02*
X180150872Y-54974836D01*
X180150872Y-54974836D02*
X180096444Y-54878074D01*
X180096444Y-54878074D02*
X180042015Y-54829693D01*
X180042015Y-54829693D02*
X179933158Y-54781312D01*
X179933158Y-54781312D02*
X179661015Y-54781312D01*
X179661015Y-54781312D02*
X179552158Y-54829693D01*
X179552158Y-54829693D02*
X179497729Y-54878074D01*
X179497729Y-54878074D02*
X179443301Y-54974836D01*
X179443301Y-54974836D02*
X179443301Y-55168360D01*
X179443301Y-55168360D02*
X179497729Y-55265122D01*
X179497729Y-55265122D02*
X179552158Y-55313503D01*
X179552158Y-55313503D02*
X179661015Y-55361884D01*
X180150872Y-53730550D02*
X179606586Y-54069217D01*
X180150872Y-54311122D02*
X179007872Y-54311122D01*
X179007872Y-54311122D02*
X179007872Y-53924074D01*
X179007872Y-53924074D02*
X179062301Y-53827312D01*
X179062301Y-53827312D02*
X179116729Y-53778931D01*
X179116729Y-53778931D02*
X179225586Y-53730550D01*
X179225586Y-53730550D02*
X179388872Y-53730550D01*
X179388872Y-53730550D02*
X179497729Y-53778931D01*
X179497729Y-53778931D02*
X179552158Y-53827312D01*
X179552158Y-53827312D02*
X179606586Y-53924074D01*
X179606586Y-53924074D02*
X179606586Y-54311122D01*
X180096444Y-53343503D02*
X180150872Y-53198360D01*
X180150872Y-53198360D02*
X180150872Y-52956455D01*
X180150872Y-52956455D02*
X180096444Y-52859693D01*
X180096444Y-52859693D02*
X180042015Y-52811312D01*
X180042015Y-52811312D02*
X179933158Y-52762931D01*
X179933158Y-52762931D02*
X179824301Y-52762931D01*
X179824301Y-52762931D02*
X179715444Y-52811312D01*
X179715444Y-52811312D02*
X179661015Y-52859693D01*
X179661015Y-52859693D02*
X179606586Y-52956455D01*
X179606586Y-52956455D02*
X179552158Y-53149979D01*
X179552158Y-53149979D02*
X179497729Y-53246741D01*
X179497729Y-53246741D02*
X179443301Y-53295122D01*
X179443301Y-53295122D02*
X179334444Y-53343503D01*
X179334444Y-53343503D02*
X179225586Y-53343503D01*
X179225586Y-53343503D02*
X179116729Y-53295122D01*
X179116729Y-53295122D02*
X179062301Y-53246741D01*
X179062301Y-53246741D02*
X179007872Y-53149979D01*
X179007872Y-53149979D02*
X179007872Y-52908074D01*
X179007872Y-52908074D02*
X179062301Y-52762931D01*
X179007872Y-52472646D02*
X179007872Y-51892074D01*
X180150872Y-52182360D02*
X179007872Y-52182360D01*
X179007872Y-51607884D02*
X179007872Y-50978931D01*
X179007872Y-50978931D02*
X179443301Y-51317598D01*
X179443301Y-51317598D02*
X179443301Y-51172455D01*
X179443301Y-51172455D02*
X179497729Y-51075693D01*
X179497729Y-51075693D02*
X179552158Y-51027312D01*
X179552158Y-51027312D02*
X179661015Y-50978931D01*
X179661015Y-50978931D02*
X179933158Y-50978931D01*
X179933158Y-50978931D02*
X180042015Y-51027312D01*
X180042015Y-51027312D02*
X180096444Y-51075693D01*
X180096444Y-51075693D02*
X180150872Y-51172455D01*
X180150872Y-51172455D02*
X180150872Y-51462741D01*
X180150872Y-51462741D02*
X180096444Y-51559503D01*
X180096444Y-51559503D02*
X180042015Y-51607884D01*
X179007872Y-50688646D02*
X180150872Y-50349979D01*
X180150872Y-50349979D02*
X179007872Y-50011312D01*
X179007872Y-49769408D02*
X179007872Y-49140455D01*
X179007872Y-49140455D02*
X179443301Y-49479122D01*
X179443301Y-49479122D02*
X179443301Y-49333979D01*
X179443301Y-49333979D02*
X179497729Y-49237217D01*
X179497729Y-49237217D02*
X179552158Y-49188836D01*
X179552158Y-49188836D02*
X179661015Y-49140455D01*
X179661015Y-49140455D02*
X179933158Y-49140455D01*
X179933158Y-49140455D02*
X180042015Y-49188836D01*
X180042015Y-49188836D02*
X180096444Y-49237217D01*
X180096444Y-49237217D02*
X180150872Y-49333979D01*
X180150872Y-49333979D02*
X180150872Y-49624265D01*
X180150872Y-49624265D02*
X180096444Y-49721027D01*
X180096444Y-49721027D02*
X180042015Y-49769408D01*
D11*
X200556666Y-46854819D02*
X200223333Y-46378628D01*
X199985238Y-46854819D02*
X199985238Y-45854819D01*
X199985238Y-45854819D02*
X200366190Y-45854819D01*
X200366190Y-45854819D02*
X200461428Y-45902438D01*
X200461428Y-45902438D02*
X200509047Y-45950057D01*
X200509047Y-45950057D02*
X200556666Y-46045295D01*
X200556666Y-46045295D02*
X200556666Y-46188152D01*
X200556666Y-46188152D02*
X200509047Y-46283390D01*
X200509047Y-46283390D02*
X200461428Y-46331009D01*
X200461428Y-46331009D02*
X200366190Y-46378628D01*
X200366190Y-46378628D02*
X199985238Y-46378628D01*
X200985238Y-46331009D02*
X201318571Y-46331009D01*
X201461428Y-46854819D02*
X200985238Y-46854819D01*
X200985238Y-46854819D02*
X200985238Y-45854819D01*
X200985238Y-45854819D02*
X201461428Y-45854819D01*
X202223333Y-46331009D02*
X201890000Y-46331009D01*
X201890000Y-46854819D02*
X201890000Y-45854819D01*
X201890000Y-45854819D02*
X202366190Y-45854819D01*
X202890000Y-45854819D02*
X202890000Y-46092914D01*
X202651905Y-45997676D02*
X202890000Y-46092914D01*
X202890000Y-46092914D02*
X203128095Y-45997676D01*
X202747143Y-46283390D02*
X202890000Y-46092914D01*
X202890000Y-46092914D02*
X203032857Y-46283390D01*
X203651905Y-45854819D02*
X203651905Y-46092914D01*
X203413810Y-45997676D02*
X203651905Y-46092914D01*
X203651905Y-46092914D02*
X203890000Y-45997676D01*
X203509048Y-46283390D02*
X203651905Y-46092914D01*
X203651905Y-46092914D02*
X203794762Y-46283390D01*
X189605595Y-41229819D02*
X189605595Y-42039342D01*
X189605595Y-42039342D02*
X189653214Y-42134580D01*
X189653214Y-42134580D02*
X189700833Y-42182200D01*
X189700833Y-42182200D02*
X189796071Y-42229819D01*
X189796071Y-42229819D02*
X189986547Y-42229819D01*
X189986547Y-42229819D02*
X190081785Y-42182200D01*
X190081785Y-42182200D02*
X190129404Y-42134580D01*
X190129404Y-42134580D02*
X190177023Y-42039342D01*
X190177023Y-42039342D02*
X190177023Y-41229819D01*
X190557976Y-41229819D02*
X191177023Y-41229819D01*
X191177023Y-41229819D02*
X190843690Y-41610771D01*
X190843690Y-41610771D02*
X190986547Y-41610771D01*
X190986547Y-41610771D02*
X191081785Y-41658390D01*
X191081785Y-41658390D02*
X191129404Y-41706009D01*
X191129404Y-41706009D02*
X191177023Y-41801247D01*
X191177023Y-41801247D02*
X191177023Y-42039342D01*
X191177023Y-42039342D02*
X191129404Y-42134580D01*
X191129404Y-42134580D02*
X191081785Y-42182200D01*
X191081785Y-42182200D02*
X190986547Y-42229819D01*
X190986547Y-42229819D02*
X190700833Y-42229819D01*
X190700833Y-42229819D02*
X190605595Y-42182200D01*
X190605595Y-42182200D02*
X190557976Y-42134580D01*
X177321773Y-102195332D02*
X176988070Y-101718613D01*
X176749710Y-102195332D02*
X176749710Y-101194222D01*
X176749710Y-101194222D02*
X177131085Y-101194222D01*
X177131085Y-101194222D02*
X177226429Y-101241894D01*
X177226429Y-101241894D02*
X177274101Y-101289566D01*
X177274101Y-101289566D02*
X177321773Y-101384910D01*
X177321773Y-101384910D02*
X177321773Y-101527926D01*
X177321773Y-101527926D02*
X177274101Y-101623270D01*
X177274101Y-101623270D02*
X177226429Y-101670941D01*
X177226429Y-101670941D02*
X177131085Y-101718613D01*
X177131085Y-101718613D02*
X176749710Y-101718613D01*
X177703148Y-102147661D02*
X177846164Y-102195332D01*
X177846164Y-102195332D02*
X178084523Y-102195332D01*
X178084523Y-102195332D02*
X178179867Y-102147661D01*
X178179867Y-102147661D02*
X178227539Y-102099989D01*
X178227539Y-102099989D02*
X178275211Y-102004645D01*
X178275211Y-102004645D02*
X178275211Y-101909301D01*
X178275211Y-101909301D02*
X178227539Y-101813957D01*
X178227539Y-101813957D02*
X178179867Y-101766285D01*
X178179867Y-101766285D02*
X178084523Y-101718613D01*
X178084523Y-101718613D02*
X177893836Y-101670941D01*
X177893836Y-101670941D02*
X177798492Y-101623270D01*
X177798492Y-101623270D02*
X177750820Y-101575598D01*
X177750820Y-101575598D02*
X177703148Y-101480254D01*
X177703148Y-101480254D02*
X177703148Y-101384910D01*
X177703148Y-101384910D02*
X177750820Y-101289566D01*
X177750820Y-101289566D02*
X177798492Y-101241894D01*
X177798492Y-101241894D02*
X177893836Y-101194222D01*
X177893836Y-101194222D02*
X178132195Y-101194222D01*
X178132195Y-101194222D02*
X178275211Y-101241894D01*
X178561242Y-101194222D02*
X179133305Y-101194222D01*
X178847274Y-102195332D02*
X178847274Y-101194222D01*
X190029405Y-99234819D02*
X190029405Y-98234819D01*
X190029405Y-98234819D02*
X190410357Y-98234819D01*
X190410357Y-98234819D02*
X190505595Y-98282438D01*
X190505595Y-98282438D02*
X190553214Y-98330057D01*
X190553214Y-98330057D02*
X190600833Y-98425295D01*
X190600833Y-98425295D02*
X190600833Y-98568152D01*
X190600833Y-98568152D02*
X190553214Y-98663390D01*
X190553214Y-98663390D02*
X190505595Y-98711009D01*
X190505595Y-98711009D02*
X190410357Y-98758628D01*
X190410357Y-98758628D02*
X190029405Y-98758628D01*
X191553214Y-99234819D02*
X190981786Y-99234819D01*
X191267500Y-99234819D02*
X191267500Y-98234819D01*
X191267500Y-98234819D02*
X191172262Y-98377676D01*
X191172262Y-98377676D02*
X191077024Y-98472914D01*
X191077024Y-98472914D02*
X190981786Y-98520533D01*
X191229405Y-78904819D02*
X191229405Y-77904819D01*
X191229405Y-77904819D02*
X191467500Y-77904819D01*
X191467500Y-77904819D02*
X191610357Y-77952438D01*
X191610357Y-77952438D02*
X191705595Y-78047676D01*
X191705595Y-78047676D02*
X191753214Y-78142914D01*
X191753214Y-78142914D02*
X191800833Y-78333390D01*
X191800833Y-78333390D02*
X191800833Y-78476247D01*
X191800833Y-78476247D02*
X191753214Y-78666723D01*
X191753214Y-78666723D02*
X191705595Y-78761961D01*
X191705595Y-78761961D02*
X191610357Y-78857200D01*
X191610357Y-78857200D02*
X191467500Y-78904819D01*
X191467500Y-78904819D02*
X191229405Y-78904819D01*
X192134167Y-77904819D02*
X192753214Y-77904819D01*
X192753214Y-77904819D02*
X192419881Y-78285771D01*
X192419881Y-78285771D02*
X192562738Y-78285771D01*
X192562738Y-78285771D02*
X192657976Y-78333390D01*
X192657976Y-78333390D02*
X192705595Y-78381009D01*
X192705595Y-78381009D02*
X192753214Y-78476247D01*
X192753214Y-78476247D02*
X192753214Y-78714342D01*
X192753214Y-78714342D02*
X192705595Y-78809580D01*
X192705595Y-78809580D02*
X192657976Y-78857200D01*
X192657976Y-78857200D02*
X192562738Y-78904819D01*
X192562738Y-78904819D02*
X192277024Y-78904819D01*
X192277024Y-78904819D02*
X192181786Y-78857200D01*
X192181786Y-78857200D02*
X192134167Y-78809580D01*
X193325714Y-80594819D02*
X192754286Y-80594819D01*
X193040000Y-80594819D02*
X193040000Y-79594819D01*
X193040000Y-79594819D02*
X192944762Y-79737676D01*
X192944762Y-79737676D02*
X192849524Y-79832914D01*
X192849524Y-79832914D02*
X192754286Y-79880533D01*
X202150132Y-101640941D02*
X202293148Y-101688613D01*
X202293148Y-101688613D02*
X202340820Y-101736285D01*
X202340820Y-101736285D02*
X202388492Y-101831629D01*
X202388492Y-101831629D02*
X202388492Y-101974645D01*
X202388492Y-101974645D02*
X202340820Y-102069989D01*
X202340820Y-102069989D02*
X202293148Y-102117661D01*
X202293148Y-102117661D02*
X202197804Y-102165332D01*
X202197804Y-102165332D02*
X201816429Y-102165332D01*
X201816429Y-102165332D02*
X201816429Y-101164222D01*
X201816429Y-101164222D02*
X202150132Y-101164222D01*
X202150132Y-101164222D02*
X202245476Y-101211894D01*
X202245476Y-101211894D02*
X202293148Y-101259566D01*
X202293148Y-101259566D02*
X202340820Y-101354910D01*
X202340820Y-101354910D02*
X202340820Y-101450254D01*
X202340820Y-101450254D02*
X202293148Y-101545598D01*
X202293148Y-101545598D02*
X202245476Y-101593270D01*
X202245476Y-101593270D02*
X202150132Y-101640941D01*
X202150132Y-101640941D02*
X201816429Y-101640941D01*
X202674523Y-101164222D02*
X203246586Y-101164222D01*
X202960555Y-102165332D02*
X202960555Y-101164222D01*
D12*
%TO.C,U3*%
X181507500Y-74625000D02*
X181507500Y-74270000D01*
X181507500Y-74625000D02*
X199507500Y-74625000D01*
X199507500Y-74625000D02*
X199507500Y-74270000D01*
%TO.C,R6*%
X198170436Y-91335000D02*
X198624564Y-91335000D01*
X198170436Y-92805000D02*
X198624564Y-92805000D01*
D13*
%TO.C,RST*%
X182860000Y-103065000D02*
X182860000Y-100665000D01*
D12*
%TO.C,C4*%
X182046248Y-85655000D02*
X182568752Y-85655000D01*
X182046248Y-87125000D02*
X182568752Y-87125000D01*
%TO.C,R2*%
X198170436Y-79535000D02*
X198624564Y-79535000D01*
X198170436Y-81005000D02*
X198624564Y-81005000D01*
%TO.C,D1*%
X192080000Y-91390000D02*
X192080000Y-92690000D01*
X195200000Y-92690000D02*
X195200000Y-90690000D01*
%TO.C,R5*%
X198170436Y-88385000D02*
X198624564Y-88385000D01*
X198170436Y-89855000D02*
X198624564Y-89855000D01*
%TO.C,R4*%
X198170436Y-85435000D02*
X198624564Y-85435000D01*
X198170436Y-86905000D02*
X198624564Y-86905000D01*
%TO.C,C3*%
X182046248Y-82645000D02*
X182568752Y-82645000D01*
X182046248Y-84115000D02*
X182568752Y-84115000D01*
%TO.C,R1*%
X198170436Y-76585000D02*
X198624564Y-76585000D01*
X198170436Y-78055000D02*
X198624564Y-78055000D01*
%TO.C,P1*%
X186090000Y-98965000D02*
X186090000Y-100885000D01*
X186090000Y-104600000D02*
X186090000Y-102895000D01*
X195250000Y-100885000D02*
X195250000Y-98965000D01*
X195250000Y-102895000D02*
X195250000Y-104600000D01*
X195250000Y-104600000D02*
X186090000Y-104600000D01*
%TO.C,Q2*%
X183947500Y-96270000D02*
X183947500Y-94470000D01*
X183947500Y-96270000D02*
X183947500Y-97070000D01*
X180827500Y-96270000D02*
X180827500Y-95470000D01*
X180827500Y-96270000D02*
X180827500Y-97070000D01*
%TO.C,C6*%
X182046248Y-91675000D02*
X182568752Y-91675000D01*
X182046248Y-93145000D02*
X182568752Y-93145000D01*
%TO.C,C1*%
X182046248Y-76625000D02*
X182568752Y-76625000D01*
X182046248Y-78095000D02*
X182568752Y-78095000D01*
%TO.C,D2*%
X185217500Y-80867500D02*
X187217500Y-80867500D01*
X185217500Y-80867500D02*
X185217500Y-77007500D01*
X187217500Y-80867500D02*
X187217500Y-77007500D01*
%TO.C,U2*%
X185285000Y-85725000D02*
X185285000Y-89175000D01*
X185285000Y-85725000D02*
X185285000Y-83775000D01*
X195405000Y-85725000D02*
X195405000Y-87675000D01*
X195405000Y-85725000D02*
X195405000Y-83775000D01*
%TO.C,C5*%
X182046248Y-88665000D02*
X182568752Y-88665000D01*
X182046248Y-90135000D02*
X182568752Y-90135000D01*
%TO.C,D3*%
X188367500Y-75700000D02*
X195667500Y-75700000D01*
X188367500Y-81200000D02*
X195667500Y-81200000D01*
X195667500Y-81200000D02*
X195667500Y-80050000D01*
%TO.C,Q1*%
X200117500Y-95930000D02*
X200117500Y-94130000D01*
X200117500Y-95930000D02*
X200117500Y-96730000D01*
X196997500Y-95930000D02*
X196997500Y-95130000D01*
X196997500Y-95930000D02*
X196997500Y-96730000D01*
D13*
%TO.C,BT*%
X197980000Y-100495000D02*
X197980000Y-102895000D01*
D12*
%TO.C,C2*%
X182046248Y-79635000D02*
X182568752Y-79635000D01*
X182046248Y-81105000D02*
X182568752Y-81105000D01*
%TO.C,U1*%
X187540000Y-90600000D02*
X185740000Y-90600000D01*
X187540000Y-90600000D02*
X188340000Y-90600000D01*
X187540000Y-93720000D02*
X186740000Y-93720000D01*
X187540000Y-93720000D02*
X188340000Y-93720000D01*
%TO.C,R3*%
X198170436Y-82485000D02*
X198624564Y-82485000D01*
X198170436Y-83955000D02*
X198624564Y-83955000D01*
%TD*%
M02*
