M48
; DRILL file {KiCad 7.0.6-0} date 2024 January 30, Tuesday 12:53:38
; FORMAT={-:-/ absolute / inch / decimal}
; #@! TF.CreationDate,2024-01-30T12:53:38-06:00
; #@! TF.GenerationSoftware,Kicad,Pcbnew,7.0.6-0
; #@! TF.FileFunction,Plated,1,2,PTH
FMAT,2
INCH
; #@! TA.AperFunction,Plated,PTH,ViaDrill
T1C0.0126
; #@! TA.AperFunction,Plated,PTH,ViaDrill
T2C0.0157
; #@! TA.AperFunction,Plated,PTH,ComponentDrill
T3C0.0236
; #@! TA.AperFunction,Plated,PTH,ComponentDrill
T4C0.0394
%
G90
G05
T1
X6.998Y-3.9157
X7.0843Y-3.7465
X7.1398Y-3.2213
X7.1787Y-3.2268
X7.2126Y-2.4433
X7.2138Y-2.4953
X7.2146Y-2.5445
X7.2154Y-2.5941
X7.2177Y-3.461
X7.2189Y-3.3398
X7.228Y-3.8343
X7.2287Y-3.9276
X7.2378Y-2.0083
X7.2465Y-2.6457
X7.287Y-3.4681
X7.3055Y-3.7594
X7.3067Y-2.7453
X7.3075Y-2.6949
X7.3126Y-3.5398
X7.3311Y-3.4142
X7.3693Y-3.4122
X7.3732Y-3.1528
X7.3736Y-2.5949
X7.3791Y-3.626
X7.4024Y-3.0236
X7.4098Y-3.3504
X7.4138Y-2.398
X7.4157Y-2.2047
X7.426Y-3.722
X7.4323Y-3.3906
X7.4583Y-3.7449
X7.4689Y-2.2043
X7.4689Y-2.3961
X7.4827Y-2.9984
X7.4969Y-3.6461
X7.5201Y-3.3583
X7.5252Y-3.9858
X7.5449Y-3.7067
X7.5736Y-3.7406
X7.6063Y-2.4827
X7.6591Y-2.2059
X7.7189Y-3.5287
X7.7224Y-3.5839
X7.726Y-3.1673
X7.7291Y-2.1516
X7.7421Y-2.9744
X7.7472Y-3.2067
X7.7555Y-2.1031
X7.7713Y-3.5571
X7.7791Y-2.3957
X7.7799Y-2.4445
X7.785Y-2.5941
X7.7862Y-2.6449
X7.787Y-2.6949
X7.7874Y-2.7445
X7.8169Y-3.7303
X7.8177Y-4.0114
X7.8503Y-3.4492
T2
X7.4008Y-3.9193
X7.6685Y-3.7524
X7.7087Y-3.9193
T4
X7.0Y-1.989
X7.0Y-2.089
X7.0Y-2.189
X7.0Y-2.289
X7.0Y-2.389
X7.0Y-2.489
X7.0Y-2.589
X7.0Y-2.689
X7.0Y-2.789
X7.0Y-2.889
X7.0Y-2.989
X7.0Y-3.089
X7.0Y-3.189
X7.0Y-3.289
X7.0Y-3.389
X7.0Y-3.489
X7.0Y-3.589
X7.0Y-3.689
X7.0Y-3.789
X8.0Y-1.989
X8.0Y-2.089
X8.0Y-2.189
X8.0Y-2.289
X8.0Y-2.389
X8.0Y-2.489
X8.0Y-2.589
X8.0Y-2.689
X8.0Y-2.789
X8.0Y-2.889
X8.0Y-2.989
X8.0Y-3.089
X8.0Y-3.189
X8.0Y-3.289
X8.0Y-3.389
X8.0Y-3.489
X8.0Y-3.589
X8.0Y-3.689
X8.0Y-3.789
T3
G00X7.3366Y-3.8252
M15
G01X7.3366Y-3.8685
M16
G05
G00X7.3366Y-3.9996
M15
G01X7.3366Y-4.0232
M16
G05
G00X7.6768Y-3.8252
M15
G01X7.6768Y-3.8685
M16
G05
G00X7.6768Y-3.9996
M15
G01X7.6768Y-4.0232
M16
G05
T0
M30
