%TF.GenerationSoftware,KiCad,Pcbnew,7.0.6-0*%
%TF.CreationDate,2024-01-09T11:34:52-06:00*%
%TF.ProjectId,ESP32_DevKit,45535033-325f-4446-9576-4b69742e6b69,rev?*%
%TF.SameCoordinates,Original*%
%TF.FileFunction,Soldermask,Top*%
%TF.FilePolarity,Negative*%
%FSLAX46Y46*%
G04 Gerber Fmt 4.6, Leading zero omitted, Abs format (unit mm)*
G04 Created by KiCad (PCBNEW 7.0.6-0) date 2024-01-09 11:34:52*
%MOMM*%
%LPD*%
G01*
G04 APERTURE LIST*
G04 Aperture macros list*
%AMRoundRect*
0 Rectangle with rounded corners*
0 $1 Rounding radius*
0 $2 $3 $4 $5 $6 $7 $8 $9 X,Y pos of 4 corners*
0 Add a 4 corners polygon primitive as box body*
4,1,4,$2,$3,$4,$5,$6,$7,$8,$9,$2,$3,0*
0 Add four circle primitives for the rounded corners*
1,1,$1+$1,$2,$3*
1,1,$1+$1,$4,$5*
1,1,$1+$1,$6,$7*
1,1,$1+$1,$8,$9*
0 Add four rect primitives between the rounded corners*
20,1,$1+$1,$2,$3,$4,$5,0*
20,1,$1+$1,$4,$5,$6,$7,0*
20,1,$1+$1,$6,$7,$8,$9,0*
20,1,$1+$1,$8,$9,$2,$3,0*%
G04 Aperture macros list end*
%ADD10C,2.000000*%
%ADD11R,1.500000X0.900000*%
%ADD12R,0.900000X0.900000*%
%ADD13RoundRect,0.250000X-0.350000X-0.450000X0.350000X-0.450000X0.350000X0.450000X-0.350000X0.450000X0*%
%ADD14RoundRect,0.102000X0.500000X-0.450000X0.500000X0.450000X-0.500000X0.450000X-0.500000X-0.450000X0*%
%ADD15RoundRect,0.102000X0.275000X-0.850000X0.275000X0.850000X-0.275000X0.850000X-0.275000X-0.850000X0*%
%ADD16RoundRect,0.250000X-0.337500X-0.475000X0.337500X-0.475000X0.337500X0.475000X-0.337500X0.475000X0*%
%ADD17R,1.000000X0.700000*%
%ADD18R,0.600000X0.700000*%
%ADD19C,0.650000*%
%ADD20R,0.300000X1.150000*%
%ADD21O,1.000000X2.100000*%
%ADD22O,1.000000X1.600000*%
%ADD23RoundRect,0.150000X-0.150000X0.512500X-0.150000X-0.512500X0.150000X-0.512500X0.150000X0.512500X0*%
%ADD24RoundRect,0.250000X0.300000X-0.300000X0.300000X0.300000X-0.300000X0.300000X-0.300000X-0.300000X0*%
%ADD25RoundRect,0.150000X0.150000X-0.825000X0.150000X0.825000X-0.150000X0.825000X-0.150000X-0.825000X0*%
%ADD26RoundRect,0.102000X-0.500000X0.450000X-0.500000X-0.450000X0.500000X-0.450000X0.500000X0.450000X0*%
%ADD27RoundRect,0.102000X-0.275000X0.850000X-0.275000X-0.850000X0.275000X-0.850000X0.275000X0.850000X0*%
%ADD28RoundRect,0.150000X-0.512500X-0.150000X0.512500X-0.150000X0.512500X0.150000X-0.512500X0.150000X0*%
%ADD29R,1.700000X1.700000*%
%ADD30O,1.700000X1.700000*%
G04 APERTURE END LIST*
D10*
%TO.C,*%
X177360000Y-103380000D03*
%TD*%
%TO.C,REF\u002A\u002A*%
X201890000Y-48400000D03*
%TD*%
D11*
%TO.C,U3*%
X181757500Y-50665000D03*
X181757500Y-51935000D03*
X181757500Y-53205000D03*
X181757500Y-54475000D03*
X181757500Y-55745000D03*
X181757500Y-57015000D03*
X181757500Y-58285000D03*
X181757500Y-59555000D03*
X181757500Y-60825000D03*
X181757500Y-62095000D03*
X181757500Y-63365000D03*
X181757500Y-64635000D03*
X181757500Y-65905000D03*
X181757500Y-67175000D03*
X181757500Y-68445000D03*
X181757500Y-69715000D03*
X181757500Y-70985000D03*
X181757500Y-72255000D03*
X181757500Y-73525000D03*
X199257500Y-73525000D03*
X199257500Y-72255000D03*
X199257500Y-70985000D03*
X199257500Y-69715000D03*
X199257500Y-68445000D03*
X199257500Y-67175000D03*
X199257500Y-65905000D03*
X199257500Y-64635000D03*
X199257500Y-63365000D03*
X199257500Y-62095000D03*
X199257500Y-60825000D03*
X199257500Y-59555000D03*
X199257500Y-58285000D03*
X199257500Y-57015000D03*
X199257500Y-55745000D03*
X199257500Y-54475000D03*
X199257500Y-53205000D03*
X199257500Y-51935000D03*
X199257500Y-50665000D03*
D12*
X187602500Y-57060000D03*
X187607500Y-58460000D03*
X187607500Y-59860000D03*
X189007500Y-57060000D03*
X189007500Y-58460000D03*
X189007500Y-59860000D03*
X190407500Y-57060000D03*
X190407500Y-58460000D03*
X190407500Y-59860000D03*
%TD*%
D13*
%TO.C,R6*%
X197397500Y-92070000D03*
X199397500Y-92070000D03*
%TD*%
D14*
%TO.C,RST*%
X180660000Y-103915000D03*
X182260000Y-103915000D03*
X182260000Y-99815000D03*
X180660000Y-99815000D03*
D15*
X180035000Y-101865000D03*
%TD*%
D16*
%TO.C,C4*%
X181270000Y-86390000D03*
X183345000Y-86390000D03*
%TD*%
D13*
%TO.C,R2*%
X197397500Y-80270000D03*
X199397500Y-80270000D03*
%TD*%
D17*
%TO.C,D1*%
X194390000Y-91040000D03*
D18*
X192690000Y-91040000D03*
X192690000Y-93040000D03*
X194590000Y-93040000D03*
%TD*%
D13*
%TO.C,R5*%
X197397500Y-89120000D03*
X199397500Y-89120000D03*
%TD*%
%TO.C,R4*%
X197397500Y-86170000D03*
X199397500Y-86170000D03*
%TD*%
D16*
%TO.C,C3*%
X181270000Y-83380000D03*
X183345000Y-83380000D03*
%TD*%
D13*
%TO.C,R1*%
X197397500Y-77320000D03*
X199397500Y-77320000D03*
%TD*%
D19*
%TO.C,P1*%
X187780000Y-98210000D03*
X193560000Y-98210000D03*
D20*
X187320000Y-97145000D03*
X188120000Y-97145000D03*
X189420000Y-97145000D03*
X190420000Y-97145000D03*
X190920000Y-97145000D03*
X191920000Y-97145000D03*
X193220000Y-97145000D03*
X194020000Y-97145000D03*
X193720000Y-97145000D03*
X192920000Y-97145000D03*
X192420000Y-97145000D03*
X191420000Y-97145000D03*
X189920000Y-97145000D03*
X188920000Y-97145000D03*
X188420000Y-97145000D03*
X187620000Y-97145000D03*
D21*
X186350000Y-97710000D03*
D22*
X186350000Y-101890000D03*
D21*
X194990000Y-97710000D03*
D22*
X194990000Y-101890000D03*
%TD*%
D23*
%TO.C,Q2*%
X183337500Y-95132500D03*
X181437500Y-95132500D03*
X182387500Y-97407500D03*
%TD*%
D16*
%TO.C,C6*%
X181270000Y-92410000D03*
X183345000Y-92410000D03*
%TD*%
%TO.C,C1*%
X181270000Y-77360000D03*
X183345000Y-77360000D03*
%TD*%
D24*
%TO.C,D2*%
X186217500Y-80057500D03*
X186217500Y-77257500D03*
%TD*%
D25*
%TO.C,U2*%
X185900000Y-88200000D03*
X187170000Y-88200000D03*
X188440000Y-88200000D03*
X189710000Y-88200000D03*
X190980000Y-88200000D03*
X192250000Y-88200000D03*
X193520000Y-88200000D03*
X194790000Y-88200000D03*
X194790000Y-83250000D03*
X193520000Y-83250000D03*
X192250000Y-83250000D03*
X190980000Y-83250000D03*
X189710000Y-83250000D03*
X188440000Y-83250000D03*
X187170000Y-83250000D03*
X185900000Y-83250000D03*
%TD*%
D16*
%TO.C,C5*%
X181270000Y-89400000D03*
X183345000Y-89400000D03*
%TD*%
D11*
%TO.C,D3*%
X189567500Y-76800000D03*
X189567500Y-80100000D03*
X194467500Y-80100000D03*
X194467500Y-76800000D03*
%TD*%
D23*
%TO.C,Q1*%
X199507500Y-94792500D03*
X197607500Y-94792500D03*
X198557500Y-97067500D03*
%TD*%
D26*
%TO.C,BT*%
X200180000Y-99645000D03*
X198580000Y-99645000D03*
X198580000Y-103745000D03*
X200180000Y-103745000D03*
D27*
X200805000Y-101695000D03*
%TD*%
D16*
%TO.C,C2*%
X181270000Y-80370000D03*
X183345000Y-80370000D03*
%TD*%
D28*
%TO.C,U1*%
X186402500Y-91210000D03*
X186402500Y-92160000D03*
X186402500Y-93110000D03*
X188677500Y-93110000D03*
X188677500Y-91210000D03*
%TD*%
D13*
%TO.C,R3*%
X197397500Y-83220000D03*
X199397500Y-83220000D03*
%TD*%
D29*
%TO.C,J3*%
X203200000Y-50520000D03*
D30*
X203200000Y-53060000D03*
X203200000Y-55600000D03*
X203200000Y-58140000D03*
X203200000Y-60680000D03*
X203200000Y-63220000D03*
X203200000Y-65760000D03*
X203200000Y-68300000D03*
X203200000Y-70840000D03*
X203200000Y-73380000D03*
X203200000Y-75920000D03*
X203200000Y-78460000D03*
X203200000Y-81000000D03*
X203200000Y-83540000D03*
X203200000Y-86080000D03*
X203200000Y-88620000D03*
X203200000Y-91160000D03*
X203200000Y-93700000D03*
X203200000Y-96240000D03*
%TD*%
%TO.C,J2*%
X177800000Y-96240000D03*
X177800000Y-93700000D03*
X177800000Y-91160000D03*
X177800000Y-88620000D03*
X177800000Y-86080000D03*
X177800000Y-83540000D03*
X177800000Y-81000000D03*
X177800000Y-78460000D03*
X177800000Y-75920000D03*
X177800000Y-73380000D03*
X177800000Y-70840000D03*
X177800000Y-68300000D03*
X177800000Y-65760000D03*
X177800000Y-63220000D03*
X177800000Y-60680000D03*
X177800000Y-58140000D03*
X177800000Y-55600000D03*
X177800000Y-53060000D03*
D29*
X177800000Y-50520000D03*
%TD*%
M02*
