%TF.GenerationSoftware,KiCad,Pcbnew,7.0.6-0*%
%TF.CreationDate,2024-01-10T12:45:23-06:00*%
%TF.ProjectId,ESP32_DevKit,45535033-325f-4446-9576-4b69742e6b69,rev?*%
%TF.SameCoordinates,Original*%
%TF.FileFunction,Paste,Top*%
%TF.FilePolarity,Positive*%
%FSLAX46Y46*%
G04 Gerber Fmt 4.6, Leading zero omitted, Abs format (unit mm)*
G04 Created by KiCad (PCBNEW 7.0.6-0) date 2024-01-10 12:45:23*
%MOMM*%
%LPD*%
G01*
G04 APERTURE LIST*
G04 Aperture macros list*
%AMRoundRect*
0 Rectangle with rounded corners*
0 $1 Rounding radius*
0 $2 $3 $4 $5 $6 $7 $8 $9 X,Y pos of 4 corners*
0 Add a 4 corners polygon primitive as box body*
4,1,4,$2,$3,$4,$5,$6,$7,$8,$9,$2,$3,0*
0 Add four circle primitives for the rounded corners*
1,1,$1+$1,$2,$3*
1,1,$1+$1,$4,$5*
1,1,$1+$1,$6,$7*
1,1,$1+$1,$8,$9*
0 Add four rect primitives between the rounded corners*
20,1,$1+$1,$2,$3,$4,$5,0*
20,1,$1+$1,$4,$5,$6,$7,0*
20,1,$1+$1,$6,$7,$8,$9,0*
20,1,$1+$1,$8,$9,$2,$3,0*%
G04 Aperture macros list end*
%ADD10RoundRect,0.250000X-0.350000X-0.450000X0.350000X-0.450000X0.350000X0.450000X-0.350000X0.450000X0*%
%ADD11R,1.000000X0.900000*%
%ADD12R,0.550000X1.700000*%
%ADD13RoundRect,0.250000X-0.337500X-0.475000X0.337500X-0.475000X0.337500X0.475000X-0.337500X0.475000X0*%
%ADD14R,1.000000X0.700000*%
%ADD15R,0.600000X0.700000*%
%ADD16RoundRect,0.250000X0.350000X0.450000X-0.350000X0.450000X-0.350000X-0.450000X0.350000X-0.450000X0*%
%ADD17R,0.300000X1.150000*%
%ADD18RoundRect,0.150000X-0.150000X0.512500X-0.150000X-0.512500X0.150000X-0.512500X0.150000X0.512500X0*%
%ADD19RoundRect,0.250000X0.300000X-0.300000X0.300000X0.300000X-0.300000X0.300000X-0.300000X-0.300000X0*%
%ADD20RoundRect,0.150000X0.150000X-0.825000X0.150000X0.825000X-0.150000X0.825000X-0.150000X-0.825000X0*%
%ADD21R,1.500000X0.900000*%
%ADD22R,0.900000X0.900000*%
%ADD23RoundRect,0.250001X0.462499X0.624999X-0.462499X0.624999X-0.462499X-0.624999X0.462499X-0.624999X0*%
%ADD24RoundRect,0.150000X-0.512500X-0.150000X0.512500X-0.150000X0.512500X0.150000X-0.512500X0.150000X0*%
G04 APERTURE END LIST*
D10*
%TO.C,R6*%
X197397500Y-92070000D03*
X199397500Y-92070000D03*
%TD*%
D11*
%TO.C,RST*%
X180660000Y-103915000D03*
X182260000Y-103915000D03*
X182260000Y-99815000D03*
X180660000Y-99815000D03*
D12*
X180035000Y-101865000D03*
%TD*%
D13*
%TO.C,C4*%
X181270000Y-86390000D03*
X183345000Y-86390000D03*
%TD*%
D10*
%TO.C,R2*%
X197397500Y-80270000D03*
X199397500Y-80270000D03*
%TD*%
D14*
%TO.C,D1*%
X194390000Y-91040000D03*
D15*
X192690000Y-91040000D03*
X192690000Y-93040000D03*
X194590000Y-93040000D03*
%TD*%
D10*
%TO.C,R5*%
X197397500Y-89120000D03*
X199397500Y-89120000D03*
%TD*%
D16*
%TO.C,R7*%
X193502500Y-77040000D03*
X191502500Y-77040000D03*
%TD*%
D10*
%TO.C,R4*%
X197397500Y-86170000D03*
X199397500Y-86170000D03*
%TD*%
D13*
%TO.C,C3*%
X181270000Y-83380000D03*
X183345000Y-83380000D03*
%TD*%
D10*
%TO.C,R1*%
X197397500Y-77320000D03*
X199397500Y-77320000D03*
%TD*%
D17*
%TO.C,P1*%
X187320000Y-97145000D03*
X188120000Y-97145000D03*
X189420000Y-97145000D03*
X190420000Y-97145000D03*
X190920000Y-97145000D03*
X191920000Y-97145000D03*
X193220000Y-97145000D03*
X194020000Y-97145000D03*
X193720000Y-97145000D03*
X192920000Y-97145000D03*
X192420000Y-97145000D03*
X191420000Y-97145000D03*
X189920000Y-97145000D03*
X188920000Y-97145000D03*
X188420000Y-97145000D03*
X187620000Y-97145000D03*
%TD*%
D18*
%TO.C,Q2*%
X183337500Y-95132500D03*
X181437500Y-95132500D03*
X182387500Y-97407500D03*
%TD*%
D13*
%TO.C,C6*%
X181270000Y-92410000D03*
X183345000Y-92410000D03*
%TD*%
%TO.C,C1*%
X181270000Y-77360000D03*
X183345000Y-77360000D03*
%TD*%
D19*
%TO.C,D2*%
X186217500Y-80057500D03*
X186217500Y-77257500D03*
%TD*%
D20*
%TO.C,U2*%
X185900000Y-88200000D03*
X187170000Y-88200000D03*
X188440000Y-88200000D03*
X189710000Y-88200000D03*
X190980000Y-88200000D03*
X192250000Y-88200000D03*
X193520000Y-88200000D03*
X194790000Y-88200000D03*
X194790000Y-83250000D03*
X193520000Y-83250000D03*
X192250000Y-83250000D03*
X190980000Y-83250000D03*
X189710000Y-83250000D03*
X188440000Y-83250000D03*
X187170000Y-83250000D03*
X185900000Y-83250000D03*
%TD*%
D21*
%TO.C,U3*%
X181757500Y-50665000D03*
X181757500Y-51935000D03*
X181757500Y-53205000D03*
X181757500Y-54475000D03*
X181757500Y-55745000D03*
X181757500Y-57015000D03*
X181757500Y-58285000D03*
X181757500Y-59555000D03*
X181757500Y-60825000D03*
X181757500Y-62095000D03*
X181757500Y-63365000D03*
X181757500Y-64635000D03*
X181757500Y-65905000D03*
X181757500Y-67175000D03*
X181757500Y-68445000D03*
X181757500Y-69715000D03*
X181757500Y-70985000D03*
X181757500Y-72255000D03*
X181757500Y-73525000D03*
X199257500Y-73525000D03*
X199257500Y-72255000D03*
X199257500Y-70985000D03*
X199257500Y-69715000D03*
X199257500Y-68445000D03*
X199257500Y-67175000D03*
X199257500Y-65905000D03*
X199257500Y-64635000D03*
X199257500Y-63365000D03*
X199257500Y-62095000D03*
X199257500Y-60825000D03*
X199257500Y-59555000D03*
X199257500Y-58285000D03*
X199257500Y-57015000D03*
X199257500Y-55745000D03*
X199257500Y-54475000D03*
X199257500Y-53205000D03*
X199257500Y-51935000D03*
X199257500Y-50665000D03*
D22*
X187602500Y-57060000D03*
X187607500Y-58460000D03*
X187607500Y-59860000D03*
X189007500Y-57060000D03*
X189007500Y-58460000D03*
X189007500Y-59860000D03*
X190407500Y-57060000D03*
X190407500Y-58460000D03*
X190407500Y-59860000D03*
%TD*%
D13*
%TO.C,C5*%
X181270000Y-89400000D03*
X183345000Y-89400000D03*
%TD*%
D18*
%TO.C,Q1*%
X199507500Y-94792500D03*
X197607500Y-94792500D03*
X198557500Y-97067500D03*
%TD*%
D11*
%TO.C,BT*%
X200180000Y-99645000D03*
X198580000Y-99645000D03*
X198580000Y-103745000D03*
X200180000Y-103745000D03*
D12*
X200805000Y-101695000D03*
%TD*%
D23*
%TO.C,D4*%
X193825000Y-79580000D03*
X190850000Y-79580000D03*
%TD*%
D13*
%TO.C,C2*%
X181270000Y-80370000D03*
X183345000Y-80370000D03*
%TD*%
D24*
%TO.C,U1*%
X186402500Y-91210000D03*
X186402500Y-92160000D03*
X186402500Y-93110000D03*
X188677500Y-93110000D03*
X188677500Y-91210000D03*
%TD*%
D10*
%TO.C,R3*%
X197397500Y-83220000D03*
X199397500Y-83220000D03*
%TD*%
M02*
