<?xml version="1.0" encoding="UTF-8"?>
<svg id="Capa_1" data-name="Capa 1" xmlns="http://www.w3.org/2000/svg" viewBox="0 0 792 612">
  <defs>
    <style>
      .cls-1 {
        stroke-width: 0px;
      }
    </style>
  </defs>
  <g>
    <path class="cls-1" d="m137.5,258.39h99.71c.57,0,.9.66.54,1.11l-26.12,33.46c-.59.76-1.5,1.2-2.46,1.2h-24.99c-1.32,0-2.5.83-2.95,2.07l-19.88,55.48c-.1.27-.36.46-.65.46l-31.89.03c-2.17,0-3.68-2.15-2.95-4.19l17.88-49.66c.73-2.04-.78-4.19-2.94-4.19h-26.41c-2.61,0-4.07-3-2.47-5.05l23.09-29.52c.59-.76,1.5-1.2,2.46-1.2Z"/>
    <path class="cls-1" d="m277.54,352.21h-117.89l27.17-34.82c.47-.61,1.2-.96,1.97-.96h25.74c1.05,0,1.99-.66,2.35-1.65l20.21-56.4h33.26c1.73,0,2.93,1.72,2.35,3.35l-18.49,51.36c-.59,1.63.62,3.34,2.35,3.34h45.46c2.08,0,3.25,2.39,1.97,4.03l-23.85,30.48c-.62.8-1.58,1.26-2.59,1.26Z"/>
  </g>
  <g>
    <g>
      <path class="cls-1" d="m360.52,321.25v9.84c0,4.91-2.39,6.95-6.17,6.95s-6.17-2.04-6.17-6.93v-9.87h2.12v9.87c0,3.63,1.43,5.05,4.05,5.05s4.05-1.42,4.05-5.05v-9.87h2.12Z"/>
      <path class="cls-1" d="m381.34,321.25v16.6h-2.07l-7.35-12.56v12.56h-2.12v-16.6h2.02l7.4,12.68v-12.68h2.12Z"/>
      <path class="cls-1" d="m392.99,337.85h-2.12v-16.6h2.12v16.6Z"/>
      <path class="cls-1" d="m403.01,321.25l4.79,13.23,4.86-13.23h2.34l-6.17,16.6h-2l-6.17-16.6h2.34Z"/>
      <path class="cls-1" d="m432.7,321.25v1.88h-8.14v5.2h7.4v1.88h-7.4v5.78h8.14v1.88h-10.26v-16.6h10.26Z"/>
      <path class="cls-1" d="m450.56,337.85l-3.55-7h-4.02v7h-2.12v-16.6h5.43c3.92,0,6.19,1.59,6.19,4.81,0,2.33-1.18,3.8-3.36,4.43l3.8,7.36h-2.37Zm-4.27-8.88c2.89,0,4.07-.87,4.07-2.91s-1.18-2.94-4.07-2.94h-3.31v5.85h3.31Z"/>
      <path class="cls-1" d="m469.71,324.93c-.91-1.16-1.9-2-4.05-2-1.97,0-3.31.87-3.31,2.6,0,1.97,1.53,2.65,4.02,3.08,3.28.55,5.28,1.71,5.28,4.79,0,2.17-1.48,4.64-5.72,4.64-2.76,0-4.79-.91-6.07-2.72l1.75-1.18c1.11,1.28,2.1,2.02,4.32,2.02,2.79,0,3.6-1.25,3.6-2.67,0-1.56-.81-2.62-4.02-3.1-3.21-.48-5.28-1.97-5.28-4.86,0-2.38,1.6-4.48,5.5-4.48,2.71,0,4.42.89,5.63,2.72l-1.65,1.16Z"/>
      <path class="cls-1" d="m482.4,337.85h-2.12v-16.6h2.12v16.6Z"/>
      <path class="cls-1" d="m491.92,337.85v-16.6h5.43c3.78,0,6.17,2.07,6.17,7.44v1.73c0,5.37-2.39,7.44-6.17,7.44h-5.43Zm9.47-7.44v-1.73c0-4.12-1.43-5.56-4.05-5.56h-3.31v12.85h3.31c2.62,0,4.05-1.44,4.05-5.56Z"/>
      <path class="cls-1" d="m510.08,337.85l5.92-16.6h1.97l5.92,16.6h-2.25l-1.31-3.8h-6.71l-1.31,3.8h-2.25Zm4.22-5.68h5.38l-2.69-7.8-2.69,7.8Z"/>
      <path class="cls-1" d="m531.33,337.85v-16.6h5.43c3.78,0,6.17,2.07,6.17,7.44v1.73c0,5.37-2.39,7.44-6.17,7.44h-5.43Zm9.47-7.44v-1.73c0-4.12-1.43-5.56-4.05-5.56h-3.31v12.85h3.31c2.62,0,4.05-1.44,4.05-5.56Z"/>
      <path class="cls-1" d="m574.17,329.5v.96c0,5.37-2.49,7.58-6.27,7.58s-6.17-2.21-6.17-7.58v-1.83c0-5.37,2.39-7.58,6.17-7.58,3.31,0,5.58,1.71,6.12,5.37h-2.07c-.54-2.48-1.88-3.49-4.05-3.49-2.62,0-4.05,1.59-4.05,5.7v1.83c0,4.12,1.43,5.7,4.05,5.7,2.39,0,3.9-1.35,4.12-4.79h-4.05v-1.88h6.19Z"/>
      <path class="cls-1" d="m580.73,337.85l5.92-16.6h1.97l5.92,16.6h-2.25l-1.31-3.8h-6.71l-1.31,3.8h-2.25Zm4.22-5.68h5.38l-2.69-7.8-2.69,7.8Z"/>
      <path class="cls-1" d="m604.1,335.97h8.14v1.88h-10.26v-16.6h2.12v14.73Z"/>
      <path class="cls-1" d="m621.79,337.85h-2.12v-16.6h2.12v16.6Z"/>
      <path class="cls-1" d="m633.44,335.97h8.14v1.88h-10.26v-16.6h2.12v14.73Z"/>
      <path class="cls-1" d="m659.03,321.25v1.88h-8.14v5.2h7.4v1.88h-7.4v5.78h8.14v1.88h-10.26v-16.6h10.26Z"/>
      <path class="cls-1" d="m672.5,338.04c-3.78,0-6.17-2.21-6.17-7.58v-1.83c0-5.37,2.39-7.58,6.17-7.58s6.17,2.21,6.17,7.58v1.83c0,5.37-2.39,7.58-6.17,7.58Zm-4.05-7.58c0,4.12,1.43,5.7,4.05,5.7s4.05-1.59,4.05-5.7v-1.83c0-4.12-1.43-5.7-4.05-5.7s-4.05,1.59-4.05,5.7v1.83Z"/>
    </g>
    <g>
      <path class="cls-1" d="m382.75,272.55l-2.34,6.75h-13.55l-9.33,26.93h-6.75l9.33-26.93h-13.49l2.34-6.75h33.79Z"/>
      <path class="cls-1" d="m385.04,299.48h23.87l-2.34,6.75h-30.61l11.67-33.68h30.44l-2.34,6.75h-23.7l-2.32,6.69h14.97l-2.34,6.75h-14.97l-2.34,6.75Z"/>
      <path class="cls-1" d="m428.95,272.55h28.35l-2.34,6.75h-25.74l-1.87,1.3-1.43,4.14.83,1.36,20.28-.11,3.83,5.16-3.61,10.43-7.11,4.65h-28.4l2.34-6.75h25.91l1.6-1.02,1.51-4.37-1.02-1.3-20.43.06-3.43-5.33,3.44-9.92,7.3-5.05Z"/>
      <path class="cls-1" d="m461.52,299.48h23.87l-2.34,6.75h-30.61l11.67-33.68h6.75l-9.33,26.93Z"/>
      <path class="cls-1" d="m524.59,272.55l5.79,33.68h-7.6l-1.35-7.71h-22.45l-6.7,7.71h-7.6l29.13-33.68h10.77Zm-4.28,19.22l-2.2-12.47h-2.49l-10.79,12.47h15.48Z"/>
      <path class="cls-1" d="m563.68,299.48h23.87l-2.34,6.75h-30.61l11.67-33.68h6.75l-9.33,26.93Z"/>
      <path class="cls-1" d="m626.75,272.55l5.79,33.68h-7.6l-1.35-7.71h-22.45l-6.7,7.71h-7.6l29.13-33.68h10.77Zm-4.28,19.22l-2.2-12.47h-2.49l-10.79,12.47h15.48Z"/>
      <path class="cls-1" d="m676.92,272.55l3.81,5.05-3.3,9.52-2.21,1.47,1.17,1.53-3.97,11.45-7.11,4.65h-28.4l11.67-33.68h28.35Zm-8.32,20.58l-.95-1.36h-18.99l-2.67,7.71h19.22l1.54-1.02,1.85-5.33Zm-17.6-8.11h19.22l1.54-1.02,1.18-3.4-.97-1.3h-18.99l-1.98,5.73Z"/>
    </g>
  </g>
  <rect class="cls-1" x="321.93" y="258.9" width="9" height="92.78"/>
</svg>