<?xml version="1.0" encoding="UTF-8"?>
<svg id="Capa_1" data-name="Capa 1" xmlns="http://www.w3.org/2000/svg" viewBox="0 0 318.45 162.18">
  <defs>
    <style>
      .cls-1 {
        fill: #5dc2ef;
      }

      .cls-1, .cls-2 {
        stroke-width: 0px;
      }

      .cls-2 {
        fill: #48c0ee;
      }
    </style>
  </defs>
  <g>
    <path class="cls-1" d="M309.14,17.95c-.54.65-.97,1.25-1.47,1.77-3.5,3.6-3.3,9.22.45,12.52,1.6,1.41,3.51,1.93,5.59,2.03,2.22.1,2.31.23,2.3,2.5-.02,2.66-.04,5.32-.05,7.98-.01,2.16-.33,2.47-2.49,2.48-5.09.02-8.86,3.92-8.65,9.01.09,2.17,1.07,3.95,2.55,5.49,1.44,1.51,1.42,1.9-.05,3.33-2,1.95-4,3.89-6,5.83-1.36,1.32-1.77,1.31-3.14-.03-3.7-3.63-8.96-3.68-12.43-.11-1.58,1.62-2.29,3.58-2.29,5.85,0,2.11-.32,2.38-2.46,2.37-2.7-.02-5.41-.03-8.11-.05-2.08-.01-2.42-.35-2.44-2.42-.06-5.19-3.89-8.94-8.94-8.71-2.11.1-3.91.94-5.43,2.41-1.67,1.6-1.94,1.59-3.59-.09-1.89-1.93-3.79-3.86-5.68-5.79-1.37-1.4-1.37-1.8.04-3.22,3.65-3.7,3.67-8.93.05-12.39-1.6-1.53-3.51-2.26-5.73-2.27-2.2-.01-2.48-.34-2.47-2.5.02-2.7.04-5.41.07-8.11.03-2.04.35-2.4,2.35-2.38,3.84.03,6.61-1.7,8.09-5.19,1.5-3.55.72-6.77-2.01-9.51-1.23-1.23-1.21-1.73.03-2.94,2.02-1.98,4.05-3.95,6.08-5.92,1.5-1.46,1.83-1.45,3.31,0,3.48,3.39,8.37,3.59,11.89.5,1.94-1.7,2.71-3.9,2.81-6.41.08-2.13.28-2.29,2.4-2.28,2.75.02,5.49.03,8.24.07,1.93.02,2.33.41,2.3,2.3-.05,3.83,1.63,6.61,5.14,8.11,3.49,1.49,6.69.78,9.44-1.84,1.44-1.37,1.82-1.35,3.22.06,2.02,2.05,4.04,4.09,6.04,6.15.36.37.62.85,1.05,1.45ZM291.78,40.43c.04-8.02-6.32-14.49-14.27-14.52-8.03-.03-14.52,6.31-14.56,14.23-.04,8.09,6.31,14.56,14.33,14.59,8.01.03,14.46-6.33,14.5-14.3Z"/>
    <g>
      <path class="cls-2" d="M112.04,17.92c-9.15,0-16.6,7.44-16.6,16.59s7.45,16.59,16.6,16.59,16.59-7.44,16.59-16.59-7.44-16.59-16.59-16.59ZM122.21,26.57c-.52.53-1.38.53-1.91,0-2.22-2.22-5.16-3.44-8.3-3.44s-6.15,1.25-8.37,3.51c-.26.27-.61.4-.96.4s-.68-.13-.94-.39c-.53-.52-.54-1.38-.02-1.91,2.74-2.78,6.39-4.32,10.29-4.32s7.48,1.5,10.2,4.23c.53.53.53,1.38,0,1.91Z"/>
      <path class="cls-1" d="M118.12,1.29c-21.31,0-38.59,17.28-38.59,38.59s17.28,38.59,38.59,38.59,38.59-17.28,38.59-38.59S139.43,1.29,118.12,1.29ZM142.01,65.04c-.94.93-2.16,1.4-3.39,1.4s-2.45-.47-3.38-1.4l-11.05-11.05c-3.53,2.21-7.69,3.49-12.15,3.49-12.67,0-22.97-10.31-22.97-22.97s10.31-22.97,22.97-22.97,22.97,10.31,22.97,22.97c0,4.75-1.45,9.17-3.93,12.84l10.93,10.93c1.87,1.87,1.87,4.9,0,6.77Z"/>
    </g>
    <g>
      <g>
        <path class="cls-1" d="M36.61,11.86c0-2.47-2-4.47-4.46-4.47s-4.46,2-4.46,4.47,2,4.47,4.46,4.47,4.46-2,4.46-4.47Z"/>
        <path class="cls-1" d="M43.5,36.13l1.26-1.26-9.49-13.19c-.25-.35-.77-.4-1.16-.11-.39.28-.51.79-.26,1.14l9.65,13.42Z"/>
        <path class="cls-1" d="M30.91,22.57l-13.2,10.74c-.08.17-.17.34-.26.49l-1.45,5.52-7.92-.14-.97-6.55c-.19-.59-.29-1.21-.27-1.86h0s0-.01,0-.01c0-.22.02-.44.05-.66.33-2.42,2.14-4.28,4.38-4.79l14.65-16.84c.45-.77,1.05-1.45,1.73-2l.02-.02h0c1.51-1.2,3.48-1.8,5.54-1.5,3.43.49,5.96,3.31,6.21,6.64l13.03,15.58L79.63,0H2.45v77.18l38.8-38.8-10.34-15.81ZM10.86,39.62l2.44.04c.53.01.95.45.94.97-.01.53-.44.95-.97.94l-2.44-.04c-.53,0-.95-.44-.94-.97.01-.53.44-.95.97-.94ZM20.01,47.26l-.03,1.04-.2.22c-.59.65-1.19,1.28-1.78,1.85l-1.51,1.47.62-2.02c.18-.61.4-1.24.65-1.95l-.08-.21c-.06-.16-.14-.35-.15-.58-.02-.19-.05-.38-.09-.59-.02-.1-.04-.2-.05-.31l-.18-1.1-2.75-.78-2.41.58-2.41-.59-2.76.76-.19,1.11c-.02.1-.04.22-.06.33-.04.2-.07.38-.09.56-.01.19-.08.36-.13.5-.01.03-.02.06-.04.09l-.07.19c.09.24.17.48.25.73.1.29.2.59.29.89l.8,2.51-1.82-1.85c-.23-.23-.46-.47-.68-.71-.26-.27-.53-.57-.86-.93l-.2-.22-.02-1.09c0-.15,0-.33.04-.53.05-.18.08-.37.11-.57.02-.11.04-.21.06-.32l.46-2.62,4.86-1.34,2.46.6,2.47-.59.3.09,4.55,1.28.44,2.64c.02.09.03.2.05.3.03.21.06.4.11.58.06.21.05.42.05.58Z"/>
        <path class="cls-1" d="M39.22,16.9c-.38.3-.47.82-.2,1.17l9.86,12.67,1.25-1.25-9.73-12.51c-.27-.35-.8-.39-1.18-.09Z"/>
        <path class="cls-1" d="M18.03,23.54c-.15,1.07.59,2.06,1.65,2.21,1.07.15,2.05-.59,2.21-1.66.15-1.07-.59-2.06-1.65-2.21-1.07-.15-2.05.59-2.21,1.66Z"/>
        <path class="cls-1" d="M25.57,16.36c-1.23-.18-2.37.68-2.54,1.91-.18,1.23.68,2.37,1.9,2.55,1.23.18,2.37-.68,2.54-1.91.18-1.23-.68-2.37-1.91-2.55Z"/>
        <path class="cls-1" d="M8.79,30.3c-.29,2.02,1.11,3.88,3.12,4.17,2.01.29,3.88-1.11,4.16-3.13.29-2.02-1.11-3.89-3.12-4.18-2.01-.29-3.88,1.11-4.16,3.13Z"/>
      </g>
      <g>
        <path class="cls-1" d="M36.61,11.86c0-2.47-2-4.47-4.46-4.47s-4.46,2-4.46,4.47,2,4.47,4.46,4.47,4.46-2,4.46-4.47Z"/>
        <path class="cls-1" d="M43.5,36.13l1.26-1.26-9.49-13.19c-.25-.35-.77-.4-1.16-.11-.39.28-.51.79-.26,1.14l9.65,13.42Z"/>
        <path class="cls-1" d="M30.91,22.57l-13.2,10.74c-.08.17-.17.34-.26.49l-1.45,5.52-7.92-.14-.97-6.55c-.19-.59-.29-1.21-.27-1.86h0s0-.01,0-.01c0-.22.02-.44.05-.66.33-2.42,2.14-4.28,4.38-4.79l14.65-16.84c.45-.77,1.05-1.45,1.73-2l.02-.02h0c1.51-1.2,3.48-1.8,5.54-1.5,3.43.49,5.96,3.31,6.21,6.64l13.03,15.58L79.63,0H2.45v77.18l38.8-38.8-10.34-15.81ZM10.86,39.62l2.44.04c.53.01.95.45.94.97-.01.53-.44.95-.97.94l-2.44-.04c-.53,0-.95-.44-.94-.97.01-.53.44-.95.97-.94ZM20.01,47.26l-.03,1.04-.2.22c-.59.65-1.19,1.28-1.78,1.85l-1.51,1.47.62-2.02c.18-.61.4-1.24.65-1.95l-.08-.21c-.06-.16-.14-.35-.15-.58-.02-.19-.05-.38-.09-.59-.02-.1-.04-.2-.05-.31l-.18-1.1-2.75-.78-2.41.58-2.41-.59-2.76.76-.19,1.11c-.02.1-.04.22-.06.33-.04.2-.07.38-.09.56-.01.19-.08.36-.13.5-.01.03-.02.06-.04.09l-.07.19c.09.24.17.48.25.73.1.29.2.59.29.89l.8,2.51-1.82-1.85c-.23-.23-.46-.47-.68-.71-.26-.27-.53-.57-.86-.93l-.2-.22-.02-1.09c0-.15,0-.33.04-.53.05-.18.08-.37.11-.57.02-.11.04-.21.06-.32l.46-2.62,4.86-1.34,2.46.6,2.47-.59.3.09,4.55,1.28.44,2.64c.02.09.03.2.05.3.03.21.06.4.11.58.06.21.05.42.05.58Z"/>
        <path class="cls-1" d="M39.22,16.9c-.38.3-.47.82-.2,1.17l9.86,12.67,1.25-1.25-9.73-12.51c-.27-.35-.8-.39-1.18-.09Z"/>
        <path class="cls-1" d="M18.03,23.54c-.15,1.07.59,2.06,1.65,2.21,1.07.15,2.05-.59,2.21-1.66.15-1.07-.59-2.06-1.65-2.21-1.07-.15-2.05.59-2.21,1.66Z"/>
        <path class="cls-1" d="M25.57,16.36c-1.23-.18-2.37.68-2.54,1.91-.18,1.23.68,2.37,1.9,2.55,1.23.18,2.37-.68,2.54-1.91.18-1.23-.68-2.37-1.91-2.55Z"/>
        <path class="cls-1" d="M8.79,30.3c-.29,2.02,1.11,3.88,3.12,4.17,2.01.29,3.88-1.11,4.16-3.13.29-2.02-1.11-3.89-3.12-4.18-2.01-.29-3.88,1.11-4.16,3.13Z"/>
      </g>
      <g>
        <path class="cls-1" d="M36.61,11.86c0-2.47-2-4.47-4.46-4.47s-4.46,2-4.46,4.47,2,4.47,4.46,4.47,4.46-2,4.46-4.47Z"/>
        <path class="cls-1" d="M43.5,36.13l1.26-1.26-9.49-13.19c-.25-.35-.77-.4-1.16-.11-.39.28-.51.79-.26,1.14l9.65,13.42Z"/>
        <path class="cls-1" d="M30.91,22.57l-13.2,10.74c-.08.17-.17.34-.26.49l-1.45,5.52-7.92-.14-.97-6.55c-.19-.59-.29-1.21-.27-1.86h0s0-.01,0-.01c0-.22.02-.44.05-.66.33-2.42,2.14-4.28,4.38-4.79l14.65-16.84c.45-.77,1.05-1.45,1.73-2l.02-.02h0c1.51-1.2,3.48-1.8,5.54-1.5,3.43.49,5.96,3.31,6.21,6.64l13.03,15.58,3.65-3.65L79.63,0H2.45v77.18l38.8-38.8-10.34-15.81ZM10.86,39.62l2.44.04c.53.01.95.45.94.97-.01.53-.44.95-.97.94l-2.44-.04c-.53,0-.95-.44-.94-.97.01-.53.44-.95.97-.94ZM20.01,47.26l-.03,1.04-.2.22c-.59.65-1.19,1.28-1.78,1.85l-1.51,1.47.62-2.02c.18-.61.4-1.24.65-1.95l-.08-.21c-.06-.16-.14-.35-.15-.58-.02-.19-.05-.38-.09-.59-.02-.1-.04-.2-.05-.31l-.18-1.1-2.75-.78-2.41.58-2.41-.59-2.76.76-.19,1.11c-.02.1-.04.22-.06.33-.04.2-.07.38-.09.56-.01.19-.08.36-.13.5-.01.03-.02.06-.04.09l-.07.19c.09.24.17.48.25.73.1.29.2.59.29.89l.8,2.51-1.82-1.85c-.23-.23-.46-.47-.68-.71-.26-.27-.53-.57-.86-.93l-.2-.22-.02-1.09c0-.15,0-.33.04-.53.05-.18.08-.37.11-.57.02-.11.04-.21.06-.32l.46-2.62,4.86-1.34,2.46.6,2.47-.59.3.09,4.55,1.28.44,2.64c.02.09.03.2.05.3.03.21.06.4.11.58.06.21.05.42.05.58Z"/>
        <path class="cls-1" d="M39.22,16.9c-.38.3-.47.82-.2,1.17l9.86,12.67,1.25-1.25-9.73-12.51c-.27-.35-.8-.39-1.18-.09Z"/>
        <path class="cls-1" d="M18.03,23.54c-.15,1.07.59,2.06,1.65,2.21,1.07.15,2.05-.59,2.21-1.66.15-1.07-.59-2.06-1.65-2.21-1.07-.15-2.05.59-2.21,1.66Z"/>
        <path class="cls-1" d="M25.57,16.36c-1.23-.18-2.37.68-2.54,1.91-.18,1.23.68,2.37,1.9,2.55,1.23.18,2.37-.68,2.54-1.91.18-1.23-.68-2.37-1.91-2.55Z"/>
        <path class="cls-1" d="M8.79,30.3c-.29,2.02,1.11,3.88,3.12,4.17,2.01.29,3.88-1.11,4.16-3.13.29-2.02-1.11-3.89-3.12-4.18-2.01-.29-3.88,1.11-4.16,3.13Z"/>
      </g>
      <g>
        <path class="cls-1" d="M50.1,29.45l7.24,9.3s.06.08.08.13c-.12,0-.25,0-.37,0-.58,0-1.15.06-1.7.17l-6.5-8.35-4.15,4.1,5.41,7.52c-.38.5-.72,1.05-.99,1.63l-5.69-7.9-2.26,2.24,6.25,9.57c.03,1.56.43,3.02,1.11,4.32l-2.25,12.19h23.64l-4.05-12.86c.51-1.18.8-2.48.8-3.85,0-2.1-.68-4.04-1.81-5.62h0s-.07-.09-.07-.09c-.26-.35-.53-.68-.83-1l-11.54-13.79-2.33,2.31ZM52.21,62.46c-1.42,0-2.57-1.15-2.57-2.58s1.15-2.58,2.57-2.58,2.57,1.15,2.57,2.58-1.15,2.58-2.57,2.58ZM65.18,59.88c0,1.42-1.15,2.58-2.57,2.58s-2.57-1.15-2.57-2.58,1.15-2.58,2.57-2.58,2.57,1.15,2.57,2.58ZM62.25,47.65c0,2.88-2.33,5.21-5.2,5.21s-5.2-2.33-5.2-5.21,2.33-5.21,5.2-5.21,5.2,2.33,5.2,5.21Z"/>
        <path class="cls-1" d="M73.84,65.39h-31.44c-1.96,0-3.55,1.59-3.55,3.55v1.42c0,1.96,1.59,3.55,3.55,3.55h31.44c1.96,0,3.55-1.59,3.55-3.55v-1.42c0-1.96-1.59-3.55-3.55-3.55Z"/>
      </g>
    </g>
    <path class="cls-1" d="M195.3,1.29c-21.31,0-38.59,17.28-38.59,38.59s17.28,38.59,38.59,38.59,38.59-17.28,38.59-38.59S216.61,1.29,195.3,1.29ZM193.45,22.72c-.01.64-.03,1.3-.03,1.94v3.25c-.98-2.35-2.3-4.56-3.95-6.6,0,0-.01-.02-.02-.03.06-.1.12-.2.18-.31.76-1.55.13-3.43-1.42-4.19-1.55-.76-3.43-.13-4.19,1.42-.77,1.55-.13,3.43,1.42,4.19.78.38,1.64.41,2.4.15.02.02.04.05.06.07.02.04.05.07.07.11,0,0,0,0,0,0,.65.81,1.24,1.66,1.78,2.54l-7.47-1.52s0,0,0,0c-.08-.01-.15-.03-.23-.04-.02-.11-.05-.23-.09-.34-.52-1.63-2.27-2.54-3.9-2.02-1.63.52-2.54,2.27-2.02,3.9.52,1.63,2.27,2.54,3.9,2.02.82-.26,1.46-.84,1.82-1.55l9.24,1.88c.44.91,1.62,4.67,2.4,7.26v9.1l-2.87-.87c-.29-1.39-.76-2.75-1.42-4.03-.97-1.89-1.97-3.78-3.57-5.16,0,0,0,0,0,0-.02-.02-.04-.03-.07-.05-.03-.03-.07-.06-.1-.09.29-.74.3-1.58-.04-2.36-.68-1.55-2.49-2.25-4.04-1.57-1.55.68-2.25,2.49-1.57,4.04.68,1.55,2.5,2.25,4.04,1.57.11-.05.21-.1.31-.16.02.01.04.03.06.04,0,0,0,0,0,0,1.18.99,1.86,2.38,2.67,3.71l-2.74,1.88c-.9-1.31-1.38-1.72-2.96-3.42-.08-.09-.18-.15-.27-.2-.17-.12-.38-.2-.61-.19l-3.98.1c-.19-.78-.68-1.48-1.41-1.93-1.47-.9-3.4-.42-4.29,1.07-.89,1.49-.42,3.44,1.05,4.34,1.47.9,3.4.42,4.29-1.07.07-.11.12-.23.18-.34l3.8-.09c1.41,1.54,1.77,1.81,2.53,2.91l-3.35,2.31c-.54-.59-1.31-.97-2.17-1-1.71-.06-3.15,1.28-3.22,2.99-.06,1.71,1.28,3.15,2.99,3.22,1.71.06,3.15-1.28,3.22-2.99,0-.12,0-.24,0-.36.07-.03.14-.07.21-.1,0,0,0,0,0,0l7.68-5.3c.39.92.7,1.87.89,2.84l-2.54,3.79c-.72-.24-1.54-.2-2.27.17-1.45.74-2.03,2.52-1.29,3.97.74,1.45,2.52,2.03,3.97,1.29,1.45-.74,2.03-2.52,1.29-3.97-.05-.1-.1-.19-.16-.28l2.47-3.69,3.33,1.01v6.31c0,.16,0,.33,0,.49-2.53,2.02-5.43,3.53-8.58,4.46-.06-.09-.12-.19-.19-.27-1.08-1.37-3.08-1.6-4.44-.51-1.37,1.08-1.6,3.08-.51,4.44,1.08,1.37,3.08,1.6,4.44.51.69-.54,1.09-1.32,1.18-2.13.03,0,.06-.02.08-.02.04,0,.09-.01.13-.02,0,0,0,0,0-.01,2.88-.85,5.53-2.14,7.91-3.82,0,.17,0,.34,0,.51.01,2.38.02,4.84-.01,7.26-.02,1.48-.47,2.89-1.28,3.97-.83,1.11-2,1.83-3.3,2.03-.32.05-.67.07-1.02.07-1.13,0-2.22-.24-3.09-.69-.96-.49-1.63-1.21-1.96-2.11-.43.07-.86.11-1.28.11h0c-1.48,0-2.82-.44-3.88-1.28-1.14-.9-1.92-2.25-2.24-3.91-1.1-.22-2.11-.74-2.93-1.52-.95-.91-1.58-2.12-1.82-3.5-.11-.64-.19-1.57-.13-2.4-.87-.43-1.69-1.07-2.38-1.85-1.55-1.76-1.9-4.31-1-7.22-.67-.84-1.22-1.9-1.62-3.08-.77-2.3-.18-4.83,1.62-6.96-.4-1.33-.56-2.69-.47-3.95.17-2.38,1.48-4.07,3.69-4.8-.32-2.74.45-5.09,2.09-6.36.74-.57,1.69-.92,2.58-.96.18-1.15.56-2.27,1.09-3.2.98-1.72,2.55-2.62,4.55-2.62.82,0,1.68.15,2.58.44,1.42-1.26,3.07-1.97,4.57-1.97.34,0,.68.04,1,.11,1.41.32,2.53,1.1,3.3,2.31.68,1.05,1.1,2.44,1.26,4.12.15,1.58.12,3.22.09,4.8ZM187.81,20.08c-.27.54-.92.76-1.46.5-.54-.27-.76-.92-.49-1.46.27-.54.92-.76,1.46-.5.54.27.76.92.5,1.46ZM179.35,25.32c-.57.18-1.18-.13-1.36-.7-.18-.57.13-1.18.7-1.36.57-.18,1.18.14,1.36.7.18.57-.13,1.18-.7,1.36ZM182.98,33.6c-.54.24-1.17,0-1.41-.55-.24-.54,0-1.17.55-1.41.54-.24,1.17,0,1.41.55.24.54,0,1.17-.55,1.41ZM174.15,38.52c-.31.52-.98.69-1.5.37-.51-.31-.68-.99-.37-1.51.31-.52.98-.69,1.5-.37.51.31.68.99.37,1.51ZM177.84,46.51c-.02.6-.52,1.06-1.12,1.04-.6-.02-1.06-.53-1.04-1.12.02-.6.52-1.06,1.12-1.04.6.02,1.07.52,1.04,1.12ZM185.62,51.16c-.51.26-1.13.05-1.38-.45-.26-.51-.06-1.13.45-1.38.51-.26,1.13-.06,1.39.45.26.51.06,1.13-.45,1.38ZM182.86,59.77c-.48.38-1.17.3-1.55-.18-.38-.48-.3-1.17.18-1.55.48-.38,1.17-.3,1.55.18.38.48.3,1.17-.18,1.55ZM222.13,52.07c-.69.78-1.51,1.41-2.38,1.85.07.83-.02,1.76-.13,2.4-.24,1.38-.87,2.59-1.82,3.5-.82.78-1.83,1.31-2.93,1.52-.33,1.66-1.1,3.01-2.24,3.91-1.06.84-2.4,1.28-3.88,1.28h0c-.42,0-.85-.04-1.28-.11-.33.9-1,1.62-1.96,2.11-.87.44-1.97.69-3.09.69-.36,0-.7-.02-1.02-.07-1.3-.19-2.47-.91-3.3-2.03-.8-1.08-1.26-2.49-1.28-3.97-.03-2.42-.02-4.88-.01-7.26,0-.17,0-.34,0-.51,2.38,1.69,5.03,2.97,7.91,3.82,0,0,0,0,0,.01.04,0,.09.02.13.02.03,0,.06.02.08.02.09.81.49,1.58,1.18,2.13,1.37,1.08,3.36.85,4.44-.51,1.08-1.37.85-3.36-.51-4.44-1.37-1.08-3.36-.85-4.44.51-.07.09-.13.18-.19.27-3.15-.93-6.05-2.44-8.58-4.46,0-.17,0-.33,0-.49v-6.31l3.33-1.01,2.47,3.69c-.06.09-.11.18-.16.28-.74,1.45-.16,3.23,1.29,3.97,1.45.74,3.23.16,3.97-1.29.74-1.45.16-3.23-1.29-3.97-.73-.37-1.54-.41-2.27-.17l-2.54-3.79c.19-.97.5-1.92.89-2.84l7.68,5.3s0,0,0,0c.07.03.14.07.21.1,0,.12-.01.24,0,.36.06,1.71,1.51,3.05,3.22,2.99,1.71-.06,3.05-1.51,2.99-3.22-.06-1.71-1.5-3.05-3.22-2.99-.86.03-1.63.41-2.17,1l-3.35-2.31c.76-1.11,1.12-1.38,2.53-2.91l3.8.09c.05.12.11.23.18.34.89,1.49,2.82,1.97,4.29,1.07,1.47-.9,1.94-2.85,1.05-4.34-.89-1.49-2.82-1.97-4.29-1.07-.73.45-1.21,1.15-1.41,1.93l-3.98-.1c-.23,0-.44.07-.61.19-.1.05-.19.12-.27.2-1.58,1.7-2.06,2.11-2.96,3.42l-2.74-1.88c.81-1.32,1.49-2.72,2.67-3.71,0,0,0,0,0,0,.02-.01.04-.03.06-.04.1.06.2.11.31.16,1.55.68,3.36-.02,4.04-1.57.68-1.55-.02-3.36-1.57-4.04-1.55-.68-3.36.02-4.04,1.57-.34.78-.33,1.62-.04,2.36-.03.03-.07.06-.1.09-.02.02-.04.03-.07.05,0,0,0,0,0,0-1.61,1.37-2.61,3.26-3.57,5.16-.66,1.29-1.13,2.64-1.42,4.03l-2.87.87v-9.1c.79-2.59,1.97-6.35,2.4-7.26l9.24-1.88c.36.71,1,1.29,1.82,1.55,1.63.52,3.38-.39,3.9-2.02.52-1.63-.39-3.38-2.02-3.9-1.63-.52-3.38.39-3.9,2.02-.04.11-.06.23-.09.34-.08.01-.15.03-.23.04,0,0,0,0,0,0l-7.47,1.52c.54-.88,1.13-1.73,1.78-2.54,0,0,0,0,0,0,.03-.04.05-.07.08-.11.02-.02.04-.05.06-.07.76.26,1.63.23,2.4-.15,1.55-.76,2.18-2.64,1.42-4.19-.76-1.55-2.65-2.19-4.19-1.42-1.55.76-2.18,2.65-1.42,4.19.05.11.11.21.18.31,0,0-.01.02-.02.03-1.65,2.04-2.97,4.25-3.95,6.6v-3.25c0-.64-.01-1.3-.03-1.94-.03-1.58-.06-3.22.09-4.8.16-1.68.58-3.07,1.26-4.12.78-1.21,1.89-1.99,3.3-2.31.32-.07.66-.11,1-.11,1.5,0,3.15.71,4.57,1.97.9-.29,1.77-.44,2.58-.44,2,0,3.57.91,4.55,2.62.53.93.91,2.05,1.09,3.2.89.04,1.84.39,2.58.96,1.64,1.27,2.41,3.62,2.09,6.36,2.22.73,3.52,2.42,3.69,4.8.09,1.26-.07,2.62-.47,3.95,1.8,2.13,2.39,4.66,1.62,6.96-.39,1.18-.95,2.24-1.62,3.08.9,2.91.55,5.47-1,7.22ZM207.21,58.22c.38-.48,1.07-.56,1.55-.18.48.38.56,1.07.18,1.55-.38.48-1.07.56-1.55.18-.48-.38-.56-1.07-.18-1.55ZM204.17,49.78c.26-.51.88-.71,1.39-.45.51.26.71.88.45,1.38-.26.51-.88.71-1.38.45-.51-.26-.71-.88-.45-1.38ZM212.4,46.51c-.02-.6.45-1.1,1.04-1.12.6-.02,1.1.45,1.12,1.04.02.6-.45,1.1-1.04,1.12-.6.02-1.1-.45-1.12-1.04ZM216.46,37.01c.51-.31,1.19-.15,1.5.37.31.52.15,1.2-.37,1.51-.51.31-1.19.15-1.5-.37-.31-.52-.15-1.2.37-1.51ZM206.72,32.19c.24-.54.87-.79,1.41-.55.54.24.79.87.55,1.41-.24.54-.87.79-1.41.55-.54-.24-.79-.87-.55-1.41ZM210.19,23.96c.18-.57.79-.89,1.36-.7.57.18.88.79.7,1.36-.18.57-.79.89-1.36.7-.57-.18-.89-.79-.7-1.36ZM202.93,18.61c.54-.27,1.2-.04,1.46.5.27.54.04,1.2-.49,1.46-.54.27-1.2.04-1.46-.5-.27-.54-.04-1.2.5-1.46Z"/>
  </g>
  <g>
    <g>
      <path class="cls-2" d="M117.6,142.28c2.8-1.4,5.53-2.76,8.4-4.2-2.86-1.43-5.6-2.8-8.4-4.2v8.4Z"/>
      <path class="cls-2" d="M113.57,128.36c-1.53-.82-3.1-1.58-4.65-2.35-1.77-.89-3.54-1.77-5.4-2.69v11.86c3.43-1.72,6.77-3.37,10.08-5.07.24-.13.41-.61.42-.92,0-.28-.21-.69-.45-.82Z"/>
      <path class="cls-2" d="M120,127.35c-.6.3-1.2.6-1.8.9-.45.22-.65.47-.65.99,0,.52.18.78.64,1,2.58,1.26,5.14,2.55,7.7,3.83.54.27,1.09.54,1.66.83l-7.55-7.55Z"/>
      <path class="cls-2" d="M113.99,142.26v-8.36c-2.82,1.41-5.54,2.77-8.38,4.18,2.85,1.42,5.57,2.78,8.38,4.18Z"/>
      <path class="cls-2" d="M144.87,152.22c-.89.24-1.77.48-2.66.71-1.16.31-2.13-.19-2.39-1.16-.28-1.04.31-1.94,1.51-2.27.22-.06.44-.12.66-.18l-6.52-6.52c-1.63-.82-3.26-1.63-4.89-2.45-.45-.22-.79-.21-1.23.01-4.06,2.05-8.15,4.06-12.21,6.13-.93.47-1.72.48-2.65,0-4.03-2.06-8.08-4.08-12.14-6.07-.34-.17-.88-.22-1.2-.06-5.03,2.47-10.03,4.98-15.04,7.49-.16.08-.31.19-.58.37,1.79.49,3.46.92,5.11,1.42.85.25,1.32,1.04,1.23,1.84-.09.83-.74,1.5-1.57,1.56-.32.02-.66-.04-.98-.12-2.91-.77-5.81-1.55-8.71-2.34-1.81-.49-2.18-1.16-1.69-2.96.79-2.96,1.57-5.92,2.37-8.87.25-.91.87-1.44,1.69-1.45.79,0,1.43.34,1.67,1.11.13.42.12.93.01,1.37-.39,1.64-.85,3.26-1.28,4.88-.05.18-.07.36-.12.63.31-.13.53-.21.74-.32,5.09-2.54,10.17-5.09,15.26-7.62.49-.24.66-.53.65-1.08-.02-5.08,0-10.17-.03-15.25,0-1.2.43-1.93,1.52-2.47,2.2-1.07,4.38-2.16,6.57-3.25l-30.51-30.51v77.18s77.18,0,77.18,0l-9.75-9.75Z"/>
      <path class="cls-2" d="M105.62,120.4c2.87,1.43,5.59,2.79,8.37,4.18v-3.25l-3.4-3.4c-1.63.82-3.27,1.63-4.96,2.48Z"/>
    </g>
    <g>
      <path class="cls-2" d="M76.98,157.5v1.2c-.63,1.72-1.82,2.56-3.7,2.56-23.22-.02-46.44-.01-69.65-.01-2.72,0-4.13-1.83-3.47-4.48,1.42-5.68,2.84-11.37,4.28-17.04.4-1.56.93-3.1.37-4.73-.07-.2-.03-.45-.03-.67,0-10.26,0-20.51.01-30.77,0-.72.07-1.46.26-2.15.96-3.42,3.62-5.43,7.21-5.43,17.48-.01,34.95-.02,52.43.03,1.12,0,2.32.26,3.33.73,2.89,1.34,4.13,3.8,4.13,6.92,0,10.18,0,20.36,0,30.54,0,.57.02,1.18-.14,1.72-.25.84-.1,1.57.12,2.39.92,3.43,1.74,6.89,2.61,10.34.74,2.96,1.5,5.91,2.25,8.86ZM38.44,135.53c8.72,0,17.45,0,26.17,0,1.08,0,1.25-.18,1.25-1.28,0-10.21,0-20.41,0-30.62,0-1.15-.22-1.38-1.35-1.38-17.37,0-34.75,0-52.12,0-1.09,0-1.33.23-1.33,1.32,0,10.23,0,20.46,0,30.69,0,1.08.19,1.26,1.27,1.26,8.7,0,17.4,0,26.1,0ZM38.47,156.22c2.58,0,5.16,0,7.74,0,.92,0,1.12-.24.96-1.15-.37-2.09-.78-4.18-1.13-6.28-.11-.64-.39-.91-1.04-.91-4.36.01-8.72.01-13.07,0-.6,0-.91.22-1.02.84-.36,2.12-.77,4.23-1.15,6.35-.16.9.04,1.14.97,1.14,2.58,0,5.16,0,7.74,0Z"/>
      <path class="cls-2" d="M40.21,117.6c1.54,1.54,2.96,2.95,4.37,4.37.77.77.76,1.19,0,1.96-1.52,1.54-1.55,1.54-3.07.02-1.24-1.24-2.48-2.48-3.81-3.82-.18.65-.33,1.19-.48,1.73-.13.48-.34.91-.92.95-.61.04-.89-.35-1.08-.86-1.09-2.9-2.21-5.8-3.27-8.71-.13-.36-.09-.92.11-1.24.29-.47.82-.33,1.29-.15,2.88,1.1,5.76,2.18,8.63,3.27.5.19.93.43.91,1.04-.02.66-.51.86-1.05,1-.5.13-1,.27-1.64.45Z"/>
    </g>
    <g>
      <path class="cls-2" d="M313.1,119.68l5.35-4.07c-1.36-4.18-1.35-4.16-2.71-8.35l-6.72-.15c-1.8-2.49-2.54-3.5-4.35-5.99l1.94-6.43c-3.56-2.59-3.54-2.57-7.1-5.16l-5.52,3.83c-2.92-.95-4.11-1.34-7.04-2.29l-2.2-6.33c-2.21,0-3.3,0-4.4,0v20.89c9.79,0,17.73,7.94,17.73,17.73s-7.94,17.73-17.73,17.73v20.88c1.09,0,2.18,0,4.37,0l2.21-6.33c2.92-.95,4.12-1.34,7.04-2.28l5.51,3.83c3.56-2.59,3.54-2.57,7.1-5.16l-1.93-6.41c1.81-2.49,2.54-3.5,4.35-5.99l6.72-.14c1.36-4.18,1.36-4.16,2.72-8.34l-5.35-4.07c0-3.07,0-4.33,0-7.4Z"/>
      <path class="cls-2" d="M263.31,96.32c2.4,0,4.45-1.53,5.25-3.66h7.9v-3.89h-7.9c-.79-2.13-2.84-3.66-5.25-3.66-3.09,0-5.6,2.51-5.6,5.6s2.51,5.6,5.6,5.6ZM263.31,89.01c.94,0,1.71.77,1.71,1.71s-.77,1.71-1.71,1.71-1.71-.77-1.71-1.71.77-1.71,1.71-1.71Z"/>
      <path class="cls-2" d="M271.75,152.53h-11.78c-.79-2.13-2.84-3.66-5.25-3.66-3.09,0-5.6,2.51-5.6,5.6s2.51,5.6,5.6,5.6c2.4,0,4.45-1.53,5.25-3.66h7.9v5.56h8.58v-3.89h-4.7v-5.56ZM254.72,156.19c-.95,0-1.71-.77-1.71-1.71s.77-1.71,1.71-1.71,1.71.77,1.71,1.71-.77,1.71-1.71,1.71Z"/>
      <path class="cls-2" d="M283.61,130.77h-10.49v10.33h-3.36c-.79-2.13-2.84-3.66-5.25-3.66-3.09,0-5.6,2.51-5.6,5.6s2.51,5.6,5.6,5.6c2.4,0,4.45-1.53,5.25-3.66h7.25v-10.33h6.61v-3.89ZM264.51,144.77c-.94,0-1.71-.77-1.71-1.71s.77-1.71,1.71-1.71,1.71.77,1.71,1.71-.77,1.71-1.71,1.71Z"/>
      <path class="cls-2" d="M244.31,119.07h17.61v-8.46h-3.89v4.57h-13.73c-.79-2.13-2.84-3.66-5.25-3.66-3.09,0-5.6,2.51-5.6,5.6s2.51,5.6,5.6,5.6c2.4,0,4.45-1.53,5.25-3.66ZM237.35,117.13c0-.95.77-1.71,1.71-1.71s1.71.77,1.71,1.71-.77,1.71-1.71,1.71-1.71-.77-1.71-1.71Z"/>
      <path class="cls-2" d="M256.37,136.63v-6.51h4.4v-3.89h-8.29v6.51h-4.66c-.79-2.13-2.84-3.66-5.25-3.66-3.09,0-5.6,2.51-5.6,5.6s2.51,5.6,5.6,5.6c2.4,0,4.45-1.53,5.25-3.66h8.55ZM242.58,136.4c-.94,0-1.71-.77-1.71-1.71s.77-1.71,1.71-1.71,1.71.77,1.71,1.71-.77,1.71-1.71,1.71Z"/>
      <path class="cls-2" d="M268.64,117.76c-3.09,0-5.6,2.51-5.6,5.6s2.51,5.6,5.6,5.6c2.4,0,4.45-1.53,5.25-3.66h15.67v-3.89h-15.67c-.79-2.13-2.84-3.66-5.25-3.66ZM268.64,125.07c-.95,0-1.71-.77-1.71-1.71s.77-1.71,1.71-1.71,1.71.77,1.71,1.71-.77,1.71-1.71,1.71Z"/>
      <path class="cls-2" d="M248.68,108.86c2.4,0,4.45-1.53,5.25-3.66h18.91v9.18h10.8v-3.89h-6.91v-9.18h-22.79c-.79-2.13-2.84-3.66-5.25-3.66-3.09,0-5.6,2.51-5.6,5.6s2.51,5.6,5.6,5.6ZM248.68,101.54c.95,0,1.71.77,1.71,1.71s-.77,1.71-1.71,1.71-1.71-.77-1.71-1.71.77-1.71,1.71-1.71Z"/>
    </g>
    <g>
      <path class="cls-2" d="M196.28,156.93h-3.36c-.15,0-.27.12-.27.27s.12.27.27.27h3.36c.15,0,.27-.12.27-.27s-.12-.27-.27-.27Z"/>
      <path class="cls-2" d="M188.1,140.41c-.92,0-1.67.75-1.67,1.68s.75,1.68,1.67,1.68,1.67-.75,1.67-1.68-.75-1.68-1.67-1.68Z"/>
      <path class="cls-2" d="M197.41,155.38h-5.62c-.15,0-.27.12-.27.27s.12.27.27.27h5.62c.15,0,.27-.12.27-.27s-.12-.27-.27-.27Z"/>
      <path class="cls-2" d="M197.8,153.83h-6.39c-.15,0-.27.12-.27.27s.12.27.27.27h6.39c.15,0,.27-.12.27-.27s-.12-.27-.27-.27Z"/>
      <path class="cls-2" d="M189.52,107.08c.06-.01.13-.02.19-.04,0,0,.01,0,.02,0,.07-.01.13-.02.19-.04,0,0,0,0,0,0,.76-.15,1.44-.31,2.1-.44,0,0,.02,0,.02,0,.05-.01.1-.02.16-.03.02,0,.03,0,.05,0,.04,0,.09-.02.13-.02.02,0,.04,0,.06-.01.04,0,.08-.01.12-.02.02,0,.04,0,.07-.01.04,0,.08-.01.11-.02.02,0,.05,0,.07-.01.04,0,.07-.01.11-.02.03,0,.05,0,.08-.01.04,0,.07,0,.11-.01.03,0,.05,0,.08,0,.04,0,.07,0,.11-.01.03,0,.05,0,.08,0,.04,0,.07,0,.11-.01.03,0,.05,0,.08,0,.04,0,.07,0,.11,0,.03,0,.05,0,.08,0,.04,0,.07,0,.11,0,.03,0,.05,0,.08,0,.04,0,.08,0,.12,0,.03,0,.05,0,.08,0,.04,0,.09,0,.13,0,.02,0,.04,0,.07,0,.07,0,.13,0,.2,0s.14,0,.2,0c.02,0,.04,0,.07,0,.04,0,.09,0,.13,0,.03,0,.05,0,.08,0,.04,0,.08,0,.12,0,.03,0,.05,0,.08,0,.04,0,.08,0,.12,0,.03,0,.05,0,.08,0,.04,0,.07,0,.11,0,.03,0,.05,0,.08,0,.04,0,.07,0,.11.01.03,0,.05,0,.08,0,.04,0,.08,0,.11.01.02,0,.05,0,.07,0,.04,0,.08.01.12.02.02,0,.05,0,.07,0,.04,0,.08.01.12.02.02,0,.04,0,.06,0,.04,0,.08.01.13.02.02,0,.04,0,.06,0,.04,0,.09.02.13.02.02,0,.03,0,.05,0,.05,0,.1.02.15.03.01,0,.02,0,.03,0,.06.01.11.02.17.03,0,0,0,0,.01,0,1.19.23,2.44.56,4.15.76,3.28.39,2.57-2.63.47-5.71-1.13-1.65-2.83-.78-5.1-.32h0s-.08.02-.13.03c0,0-.02,0-.02,0-.04,0-.07.01-.11.02-.01,0-.02,0-.03,0-.03,0-.07.01-.1.02-.01,0-.03,0-.04,0-.03,0-.06.01-.09.02-.02,0-.03,0-.05,0-.03,0-.06,0-.09.01-.02,0-.04,0-.05,0-.03,0-.06,0-.09.01-.02,0-.04,0-.06,0-.03,0-.06,0-.09.01-.02,0-.04,0-.06,0-.03,0-.06,0-.08,0-.02,0-.04,0-.06,0-.03,0-.06,0-.08,0-.02,0-.04,0-.06,0-.03,0-.06,0-.08,0-.02,0-.04,0-.06,0-.03,0-.06,0-.09,0-.02,0-.04,0-.06,0-.03,0-.06,0-.09,0-.02,0-.04,0-.06,0-.03,0-.07,0-.1,0-.02,0-.03,0-.05,0-.05,0-.1,0-.15,0s-.1,0-.15,0c-.02,0-.03,0-.05,0-.03,0-.07,0-.1,0-.02,0-.04,0-.06,0-.03,0-.06,0-.09,0-.02,0-.04,0-.06,0-.03,0-.06,0-.09,0-.02,0-.04,0-.06,0-.03,0-.06,0-.08,0-.02,0-.04,0-.06,0-.03,0-.06,0-.08,0-.02,0-.04,0-.06,0-.03,0-.06,0-.08,0-.02,0-.04,0-.06,0-.03,0-.06,0-.09-.01-.02,0-.04,0-.06,0-.03,0-.06,0-.09-.01-.02,0-.04,0-.05,0-.03,0-.06,0-.09-.01-.02,0-.03,0-.05,0-.03,0-.06-.01-.09-.02-.01,0-.03,0-.04,0-.03,0-.07-.01-.1-.02-.01,0-.02,0-.03,0-.04,0-.07-.01-.11-.02,0,0-.02,0-.02,0-.04,0-.08-.02-.13-.02h0c-2.12-.43-3.74-1.21-4.86.02-.08.09-.16.19-.24.3-2.11,3.08-2.81,6.1.47,5.71.17-.02.33-.04.49-.06h0c.07-.01.14-.02.22-.03,0,0,.02,0,.03,0,.07,0,.13-.02.2-.03.01,0,.03,0,.04,0,.06-.01.13-.02.19-.03.01,0,.03,0,.04,0,.06-.01.12-.02.19-.03.01,0,.03,0,.04,0,.06-.01.12-.02.19-.03.01,0,.02,0,.03,0ZM198.66,102.75c.67,0,1.21.54,1.21,1.21s-.54,1.21-1.21,1.21-1.21-.54-1.21-1.21.54-1.21,1.21-1.21ZM189.23,103.96c0-.67.54-1.21,1.21-1.21s1.21.54,1.21,1.21-.54,1.21-1.21,1.21-1.21-.54-1.21-1.21Z"/>
      <path class="cls-2" d="M198.34,109.41c-2.21,1.76-5.36,1.76-7.57,0-.29-.23-.7-.27-.94-.04-.24.23-.17.69.2.98,2.65,2.11,6.42,2.11,9.07,0,.36-.29.44-.75.2-.98-.24-.23-.65-.19-.94.04Z"/>
      <path class="cls-2" d="M216.55,132.23c-.65-.42-1.51-.23-1.93.42-.42.65-.23,1.52.42,1.94.65.42,1.51.23,1.93-.42.42-.65.23-1.52-.42-1.94Z"/>
      <path class="cls-2" d="M172.65,132.23c-.65.42-.83,1.29-.42,1.94.42.65,1.28.84,1.93.42.65-.42.83-1.29.42-1.94-.42-.65-1.28-.84-1.93-.42Z"/>
      <path class="cls-2" d="M154.98,84.99v77.18h77.18v-77.18h-77.18ZM218.85,141.64l-.72-1.38,1.73-3.48-1.23-1.28c-1.09,1.49-3.17,1.89-4.74.87-.24-.16-.46-.34-.65-.54l-1.06,1.4,2.26,3.26-.75,1.47-3.59-4.81,2.31-2.8c-.26-.94-.14-1.97.43-2.86.29-.46.68-.82,1.11-1.09,0-.43,0-.85-.04-1.26v-.06c-.26-2.7-1.43-5.08-3.5-7.11-.04.24-.09.48-.16.73l-5.18,21.15c-.36,1.28-1.52,2.17-2.85,2.17h-1.74v2.99c0,.48-.39,1.71-.87,1.71h-.36c.03.18.05.38.05.61v2.7c0,2.62-2.12,4.75-4.74,4.75s-4.74-2.13-4.74-4.75v-2.7c0-.23.02-.44.05-.61h-.36c-.48,0-.87-1.23-.87-1.71v-2.99h-1.74c-1.33,0-2.49-.89-2.85-2.17l-5.18-21.15c-.06-.22-.11-.43-.15-.65-.71.71-1.31,1.46-1.81,2.25h0c-.91,1.46-1.44,3.06-1.61,4.78v.06c-.04.41-.06.83-.05,1.26.43.27.82.63,1.11,1.09.57.88.69,1.92.43,2.86l2.31,2.8-3.59,4.81-.75-1.47,2.26-3.26-1.06-1.4c-.19.2-.41.39-.65.54-1.57,1.02-3.64.62-4.74-.87l-1.23,1.28,1.73,3.48-.72,1.38-3.06-5.18,2.63-2.53c-.2-1.33.37-2.71,1.57-3.49.06-.04.12-.07.18-.1,0-.45.01-.9.05-1.34h0c0-.06.01-.12.02-.18,0-.03,0-.06,0-.09,0-.01,0-.02,0-.03h0c.1-.98.29-1.93.57-2.84h0c.03-.1.06-.2.09-.3,0,0,0,0,0,0,.34-1.04.8-2.04,1.37-2.99h0s.01-.02.02-.03c.02-.04.05-.07.07-.11.03-.05.06-.1.1-.15h0c.63-.99,1.39-1.93,2.28-2.81h0s.01-.01.02-.02c.02-.02.04-.04.07-.06.05-.05.1-.1.15-.15h0c.43-.41.88-.81,1.37-1.19.41-.32.82-.62,1.23-.89h0c.1-.07.2-.13.3-.2h0c.19-.12.38-.24.56-.35,1.28-1.78,3.36-2.97,5.79-2.97h3.74c-2.19-1.24-3.87-3.26-4.69-5.68h-.37c-.89,0-1.61-.72-1.61-1.61v-3.4c0-.89.72-1.61,1.61-1.61h.37c1.07-3.16,3.63-5.64,6.84-6.59v-.72c0-.31.25-.56.56-.56h1.97v-3.77c-.25-.14-.42-.4-.42-.71,0-.45.36-.6.82-.6s.82.15.82.6c0,.31-.17.57-.42.71v3.77h1.96c.31,0,.56.25.56.56v.72c3.21.95,5.77,3.43,6.84,6.59h.37c.89,0,1.61.72,1.61,1.61v3.4c0,.89-.72,1.61-1.61,1.61h-.37c-.82,2.42-2.51,4.44-4.69,5.68h3.74c2.38,0,4.43,1.15,5.72,2.87.24.14.48.29.73.45h0c.1.06.2.13.3.2h0c.41.27.82.57,1.23.89.49.38.94.78,1.37,1.19h0c.05.05.1.1.15.15.02.02.04.04.07.06,0,0,.01.01.02.02h0c.89.88,1.64,1.82,2.28,2.81h0c.03.05.06.1.1.16.02.04.05.07.07.11,0,.01.01.02.02.03h0c.58.95,1.03,1.95,1.37,2.99,0,0,0,0,0,0,.03.1.07.2.1.3h0c.28.92.47,1.86.57,2.84h0s0,.02,0,.03c0,.03,0,.06,0,.1,0,.06.01.12.02.18h0c.04.44.05.89.05,1.34.06.03.12.06.18.1,1.2.78,1.77,2.16,1.57,3.49l2.63,2.53-3.06,5.18Z"/>
      <path class="cls-2" d="M203.39,120.02h-17.68c-1.18,0-2.07,1.07-1.86,2.23l2.85,13.48c.16.9.95,1.56,1.86,1.56h11.98c.91,0,1.7-.66,1.86-1.56l2.85-13.48c.21-1.16-.68-2.23-1.86-2.23Z"/>
      <path class="cls-2" d="M201.01,140.41c-.92,0-1.67.75-1.67,1.68s.75,1.68,1.67,1.68,1.68-.75,1.68-1.68-.75-1.68-1.68-1.68Z"/>
      <path class="cls-2" d="M196.23,142.09c0-.93-.75-1.68-1.68-1.68s-1.67.75-1.67,1.68.75,1.68,1.67,1.68,1.68-.75,1.68-1.68Z"/>
      <path class="cls-2" d="M197.8,152.28h-6.39c-.15,0-.27.12-.27.27s.12.28.27.28h6.39c.15,0,.27-.12.27-.28s-.12-.27-.27-.27Z"/>
    </g>
    <path class="cls-2" d="M109.99,100.4c1.16-1.11,2.27-2.26,3.41-3.39.16-.16.35-.31.65-.57v.89c0,4.7-.01,9.39.02,14.09,0,.62-.21.92-.75,1.19-1.79.88-3.58,1.78-5.37,2.68l2.63,2.63c1.13-.56,2.26-1.13,3.4-1.7v5.1l6.02,6.02c2.49-1.23,4.97-2.48,7.45-3.72.19-.1.4-.18.71-.31v11.88c-.21-.11-.41-.2-.61-.3l7.91,7.91c3.35,1.68,6.71,3.36,10.06,5.04.17.09.33.22.58.39-1.45.39-2.8.74-4.12,1.09l2.89,2.89c2.18-.58,4.35-1.16,6.53-1.75,1.28-.35,1.75-1.18,1.43-2.45-.3-1.18-.62-2.35-.94-3.52-.53-1.97-1.04-3.95-1.61-5.91-.29-1.01-1.16-1.49-2.11-1.26-.95.23-1.48,1.07-1.29,2.09.08.41.2.8.3,1.2.4,1.53.81,3.06,1.23,4.66-.22-.08-.33-.11-.43-.16-5.23-2.61-10.46-5.24-15.7-7.83-.47-.23-.6-.53-.59-1.03.02-5.08-.02-10.17.03-15.25.01-1.26-.47-1.98-1.58-2.52-4-1.95-7.95-3.97-11.94-5.93-.5-.25-.66-.51-.66-1.06.02-4.78.01-9.56.02-14.34,0-.2.03-.4.07-.77,1.4,1.41,2.66,2.72,3.96,3.99.73.72,1.77.73,2.46.09.73-.67.81-1.76.07-2.52-2.34-2.39-4.71-4.75-7.09-7.09-.73-.72-1.74-.72-2.46-.01-2.38,2.35-4.75,4.71-7.09,7.09-.73.74-.7,1.76-.03,2.46.68.7,1.76.74,2.53,0ZM117.61,116.21c2.78,1.39,5.5,2.74,8.39,4.19-2.86,1.43-5.58,2.8-8.39,4.2v-8.39Z"/>
  </g>
</svg>