<?xml version="1.0" encoding="UTF-8"?>
<svg id="Capa_1" data-name="Capa 1" xmlns="http://www.w3.org/2000/svg" viewBox="0 0 614.18 262.53">
  <defs>
    <style>
      .cls-1 {
        fill: #1d1d1b;
        stroke-width: 0px;
      }
    </style>
  </defs>
  <g>
    <g>
      <path class="cls-1" d="M342.62,126v1.26h-5.32v3.74h4.84v1.26h-4.84v4.87h-1.39v-11.13h6.71Z"/>
      <path class="cls-1" d="M342.78,137.13l3.87-11.13h1.29l3.87,11.13h-1.47l-.85-2.55h-4.39l-.85,2.55h-1.47ZM345.53,133.32h3.52l-1.76-5.23-1.76,5.23Z"/>
      <path class="cls-1" d="M359.44,129.47c-.39-1.74-1.27-2.34-2.64-2.34-1.71,0-2.65,1.06-2.65,3.82v1.23c0,2.76.94,3.82,2.65,3.82,1.45,0,2.27-.71,2.64-2.34h1.34c-.36,2.5-1.87,3.6-3.98,3.6-2.47,0-4.03-1.48-4.03-5.08v-1.23c0-3.6,1.56-5.08,4.03-5.08,2.19,0,3.64,1.16,4,3.6h-1.35Z"/>
      <path class="cls-1" d="M370.71,126v6.59c0,3.29-1.56,4.66-4.03,4.66s-4.03-1.37-4.03-4.64v-6.61h1.39v6.61c0,2.44.94,3.39,2.65,3.39s2.64-.95,2.64-3.39v-6.61h1.39Z"/>
      <path class="cls-1" d="M374.83,135.87h5.32v1.26h-6.71v-11.13h1.39v9.87Z"/>
      <path class="cls-1" d="M387.83,126v1.26h-3.39v9.87h-1.39v-9.87h-3.39v-1.26h8.16Z"/>
      <path class="cls-1" d="M387.59,137.13l3.87-11.13h1.29l3.87,11.13h-1.47l-.85-2.55h-4.39l-.85,2.55h-1.47ZM390.34,133.32h3.52l-1.76-5.23-1.76,5.23Z"/>
      <path class="cls-1" d="M398.14,137.13v-11.13h3.55c2.47,0,4.03,1.39,4.03,4.98v1.16c0,3.6-1.56,4.98-4.03,4.98h-3.55ZM404.33,132.15v-1.16c0-2.76-.94-3.72-2.65-3.72h-2.16v8.61h2.16c1.71,0,2.65-.97,2.65-3.72Z"/>
      <path class="cls-1" d="M411.92,137.13v-11.13h3.55c2.47,0,4.03,1.39,4.03,4.98v1.16c0,3.6-1.56,4.98-4.03,4.98h-3.55ZM418.11,132.15v-1.16c0-2.76-.94-3.72-2.65-3.72h-2.16v8.61h2.16c1.71,0,2.65-.97,2.65-3.72Z"/>
      <path class="cls-1" d="M428.37,126v1.26h-5.32v3.48h4.84v1.26h-4.84v3.87h5.32v1.26h-6.71v-11.13h6.71Z"/>
      <path class="cls-1" d="M435.96,137.13h-1.39v-11.13h1.39v11.13Z"/>
      <path class="cls-1" d="M446.41,126v11.13h-1.35l-4.81-8.42v8.42h-1.39v-11.13h1.32l4.84,8.5v-8.5h1.39Z"/>
      <path class="cls-1" d="M456.7,131.53v.64c0,3.6-1.63,5.08-4.09,5.08s-4.03-1.48-4.03-5.08v-1.23c0-3.6,1.56-5.08,4.03-5.08,2.16,0,3.64,1.14,4,3.6h-1.35c-.36-1.66-1.23-2.34-2.64-2.34-1.71,0-2.65,1.06-2.65,3.82v1.23c0,2.76.94,3.82,2.65,3.82,1.56,0,2.55-.9,2.69-3.21h-2.64v-1.26h4.05Z"/>
      <path class="cls-1" d="M465.58,126v1.26h-5.32v3.48h4.84v1.26h-4.84v3.87h5.32v1.26h-6.71v-11.13h6.71Z"/>
      <path class="cls-1" d="M475.14,126v11.13h-1.35l-4.81-8.42v8.42h-1.39v-11.13h1.32l4.84,8.5v-8.5h1.39Z"/>
      <path class="cls-1" d="M479.42,137.13h-1.39v-11.13h1.39v11.13Z"/>
      <path class="cls-1" d="M489.03,126v1.26h-5.32v3.48h4.84v1.26h-4.84v3.87h5.32v1.26h-6.71v-11.13h6.71Z"/>
      <path class="cls-1" d="M497.37,137.13l-2.32-4.69h-2.63v4.69h-1.39v-11.13h3.55c2.57,0,4.05,1.06,4.05,3.23,0,1.56-.78,2.55-2.19,2.97l2.48,4.93h-1.55ZM494.58,131.18c1.89,0,2.66-.58,2.66-1.95s-.77-1.97-2.66-1.97h-2.16v3.92h2.16Z"/>
      <path class="cls-1" d="M502.22,123h1.61l-1.66,2.08h-1.24l1.29-2.08ZM502.31,137.13h-1.39v-11.13h1.39v11.13Z"/>
      <path class="cls-1" d="M504,137.13l3.87-11.13h1.29l3.87,11.13h-1.47l-.85-2.55h-4.39l-.85,2.55h-1.47ZM506.76,133.32h3.52l-1.76-5.23-1.76,5.23Z"/>
      <path class="cls-1" d="M335.92,159.69v-11.13h3.55c2.47,0,4.03,1.39,4.03,4.98v1.16c0,3.6-1.56,4.98-4.03,4.98h-3.55ZM342.11,154.7v-1.16c0-2.76-.94-3.72-2.65-3.72h-2.16v8.61h2.16c1.71,0,2.65-.97,2.65-3.72Z"/>
      <path class="cls-1" d="M352.37,148.56v1.26h-5.32v3.48h4.84v1.26h-4.84v3.87h5.32v1.26h-6.71v-11.13h6.71Z"/>
      <path class="cls-1" d="M364.2,151.03c-.6-.77-1.24-1.34-2.64-1.34-1.29,0-2.16.58-2.16,1.74,0,1.32,1,1.77,2.63,2.06,2.15.37,3.45,1.14,3.45,3.21,0,1.45-.97,3.11-3.74,3.11-1.81,0-3.13-.61-3.97-1.82l1.14-.79c.73.85,1.37,1.35,2.82,1.35,1.82,0,2.35-.84,2.35-1.79,0-1.05-.53-1.76-2.63-2.08-2.1-.32-3.45-1.32-3.45-3.26,0-1.6,1.05-3,3.6-3,1.77,0,2.88.6,3.68,1.82l-1.08.77Z"/>
      <path class="cls-1" d="M369.16,159.69h-1.39v-11.13h1.39v11.13Z"/>
      <path class="cls-1" d="M377.85,151.03c-.6-.77-1.24-1.34-2.64-1.34-1.29,0-2.16.58-2.16,1.74,0,1.32,1,1.77,2.63,2.06,2.15.37,3.45,1.14,3.45,3.21,0,1.45-.97,3.11-3.74,3.11-1.81,0-3.13-.61-3.97-1.82l1.14-.79c.73.85,1.37,1.35,2.82,1.35,1.82,0,2.35-.84,2.35-1.79,0-1.05-.53-1.76-2.63-2.08-2.1-.32-3.45-1.32-3.45-3.26,0-1.6,1.05-3,3.6-3,1.77,0,2.88.6,3.68,1.82l-1.08.77Z"/>
      <path class="cls-1" d="M387.87,148.56v1.26h-3.39v9.87h-1.39v-9.87h-3.39v-1.26h8.16Z"/>
      <path class="cls-1" d="M396.02,148.56v1.26h-5.32v3.48h4.84v1.26h-4.84v3.87h5.32v1.26h-6.71v-11.13h6.71Z"/>
      <path class="cls-1" d="M402.73,155.49l3.32-6.93h1.37v11.13h-1.39v-8.16l-2.71,5.84h-1.24l-2.66-5.79v8.11h-1.39v-11.13h1.35l3.34,6.93Z"/>
      <path class="cls-1" d="M408.94,159.69l3.87-11.13h1.29l3.87,11.13h-1.47l-.85-2.55h-4.39l-.85,2.55h-1.47ZM411.7,155.88h3.52l-1.76-5.22-1.76,5.22Z"/>
      <path class="cls-1" d="M425.28,151.03c-.6-.77-1.24-1.34-2.64-1.34-1.29,0-2.16.58-2.16,1.74,0,1.32,1,1.77,2.63,2.06,2.15.37,3.45,1.14,3.45,3.21,0,1.45-.97,3.11-3.74,3.11-1.81,0-3.13-.61-3.97-1.82l1.14-.79c.73.85,1.37,1.35,2.82,1.35,1.82,0,2.35-.84,2.35-1.79,0-1.05-.53-1.76-2.63-2.08-2.1-.32-3.45-1.32-3.45-3.26,0-1.6,1.05-3,3.6-3,1.77,0,2.88.6,3.68,1.82l-1.08.77Z"/>
      <path class="cls-1" d="M429.84,160.64l-1.55,1.34v-4.16h1.55v2.82Z"/>
      <path class="cls-1" d="M437.75,159.69h-1.39v-11.13h1.39v11.13Z"/>
      <path class="cls-1" d="M448.2,148.56v11.13h-1.35l-4.81-8.42v8.42h-1.39v-11.13h1.32l4.84,8.5v-8.5h1.39Z"/>
      <path class="cls-1" d="M457.64,148.56v1.26h-5.32v3.74h4.84v1.26h-4.84v4.87h-1.39v-11.13h6.71Z"/>
      <path class="cls-1" d="M462.96,159.82c-2.47,0-4.03-1.48-4.03-5.08v-1.23c0-3.6,1.56-5.08,4.03-5.08s4.03,1.48,4.03,5.08v1.23c0,3.6-1.56,5.08-4.03,5.08ZM460.31,154.74c0,2.76.94,3.82,2.65,3.82s2.64-1.06,2.64-3.82v-1.23c0-2.76-.94-3.82-2.64-3.82s-2.65,1.06-2.65,3.82v1.23Z"/>
      <path class="cls-1" d="M475.49,159.69l-2.32-4.69h-2.63v4.69h-1.39v-11.13h3.55c2.57,0,4.05,1.06,4.05,3.23,0,1.56-.78,2.55-2.19,2.97l2.48,4.93h-1.55ZM472.7,153.74c1.89,0,2.66-.58,2.66-1.95s-.77-1.97-2.66-1.97h-2.16v3.92h2.16Z"/>
      <path class="cls-1" d="M483.58,155.49l3.32-6.93h1.37v11.13h-1.39v-8.16l-2.71,5.84h-1.24l-2.66-5.79v8.11h-1.39v-11.13h1.35l3.34,6.93Z"/>
      <path class="cls-1" d="M489.8,159.69l3.87-11.13h1.29l3.87,11.13h-1.47l-.85-2.55h-4.39l-.85,2.55h-1.47ZM492.55,155.88h3.52l-1.76-5.22-1.76,5.22ZM495.05,145.56h1.61l-1.66,2.08h-1.24l1.29-2.08Z"/>
      <path class="cls-1" d="M506.74,148.56v1.26h-3.39v9.87h-1.39v-9.87h-3.39v-1.26h8.16Z"/>
      <path class="cls-1" d="M509.73,159.69h-1.39v-11.13h1.39v11.13Z"/>
      <path class="cls-1" d="M518.74,152.03c-.39-1.74-1.27-2.34-2.64-2.34-1.71,0-2.65,1.06-2.65,3.82v1.23c0,2.76.94,3.82,2.65,3.82,1.45,0,2.27-.71,2.64-2.34h1.34c-.36,2.5-1.87,3.6-3.98,3.6-2.47,0-4.03-1.48-4.03-5.08v-1.23c0-3.6,1.56-5.08,4.03-5.08,2.19,0,3.64,1.16,4,3.6h-1.35Z"/>
      <path class="cls-1" d="M520.73,159.69l3.87-11.13h1.29l3.87,11.13h-1.47l-.85-2.55h-4.39l-.85,2.55h-1.47ZM523.49,155.88h3.52l-1.76-5.22-1.76,5.22Z"/>
      <path class="cls-1" d="M336.5,171.12l2.53,4.84,2.53-4.84h1.63l-3.47,6.35v4.77h-1.39v-4.77l-3.47-6.35h1.63Z"/>
      <path class="cls-1" d="M355.01,174.58c-.39-1.74-1.27-2.34-2.64-2.34-1.71,0-2.65,1.06-2.65,3.82v1.23c0,2.76.94,3.82,2.65,3.82,1.45,0,2.27-.71,2.64-2.34h1.34c-.36,2.5-1.87,3.6-3.98,3.6-2.47,0-4.03-1.48-4.03-5.08v-1.23c0-3.6,1.56-5.08,4.03-5.08,2.19,0,3.64,1.16,4,3.6h-1.35Z"/>
      <path class="cls-1" d="M359.76,182.24h-1.39v-11.13h1.39v11.13Z"/>
      <path class="cls-1" d="M369.37,171.12v1.26h-5.32v3.48h4.84v1.26h-4.84v3.87h5.32v1.26h-6.71v-11.13h6.71Z"/>
      <path class="cls-1" d="M378.93,171.12v11.13h-1.35l-4.81-8.42v8.42h-1.39v-11.13h1.32l4.84,8.5v-8.5h1.39Z"/>
      <path class="cls-1" d="M387.77,174.58c-.39-1.74-1.27-2.34-2.64-2.34-1.71,0-2.65,1.06-2.65,3.82v1.23c0,2.76.94,3.82,2.65,3.82,1.45,0,2.27-.71,2.64-2.34h1.34c-.36,2.5-1.87,3.6-3.98,3.6-2.47,0-4.03-1.48-4.03-5.08v-1.23c0-3.6,1.56-5.08,4.03-5.08,2.19,0,3.64,1.16,4,3.6h-1.35Z"/>
      <path class="cls-1" d="M392.52,182.24h-1.39v-11.13h1.39v11.13Z"/>
      <path class="cls-1" d="M394.21,182.24l3.87-11.13h1.29l3.87,11.13h-1.47l-.85-2.55h-4.39l-.85,2.55h-1.47ZM396.97,178.44h3.52l-1.76-5.23-1.76,5.23Z"/>
      <path class="cls-1" d="M410.55,173.58c-.6-.77-1.24-1.34-2.64-1.34-1.29,0-2.16.58-2.16,1.74,0,1.32,1,1.77,2.63,2.06,2.15.37,3.45,1.14,3.45,3.21,0,1.45-.97,3.11-3.74,3.11-1.81,0-3.13-.61-3.97-1.82l1.14-.79c.73.85,1.37,1.35,2.82,1.35,1.82,0,2.35-.84,2.35-1.79,0-1.05-.53-1.76-2.63-2.08-2.1-.32-3.45-1.32-3.45-3.26,0-1.6,1.05-3,3.6-3,1.77,0,2.88.6,3.68,1.82l-1.08.77Z"/>
      <path class="cls-1" d="M418,182.24v-11.13h3.55c2.47,0,4.03,1.39,4.03,4.98v1.16c0,3.6-1.56,4.98-4.03,4.98h-3.55ZM424.19,177.26v-1.16c0-2.76-.94-3.72-2.65-3.72h-2.16v8.61h2.16c1.71,0,2.65-.97,2.65-3.72Z"/>
      <path class="cls-1" d="M434.45,171.12v1.26h-5.32v3.48h4.84v1.26h-4.84v3.87h5.32v1.26h-6.71v-11.13h6.71Z"/>
      <path class="cls-1" d="M441.88,180.99h5.32v1.26h-6.71v-11.13h1.39v9.87Z"/>
      <path class="cls-1" d="M447.52,182.24l3.87-11.13h1.29l3.87,11.13h-1.47l-.85-2.55h-4.39l-.85,2.55h-1.47ZM450.27,178.44h3.52l-1.76-5.23-1.76,5.23Z"/>
      <path class="cls-1" d="M342.03,197.14c-.39-1.74-1.27-2.34-2.64-2.34-1.71,0-2.65,1.06-2.65,3.82v1.23c0,2.76.94,3.82,2.65,3.82,1.45,0,2.27-.71,2.64-2.34h1.34c-.36,2.5-1.87,3.6-3.98,3.6-2.47,0-4.03-1.48-4.03-5.08v-1.23c0-3.6,1.56-5.08,4.03-5.08,2.19,0,3.64,1.16,4,3.6h-1.35Z"/>
      <path class="cls-1" d="M348.7,204.93c-2.47,0-4.03-1.48-4.03-5.08v-1.23c0-3.6,1.56-5.08,4.03-5.08s4.03,1.48,4.03,5.08v1.23c0,3.6-1.56,5.08-4.03,5.08ZM346.05,199.85c0,2.76.94,3.82,2.65,3.82s2.64-1.06,2.64-3.82v-1.23c0-2.76-.94-3.82-2.64-3.82s-2.65,1.06-2.65,3.82v1.23Z"/>
      <path class="cls-1" d="M359.59,200.61l3.32-6.93h1.37v11.13h-1.39v-8.16l-2.71,5.84h-1.24l-2.66-5.79v8.11h-1.39v-11.13h1.35l3.34,6.93Z"/>
      <path class="cls-1" d="M368.4,200.56v4.24h-1.39v-11.13h3.55c2.57,0,4.05,1.29,4.05,3.45s-1.47,3.44-4.05,3.44h-2.16ZM370.56,199.3c1.89,0,2.66-.81,2.66-2.18s-.77-2.19-2.66-2.19h-2.16v4.37h2.16Z"/>
      <path class="cls-1" d="M384.55,193.68v6.59c0,3.29-1.56,4.66-4.03,4.66s-4.03-1.37-4.03-4.64v-6.61h1.39v6.61c0,2.44.94,3.39,2.65,3.39s2.64-.95,2.64-3.39v-6.61h1.39Z"/>
      <path class="cls-1" d="M394.15,193.68v1.26h-3.39v9.87h-1.39v-9.87h-3.39v-1.26h8.16Z"/>
      <path class="cls-1" d="M393.91,204.8l3.87-11.13h1.29l3.87,11.13h-1.47l-.85-2.55h-4.39l-.85,2.55h-1.47ZM396.66,201h3.52l-1.76-5.22-1.76,5.22Z"/>
      <path class="cls-1" d="M410.57,197.14c-.39-1.74-1.27-2.34-2.64-2.34-1.71,0-2.65,1.06-2.65,3.82v1.23c0,2.76.94,3.82,2.65,3.82,1.45,0,2.27-.71,2.64-2.34h1.34c-.36,2.5-1.87,3.6-3.98,3.6-2.47,0-4.03-1.48-4.03-5.08v-1.23c0-3.6,1.56-5.08,4.03-5.08,2.19,0,3.64,1.16,4,3.6h-1.35Z"/>
      <path class="cls-1" d="M415.32,204.8h-1.39v-11.13h1.39v11.13Z"/>
      <path class="cls-1" d="M421.69,204.93c-2.47,0-4.03-1.48-4.03-5.08v-1.23c0-3.6,1.56-5.08,4.03-5.08s4.03,1.48,4.03,5.08v1.23c0,3.6-1.56,5.08-4.03,5.08ZM419.04,199.85c0,2.76.94,3.82,2.65,3.82s2.64-1.06,2.64-3.82v-1.23c0-2.76-.94-3.82-2.64-3.82s-2.65,1.06-2.65,3.82v1.23ZM421.82,190.68h1.61l-1.66,2.08h-1.24l1.29-2.08Z"/>
      <path class="cls-1" d="M435.44,193.68v11.13h-1.35l-4.81-8.42v8.42h-1.39v-11.13h1.32l4.84,8.5v-8.5h1.39Z"/>
    </g>
    <rect class="cls-1" x="323.69" y="128.9" width="1.54" height="73.83"/>
    <g>
      <path class="cls-1" d="M91.01,133.23v9.81h20.91v12.24h-20.91v21.66h-13.86v-55.96h38.34v12.25h-24.48Z"/>
      <path class="cls-1" d="M124.36,176.95v-55.96h13.86v55.96h-13.86Z"/>
      <path class="cls-1" d="M165.71,177.34c-4.7,0-8.75-.54-12.16-1.61-3.41-1.07-6.48-2.99-9.23-5.77l8.87-8.79c1.37,1.36,3.18,2.35,5.43,2.98,2.24.63,4.63.94,7.17.94,5.39,0,8.08-1.67,8.08-5.02,0-1.41-.28-2.41-.83-2.98-.55-.57-1.12-.99-1.7-1.26-.58-.26-1.35-.44-2.3-.55l-6.81-.94c-5.02-.73-8.81-2.39-11.37-4.98-2.56-2.59-3.84-6.32-3.84-11.19,0-5.18,1.85-9.42,5.54-12.72,3.7-3.3,8.71-4.94,15.05-4.94,4.17,0,7.78.51,10.81,1.53,3.04,1.02,5.77,2.74,8.2,5.14l-8.71,8.63c-1.06-1.05-2.35-1.86-3.88-2.43-1.53-.57-3.46-.86-5.78-.86h-1.03c-2.27,0-3.97.51-5.11,1.53-1.14,1.02-1.7,2.24-1.7,3.65,0,.58.09,1.06.28,1.45.18.39.47.78.87,1.18s.88.73,1.47,1.02c.58.29,1.37.48,2.38.59l6.81.94c4.96.68,8.42,1.98,10.38,3.89,1.95,1.91,3.26,3.87,3.92,5.89.66,2.01.99,4.38.99,7.1,0,5.44-2.07,9.73-6.22,12.87-4.15,3.14-9.33,4.71-15.56,4.71Z"/>
      <path class="cls-1" d="M196.59,176.95v-55.96h13.86v55.96h-13.86Z"/>
      <path class="cls-1" d="M241.43,177.34c-6.23,0-11.06-1.7-14.5-5.1-3.43-3.4-5.44-6.71-6.02-9.93-.58-3.22-.87-7.68-.87-13.38s.28-10.48.83-13.54c.56-3.06,2.02-5.77,4.4-8.12,2.38-2.36,4.87-4.07,7.49-5.14,2.61-1.07,5.51-1.61,8.67-1.61,5.54,0,10.24,1.6,14.1,4.79,3.85,3.19,6.28,7.88,7.29,14.05h-14.1c-.53-2.08-1.32-3.7-2.38-4.86-1.06-1.16-2.67-1.74-4.83-1.74-1.27,0-2.35.2-3.25.59-.9.39-1.66,1.01-2.3,1.84-.63.84-1.14,2.19-1.5,4.04-.37,1.86-.56,5.09-.56,9.69s.16,7.99.48,9.69c.31,1.7.98,3.21,1.98,4.51,1,1.31,2.72,1.96,5.15,1.96,2.11,0,3.71-.48,4.79-1.44,1.08-.96,1.89-2.26,2.42-3.9h14.1c-1.01,5.76-3.42,10.13-7.25,13.11-3.83,2.98-8.54,4.47-14.14,4.47Z"/>
      <path class="cls-1" d="M289.67,177.34c-6.23,0-11.06-1.7-14.5-5.1-3.43-3.4-5.44-6.71-6.02-9.93-.58-3.22-.87-7.68-.87-13.38s.28-10.48.83-13.54c.56-3.06,2.02-5.77,4.4-8.12,2.38-2.36,4.87-4.07,7.49-5.14,2.61-1.07,5.51-1.61,8.67-1.61,5.54,0,10.24,1.6,14.1,4.79,3.85,3.19,6.28,7.88,7.29,14.05h-14.1c-.53-2.08-1.32-3.7-2.38-4.86-1.06-1.16-2.67-1.74-4.83-1.74-1.27,0-2.35.2-3.25.59-.9.39-1.66,1.01-2.3,1.84-.63.84-1.14,2.19-1.5,4.04-.37,1.86-.56,5.09-.56,9.69s.16,7.99.48,9.69c.31,1.7.98,3.21,1.98,4.51,1,1.31,2.72,1.96,5.15,1.96,2.11,0,3.71-.48,4.79-1.44,1.08-.96,1.89-2.26,2.42-3.9h14.1c-1.01,5.76-3.42,10.13-7.25,13.11-3.83,2.98-8.54,4.47-14.14,4.47Z"/>
    </g>
    <g>
      <path class="cls-1" d="M88.85,189.56v8.81c0,4.39-2.09,6.22-5.38,6.22s-5.39-1.83-5.39-6.2v-8.83h1.85v8.83c0,3.25,1.25,4.52,3.53,4.52s3.53-1.27,3.53-4.52v-8.83h1.85Z"/>
      <path class="cls-1" d="M103.87,189.56v14.86h-1.81l-6.42-11.24v11.24h-1.85v-14.86h1.77l6.46,11.35v-11.35h1.85Z"/>
      <path class="cls-1" d="M110.87,204.42h-1.85v-14.86h1.85v14.86Z"/>
      <path class="cls-1" d="M116.45,189.56l4.18,11.84,4.24-11.84h2.05l-5.39,14.86h-1.74l-5.38-14.86h2.05Z"/>
      <path class="cls-1" d="M139.2,189.56v1.68h-7.11v4.65h6.46v1.68h-6.46v5.17h7.11v1.68h-8.96v-14.86h8.96Z"/>
      <path class="cls-1" d="M151.63,204.42l-3.1-6.27h-3.51v6.27h-1.85v-14.86h4.74c3.42,0,5.41,1.42,5.41,4.31,0,2.09-1.03,3.4-2.93,3.96l3.32,6.59h-2.07ZM147.91,196.47c2.52,0,3.55-.77,3.55-2.61s-1.03-2.63-3.55-2.63h-2.88v5.23h2.88Z"/>
      <path class="cls-1" d="M165.19,192.86c-.8-1.03-1.66-1.79-3.53-1.79-1.72,0-2.89.78-2.89,2.33,0,1.77,1.34,2.37,3.51,2.76,2.86.5,4.61,1.53,4.61,4.29,0,1.94-1.29,4.16-5,4.16-2.41,0-4.18-.82-5.3-2.43l1.53-1.06c.97,1.14,1.83,1.81,3.77,1.81,2.44,0,3.15-1.12,3.15-2.39,0-1.4-.71-2.35-3.51-2.78-2.8-.43-4.61-1.77-4.61-4.35,0-2.13,1.4-4.01,4.8-4.01,2.37,0,3.85.8,4.91,2.43l-1.44,1.03Z"/>
      <path class="cls-1" d="M173.1,204.42h-1.85v-14.86h1.85v14.86Z"/>
      <path class="cls-1" d="M178.25,204.42v-14.86h4.74c3.3,0,5.39,1.85,5.39,6.65v1.55c0,4.8-2.09,6.65-5.39,6.65h-4.74ZM186.52,197.77v-1.55c0-3.68-1.25-4.97-3.53-4.97h-2.88v11.5h2.88c2.28,0,3.53-1.29,3.53-4.97Z"/>
      <path class="cls-1" d="M190.94,204.42l5.17-14.86h1.72l5.17,14.86h-1.96l-1.14-3.4h-5.86l-1.14,3.4h-1.96ZM194.62,199.34h4.69l-2.35-6.98-2.35,6.98Z"/>
      <path class="cls-1" d="M206.32,204.42v-14.86h4.74c3.3,0,5.39,1.85,5.39,6.65v1.55c0,4.8-2.09,6.65-5.39,6.65h-4.74ZM214.59,197.77v-1.55c0-3.68-1.25-4.97-3.53-4.97h-2.88v11.5h2.88c2.28,0,3.53-1.29,3.53-4.97Z"/>
      <path class="cls-1" d="M237.39,196.95v.86c0,4.8-2.17,6.78-5.47,6.78s-5.38-1.98-5.38-6.78v-1.64c0-4.8,2.09-6.78,5.38-6.78,2.89,0,4.87,1.53,5.34,4.8h-1.81c-.47-2.22-1.64-3.12-3.53-3.12-2.28,0-3.53,1.42-3.53,5.1v1.64c0,3.68,1.25,5.1,3.53,5.1,2.09,0,3.4-1.21,3.6-4.29h-3.53v-1.68h5.41Z"/>
      <path class="cls-1" d="M239.96,204.42l5.17-14.86h1.72l5.17,14.86h-1.96l-1.14-3.4h-5.86l-1.14,3.4h-1.96ZM243.64,199.34h4.69l-2.35-6.98-2.35,6.98Z"/>
      <path class="cls-1" d="M257.19,202.74h7.11v1.68h-8.96v-14.86h1.85v13.18Z"/>
      <path class="cls-1" d="M269.48,204.42h-1.85v-14.86h1.85v14.86Z"/>
      <path class="cls-1" d="M276.48,202.74h7.11v1.68h-8.96v-14.86h1.85v13.18Z"/>
      <path class="cls-1" d="M295.65,189.56v1.68h-7.11v4.65h6.46v1.68h-6.46v5.17h7.11v1.68h-8.96v-14.86h8.96Z"/>
      <path class="cls-1" d="M304.25,204.59c-3.29,0-5.38-1.98-5.38-6.78v-1.64c0-4.8,2.09-6.78,5.38-6.78s5.39,1.98,5.39,6.78v1.64c0,4.8-2.09,6.78-5.39,6.78ZM300.72,197.81c0,3.68,1.25,5.1,3.53,5.1s3.53-1.42,3.53-5.1v-1.64c0-3.68-1.25-5.1-3.53-5.1s-3.53,1.42-3.53,5.1v1.64Z"/>
    </g>
  </g>
  <g>
    <polygon class="cls-1" points="250.95 92.99 248.33 92.81 253.98 8.8 266.97 8.8 272.63 92.81 270 92.99 264.51 11.43 256.44 11.43 250.95 92.99"/>
    <polygon class="cls-1" points="250.71 93.67 248.57 92.13 267.59 65.9 252.03 39.81 264.53 9.61 266.96 10.62 254.97 39.59 270.74 66.04 250.71 93.67"/>
    <polygon class="cls-1" points="270.25 93.67 250.53 66.42 266.09 39.17 254.25 10.95 256.68 9.94 269.02 39.35 253.66 66.25 272.38 92.13 270.25 93.67"/>
    <rect class="cls-1" x="259.37" y="5.52" width="2.63" height="4.41"/>
    <path class="cls-1" d="M260.72,7.15c-1.97,0-3.57-1.6-3.57-3.57s1.6-3.57,3.57-3.57,3.57,1.6,3.57,3.57-1.6,3.57-3.57,3.57ZM260.72,2.63c-.52,0-.94.42-.94.94s.42.94.94.94.94-.42.94-.94-.42-.94-.94-.94Z"/>
    <path class="cls-1" d="M231.38,63.62v-31.54l1.48.19c.15.02,15.06,2.07,15.06,16.03s-14.99,15.22-15.14,15.23l-1.41.1ZM234.02,35.16v25.53c3.32-.61,11.28-3.06,11.28-12.4s-7.9-12.31-11.28-13.13Z"/>
    <path class="cls-1" d="M231.58,54.27c-2.07,0-3.73-.57-4.96-1.71-2.04-1.89-2.01-4.61-2.01-4.72h0c.08-2.63.92-4.57,2.5-5.8,2.47-1.91,5.75-1.19,5.89-1.16l1.02.23v12.96l-1.18.12c-.44.05-.86.07-1.27.07ZM227.25,47.9c0,.11.04,1.71,1.18,2.75.69.63,1.69.96,2.98.99v-8.28c-.79,0-1.85.13-2.68.78-.92.72-1.41,1.98-1.47,3.76Z"/>
    <polygon class="cls-1" points="251.55 54 245.27 48.9 245.39 45.57 252.56 41.19 253.93 43.44 247.97 47.08 247.95 47.68 253.21 51.95 251.55 54"/>
    <path class="cls-1" d="M286.86,43.2l-1.48-.19c-.15-.02-15.06-2.07-15.06-16.03s14.99-15.22,15.14-15.23l1.41-.1v31.54ZM284.23,14.57c-3.32.61-11.28,3.06-11.28,12.4s7.9,12.31,11.28,13.13V14.57Z"/>
    <path class="cls-1" d="M286.89,34.54c-.93,0-1.59-.15-1.65-.16l-1.03-.23v-12.96l1.18-.12c2.66-.28,4.76.28,6.23,1.64,2.04,1.89,2.01,4.61,2.01,4.72h0c-.08,2.63-.92,4.57-2.5,5.8-1.39,1.08-3.04,1.32-4.24,1.32ZM286.85,31.91c.77.01,1.85-.13,2.68-.78.92-.72,1.41-1.98,1.47-3.76,0-.1-.04-1.71-1.18-2.75-.69-.63-1.69-.96-2.98-.99v8.28Z"/>
    <polygon class="cls-1" points="267.67 32.95 266.27 30.72 270.27 28.2 270.29 27.82 266.3 26.06 267.36 23.65 272.98 26.13 272.86 29.69 267.67 32.95"/>
    <rect class="cls-1" x="187.72" y="91.64" width="62.88" height="2.63"/>
    <rect class="cls-1" x="270.56" y="91.6" width="31.88" height="2.63"/>
  </g>
  <g>
    <path class="cls-1" d="M32.49,50.86c-5.93,0-10.75-4.82-10.75-10.75s4.82-10.75,10.75-10.75,10.75,4.82,10.75,10.75-4.82,10.75-10.75,10.75ZM32.49,31.98c-4.48,0-8.12,3.64-8.12,8.12s3.64,8.12,8.12,8.12,8.12-3.64,8.12-8.12-3.64-8.12-8.12-8.12Z"/>
    <path class="cls-1" d="M32.34,45.8c-3.11,0-5.65-2.53-5.65-5.65s2.53-5.65,5.65-5.65,5.65,2.53,5.65,5.65-2.53,5.65-5.65,5.65ZM32.34,37.14c-1.66,0-3.01,1.35-3.01,3.01s1.35,3.01,3.01,3.01,3.01-1.35,3.01-3.01-1.35-3.01-3.01-3.01Z"/>
    <path class="cls-1" d="M56.22,76.35c-5.93,0-10.75-4.82-10.75-10.75s4.82-10.75,10.75-10.75,10.75,4.82,10.75,10.75-4.82,10.75-10.75,10.75ZM56.22,57.47c-4.48,0-8.12,3.64-8.12,8.12s3.64,8.12,8.12,8.12,8.12-3.64,8.12-8.12-3.64-8.12-8.12-8.12Z"/>
    <path class="cls-1" d="M56.08,71.29c-3.11,0-5.65-2.53-5.65-5.65s2.53-5.65,5.65-5.65,5.65,2.53,5.65,5.65-2.53,5.65-5.65,5.65ZM56.08,62.63c-1.66,0-3.01,1.35-3.01,3.01s1.35,3.01,3.01,3.01,3.01-1.35,3.01-3.01-1.35-3.01-3.01-3.01Z"/>
    <polygon class="cls-1" points="52 94.35 41.75 94.35 41.75 91.71 49.36 91.71 49.36 73.18 52 73.18 52 94.35"/>
    <polygon class="cls-1" points="90.44 94.32 61.33 94.32 61.33 72.6 63.96 72.6 63.96 91.69 90.44 91.69 90.44 94.32"/>
    <rect class="cls-1" x="48.43" y="37.62" width="2.63" height="22.04" transform="translate(-19.8 50.62) rotate(-45.99)"/>
    <rect class="cls-1" x="38.75" y="46.67" width="2.63" height="19.53" transform="translate(-28.23 45.25) rotate(-45.33)"/>
    <rect class="cls-1" x="5.76" y="47.83" width="20.83" height="2.63" transform="translate(-31.29 28.55) rotate(-48.32)"/>
    <path class="cls-1" d="M15.73,67.91H3.72l-.15-7.02.04-.16c.41-1.73,2.19-5.03,6.01-5.07,2.26.01,3.67.89,4.45,1.66,1.31,1.3,1.66,2.92,1.66,3.67v6.92ZM6.3,65.28h6.8v-4.29c0-.25-.21-1.13-.88-1.79-.61-.61-1.49-.91-2.57-.9-2.4.03-3.26,2.31-3.44,2.9l.09,4.08Z"/>
    <path class="cls-1" d="M2.22,84.43c-.38,0-.76-.1-1.11-.3-.68-.39-1.11-1.13-1.11-1.92v-11.57c.52-4.03,4.29-5.22,4.45-5.27l.38-.06h9.94c3.37,0,4.61,3.62,4.79,5.53v11.09c0,.83-.42,1.58-1.14,2.01-.72.42-1.58.43-2.31.03l-4.13-2.29v-8.83h-4.48v8.85l-4.17,2.42c-.35.2-.73.3-1.11.3ZM2.63,70.89v10.59l2.23-1.3v-9.97h9.75v9.91l2.32,1.28v-10.44h0s-.36-3.02-2.16-3.02H5.06c-.51.21-2.15,1.01-2.43,2.94Z"/>
    <rect class="cls-1" x="12.18" y="54.48" width="20.64" height="2.63" transform="translate(-29.84 26.13) rotate(-38.5)"/>
  </g>
  <g>
    <path class="cls-1" d="M391.77,32.06c0-.59-.2-14.55,0-16.88.22-2.56,3.6-6.86,4.27-7.69l.9-1.11,1.03.99c2.39,2.28,4.14,6.98,4.21,7.17l.08.22v16.58h-2.63V15.23c-.41-1.06-1.38-3.23-2.52-4.83-1.29,1.77-2.64,3.96-2.73,5-.15,1.76-.06,11.64,0,16.61l-2.63.04Z"/>
    <polygon class="cls-1" points="394.9 94.24 360.76 94.24 360.76 91.61 392.27 91.61 392.27 40.95 394.9 40.95 394.9 94.24"/>
    <polygon class="cls-1" points="419.11 94.26 399.05 94.26 399.05 40.75 401.68 40.75 401.68 91.63 419.11 91.63 419.11 94.26"/>
    <polygon class="cls-1" points="426.11 94.26 417.58 94.26 417.58 91.63 423.47 91.63 423.47 85.54 426.11 85.54 426.11 94.26"/>
    <polygon class="cls-1" points="490.36 94.36 432.94 94.36 432.94 85.77 435.58 85.77 435.58 91.73 490.36 91.73 490.36 94.36"/>
    <path class="cls-1" d="M455.08,86.68h-51.18c-1.36,0-2.6-.62-3.42-1.7-.82-1.08-1.08-2.45-.71-3.75l6.41-22.86c.52-1.84,2.21-3.13,4.12-3.14l37.89-.09h.01c1.88,0,3.57,1.26,4.11,3.06l6.88,22.95c.39,1.31.15,2.7-.67,3.8s-2.07,1.73-3.45,1.73ZM448.19,57.78h0l-37.89.09c-.74,0-1.4.5-1.59,1.21l-6.41,22.86c-.14.5-.04,1.03.28,1.45.32.42.8.66,1.32.66h51.18c.53,0,1.02-.24,1.33-.67.32-.43.41-.96.26-1.47l-6.88-22.95c-.21-.7-.86-1.18-1.59-1.18Z"/>
    <rect class="cls-1" x="441.36" y="56.88" width="2.63" height="28.37" transform="translate(-5.67 70.89) rotate(-9.1)"/>
    <rect class="cls-1" x="428.21" y="57.26" width="2.63" height="27.52" transform="translate(-1.22 7.79) rotate(-1.04)"/>
    <rect class="cls-1" x="402.51" y="70.24" width="28.02" height="2.63" transform="translate(295.04 476.35) rotate(-83.05)"/>
    <rect class="cls-1" x="405.35" y="64.11" width="47.75" height="2.63"/>
    <rect class="cls-1" x="403.06" y="73.88" width="52.53" height="2.63"/>
    <path class="cls-1" d="M440.4,38.2c-5.46,0-9.9-4.44-9.9-9.9s4.44-9.9,9.9-9.9,9.9,4.44,9.9,9.9-4.44,9.9-9.9,9.9ZM440.4,21.04c-4.01,0-7.26,3.26-7.26,7.26s3.26,7.26,7.26,7.26,7.26-3.26,7.26-7.26-3.26-7.26-7.26-7.26Z"/>
    <rect class="cls-1" x="439.03" y="8.08" width="2.63" height="5.92"/>
    <rect class="cls-1" x="438.93" y="43.11" width="2.63" height="5.72"/>
    <rect class="cls-1" x="419.37" y="27.24" width="6.02" height="2.63"/>
    <rect class="cls-1" x="454.3" y="26.93" width="6.32" height="2.63"/>
    <rect class="cls-1" x="424.52" y="39.21" width="6.32" height="2.63" transform="translate(96.61 314.28) rotate(-45)"/>
    <rect class="cls-1" x="426.83" y="12.42" width="2.63" height="6.67" transform="translate(114.26 307.36) rotate(-45)"/>
    <rect class="cls-1" x="451.07" y="37.49" width="2.63" height="6.81" transform="translate(103.58 331.87) rotate(-45)"/>
    <rect class="cls-1" x="449.21" y="14.74" width="6.67" height="2.63" transform="translate(121.2 324.7) rotate(-45)"/>
    <path class="cls-1" d="M397.19,40.18c-3.32,0-6.02-2.7-6.02-6.02s2.7-6.02,6.02-6.02,6.02,2.7,6.02,6.02-2.7,6.02-6.02,6.02ZM397.19,30.78c-1.87,0-3.39,1.52-3.39,3.39s1.52,3.39,3.39,3.39,3.39-1.52,3.39-3.39-1.52-3.39-3.39-3.39Z"/>
    <path class="cls-1" d="M379.66,48.92c-2.32,0-4.84-.43-5.53-.55l-1.41-.26.37-1.38c.86-3.19,4.14-6.98,4.28-7.14l.15-.18,14.56-7.95,1.26,2.31-14.14,7.72c-.73.87-2.18,2.76-3.03,4.52,2.17.28,4.74.42,5.69,0,1.62-.71,10.24-5.52,14.58-7.97l1.29,2.29c-.52.29-12.67,7.14-14.82,8.08-.83.36-2.02.48-3.27.49Z"/>
    <path class="cls-1" d="M414.81,48.82c-1.25,0-2.45-.12-3.27-.49-2.14-.94-14.3-7.79-14.82-8.08l1.29-2.29c4.34,2.45,12.96,7.26,14.58,7.97.95.42,3.52.28,5.69,0-.85-1.76-2.3-3.65-3.03-4.52l-14.14-7.72,1.26-2.31,14.56,7.95.15.18c.14.16,3.42,3.95,4.28,7.14l.37,1.38-1.41.26c-.69.12-3.2.55-5.53.55Z"/>
  </g>
  <path class="cls-1" d="M595.17,100.83h-36.32v-2.63h36.32c3.85,0,6.98-3.13,6.98-6.98v-29.13c0-3.85-3.13-6.98-6.98-6.98h-28.65c-3.85,0-6.98,3.13-6.98,6.98v31.47h-2.63v-31.47c0-5.3,4.31-9.61,9.61-9.61h28.65c5.3,0,9.61,4.31,9.61,9.61v29.13c0,5.3-4.31,9.61-9.61,9.61Z"/>
  <rect class="cls-1" x="570.12" y="99.63" width="2.63" height="10.58"/>
  <rect class="cls-1" x="579.38" y="99.47" width="2.63" height="10.58"/>
  <rect class="cls-1" x="588.75" y="99.35" width="2.63" height="10.58"/>
  <rect class="cls-1" x="588.73" y="43.14" width="2.63" height="10.58"/>
  <rect class="cls-1" x="579.48" y="43.3" width="2.63" height="10.58"/>
  <rect class="cls-1" x="570.11" y="43.42" width="2.63" height="10.58"/>
  <rect class="cls-1" x="547.29" y="66.01" width="10.58" height="2.63"/>
  <rect class="cls-1" x="547.46" y="75.26" width="10.58" height="2.63"/>
  <rect class="cls-1" x="547.58" y="84.63" width="10.58" height="2.63"/>
  <rect class="cls-1" x="603.6" y="84.34" width="10.58" height="2.63"/>
  <rect class="cls-1" x="603.44" y="75.09" width="10.58" height="2.63"/>
  <rect class="cls-1" x="603.32" y="65.72" width="10.58" height="2.63"/>
  <g>
    <path class="cls-1" d="M572.82,83.11c-1.04,0-1.89-.85-1.89-1.89v-11.56c0-1.04.85-1.89,1.89-1.89s1.89.85,1.89,1.89v11.56c0,1.04-.85,1.89-1.89,1.89Z"/>
    <path class="cls-1" d="M580.49,72.74c-2.72,0-4.94,2.22-4.94,4.94s2.22,4.94,4.94,4.94,4.94-2.22,4.94-4.94-2.22-4.94-4.94-4.94ZM580.49,80.16c-1.37,0-2.48-1.11-2.48-2.48s1.11-2.48,2.48-2.48,2.48,1.11,2.48,2.48-1.11,2.48-2.48,2.48Z"/>
    <path class="cls-1" d="M588.15,83.61c-1.04,0-1.89-.85-1.89-1.89v-9.87h-2.48c-1.04,0-1.89-.85-1.89-1.89s.85-1.89,1.89-1.89h8.55c1.04,0,1.89.85,1.89,1.89s-.85,1.89-1.89,1.89h-2.3v9.87c0,1.04-.85,1.89-1.89,1.89Z"/>
  </g>
  <g>
    <path class="cls-1" d="M485.08,85.79c-.15,0-.24,0-.27,0-3.58-.38-6.61-2.7-8.8-6.71-2.94-5.37-3.86-13.16-2.56-15.77,1.63-3.26,5.56-3.03,7.41-2.46l-.77,2.52c-.13-.04-3.25-.95-4.28,1.12-.66,1.31-.37,8.05,2.51,13.33,1.78,3.26,4.05,5.06,6.74,5.35.11,0,4.04.17,6.54-5.1,2.62-6.01,4.27-13.21,2.52-14.29-2.86-1.77-4.45-.41-4.63-.25l-1.85-1.88c.13-.13,3.13-3.04,7.86-.11,1.14.71,4.41,4.07-1.51,17.62-2.96,6.23-7.72,6.64-8.91,6.64Z"/>
    <path class="cls-1" d="M493.74,94.54c-1.79,0-3.44-.14-4.48-.49-2.77-.92-5.48-2.42-5.65-9.56l2.63-.06c.14,5.88,2.03,6.51,3.85,7.12,1.99.66,8.26.32,10.57-.4,1.28-.4,2.26-3.07,2.58-4.42v-42.32h2.63l-.03,42.74c-.12.56-1.26,5.54-4.4,6.52-1.6.5-4.83.87-7.7.87Z"/>
    <path class="cls-1" d="M514.07,93.65l-2.63-.19,1-13.91,1.16-.06c.88-.05,2.74-.81,3.7-1.27l.79-.38,3.51,3.08,4.1-4.43-3.2-3.73.49-.82c.45-.76,1.31-3.15,1.75-4.48l.3-.91h5.02v-5.7h-5.64l-.12-1.19c-.06-.4-.72-2.23-1.31-3.69l-.3-.74,3.05-3.55-4.4-4.13-3.61,3.45-.9-1.06c-.29-.22-2.21-1.1-3.78-1.74l-.86-.35.22-4.55-2.45-.31.33-2.61,4.87.62-.25,5.12c1.33.56,2.19.98,2.77,1.29l3.66-3.49,8.06,7.56-3.65,4.25c.29.74.65,1.69.9,2.48h6.07v10.97h-5.75c-.31.89-.79,2.24-1.25,3.24l3.54,4.12-7.44,8.04-4.14-3.63c-.71.31-1.76.73-2.74.97l-.84,11.72Z"/>
    <path class="cls-1" d="M504.67,45.78c-3.11,0-5.63-2.53-5.63-5.63s2.53-5.63,5.63-5.63,5.63,2.53,5.63,5.63-2.53,5.63-5.63,5.63ZM504.67,37.15c-1.65,0-3,1.35-3,3s1.34,3,3,3,3-1.34,3-3-1.35-3-3-3Z"/>
    <path class="cls-1" d="M508.57,73.75c-1.62,0-3.22-.41-4.63-1.2l-.68-.38v-15.97l.68-.38c1.41-.78,3.01-1.2,4.63-1.2,5.27,0,9.56,4.29,9.56,9.56s-4.29,9.56-9.56,9.56ZM505.9,70.58c.84.35,1.76.54,2.68.54,3.82,0,6.93-3.11,6.93-6.93s-3.11-6.93-6.93-6.93c-.92,0-1.83.18-2.68.54v12.78Z"/>
  </g>
  <g>
    <rect class="cls-1" x="110.14" y="84.37" width="22.49" height="2.63"/>
    <g>
      <path class="cls-1" d="M94.91,90.36c-2.61,0-4.73-2.12-4.73-4.73s2.12-4.73,4.73-4.73,4.73,2.12,4.73,4.73-2.12,4.73-4.73,4.73ZM94.91,83.54c-1.15,0-2.09.94-2.09,2.09s.94,2.09,2.09,2.09,2.09-.94,2.09-2.09-.94-2.09-2.09-2.09Z"/>
      <path class="cls-1" d="M141.33,90.43c-2.61,0-4.73-2.12-4.73-4.73s2.12-4.73,4.73-4.73,4.73,2.12,4.73,4.73-2.12,4.73-4.73,4.73ZM141.33,83.61c-1.15,0-2.09.94-2.09,2.09s.94,2.09,2.09,2.09,2.09-.94,2.09-2.09-.94-2.09-2.09-2.09Z"/>
      <path class="cls-1" d="M92.77,77.65h-2.63l.03-15.45c.09-.39,2.25-9.63,9.89-9.63h35.37c3.57.24,10.15,2.67,10.15,10.15v14.22h-2.63v-14.22c0-6.87-7.3-7.49-7.61-7.52h-35.28c-5.12,0-7.02,6.45-7.28,7.45v15Z"/>
      <path class="cls-1" d="M144.18,71.84h-29.31c-3.73,0-5.28-1.57-5.45-1.75,0,0-1.73-1.62-3.28-3.38-1.03-1.16-2.39-1.44-2.66-1.49h-2.66v-2.63h2.75c.23.02,2.7.28,4.55,2.38,1.47,1.67,3.15,3.26,3.17,3.27.08.08,1.04.97,3.58.97h29.31v2.63Z"/>
      <path class="cls-1" d="M143.97,66.55h-5.02l-.22-.08c-.32-.12-3.11-1.2-3.11-3.48,0-2.15,1.35-3.96,2.95-3.96h5.5v2.63h-5.37c-.16.15-.44.64-.44,1.33,0,.19.56.65,1.18.92h4.53v2.63Z"/>
      <path class="cls-1" d="M91.45,39.98c-2.19,0-3.96-1.78-3.96-3.96s1.78-3.96,3.96-3.96,3.96,1.78,3.96,3.96-1.78,3.96-3.96,3.96ZM91.45,34.69c-.73,0-1.33.6-1.33,1.33s.6,1.33,1.33,1.33,1.33-.6,1.33-1.33-.6-1.33-1.33-1.33Z"/>
      <rect class="cls-1" x="90.13" y="38.66" width="2.63" height="25.67"/>
      <path class="cls-1" d="M117.28,49.33c-2.03,0-3.68-1.65-3.68-3.68s1.65-3.68,3.68-3.68,3.68,1.65,3.68,3.68-1.65,3.68-3.68,3.68ZM117.28,44.6c-.58,0-1.05.47-1.05,1.05s.47,1.05,1.05,1.05,1.05-.47,1.05-1.05-.47-1.05-1.05-1.05Z"/>
      <path class="cls-1" d="M122.02,41.44c-1.55-1.55-3.16-2.3-4.82-2.29-2.68.06-4.68,2.22-4.7,2.24l-1.96-1.76c.11-.12,2.75-3.01,6.56-3.11,2.41-.06,4.68.97,6.77,3.06l-1.86,1.86Z"/>
      <path class="cls-1" d="M125.58,37.76c-8.48-7.82-16.52-.34-16.86-.02l-1.83-1.9c.1-.1,10.14-9.54,20.47-.02l-1.79,1.94Z"/>
      <path class="cls-1" d="M100.46,94.21l-1.43-2.21c2.17-1.41,3.47-3.79,3.47-6.37,0-4.18-3.4-7.59-7.59-7.59s-7.59,3.4-7.59,7.59c0,2.58,1.3,4.96,3.47,6.37l-1.43,2.21c-2.93-1.9-4.67-5.1-4.67-8.58,0-5.64,4.59-10.22,10.22-10.22s10.22,4.59,10.22,10.22c0,3.48-1.75,6.68-4.67,8.58Z"/>
      <path class="cls-1" d="M147.19,94.06l-1.52-2.15c2.03-1.42,3.24-3.75,3.24-6.21,0-4.19-3.4-7.59-7.59-7.59s-7.59,3.4-7.59,7.59c0,2.46,1.21,4.79,3.24,6.21l-1.52,2.15c-2.73-1.92-4.35-5.04-4.35-8.36,0-5.64,4.59-10.22,10.22-10.22s10.22,4.59,10.22,10.22c0,3.32-1.63,6.45-4.35,8.36Z"/>
    </g>
  </g>
  <rect class="cls-1" x="40.43" y="92.44" width="2.63" height="48.27"/>
  <g>
    <g>
      <path class="cls-1" d="M191.17,80.82h-14.41c-2.09,0-3.78-1.7-3.78-3.78v-8.28c0-2.09,1.7-3.78,3.78-3.78h14.41c2.09,0,3.78,1.7,3.78,3.78v8.28c0,2.09-1.7,3.78-3.78,3.78ZM176.76,67.61c-.63,0-1.15.52-1.15,1.15v8.28c0,.63.52,1.15,1.15,1.15h14.41c.63,0,1.15-.52,1.15-1.15v-8.28c0-.63-.52-1.15-1.15-1.15h-14.41Z"/>
      <path class="cls-1" d="M179.11,66.51h-2.63v-5.44c0-.9.14-4,2.25-6.12,1.26-1.27,2.95-1.91,5.01-1.91,5.76,0,7.69,5.1,7.9,7.8l-2.63.21,1.31-.1-1.31.11c-.05-.55-.6-5.38-5.27-5.38-1.35,0-2.38.37-3.14,1.14-1.45,1.46-1.48,3.96-1.48,4.24v5.46Z"/>
      <path class="cls-1" d="M183.97,75.68c-1.49,0-2.7-1.21-2.7-2.7s1.21-2.7,2.7-2.7,2.7,1.21,2.7,2.7-1.21,2.7-2.7,2.7ZM184.03,72.98l-.06.06s.06-.03.06-.06Z"/>
    </g>
    <path class="cls-1" d="M188.76,94.02l-1.15-2.37c3.78-1.85,10.58-5.3,13.59-7.73,3.21-2.59,3.72-6.84,3.75-9.15,0-.09,0-.18.02-.26h0c.03-.69-.14-13.38-.27-22.54h-.06c-8.43,0-17.66-4.82-20.14-6.21-2.47,1.38-11.7,6.21-20.14,6.21h-.06c-.13,9.16-.29,21.85-.27,22.54h0c0,.08.02.17.02.26.02,2.31.53,6.57,3.75,9.15,3.01,2.43,9.8,5.88,13.58,7.72l-1.15,2.37c-4.74-2.31-11.03-5.58-14.08-8.04-3.01-2.42-4.69-6.39-4.73-11.18h.11c-.16-1.47-.09-6.26.17-24.21l.02-1.39,1.39.1c9.15.64,20.56-6.09,20.68-6.15l.29-.17.72-.03.44.2c.12.07,11.53,6.8,20.68,6.15l1.39-.1.02,1.39c.25,17.54.32,22.51.18,24.09h.1c-.04,4.91-1.72,8.88-4.73,11.3-3.05,2.46-9.35,5.73-14.09,8.04Z"/>
  </g>
  <rect class="cls-1" x="557.53" y="99.51" width="2.63" height="58.49"/>
  <rect class="cls-1" x="513.27" y="91.63" width="45.48" height="2.63"/>
  <rect class="cls-1" x="146.14" y="91.6" width="34.99" height="2.63"/>
  <polygon class="cls-1" points="126.4 230.65 57.87 230.65 57.87 212.65 48.75 203.54 48.75 122.6 51.38 122.6 51.38 202.44 60.5 211.56 60.5 228.02 126.4 228.02 126.4 230.65"/>
  <polygon class="cls-1" points="535.73 211.77 533.1 211.77 533.1 180.83 544.58 169.34 544.58 130.71 547.22 130.71 547.22 170.43 535.73 181.92 535.73 211.77"/>
  <polygon class="cls-1" points="235.16 242.14 40.43 242.14 40.43 199.61 43.06 199.61 43.06 239.5 235.16 239.5 235.16 242.14"/>
  <polygon class="cls-1" points="560.17 239.43 419.03 239.43 405.18 225.59 262.85 225.59 262.85 222.95 406.27 222.95 420.12 236.8 557.53 236.8 557.53 175.16 560.17 175.16 560.17 239.43"/>
  <path class="cls-1" d="M259.73,228.54c-2.35,0-4.26-1.91-4.26-4.26s1.91-4.26,4.26-4.26,4.26,1.91,4.26,4.26-1.91,4.26-4.26,4.26ZM259.73,222.65c-.9,0-1.63.73-1.63,1.63s.73,1.63,1.63,1.63,1.63-.73,1.63-1.63-.73-1.63-1.63-1.63Z"/>
  <path class="cls-1" d="M129.4,233.84c-2.35,0-4.26-1.91-4.26-4.26s1.91-4.26,4.26-4.26,4.26,1.91,4.26,4.26-1.91,4.26-4.26,4.26ZM129.4,227.95c-.9,0-1.63.73-1.63,1.63s.73,1.63,1.63,1.63,1.63-.73,1.63-1.63-.73-1.63-1.63-1.63Z"/>
  <path class="cls-1" d="M50.06,123.92c-2.35,0-4.26-1.91-4.26-4.26s1.91-4.26,4.26-4.26,4.26,1.91,4.26,4.26-1.91,4.26-4.26,4.26ZM50.06,118.03c-.9,0-1.63.73-1.63,1.63s.73,1.63,1.63,1.63,1.63-.73,1.63-1.63-.73-1.63-1.63-1.63Z"/>
  <path class="cls-1" d="M546.21,132.41c-2.35,0-4.26-1.91-4.26-4.26s1.91-4.26,4.26-4.26,4.26,1.91,4.26,4.26-1.91,4.26-4.26,4.26ZM546.21,126.52c-.9,0-1.63.73-1.63,1.63s.73,1.63,1.63,1.63,1.63-.73,1.63-1.63-.73-1.63-1.63-1.63Z"/>
  <path class="cls-1" d="M534.31,219.33c-2.35,0-4.26-1.91-4.26-4.26s1.91-4.26,4.26-4.26,4.26,1.91,4.26,4.26-1.91,4.26-4.26,4.26ZM534.31,213.44c-.9,0-1.63.73-1.63,1.63s.73,1.63,1.63,1.63,1.63-.73,1.63-1.63-.73-1.63-1.63-1.63Z"/>
  <path class="cls-1" d="M559.16,176.22c-2.35,0-4.26-1.91-4.26-4.26s1.91-4.26,4.26-4.26,4.26,1.91,4.26,4.26-1.91,4.26-4.26,4.26ZM559.16,170.33c-.9,0-1.63.73-1.63,1.63s.73,1.63,1.63,1.63,1.63-.73,1.63-1.63-.73-1.63-1.63-1.63Z"/>
  <path class="cls-1" d="M41.98,200.93c-2.35,0-4.26-1.91-4.26-4.26s1.91-4.26,4.26-4.26,4.26,1.91,4.26,4.26-1.91,4.26-4.26,4.26ZM41.98,195.04c-.9,0-1.63.73-1.63,1.63s.73,1.63,1.63,1.63,1.63-.73,1.63-1.63-.73-1.63-1.63-1.63Z"/>
  <path class="cls-1" d="M41.86,148.1c-2.35,0-4.26-1.91-4.26-4.26s1.91-4.26,4.26-4.26,4.26,1.91,4.26,4.26-1.91,4.26-4.26,4.26ZM41.86,142.21c-.9,0-1.63.73-1.63,1.63s.73,1.63,1.63,1.63,1.63-.73,1.63-1.63-.73-1.63-1.63-1.63Z"/>
  <polygon class="cls-1" points="353.07 236.39 301.49 236.39 301.49 233.76 351.98 233.76 362.77 222.96 364.63 224.83 353.07 236.39"/>
  <path class="cls-1" d="M299.22,239.15c-2.35,0-4.26-1.91-4.26-4.26s1.91-4.26,4.26-4.26,4.26,1.91,4.26,4.26-1.91,4.26-4.26,4.26ZM299.22,233.25c-.9,0-1.63.73-1.63,1.63s.73,1.63,1.63,1.63,1.63-.73,1.63-1.63-.73-1.63-1.63-1.63Z"/>
  <path class="cls-1" d="M558.95,165.13c-2.35,0-4.26-1.91-4.26-4.26s1.91-4.26,4.26-4.26,4.26,1.91,4.26,4.26-1.91,4.26-4.26,4.26ZM558.95,159.24c-.9,0-1.63.73-1.63,1.63s.73,1.63,1.63,1.63,1.63-.73,1.63-1.63-.73-1.63-1.63-1.63Z"/>
  <path class="cls-1" d="M237.81,244.82c-2.35,0-4.26-1.91-4.26-4.26s1.91-4.26,4.26-4.26,4.26,1.91,4.26,4.26-1.91,4.26-4.26,4.26ZM237.81,238.93c-.9,0-1.63.73-1.63,1.63s.73,1.63,1.63,1.63,1.63-.73,1.63-1.63-.73-1.63-1.63-1.63Z"/>
  <polygon class="cls-1" points="50.46 174.87 48.6 173.01 65.11 156.49 65.11 130.9 67.75 130.9 67.75 157.58 50.46 174.87"/>
  <path class="cls-1" d="M66.43,132.73c-2.35,0-4.26-1.91-4.26-4.26s1.91-4.26,4.26-4.26,4.26,1.91,4.26,4.26-1.91,4.26-4.26,4.26ZM66.43,126.84c-.9,0-1.63.73-1.63,1.63s.73,1.63,1.63,1.63,1.63-.73,1.63-1.63-.73-1.63-1.63-1.63Z"/>
  <polygon class="cls-1" points="470.55 255.48 423.7 255.48 423.7 252.84 469.46 252.84 485.01 237.3 486.87 239.16 470.55 255.48"/>
  <path class="cls-1" d="M421.01,258.23c-.12,0-.24,0-.36-.01-1.13-.09-2.17-.62-2.9-1.49-.74-.87-1.09-1.97-1-3.11.19-2.34,2.27-4.09,4.6-3.9,2.34.19,4.09,2.25,3.9,4.6-.09,1.13-.62,2.17-1.49,2.9-.78.66-1.74,1.01-2.75,1.01ZM421.01,252.34c-.39,0-.75.14-1.05.39-.33.28-.53.68-.57,1.11s.1.85.38,1.19c.28.33.67.53,1.11.57.43.04.85-.1,1.19-.38.33-.28.53-.67.57-1.11h0c.04-.43-.1-.85-.38-1.19-.28-.33-.68-.53-1.11-.57-.05,0-.09,0-.14,0Z"/>
  <rect class="cls-1" x="142.08" y="247.07" width="21.51" height="2.63" transform="translate(-130.87 180.82) rotate(-45)"/>
  <path class="cls-1" d="M144.19,262.53c-2.35,0-4.26-1.91-4.26-4.26s1.91-4.26,4.26-4.26,4.26,1.91,4.26,4.26-1.91,4.26-4.26,4.26ZM144.19,256.64c-.9,0-1.63.73-1.63,1.63s.73,1.63,1.63,1.63,1.63-.73,1.63-1.63-.73-1.63-1.63-1.63Z"/>
  <g>
    <g>
      <path class="cls-1" d="M357.37,59.3h-51.96c-2.63,0-4.76-2.14-4.76-4.76v-7.17c0-2.63,2.14-4.76,4.76-4.76h51.96c2.63,0,4.76,2.14,4.76,4.76v7.17c0,2.63-2.14,4.76-4.76,4.76ZM305.41,45.24c-1.17,0-2.13.95-2.13,2.13v7.17c0,1.17.95,2.13,2.13,2.13h51.96c1.17,0,2.13-.95,2.13-2.13v-7.17c0-1.17-.95-2.13-2.13-2.13h-51.96Z"/>
      <path class="cls-1" d="M313.26,54.06h-4.8c-1.46,0-2.64-1.18-2.64-2.64v-1.24c0-1.46,1.18-2.64,2.64-2.64h4.8c1.46,0,2.64,1.18,2.64,2.64v1.24c0,1.46-1.18,2.64-2.64,2.64ZM308.46,50.18v1.24s4.81,0,4.81,0v-1.24s-4.81,0-4.81,0Z"/>
      <rect class="cls-1" x="337.05" y="48.2" width="15.21" height="2.63"/>
      <rect class="cls-1" x="337.05" y="51.14" width="15.21" height="2.63"/>
    </g>
    <g>
      <path class="cls-1" d="M357.37,73.36h-51.96c-2.63,0-4.76-2.14-4.76-4.76v-7.17c0-2.63,2.14-4.76,4.76-4.76h51.96c2.63,0,4.76,2.14,4.76,4.76v7.17c0,2.63-2.14,4.76-4.76,4.76ZM305.41,59.3c-1.17,0-2.13.95-2.13,2.13v7.17c0,1.17.95,2.13,2.13,2.13h51.96c1.17,0,2.13-.95,2.13-2.13v-7.17c0-1.17-.95-2.13-2.13-2.13h-51.96Z"/>
      <path class="cls-1" d="M313.26,68.12h-4.8c-1.46,0-2.64-1.18-2.64-2.64v-1.24c0-1.46,1.18-2.64,2.64-2.64h4.8c1.46,0,2.64,1.18,2.64,2.64v1.24c0,1.46-1.18,2.64-2.64,2.64ZM308.46,64.23v1.24s4.81,0,4.81,0v-1.24s-4.81,0-4.81,0Z"/>
      <rect class="cls-1" x="337.05" y="62.26" width="15.21" height="2.63"/>
      <rect class="cls-1" x="337.05" y="65.2" width="15.21" height="2.63"/>
    </g>
    <g>
      <path class="cls-1" d="M357.37,87.42h-51.96c-2.63,0-4.76-2.14-4.76-4.76v-7.17c0-2.63,2.14-4.76,4.76-4.76h51.96c2.63,0,4.76,2.14,4.76,4.76v7.17c0,2.63-2.14,4.76-4.76,4.76ZM305.41,73.36c-1.17,0-2.13.95-2.13,2.13v7.17c0,1.17.95,2.13,2.13,2.13h51.96c1.17,0,2.13-.95,2.13-2.13v-7.17c0-1.17-.95-2.13-2.13-2.13h-51.96Z"/>
      <path class="cls-1" d="M313.26,82.17h-4.8c-1.46,0-2.64-1.18-2.64-2.64v-1.24c0-1.46,1.18-2.64,2.64-2.64h4.8c1.46,0,2.64,1.18,2.64,2.64v1.24c0,1.46-1.18,2.64-2.64,2.64ZM308.46,78.29v1.24s4.81,0,4.81,0v-1.24s-4.81,0-4.81,0Z"/>
      <rect class="cls-1" x="337.05" y="76.32" width="15.21" height="2.63"/>
      <rect class="cls-1" x="337.05" y="79.26" width="15.21" height="2.63"/>
    </g>
    <rect class="cls-1" x="330.06" y="86" width="2.63" height="3.98"/>
    <rect class="cls-1" x="306.19" y="91.22" width="22.56" height="2.63"/>
    <path class="cls-1" d="M304.56,95.99c-1.9,0-3.45-1.55-3.45-3.45s1.55-3.45,3.45-3.45,3.45,1.55,3.45,3.45-1.55,3.45-3.45,3.45ZM304.56,91.72c-.45,0-.82.37-.82.82s.37.82.82.82.82-.37.82-.82-.37-.82-.82-.82Z"/>
    <path class="cls-1" d="M358.31,95.94c-1.88,0-3.4-1.53-3.4-3.4s1.53-3.4,3.4-3.4,3.4,1.53,3.4,3.4-1.53,3.4-3.4,3.4ZM358.31,91.77c-.42,0-.77.35-.77.77s.35.77.77.77.77-.35.77-.77-.35-.77-.77-.77Z"/>
    <path class="cls-1" d="M331.43,96.43c-2.03,0-3.69-1.65-3.69-3.69s1.65-3.69,3.69-3.69,3.69,1.65,3.69,3.69-1.65,3.69-3.69,3.69ZM331.43,91.69c-.58,0-1.05.47-1.05,1.05s.47,1.05,1.05,1.05,1.05-.47,1.05-1.05-.47-1.05-1.05-1.05Z"/>
  </g>
  <rect class="cls-1" x="333.65" y="90.99" width="22.56" height="2.63"/>
</svg>